<?xml version="1.0" encoding="utf-8"?>
<!-- Generator: Adobe Illustrator 16.0.0, SVG Export Plug-In . SVG Version: 6.00 Build 0)  -->
<!DOCTYPE svg PUBLIC "-//W3C//DTD SVG 1.1//EN" "http://www.w3.org/Graphics/SVG/1.1/DTD/svg11.dtd">
<svg version="1.1" id="Layer_1" xmlns="http://www.w3.org/2000/svg" xmlns:xlink="http://www.w3.org/1999/xlink" x="0px" y="0px"
	 width="600px" height="300px" viewBox="0 0 600 300" enable-background="new 0 0 600 300" xml:space="preserve">
<g>
	<path fill="#24743A" d="M365.07,177.401c0,0,1.889,16.23,12.769,22.14c13.832,7.508,29.893,6.03,29.893,6.03L365.07,177.401z"/>
	<path fill="#9C352A" d="M379.717,107.773c0,0,22.056-17.457,47.092-16.447c9.848,0.396,27.841,10.677,35.833,16.447
		c20.974,15.144,21.171,22.447,21.31,31.75c0.336,22.354-11.661,40.24-11.661,40.24L379.717,107.773z"/>
	<path fill="#24743A" d="M452.993,198.806l19.297-23.788c0,0-2.17,14.488-5.3,17.973
		C464.458,195.811,452.993,198.806,452.993,198.806z"/>
	<path fill="#1E416C" d="M407.732,205.571c0,0,11.859,8.145,27.393,5.477c11.569-1.987,20.034-12.971,20.034-12.971L407.732,205.571
		z"/>
	<path fill="#1E416C" d="M377.918,104.192c0,0-10.229,7.297-12.754,10.581c-12.201,15.873-14.912,43.705-14.912,43.705l4.049,11.371
		l10.77,7.552l15.776-70.09l-0.567-2.362L377.918,104.192z"/>
	<g>
		<path fill="#39BA9D" d="M438.687,209.807c-7.938,2.689-19.124,0.641-30.954-4.235c-8.748-0.349-22.775-1.979-30.758-6.535
			c-8.482-4.84-11.703-20.333-11.904-21.635c-6.551-6.319-11.789-12.847-14.818-18.923c-2.325,16.562-0.984,32.705,6.354,39.613
			c19.513,18.364,90.289,20.799,107.183,0c1.17-1.441,2.235-3.161,3.201-5.102c-3.568,1.893-7.557,3.592-11.833,5.087
			C449.596,203.785,443.883,208.049,438.687,209.807z"/>
		<path fill="#F89A50" d="M467.285,97.133c-7.841-6.763-23.75-8.039-40.477-5.807c24.982,8.656,54.656,29.85,56.807,47.191
			c1.163,9.385-3.752,23.348-11.325,36.5c-1.127,6.894-2.894,13.134-5.3,17.972c6.817-3.617,12.092-7.934,14.836-12.854
			C492.088,161.735,483.236,110.893,467.285,97.133z"/>
		<path fill="#9A5AA2" d="M368.384,113.826c3.003-2.613,7.245-4.866,12.291-6.723c11.049-7.531,29.015-13.492,46.134-15.777
			c-9.115-3.16-17.607-4.65-23.908-3.674c-21.02,3.255-60.224,44.418-54.893,65.009c0.485,1.873,1.25,3.82,2.244,5.817
			C352.834,140.083,359.94,121.172,368.384,113.826z"/>
		<path fill="#1B271A" d="M463.789,113.826c-12.582-15.383-57.924-15.998-83.114-6.723c-3.024,2.061-5.536,4.238-7.364,6.493
			c-9.26,11.419-12.803,42.09-8.24,63.805c11.755,11.345,27.721,22.014,42.661,28.17c15.494,0.206,33.062-2.478,47.428-7.493
			c6.207-6.371,12.226-14.546,17.131-23.061C475.833,153.302,473.021,125.109,463.789,113.826z"/>
	</g>
	<g>
		<path fill="#7E8C8D" d="M140.794,130.244h-19.669c-1.686,0-3.068,0.539-4.145,1.617c-1.079,1.078-1.616,2.459-1.616,4.144v14.753
			h22.55v1.476h-22.55v24.938h-1.756v-41.307c0-2.06,0.678-3.769,2.037-5.128c1.357-1.356,3.067-2.036,5.128-2.036
			c8.945,0,15.666,0.094,20.161,0.281L140.794,130.244z"/>
		<path fill="#7E8C8D" d="M178.307,175.625l0.14,1.265c-4.59,0.188-11.474,0.281-20.653,0.281c-2.062,0-3.771-0.679-5.128-2.037
			c-1.359-1.356-2.037-3.066-2.037-5.127v-34.143c0-2.06,0.678-3.769,2.037-5.128c1.359-1.356,3.066-2.036,5.128-2.036
			c9.179,0,16.062,0.094,20.653,0.281l-0.14,1.263h-20.162c-1.685,0-3.067,0.539-4.144,1.617c-1.077,1.078-1.617,2.459-1.617,4.144
			v14.472h23.044v1.474h-23.044v17.913c0,1.688,0.54,3.068,1.617,4.147c1.076,1.076,2.459,1.614,4.144,1.614H178.307
			L178.307,175.625z"/>
		<path fill="#7E8C8D" d="M230.219,128.7h2.951c0.703,0,1.054,0.351,1.054,1.053l2.108,47.418h-1.757l-2.106-46.927h-1.687
			l-15.877,42.08c-0.141,0.42-0.445,0.633-0.914,0.633h-2.95c-0.469,0-0.773-0.213-0.913-0.633l-15.877-42.078h-1.688l-2.105,46.925
			h-1.757l2.108-47.416c0-0.704,0.351-1.055,1.054-1.055h2.951c0.468,0,0.772,0.211,0.913,0.633l13.417,35.475
			c0.281,0.751,0.69,1.851,1.229,3.303c0.539,1.452,0.95,2.552,1.231,3.3h1.826l2.527-6.744l13.348-35.333
			C229.447,128.91,229.751,128.7,230.219,128.7z"/>
		<path fill="#7E8C8D" d="M282.482,128.7v30.558c0,6.791-1.252,11.614-3.758,14.472c-2.506,2.854-6.756,4.285-12.749,4.285
			c-6.042,0-10.316-1.431-12.82-4.285c-2.507-2.857-3.758-7.681-3.758-14.472V128.7h1.756v30.558c0,6.275,1.112,10.7,3.337,13.276
			c2.224,2.575,6.053,3.864,11.485,3.864c5.385,0,9.189-1.288,11.416-3.864c2.224-2.575,3.336-7.001,3.336-13.276V128.7H282.482z"/>
		<path fill="#7E8C8D" d="M327.371,149.072v28.099h-1.194l-0.422-6.253c-4.401,4.731-9.412,7.097-15.031,7.097
			c-5.715,0-9.812-1.968-12.295-5.901c-2.481-3.935-3.723-10.326-3.723-19.18c0-9.271,1.346-15.77,4.04-19.493
			c2.692-3.724,7.385-5.583,14.083-5.583c5.246,0,9.835,0.396,13.77,1.193l-0.422,1.265c-3.934-0.562-8.383-0.843-13.347-0.843
			c-6.087,0-10.325,1.732-12.714,5.198c-2.389,3.467-3.584,9.555-3.584,18.265c0,8.289,1.101,14.272,3.303,17.947
			c2.2,3.677,5.877,5.516,11.029,5.516c1.641,0,3.161-0.187,4.566-0.562c1.406-0.374,2.775-0.982,4.109-1.825
			s2.354-1.547,3.057-2.107c0.701-0.562,1.708-1.428,3.02-2.599v-20.232H327.371L327.371,149.072z"/>
	</g>
	<g>
		<path fill="#FFFFFF" d="M401.465,155.821l-10.325-2.178c-3.419-0.703-5.854-2.096-7.306-4.18
			c-1.453-2.084-2.178-5.069-2.178-8.957c0-2.811,0.281-5.069,0.842-6.779c0.562-1.709,1.547-2.985,2.951-3.828
			c1.405-0.844,2.951-1.394,4.637-1.652c1.686-0.256,3.98-0.359,6.884-0.314c5.2,0,9.858,0.374,13.98,1.123l-0.353,3.372
			c-5.525-0.28-10-0.422-13.416-0.422c-2.297,0-3.982,0.06-5.06,0.176s-2.142,0.457-3.195,1.018c-1.054,0.562-1.756,1.43-2.106,2.6
			c-0.354,1.173-0.528,2.788-0.528,4.848c0,2.903,0.503,4.998,1.509,6.289c1.008,1.288,2.729,2.163,5.164,2.633l10.117,2.107
			c3.605,0.702,6.146,2.096,7.621,4.18c1.476,2.086,2.213,5.117,2.213,9.097c0,2.811-0.306,5.083-0.914,6.813
			c-0.608,1.733-1.613,3.046-3.02,3.936c-1.406,0.888-3,1.485-4.777,1.789c-1.781,0.306-4.122,0.458-7.025,0.458
			c-5.338,0-10.258-0.352-14.752-1.055l0.281-3.442c5.805,0.28,10.678,0.424,14.611,0.424c4.261-0.049,7.141-0.633,8.64-1.756
			c1.499-1.125,2.248-3.536,2.248-7.236c0-3.043-0.504-5.198-1.511-6.464C405.691,157.155,403.947,156.289,401.465,155.821z"/>
		<path fill="#FFFFFF" d="M423.312,177.177v-48.473c3.887-0.373,9.297-0.562,16.227-0.562c5.665,0,9.588,1.043,11.768,3.126
			c2.178,2.084,3.266,5.982,3.266,11.697c0,5.714-1.065,9.612-3.195,11.696c-2.132,2.084-5.912,3.123-11.346,3.123
			c-4.072,0-8.126-0.184-12.15-0.56v19.951H423.312z M427.879,153.783h11.59c3.936-0.046,6.649-0.809,8.15-2.283
			c1.498-1.476,2.246-4.32,2.246-8.534c0-4.262-0.748-7.142-2.246-8.642c-1.501-1.498-4.215-2.248-8.15-2.248
			c-3.98,0-7.843,0.047-11.59,0.142V153.783z"/>
	</g>
</g>
</svg>
