<?xml version="1.0" encoding="utf-8"?>
<!-- Generator: Adobe Illustrator 16.0.0, SVG Export Plug-In . SVG Version: 6.00 Build 0)  -->
<!DOCTYPE svg PUBLIC "-//W3C//DTD SVG 1.1//EN" "http://www.w3.org/Graphics/SVG/1.1/DTD/svg11.dtd">
<svg version="1.1" id="Layer_1" xmlns="http://www.w3.org/2000/svg" xmlns:xlink="http://www.w3.org/1999/xlink" x="0px" y="0px"
	 width="600px" height="300px" viewBox="0 0 600 300" enable-background="new 0 0 600 300" xml:space="preserve">
<g>
	<path fill="#24743A" d="M365.148,177.401c0,0,1.891,16.23,12.771,22.14c13.834,7.508,29.892,6.03,29.892,6.03L365.148,177.401z"/>
	<path fill="#9C352A" d="M379.797,107.773c0,0,22.055-17.457,47.091-16.447c9.85,0.396,27.843,10.677,35.835,16.447
		c20.975,15.144,21.17,22.447,21.309,31.75c0.335,22.354-11.661,40.24-11.661,40.24L379.797,107.773z"/>
	<path fill="#24743A" d="M453.074,198.806l19.296-23.788c0,0-2.171,14.488-5.3,17.973
		C464.539,195.811,453.074,198.806,453.074,198.806z"/>
	<path fill="#1E416C" d="M407.812,205.571c0,0,11.861,8.145,27.395,5.477c11.569-1.987,20.032-12.971,20.032-12.971L407.812,205.571
		z"/>
	<path fill="#1E416C" d="M377.998,104.192c0,0-10.229,7.297-12.752,10.581c-12.203,15.873-14.914,43.705-14.914,43.705l4.049,11.371
		l10.768,7.552l15.779-70.09l-0.567-2.362L377.998,104.192z"/>
	<g>
		<path fill="#39BA9D" d="M438.768,209.807c-7.939,2.689-19.125,0.641-30.956-4.235c-8.746-0.349-22.774-1.979-30.757-6.535
			c-8.482-4.84-11.703-20.333-11.906-21.635c-6.547-6.319-11.786-12.847-14.816-18.923c-2.325,16.562-0.984,32.705,6.355,39.613
			c19.512,18.364,90.287,20.799,107.182,0c1.17-1.441,2.236-3.161,3.201-5.102c-3.568,1.893-7.557,3.592-11.832,5.087
			C449.677,203.785,443.963,208.049,438.768,209.807z"/>
		<path fill="#F89A50" d="M467.365,97.133c-7.84-6.763-23.75-8.039-40.478-5.807c24.982,8.656,54.659,29.85,56.81,47.191
			c1.162,9.385-3.754,23.348-11.327,36.5c-1.125,6.894-2.894,13.134-5.3,17.972c6.817-3.617,12.094-7.934,14.837-12.854
			C492.168,161.735,483.317,110.893,467.365,97.133z"/>
		<path fill="#9A5AA2" d="M368.465,113.826c3.003-2.613,7.244-4.866,12.29-6.723c11.05-7.531,29.015-13.492,46.133-15.777
			c-9.113-3.16-17.604-4.65-23.906-3.674c-21.02,3.255-60.226,44.418-54.893,65.009c0.484,1.873,1.249,3.82,2.243,5.817
			C352.915,140.083,360.021,121.172,368.465,113.826z"/>
		<path fill="#1B271A" d="M463.87,113.826c-12.582-15.383-57.925-15.998-83.115-6.723c-3.024,2.061-5.536,4.238-7.362,6.493
			c-9.261,11.419-12.805,42.09-8.244,63.805c11.758,11.345,27.724,22.014,42.663,28.17c15.495,0.206,33.063-2.478,47.427-7.493
			c6.209-6.371,12.227-14.546,17.132-23.061C475.914,153.302,473.101,125.109,463.87,113.826z"/>
	</g>
	<g>
		<path fill="#FFFFFF" d="M140.874,130.244h-19.668c-1.686,0-3.068,0.539-4.145,1.617c-1.079,1.078-1.616,2.459-1.616,4.144v14.753
			h22.548v1.476h-22.548v24.938h-1.756v-41.307c0-2.06,0.678-3.769,2.037-5.128c1.358-1.356,3.067-2.036,5.128-2.036
			c8.944,0,15.666,0.094,20.161,0.281L140.874,130.244z"/>
		<path fill="#FFFFFF" d="M178.387,175.625l0.142,1.265c-4.591,0.188-11.475,0.281-20.653,0.281c-2.061,0-3.771-0.679-5.128-2.037
			c-1.358-1.356-2.038-3.066-2.038-5.127v-34.143c0-2.06,0.679-3.769,2.038-5.128c1.359-1.356,3.067-2.036,5.128-2.036
			c9.179,0,16.062,0.094,20.653,0.281l-0.142,1.263h-20.162c-1.685,0-3.067,0.539-4.144,1.617c-1.077,1.078-1.617,2.459-1.617,4.144
			v14.472h23.044v1.474h-23.044v17.913c0,1.688,0.54,3.068,1.617,4.147c1.077,1.076,2.458,1.614,4.144,1.614H178.387
			L178.387,175.625z"/>
		<path fill="#FFFFFF" d="M230.3,128.7h2.95c0.704,0,1.055,0.351,1.055,1.053l2.108,47.418h-1.757l-2.107-46.927h-1.687
			l-15.877,42.08c-0.14,0.42-0.445,0.633-0.912,0.633h-2.951c-0.469,0-0.772-0.213-0.913-0.633l-15.876-42.078h-1.687l-2.107,46.925
			h-1.756l2.106-47.416c0-0.704,0.353-1.055,1.055-1.055h2.951c0.468,0,0.772,0.211,0.914,0.633l13.417,35.475
			c0.281,0.751,0.69,1.851,1.229,3.303c0.539,1.452,0.95,2.552,1.231,3.3h1.826l2.527-6.744l13.347-35.333
			C229.528,128.91,229.832,128.7,230.3,128.7z"/>
		<path fill="#FFFFFF" d="M282.562,128.7v30.558c0,6.791-1.251,11.614-3.757,14.472c-2.507,2.854-6.755,4.285-12.749,4.285
			c-6.041,0-10.315-1.431-12.822-4.285c-2.505-2.857-3.756-7.681-3.756-14.472V128.7h1.755v30.558c0,6.275,1.112,10.7,3.336,13.276
			c2.224,2.575,6.054,3.864,11.486,3.864c5.385,0,9.189-1.288,11.415-3.864c2.225-2.575,3.337-7.001,3.337-13.276V128.7H282.562z"/>
		<path fill="#FFFFFF" d="M327.451,149.072v28.099h-1.195l-0.42-6.253c-4.402,4.731-9.413,7.097-15.031,7.097
			c-5.715,0-9.813-1.968-12.294-5.901c-2.483-3.935-3.725-10.326-3.725-19.18c0-9.271,1.348-15.77,4.041-19.493
			c2.691-3.724,7.385-5.583,14.082-5.583c5.247,0,9.836,0.396,13.77,1.193l-0.422,1.265c-3.933-0.562-8.383-0.843-13.346-0.843
			c-6.088,0-10.326,1.732-12.714,5.198c-2.388,3.467-3.583,9.555-3.583,18.265c0,8.289,1.1,14.272,3.301,17.947
			c2.201,3.677,5.878,5.516,11.03,5.516c1.64,0,3.161-0.187,4.565-0.562c1.406-0.374,2.775-0.982,4.109-1.825
			s2.354-1.547,3.058-2.107c0.7-0.562,1.708-1.428,3.021-2.599v-20.232H327.451L327.451,149.072z"/>
	</g>
	<g>
		<path fill="#FFFFFF" d="M401.547,155.821l-10.328-2.178c-3.418-0.703-5.854-2.096-7.307-4.18
			c-1.449-2.084-2.175-5.069-2.175-8.957c0-2.811,0.279-5.069,0.841-6.779c0.562-1.709,1.547-2.985,2.951-3.828
			c1.406-0.844,2.952-1.394,4.637-1.652c1.688-0.256,3.98-0.359,6.886-0.314c5.198,0,9.858,0.374,13.978,1.123l-0.352,3.372
			c-5.525-0.28-9.997-0.422-13.416-0.422c-2.297,0-3.98,0.06-5.061,0.176c-1.077,0.116-2.141,0.457-3.193,1.018
			c-1.055,0.562-1.756,1.43-2.106,2.6c-0.354,1.173-0.528,2.788-0.528,4.848c0,2.903,0.502,4.998,1.51,6.289
			c1.007,1.288,2.729,2.163,5.164,2.633l10.116,2.107c3.604,0.702,6.146,2.096,7.62,4.18c1.477,2.086,2.213,5.117,2.213,9.097
			c0,2.811-0.305,5.083-0.914,6.813c-0.608,1.733-1.615,3.046-3.02,3.936c-1.406,0.888-2.998,1.485-4.777,1.789
			c-1.779,0.306-4.121,0.458-7.025,0.458c-5.338,0-10.258-0.352-14.752-1.055l0.281-3.442c5.807,0.28,10.679,0.424,14.611,0.424
			c4.262-0.049,7.141-0.633,8.64-1.756c1.5-1.125,2.248-3.536,2.248-7.236c0-3.043-0.503-5.198-1.511-6.464
			C405.771,157.155,404.029,156.289,401.547,155.821z"/>
		<path fill="#FFFFFF" d="M423.394,177.177v-48.473c3.887-0.373,9.296-0.562,16.228-0.562c5.662,0,9.588,1.043,11.766,3.126
			c2.178,2.084,3.266,5.982,3.266,11.697c0,5.714-1.065,9.612-3.195,11.696c-2.132,2.084-5.912,3.123-11.345,3.123
			c-4.073,0-8.127-0.184-12.151-0.56v19.951H423.394z M427.959,153.783h11.592c3.934-0.046,6.648-0.809,8.148-2.283
			c1.498-1.476,2.246-4.32,2.246-8.534c0-4.262-0.748-7.142-2.246-8.642c-1.501-1.498-4.215-2.248-8.148-2.248
			c-3.982,0-7.845,0.047-11.592,0.142V153.783z"/>
	</g>
</g>
</svg>
