<?xml version="1.0" encoding="utf-8"?>
<!-- Generator: Adobe Illustrator 16.0.0, SVG Export Plug-In . SVG Version: 6.00 Build 0)  -->
<!DOCTYPE svg PUBLIC "-//W3C//DTD SVG 1.1//EN" "http://www.w3.org/Graphics/SVG/1.1/DTD/svg11.dtd">
<svg version="1.1" id="Layer_1" xmlns="http://www.w3.org/2000/svg" xmlns:xlink="http://www.w3.org/1999/xlink" x="0px" y="0px"
	 width="600px" height="300px" viewBox="0 0 600 300" enable-background="new 0 0 600 300" xml:space="preserve">
<g>
	<path fill="#B0B0B0" d="M364.961,177.401c0,0,1.887,16.23,12.769,22.14c13.832,7.508,29.893,6.03,29.893,6.03L364.961,177.401z"/>
	<path fill="#BCBCBB" d="M379.606,107.773c0,0,22.057-17.457,47.092-16.447c9.85,0.396,27.84,10.677,35.832,16.447
		c20.977,15.144,21.171,22.447,21.312,31.75c0.334,22.354-11.664,40.24-11.664,40.24L379.606,107.773z"/>
	<path fill="#B0B1B1" d="M452.884,198.806l19.295-23.788c0,0-2.168,14.488-5.299,17.973
		C464.348,195.811,452.884,198.806,452.884,198.806z"/>
	<path fill="#D2D3D3" d="M407.622,205.571c0,0,11.86,8.145,27.392,5.477c11.572-1.987,20.035-12.971,20.035-12.971L407.622,205.571z
		"/>
	<path fill="#D1D2D2" d="M377.807,104.192c0,0-10.228,7.297-12.754,10.581c-12.201,15.873-14.909,43.705-14.909,43.705l4.048,11.371
		l10.77,7.552l15.773-70.09l-0.566-2.362L377.807,104.192z"/>
	<path fill="#6C6D6D" d="M438.577,209.807c-7.938,2.689-19.123,0.641-30.955-4.235c-8.745-0.349-22.774-1.979-30.758-6.535
		c-8.481-4.84-11.701-20.333-11.903-21.635c-6.552-6.319-11.79-12.847-14.817-18.923c-2.326,16.562-0.986,32.705,6.352,39.613
		c19.514,18.364,90.288,20.799,107.184,0c1.171-1.441,2.236-3.161,3.201-5.102c-3.568,1.893-7.557,3.592-11.831,5.087
		C449.486,203.785,443.772,208.049,438.577,209.807z"/>
	<path fill="#606060" d="M467.175,97.133c-7.839-6.763-23.75-8.039-40.477-5.807c24.982,8.656,54.656,29.85,56.809,47.191
		c1.164,9.385-3.755,23.348-11.328,36.5c-1.126,6.894-2.894,13.134-5.299,17.972c6.817-3.617,12.093-7.934,14.837-12.854
		C491.978,161.735,483.128,110.893,467.175,97.133z"/>
	<path fill="#A3A3A2" d="M368.272,113.826c3.005-2.613,7.247-4.866,12.292-6.723c11.049-7.531,29.015-13.492,46.134-15.777
		c-9.116-3.16-17.605-4.65-23.908-3.674c-21.021,3.255-60.224,44.418-54.892,65.009c0.485,1.873,1.249,3.82,2.245,5.817
		C352.724,140.083,359.83,121.172,368.272,113.826z"/>
	<path fill="#FFFFFF" d="M463.681,113.826c-12.584-15.383-57.927-15.998-83.116-6.723c-3.025,2.061-5.536,4.238-7.363,6.493
		c-9.262,11.419-12.805,42.09-8.24,63.805c11.756,11.345,27.72,22.014,42.661,28.17c15.492,0.206,33.063-2.478,47.427-7.493
		c6.208-6.371,12.228-14.546,17.13-23.061C475.724,153.302,472.911,125.109,463.681,113.826z"/>
	<g>
		<path fill="#FFFFFF" d="M140.685,130.244h-19.668c-1.686,0-3.07,0.539-4.149,1.617c-1.074,1.078-1.611,2.459-1.611,4.144v14.753
			h22.547v1.476h-22.547v24.938h-1.759v-41.307c0-2.06,0.68-3.769,2.037-5.128c1.361-1.356,3.067-2.036,5.129-2.036
			c8.944,0,15.666,0.094,20.162,0.281L140.685,130.244z"/>
		<path fill="#FFFFFF" d="M178.196,175.625l0.14,1.265c-4.589,0.188-11.474,0.281-20.652,0.281c-2.06,0-3.771-0.679-5.128-2.037
			c-1.359-1.356-2.035-3.066-2.035-5.127v-34.143c0-2.06,0.676-3.769,2.035-5.128c1.359-1.356,3.068-2.036,5.128-2.036
			c9.179,0,16.063,0.094,20.652,0.281l-0.14,1.263h-20.162c-1.685,0-3.066,0.539-4.143,1.617c-1.078,1.078-1.617,2.459-1.617,4.144
			v14.472h23.043v1.474h-23.043v17.913c0,1.688,0.539,3.068,1.617,4.147c1.076,1.076,2.458,1.614,4.143,1.614H178.196
			L178.196,175.625z"/>
		<path fill="#FFFFFF" d="M230.11,128.7h2.951c0.703,0,1.054,0.351,1.054,1.053l2.105,47.418h-1.756l-2.106-46.927h-1.686
			l-15.878,42.08c-0.143,0.42-0.445,0.633-0.914,0.633h-2.949c-0.47,0-0.773-0.213-0.912-0.633l-15.878-42.078h-1.688l-2.104,46.925
			h-1.756l2.108-47.416c0-0.704,0.348-1.055,1.051-1.055h2.951c0.469,0,0.773,0.211,0.915,0.633l13.416,35.475
			c0.283,0.751,0.691,1.851,1.23,3.303c0.536,1.452,0.947,2.552,1.229,3.3h1.825l2.53-6.744l13.348-35.333
			C229.336,128.91,229.641,128.7,230.11,128.7z"/>
		<path fill="#FFFFFF" d="M282.372,128.7v30.558c0,6.791-1.251,11.614-3.758,14.472c-2.506,2.854-6.756,4.285-12.748,4.285
			c-6.043,0-10.314-1.431-12.822-4.285c-2.506-2.857-3.754-7.681-3.754-14.472V128.7h1.754v30.558c0,6.275,1.111,10.7,3.336,13.276
			c2.225,2.575,6.053,3.864,11.486,3.864c5.384,0,9.187-1.288,11.415-3.864c2.223-2.575,3.334-7.001,3.334-13.276V128.7H282.372z"/>
		<path fill="#FFFFFF" d="M327.261,149.072v28.099h-1.194l-0.423-6.253c-4.398,4.731-9.41,7.097-15.032,7.097
			c-5.713,0-9.812-1.968-12.293-5.901c-2.482-3.935-3.724-10.326-3.724-19.18c0-9.271,1.348-15.77,4.042-19.493
			c2.69-3.724,7.386-5.583,14.08-5.583c5.247,0,9.836,0.396,13.771,1.193l-0.421,1.265c-3.936-0.562-8.383-0.843-13.346-0.843
			c-6.09,0-10.327,1.732-12.716,5.198c-2.39,3.467-3.583,9.555-3.583,18.265c0,8.289,1.101,14.272,3.302,17.947
			c2.2,3.677,5.877,5.516,11.028,5.516c1.639,0,3.163-0.187,4.568-0.562c1.404-0.374,2.772-0.982,4.107-1.825
			c1.333-0.843,2.354-1.547,3.058-2.107c0.703-0.562,1.709-1.428,3.019-2.599v-20.232H327.261L327.261,149.072z"/>
	</g>
	<g>
		<path fill="#010101" d="M401.356,155.821l-10.326-2.178c-3.418-0.703-5.854-2.096-7.308-4.18
			c-1.451-2.084-2.177-5.069-2.177-8.957c0-2.811,0.282-5.069,0.844-6.779c0.562-1.709,1.543-2.985,2.951-3.828
			c1.402-0.844,2.952-1.394,4.635-1.652c1.686-0.256,3.98-0.359,6.883-0.314c5.201,0,9.858,0.374,13.98,1.123l-0.35,3.372
			c-5.525-0.28-10.001-0.422-13.418-0.422c-2.295,0-3.98,0.06-5.059,0.176c-1.079,0.116-2.142,0.457-3.195,1.018
			c-1.053,0.562-1.756,1.43-2.105,2.6c-0.354,1.173-0.53,2.788-0.53,4.848c0,2.903,0.503,4.998,1.51,6.289
			c1.008,1.288,2.727,2.163,5.165,2.633l10.115,2.107c3.605,0.702,6.146,2.096,7.621,4.18c1.476,2.086,2.213,5.117,2.213,9.097
			c0,2.811-0.304,5.083-0.914,6.813c-0.608,1.733-1.615,3.046-3.02,3.936c-1.407,0.888-2.998,1.485-4.776,1.789
			c-1.782,0.306-4.122,0.458-7.024,0.458c-5.341,0-10.26-0.352-14.755-1.055l0.281-3.442c5.807,0.28,10.681,0.424,14.614,0.424
			c4.257-0.049,7.138-0.633,8.638-1.756c1.5-1.125,2.248-3.536,2.248-7.236c0-3.043-0.503-5.198-1.512-6.464
			C405.582,157.155,403.841,156.289,401.356,155.821z"/>
		<path fill="#010101" d="M423.204,177.177v-48.473c3.887-0.373,9.295-0.562,16.227-0.562c5.664,0,9.587,1.043,11.765,3.126
			c2.179,2.084,3.267,5.982,3.267,11.697c0,5.714-1.066,9.612-3.193,11.696c-2.136,2.084-5.914,3.123-11.348,3.123
			c-4.072,0-8.126-0.184-12.151-0.56v19.951H423.204z M427.769,153.783h11.591c3.935-0.046,6.648-0.809,8.149-2.283
			c1.497-1.476,2.246-4.32,2.246-8.534c0-4.262-0.749-7.142-2.246-8.642c-1.501-1.498-4.215-2.248-8.149-2.248
			c-3.981,0-7.844,0.047-11.591,0.142V153.783z"/>
	</g>
</g>
</svg>
