<?xml version="1.0" encoding="utf-8"?>
<!-- Generator: Adobe Illustrator 16.0.0, SVG Export Plug-In . SVG Version: 6.00 Build 0)  -->
<!DOCTYPE svg PUBLIC "-//W3C//DTD SVG 1.1//EN" "http://www.w3.org/Graphics/SVG/1.1/DTD/svg11.dtd">
<svg version="1.1" id="Layer_1" xmlns="http://www.w3.org/2000/svg" xmlns:xlink="http://www.w3.org/1999/xlink" x="0px" y="0px"
	 width="600px" height="300px" viewBox="0 0 600 300" enable-background="new 0 0 600 300" xml:space="preserve">
<g>
	<path fill="#707173" d="M364.904,177.401c0,0,1.89,16.23,12.77,22.14c13.832,7.508,29.893,6.03,29.893,6.03L364.904,177.401z"/>
	<path fill="#67696B" d="M379.552,107.773c0,0,22.057-17.457,47.092-16.447c9.85,0.396,27.839,10.677,35.832,16.447
		c20.976,15.144,21.171,22.447,21.31,31.75c0.337,22.354-11.661,40.24-11.661,40.24L379.552,107.773z"/>
	<path fill="#707173" d="M452.829,198.806l19.295-23.788c0,0-2.168,14.488-5.299,17.973
		C464.293,195.811,452.829,198.806,452.829,198.806z"/>
	<path fill="#545555" d="M407.566,205.571c0,0,11.862,8.145,27.394,5.477c11.57-1.987,20.035-12.971,20.035-12.971L407.566,205.571z
		"/>
	<path fill="#545555" d="M377.752,104.192c0,0-10.228,7.297-12.752,10.581c-12.202,15.873-14.913,43.705-14.913,43.705l4.048,11.371
		l10.77,7.552l15.776-70.09l-0.566-2.362L377.752,104.192z"/>
	<g>
		<path fill="#A1A2A5" d="M438.522,209.807c-7.938,2.689-19.126,0.641-30.956-4.235c-8.745-0.349-22.775-1.979-30.757-6.535
			c-8.481-4.84-11.703-20.333-11.905-21.635c-6.55-6.319-11.789-12.847-14.817-18.923c-2.324,16.562-0.985,32.705,6.354,39.613
			c19.513,18.364,90.288,20.799,107.183,0c1.171-1.441,2.236-3.161,3.201-5.102c-3.568,1.893-7.557,3.592-11.83,5.087
			C449.432,203.785,443.717,208.049,438.522,209.807z"/>
		<path fill="#AEAFB1" d="M467.119,97.133c-7.839-6.763-23.75-8.039-40.476-5.807c24.983,8.656,54.656,29.85,56.808,47.191
			c1.161,9.385-3.755,23.348-11.327,36.5c-1.127,6.894-2.894,13.134-5.299,17.972c6.817-3.617,12.09-7.934,14.837-12.854
			C491.923,161.735,483.073,110.893,467.119,97.133z"/>
		<path fill="#7A7B7D" d="M368.219,113.826c3.004-2.613,7.245-4.866,12.291-6.723c11.048-7.531,29.015-13.492,46.134-15.777
			c-9.116-3.16-17.605-4.65-23.909-3.674c-21.021,3.255-60.224,44.418-54.89,65.009c0.484,1.873,1.248,3.82,2.242,5.817
			C352.668,140.083,359.776,121.172,368.219,113.826z"/>
		<path fill="#010101" d="M463.627,113.826c-12.584-15.383-57.928-15.998-83.117-6.723c-3.024,2.061-5.536,4.238-7.362,6.493
			c-9.263,11.419-12.805,42.09-8.243,63.805c11.757,11.345,27.723,22.014,42.662,28.17c15.493,0.206,33.063-2.478,47.429-7.493
			c6.206-6.371,12.227-14.546,17.129-23.061C475.668,153.302,472.854,125.109,463.627,113.826z"/>
	</g>
	<g>
		<path fill="#010101" d="M140.63,130.244h-19.67c-1.686,0-3.068,0.539-4.146,1.617c-1.078,1.078-1.615,2.459-1.615,4.144v14.753
			h22.55v1.476h-22.55v24.938h-1.757v-41.307c0-2.06,0.679-3.769,2.037-5.128c1.359-1.356,3.068-2.036,5.13-2.036
			c8.943,0,15.665,0.094,20.161,0.281L140.63,130.244z"/>
		<path fill="#010101" d="M178.14,175.625l0.142,1.265c-4.589,0.188-11.474,0.281-20.652,0.281c-2.062,0-3.771-0.679-5.127-2.037
			c-1.359-1.356-2.038-3.066-2.038-5.127v-34.143c0-2.06,0.679-3.769,2.038-5.128c1.357-1.356,3.064-2.036,5.127-2.036
			c9.179,0,16.063,0.094,20.652,0.281l-0.142,1.263h-20.16c-1.684,0-3.067,0.539-4.143,1.617c-1.078,1.078-1.62,2.459-1.62,4.144
			v14.472h23.046v1.474h-23.046v17.913c0,1.688,0.542,3.068,1.62,4.147c1.075,1.076,2.459,1.614,4.143,1.614H178.14L178.14,175.625z
			"/>
		<path fill="#010101" d="M230.055,128.7h2.951c0.702,0,1.054,0.351,1.054,1.053l2.106,47.418h-1.755l-2.107-46.927h-1.687
			l-15.877,42.08c-0.143,0.42-0.444,0.633-0.913,0.633h-2.95c-0.47,0-0.773-0.213-0.913-0.633l-15.877-42.078h-1.688l-2.104,46.925
			h-1.759l2.11-47.416c0-0.704,0.351-1.055,1.051-1.055h2.953c0.468,0,0.772,0.211,0.912,0.633l13.417,35.475
			c0.282,0.751,0.689,1.851,1.229,3.303c0.539,1.452,0.949,2.552,1.23,3.3h1.826l2.529-6.744l13.347-35.333
			C229.282,128.91,229.586,128.7,230.055,128.7z"/>
		<path fill="#010101" d="M282.317,128.7v30.558c0,6.791-1.253,11.614-3.76,14.472c-2.504,2.854-6.754,4.285-12.748,4.285
			c-6.041,0-10.314-1.431-12.82-4.285c-2.507-2.857-3.757-7.681-3.757-14.472V128.7h1.755v30.558c0,6.275,1.11,10.7,3.336,13.276
			c2.225,2.575,6.055,3.864,11.486,3.864c5.386,0,9.189-1.288,11.416-3.864c2.224-2.575,3.336-7.001,3.336-13.276V128.7H282.317z"/>
		<path fill="#010101" d="M327.206,149.072v28.099h-1.194l-0.423-6.253c-4.4,4.731-9.411,7.097-15.031,7.097
			c-5.713,0-9.812-1.968-12.292-5.901c-2.483-3.935-3.727-10.326-3.727-19.18c0-9.271,1.348-15.77,4.042-19.493
			c2.691-3.724,7.386-5.583,14.082-5.583c5.246,0,9.836,0.396,13.77,1.193l-0.421,1.265c-3.936-0.562-8.385-0.843-13.348-0.843
			c-6.088,0-10.325,1.732-12.717,5.198c-2.386,3.467-3.58,9.555-3.58,18.265c0,8.289,1.1,14.272,3.301,17.947
			c2.201,3.677,5.878,5.516,11.03,5.516c1.64,0,3.16-0.187,4.567-0.562c1.405-0.374,2.773-0.982,4.107-1.825
			c1.335-0.843,2.354-1.547,3.059-2.107c0.7-0.562,1.708-1.428,3.018-2.599v-20.232H327.206L327.206,149.072z"/>
	</g>
	<g>
		<path fill="#FFFFFF" d="M401.301,155.821l-10.325-2.178c-3.42-0.703-5.854-2.096-7.308-4.18c-1.451-2.084-2.177-5.069-2.177-8.957
			c0-2.811,0.281-5.069,0.842-6.779c0.562-1.709,1.548-2.985,2.95-3.828c1.407-0.844,2.951-1.394,4.638-1.652
			c1.686-0.256,3.98-0.359,6.883-0.314c5.201,0,9.859,0.374,13.979,1.123l-0.35,3.372c-5.524-0.28-10-0.422-13.417-0.422
			c-2.295,0-3.982,0.06-5.059,0.176c-1.08,0.116-2.144,0.457-3.196,1.018c-1.055,0.562-1.757,1.43-2.106,2.6
			c-0.353,1.173-0.527,2.788-0.527,4.848c0,2.903,0.502,4.998,1.507,6.289c1.011,1.288,2.729,2.163,5.166,2.633l10.117,2.107
			c3.604,0.702,6.146,2.096,7.62,4.18c1.476,2.086,2.214,5.117,2.214,9.097c0,2.811-0.306,5.083-0.916,6.813
			c-0.606,1.733-1.614,3.046-3.019,3.936c-1.406,0.888-2.999,1.485-4.777,1.789c-1.781,0.306-4.122,0.458-7.023,0.458
			c-5.341,0-10.26-0.352-14.754-1.055l0.281-3.442c5.806,0.28,10.68,0.424,14.613,0.424c4.258-0.049,7.138-0.633,8.639-1.756
			c1.5-1.125,2.247-3.536,2.247-7.236c0-3.043-0.503-5.198-1.513-6.464C405.527,157.155,403.785,156.289,401.301,155.821z"/>
		<path fill="#FFFFFF" d="M423.149,177.177v-48.473c3.886-0.373,9.295-0.562,16.228-0.562c5.662,0,9.587,1.043,11.764,3.126
			c2.178,2.084,3.267,5.982,3.267,11.697c0,5.714-1.066,9.612-3.196,11.696c-2.132,2.084-5.911,3.123-11.345,3.123
			c-4.072,0-8.126-0.184-12.15-0.56v19.951H423.149z M427.714,153.783h11.591c3.935-0.046,6.649-0.809,8.149-2.283
			c1.497-1.476,2.245-4.32,2.245-8.534c0-4.262-0.748-7.142-2.245-8.642c-1.503-1.498-4.215-2.248-8.149-2.248
			c-3.982,0-7.844,0.047-11.591,0.142V153.783z"/>
	</g>
</g>
</svg>
