<?xml version="1.0" encoding="utf-8"?>
<!-- Generator: Adobe Illustrator 16.0.0, SVG Export Plug-In . SVG Version: 6.00 Build 0)  -->
<!DOCTYPE svg PUBLIC "-//W3C//DTD SVG 1.1//EN" "http://www.w3.org/Graphics/SVG/1.1/DTD/svg11.dtd">
<svg version="1.1" id="Layer_1" xmlns="http://www.w3.org/2000/svg" xmlns:xlink="http://www.w3.org/1999/xlink" x="0px" y="0px"
	 width="1081px" height="560px" viewBox="0 0 1081 560" enable-background="new 0 0 1081 560" xml:space="preserve">
<path fill="#1F742F" d="M711.872,346.248c0,0,5,42.953,33.795,58.586c36.604,19.872,79.106,15.963,79.106,15.963L711.872,346.248z"
	/>
<path fill="#9C332A" d="M750.634,161.985c0,0,58.366-46.197,124.622-43.527c26.064,1.05,73.679,28.258,94.828,43.527
	c55.506,40.074,56.027,59.404,56.396,84.024c0.887,59.152-30.863,106.491-30.863,106.491L750.634,161.985z"/>
<path fill="#1F742F" d="M944.552,402.895l51.065-62.959c0,0-5.74,38.343-14.024,47.566
	C974.892,394.963,944.552,402.895,944.552,402.895z"/>
<path fill="#1D406B" d="M824.774,420.797c0,0,31.387,21.554,72.492,14.491c30.617-5.261,53.017-34.326,53.017-34.326
	L824.774,420.797z"/>
<path fill="#1D406B" d="M745.874,152.513c0,0-27.068,19.308-33.75,28c-32.291,42.003-39.465,115.654-39.465,115.654l10.715,30.096
	l28.498,19.985l41.752-185.485l-1.5-6.25L745.874,152.513z"/>
<g>
	<path fill="#2DBEA0" d="M906.69,432.007c-21.008,7.108-50.608,1.692-81.916-11.21c-23.148-0.922-60.272-5.24-81.395-17.295
		c-22.448-12.812-30.97-53.811-31.507-57.254c-17.333-16.725-31.197-34-39.213-50.081c-6.153,43.831-2.606,86.555,16.815,104.833
		c51.639,48.6,238.941,55.043,283.648,0c3.097-3.813,5.916-8.363,8.47-13.498c-9.439,5.009-19.996,9.508-31.311,13.46
		C935.563,416.069,920.444,427.353,906.69,432.007z"/>
	<path fill="#F79A4B" d="M982.373,133.826c-20.747-17.896-62.854-21.277-107.117-15.369
		c66.113,22.909,144.645,78.995,150.334,124.89c3.076,24.834-9.931,61.785-29.973,96.588c-2.979,18.248-7.656,34.76-14.024,47.566
		c18.042-9.573,32.001-20.999,39.263-34.021C1048.01,304.791,1024.59,170.24,982.373,133.826z"/>
	<path fill="#9F57B1" d="M720.645,178c7.947-6.914,19.172-12.874,32.525-17.79c29.239-19.928,76.786-35.706,122.086-41.752
		c-24.122-8.359-46.593-12.305-63.268-9.723c-55.627,8.615-159.377,117.545-145.266,172.041c1.284,4.959,3.305,10.113,5.937,15.392
		C679.494,247.487,698.297,197.442,720.645,178z"/>
	<path fill="#1A2719" d="M973.123,178c-33.296-40.703-153.29-42.333-219.953-17.79c-8.006,5.456-14.65,11.221-19.486,17.185
		c-24.507,30.219-33.885,111.387-21.812,168.854c31.113,30.022,73.362,58.256,112.901,74.549
		c41.002,0.544,87.497-6.557,125.509-19.835c16.429-16.86,32.356-38.489,45.335-61.026
		C1004.997,282.473,997.553,207.865,973.123,178z"/>
</g>
<g>
	<path fill="#7E8C8D" d="M118.354,221.454H66.301c-4.461,0-8.119,1.426-10.968,4.276c-2.854,2.853-4.276,6.506-4.276,10.968v39.04
		h59.675v3.904H51.058v65.995H46.41V236.326c0-5.453,1.795-9.975,5.391-13.571c3.594-3.593,8.116-5.391,13.571-5.391
		c23.671,0,41.457,0.25,53.354,0.744L118.354,221.454z"/>
	<path fill="#7E8C8D" d="M217.626,341.547l0.372,3.347c-12.147,0.497-30.366,0.743-54.655,0.743c-5.456,0-9.979-1.795-13.571-5.391
		c-3.596-3.594-5.391-8.116-5.391-13.571v-90.349c0-5.453,1.795-9.975,5.391-13.571c3.596-3.593,8.116-5.391,13.571-5.391
		c24.289,0,42.508,0.25,54.655,0.744l-0.372,3.346h-53.354c-4.461,0-8.119,1.426-10.968,4.276
		c-2.852,2.853-4.276,6.506-4.276,10.968v38.296h60.979v3.904h-60.979v47.405c0,4.462,1.426,8.119,4.276,10.969
		c2.85,2.854,6.507,4.275,10.968,4.275H217.626L217.626,341.547z"/>
	<path fill="#7E8C8D" d="M355.008,217.364h7.808c1.859,0,2.789,0.93,2.789,2.789l5.577,125.484h-4.646l-5.577-124.183h-4.462
		L314.48,332.81c-0.371,1.115-1.179,1.675-2.416,1.675h-7.809c-1.24,0-2.044-0.56-2.417-1.675l-42.014-111.354h-4.464
		l-5.575,124.183h-4.648l5.578-125.484c0-1.859,0.93-2.789,2.788-2.789h7.808c1.238,0,2.045,0.558,2.417,1.673l35.507,93.881
		c0.744,1.984,1.827,4.896,3.253,8.738s2.512,6.756,3.256,8.734h4.833l6.691-17.847l35.321-93.509
		C352.963,217.922,353.768,217.364,355.008,217.364z"/>
	<path fill="#7E8C8D" d="M493.316,217.364v80.868c0,17.972-3.315,30.736-9.945,38.296c-6.631,7.562-17.879,11.34-33.738,11.34
		c-15.989,0-27.3-3.778-33.93-11.34c-6.631-7.56-9.943-20.324-9.943-38.296v-80.868h4.646v80.868
		c0,16.607,2.942,28.319,8.831,35.136c5.885,6.815,16.018,10.226,30.396,10.226c14.25,0,24.318-3.407,30.209-10.226
		c5.885-6.814,8.829-18.526,8.829-35.136v-80.868H493.316z"/>
	<path fill="#7E8C8D" d="M612.107,271.275v74.361h-3.159l-1.116-16.545c-11.648,12.521-24.908,18.775-39.781,18.775
		c-15.121,0-25.966-5.205-32.533-15.615c-6.569-10.41-9.854-27.328-9.854-50.752c0-24.539,3.562-41.735,10.688-51.588
		c7.125-9.853,19.549-14.779,37.271-14.779c13.881,0,26.027,1.055,36.438,3.161l-1.115,3.346c-10.411-1.487-22.187-2.23-35.322-2.23
		c-16.11,0-27.325,4.587-33.646,13.757c-6.32,9.173-9.481,25.282-9.481,48.334c0,21.938,2.911,37.771,8.738,47.498
		c5.823,9.729,15.552,14.595,29.188,14.595c4.338,0,8.365-0.494,12.084-1.488c3.719-0.988,7.344-2.603,10.875-4.833
		c3.531-2.229,6.229-4.09,8.088-5.576c1.857-1.486,4.521-3.778,7.992-6.878v-53.542L612.107,271.275L612.107,271.275z"/>
</g>
<g>
	<path fill="#FFFFFF" d="M808.191,289.137l-27.327-5.764c-9.049-1.859-15.493-5.545-19.335-11.061
		c-3.843-5.514-5.762-13.414-5.762-23.703c0-7.437,0.743-13.414,2.229-17.939c1.487-4.523,4.091-7.901,7.809-10.132
		c3.719-2.231,7.81-3.687,12.271-4.369c4.462-0.68,10.533-0.959,18.218-0.836c13.759,0,26.09,0.993,36.995,2.974l-0.929,8.923
		c-14.625-0.744-26.463-1.115-35.508-1.115c-6.074,0-10.535,0.157-13.386,0.464c-2.854,0.311-5.67,1.208-8.458,2.695
		c-2.788,1.488-4.646,3.782-5.576,6.879c-0.932,3.1-1.396,7.375-1.396,12.827c0,7.686,1.329,13.231,3.996,16.639
		c2.664,3.41,7.218,5.733,13.664,6.971l26.771,5.577c9.543,1.859,16.267,5.548,20.171,11.062c3.903,5.518,5.854,13.543,5.854,24.074
		c0,7.438-0.807,13.448-2.416,18.032c-1.612,4.587-4.274,8.058-7.995,10.41c-3.719,2.354-7.934,3.934-12.642,4.74
		c-4.712,0.805-10.907,1.209-18.59,1.209c-14.128,0-27.145-0.932-39.04-2.789l0.744-9.108c15.365,0.743,28.257,1.115,38.667,1.115
		c11.275-0.122,18.897-1.673,22.864-4.647c3.968-2.974,5.95-9.354,5.95-19.146c0-8.056-1.334-13.757-3.998-17.104
		C819.375,292.668,814.76,290.377,808.191,289.137z"/>
	<path fill="#FFFFFF" d="M866.006,345.65V217.377c10.285-0.99,24.601-1.487,42.942-1.487c14.993,0,25.374,2.76,31.14,8.272
		c5.763,5.517,8.645,15.834,8.645,30.953c0,15.123-2.82,25.439-8.458,30.953c-5.642,5.517-15.647,8.271-30.022,8.271
		c-10.782,0-21.506-0.492-32.16-1.486v52.797H866.006z M878.09,283.744h30.674c10.41-0.121,17.597-2.137,21.564-6.041
		c3.965-3.904,5.946-11.433,5.946-22.587c0-11.276-1.981-18.898-5.946-22.866c-3.97-3.965-11.154-5.949-21.564-5.949
		c-10.536,0-20.76,0.125-30.674,0.372V283.744z"/>
</g>
</svg>
