<?xml version="1.0" encoding="utf-8"?>
<!-- Generator: Adobe Illustrator 16.0.0, SVG Export Plug-In . SVG Version: 6.00 Build 0)  -->
<!DOCTYPE svg PUBLIC "-//W3C//DTD SVG 1.1//EN" "http://www.w3.org/Graphics/SVG/1.1/DTD/svg11.dtd">
<svg version="1.1" xmlns="http://www.w3.org/2000/svg" xmlns:xlink="http://www.w3.org/1999/xlink" x="0px" y="0px" width="384px"
	 height="367px" viewBox="0 0 384 367" enable-background="new 0 0 384 367" xml:space="preserve">
<g id="BG">
</g>
<g id="LOGO">
	<polygon fill-rule="evenodd" clip-rule="evenodd" fill="#61B2C6" points="200.26,45.2 333.83,178.74 184.73,327.8 51.16,194.26 	
		"/>
	<g>
		<polygon fill-rule="evenodd" clip-rule="evenodd" fill="#FFFFFF" points="133.75,132.25 124.62,183.94 134.99,183.94 
			138.7,162.94 154.24,162.94 155.98,153.06 140.44,153.06 142.38,142.12 168.28,142.12 170.03,132.25 		"/>
		<polygon fill-rule="evenodd" clip-rule="evenodd" fill="#FFFFFF" points="177.75,132.25 168.66,183.75 204.93,183.75 
			206.68,173.88 180.77,173.88 182.7,162.94 198.24,162.94 199.98,153.06 184.44,153.06 186.38,142.12 212.28,142.12 214.03,132.25 
					"/>
		<polygon fill-rule="evenodd" clip-rule="evenodd" fill="#FFFFFF" points="273.09,133.06 240.83,167.05 220.59,133.06 
			211.61,183.94 264.11,183.94 		"/>
	</g>
	<g>
		<path fill-rule="evenodd" clip-rule="evenodd" fill="#FFFFFF" d="M155.74,190.06h-20.71h-10.37l-5.5,31.15
			c-0.6,3.44-0.35,6.91,0.78,10.35c2.21,6.9,7.63,10.38,16.27,10.38c8.63,0,15.32-3.48,19.97-10.38c2.34-3.44,3.82-6.91,4.43-10.35
			l5.5-31.15H155.74z"/>
		<path fill-rule="evenodd" clip-rule="evenodd" fill="#FFFFFF" d="M186.1,216.06l-1.74,9.88h12.03c-2.35,2.45-5.22,4.19-8.65,5.19
			c-1.71,0.5-3.2,0.75-4.43,0.75c-6.47,0-10.5-2.99-12.14-8.42c-0.83-2.44-1.05-4.92-0.61-7.4c0.47-2.63,1.59-5.3,3.32-7.97
			c3.54-5.3,8.56-7.97,15.03-7.97c7.41,0,11.61,3.41,12.69,10.2l10.02-5.56c-0.97-4.34-2.9-7.56-5.77-9.94
			c-3.68-3.06-8.73-4.57-15.19-4.57c-10.81,0-19.09,4.13-24.87,12.54c-2.95,4.41-4.82,8.86-5.6,13.27
			c-0.72,4.1-0.37,8.23,0.98,12.87c2.76,8.73,9.59,12.82,20.39,12.82c4.3,0,8.82-1.03,13.49-3.09c9.35-4.1,15.13-12.22,16.96-22.6
			H186.1z"/>
	</g>
	<g>
		<path fill-rule="evenodd" clip-rule="evenodd" fill="#3D9EB6" d="M221.03,197.66c-5.95,5.06-9.56,11.18-10.83,18.34
			c-1.26,7.16,0.19,13.28,4.35,18.34c4.17,5.07,9.83,7.6,16.98,7.6c7.16,0,13.71-2.53,19.66-7.6c5.95-5.06,9.56-11.18,10.83-18.34
			c1.26-7.16-0.19-13.28-4.35-18.34c-4.17-5.07-9.83-7.6-16.98-7.6C233.53,190.06,226.98,192.59,221.03,197.66z"/>
	</g>
	<g>
		<path fill-rule="evenodd" clip-rule="evenodd" fill="#FEFEFE" d="M225.5,222.11c0.88,0.66,1.85,1.14,2.91,1.44
			c1.06,0.31,2.11,0.45,3.14,0.45c1,0,1.87-0.13,2.66-0.41c0.78-0.26,1.43-0.62,1.96-1.07c0.54-0.44,0.93-0.97,1.21-1.58
			c0.26-0.6,0.4-1.22,0.4-1.88c0-1.06-0.29-1.94-0.86-2.62c-0.56-0.69-1.37-1.22-2.42-1.6l-1.81-0.73
			c-0.78-0.28-1.39-0.53-1.81-0.72s-0.63-0.45-0.63-0.83c0-1.03,0.58-1.56,1.77-1.56c0.62,0,1.19,0.11,1.69,0.3
			c0.5,0.18,1.01,0.47,1.57,0.84l2.07-2.37c-0.77-0.61-1.61-1.07-2.55-1.35c-0.94-0.28-1.86-0.42-2.78-0.42
			c-0.91,0-1.72,0.14-2.44,0.39c-0.72,0.25-1.34,0.59-1.86,1.03c-0.53,0.44-0.94,0.94-1.22,1.52c-0.29,0.58-0.43,1.2-0.43,1.86
			c0,0.56,0.07,1.06,0.26,1.51c0.17,0.47,0.41,0.88,0.7,1.22c0.3,0.36,0.64,0.67,1.05,0.92c0.41,0.27,0.83,0.49,1.28,0.64l1.94,0.8
			c0.37,0.13,0.69,0.25,0.97,0.34c0.28,0.11,0.51,0.22,0.7,0.33c0.19,0.11,0.35,0.24,0.44,0.36c0.09,0.13,0.16,0.28,0.16,0.47
			c0,0.52-0.15,0.91-0.43,1.19c-0.28,0.28-0.78,0.42-1.5,0.42c-0.62,0-1.26-0.14-1.92-0.42c-0.65-0.28-1.28-0.64-1.87-1.1
			L225.5,222.11z"/>
		<path fill-rule="evenodd" clip-rule="evenodd" fill="#FEFEFE" d="M242.64,216v-5h1.74c0.75,0,1.34,0.19,1.76,0.53
			c0.41,0.34,0.63,0.95,0.63,1.8c0,0.86-0.21,1.51-0.6,1.98c-0.39,0.47-0.98,0.69-1.79,0.69H242.64z M238.52,224h4.12v-5h1.92
			c0.82,0,1.6-0.11,2.35-0.33c0.75-0.22,1.42-0.56,2-1.01c0.56-0.46,1.03-1.04,1.37-1.75c0.35-0.71,0.52-1.57,0.52-2.57
			s-0.17-1.84-0.5-2.53c-0.35-0.69-0.8-1.23-1.36-1.65c-0.56-0.43-1.24-0.72-1.99-0.89c-0.76-0.18-1.56-0.27-2.39-0.27h-6.04V224z"
			/>
	</g>
	<g>
	</g>
</g>
</svg>
