<?xml version="1.0" encoding="UTF-8" ?>
<!DOCTYPE svg PUBLIC "-//W3C//DTD SVG 1.1//EN" "http://www.w3.org/Graphics/SVG/1.1/DTD/svg11.dtd">
<svg width="500pt" height="200pt" viewBox="0 0 500 200" version="1.1" xmlns="http://www.w3.org/2000/svg">
<path fill="#ffffff" d=" M 0.00 0.00 L 441.87 0.00 C 410.21 31.64 378.64 63.36 346.89 94.90 C 355.24 95.15 363.59 94.87 371.94 95.02 C 371.98 97.67 372.00 100.32 371.98 102.97 C 363.62 103.03 355.27 102.92 346.92 103.08 C 379.35 135.31 411.54 167.78 443.97 200.00 L 0.00 200.00 L 0.00 0.00 Z" />
<path fill="#525252" d=" M 441.87 0.00 L 500.00 0.00 L 500.00 200.00 L 443.97 200.00 C 411.54 167.78 379.35 135.31 346.92 103.08 C 355.27 102.92 363.62 103.03 371.98 102.97 C 372.00 100.32 371.98 97.67 371.94 95.02 C 363.59 94.87 355.24 95.15 346.89 94.90 C 378.64 63.36 410.21 31.64 441.87 0.00 Z" />
<path fill="#525252" d=" M 289.94 68.00 C 299.80 56.96 319.19 57.16 328.88 68.32 C 332.81 72.90 335.19 78.60 336.54 84.43 C 333.77 85.12 331.00 85.82 328.23 86.51 C 327.48 80.52 324.88 74.69 320.35 70.62 C 315.00 66.18 307.09 66.17 300.97 68.95 C 295.34 71.60 291.76 77.19 289.96 82.97 C 286.76 91.96 286.67 101.67 287.24 111.09 C 287.87 118.70 289.21 126.79 294.25 132.84 C 299.39 139.33 308.83 141.26 316.49 138.73 C 321.58 137.22 325.06 132.57 326.67 127.71 C 328.15 122.97 328.53 117.96 328.47 113.03 C 322.13 112.96 315.79 113.11 309.45 112.91 C 309.49 110.51 309.49 108.11 309.53 105.71 C 318.65 105.72 327.78 105.83 336.90 105.66 C 337.21 119.07 336.82 132.48 337.11 145.89 C 334.70 146.02 332.30 146.03 329.89 145.94 C 330.09 142.53 330.03 139.12 329.90 135.72 C 325.87 141.18 320.27 146.28 313.17 146.78 C 303.33 148.45 292.98 143.85 287.31 135.71 C 279.65 124.83 277.78 110.97 278.53 97.96 C 279.32 87.20 282.29 75.99 289.94 68.00 Z" />
<path fill="#525252" d=" M 13.45 145.88 C 13.57 117.48 13.39 89.09 13.54 60.69 C 28.91 60.78 44.28 60.73 59.65 60.72 C 59.72 63.12 59.75 65.52 59.79 67.92 C 47.20 68.14 34.61 67.86 22.03 68.07 C 22.00 77.95 21.99 87.84 22.02 97.72 C 31.11 97.75 40.21 97.76 49.30 97.71 C 49.27 100.17 49.26 102.62 49.29 105.08 C 40.22 104.96 31.15 105.00 22.07 105.05 C 21.85 118.69 22.15 132.34 21.94 145.98 C 19.11 146.04 16.27 146.02 13.45 145.88 Z" />
<path fill="#525252" d=" M 71.58 60.72 C 86.95 60.76 102.32 60.73 117.70 60.72 C 117.74 63.13 117.76 65.54 117.74 67.95 C 105.16 68.06 92.58 67.97 80.00 68.00 C 80.00 77.92 79.99 87.83 80.01 97.74 C 89.10 97.74 98.20 97.74 107.29 97.73 C 107.28 100.13 107.27 102.52 107.31 104.91 C 98.21 105.13 89.11 104.95 80.00 105.01 C 80.01 116.18 79.97 127.35 80.02 138.52 C 93.34 138.49 106.66 138.53 119.98 138.50 C 120.00 141.00 120.00 143.50 120.00 146.00 C 103.87 146.00 87.74 146.01 71.61 145.99 C 71.42 117.57 71.48 89.14 71.58 60.72 Z" />
<path fill="#525252" d=" M 131.07 60.65 C 136.17 60.83 141.26 60.70 146.36 60.73 C 152.49 82.71 158.53 104.70 164.75 126.65 C 170.76 104.64 177.04 82.70 183.05 60.68 C 188.13 60.79 193.21 60.68 198.29 60.73 C 198.21 89.13 198.24 117.53 198.27 145.93 C 195.41 146.04 192.55 146.03 189.69 145.91 C 189.89 120.03 189.55 94.15 189.88 68.28 C 182.23 94.09 175.42 120.15 168.05 146.05 C 165.81 146.03 163.57 146.00 161.33 145.97 C 154.05 120.08 147.08 94.11 139.60 68.29 C 139.38 94.20 139.56 120.11 139.50 146.03 C 136.67 146.03 133.84 146.00 131.02 145.92 C 131.02 117.49 130.92 89.07 131.07 60.65 Z" />
<path fill="#525252" d=" M 213.47 119.99 C 213.54 100.22 213.40 80.46 213.54 60.69 C 216.32 60.75 219.11 60.76 221.89 60.69 C 222.16 80.80 221.93 100.91 222.00 121.02 C 222.16 126.45 223.92 132.11 228.01 135.87 C 232.48 139.68 238.72 140.27 244.34 139.50 C 248.52 138.86 252.76 136.77 255.02 133.06 C 257.28 129.48 258.21 125.19 258.25 120.99 C 258.29 100.90 258.16 80.81 258.32 60.72 C 261.16 60.73 264.02 60.73 266.87 60.67 C 267.19 80.46 266.90 100.26 267.02 120.05 C 267.23 128.59 263.69 137.59 256.57 142.63 C 250.88 146.57 243.67 147.36 236.93 146.93 C 230.81 146.44 224.52 144.32 220.33 139.63 C 215.57 134.33 213.35 127.04 213.47 119.99 Z" />
<path fill="#ffffff" d=" M 384.48 60.76 C 387.29 60.73 390.11 60.73 392.93 60.68 C 393.11 80.82 392.95 100.96 393.01 121.10 C 393.09 126.30 394.86 131.55 398.47 135.37 C 403.02 139.56 409.62 140.35 415.51 139.49 C 419.38 138.74 423.42 137.01 425.62 133.58 C 428.51 129.68 429.24 124.69 429.27 119.97 C 429.25 100.22 429.24 80.48 429.27 60.73 C 432.14 60.73 435.01 60.72 437.88 60.70 C 438.17 80.45 437.89 100.21 438.02 119.96 C 438.31 127.66 435.29 135.44 429.82 140.87 C 421.88 147.78 410.14 148.28 400.43 145.46 C 390.54 142.39 384.74 131.92 384.53 121.98 C 384.44 101.58 384.53 81.17 384.48 60.76 Z" />
<path fill="#ffffff" d=" M 452.50 145.97 C 452.51 117.56 452.47 89.14 452.52 60.73 C 467.90 60.68 483.29 60.84 498.67 60.65 C 498.73 63.07 498.75 65.49 498.74 67.91 C 486.13 68.17 473.51 67.82 460.89 68.09 C 461.19 77.99 460.79 87.89 461.12 97.78 C 470.15 97.70 479.18 97.76 488.21 97.74 C 488.25 100.16 488.24 102.59 488.16 105.01 C 479.07 105.11 469.98 104.85 460.89 105.13 C 461.18 118.73 460.81 132.35 461.10 145.95 C 458.23 146.00 455.36 145.99 452.50 145.97 Z" />
</svg>
