<?xml version="1.0" encoding="utf-8"?>
<!-- Generator: Adobe Illustrator 17.0.2, SVG Export Plug-In . SVG Version: 6.00 Build 0)  -->
<!DOCTYPE svg PUBLIC "-//W3C//DTD SVG 1.1//EN" "http://www.w3.org/Graphics/SVG/1.1/DTD/svg11.dtd">
<svg version="1.1" id="Layer_1" xmlns="http://www.w3.org/2000/svg" xmlns:xlink="http://www.w3.org/1999/xlink" x="0px" y="0px"
	 width="257.547px" height="66.403px" viewBox="0 0 257.547 66.403" enable-background="new 0 0 257.547 66.403"
	 xml:space="preserve">
<path fill="#27AAE1" d="M71.244,26.111h-7.299v24.578h-8.432V26.111h-4.645l0.871-1.444l3.774-4.887v-2.267
	c0-3.52,0.866-6.092,2.599-7.713s4.506-2.433,8.322-2.433c2.912,0,5.502,0.433,7.769,1.299l-2.156,6.193
	c-1.696-0.535-3.262-0.802-4.7-0.802c-1.198,0-2.064,0.355-2.599,1.064c-0.535,0.71-0.802,1.617-0.802,2.723v1.935H80.92
	L71.244,26.111z"/>
<path fill="#27AAE1" d="M84.653,51.721c-4.991,0-8.891-1.382-11.701-4.145s-4.215-6.677-4.215-11.741
	c0-5.212,1.299-9.241,3.896-12.089c2.597-2.847,6.188-4.271,10.772-4.271c4.381,0,7.791,1.252,10.231,3.756
	c2.44,2.504,3.66,5.963,3.66,10.378v4.118H77.305c0.092,2.411,0.804,4.294,2.135,5.648s3.198,2.031,5.601,2.031
	c1.867,0,14.836-0.022,16.499-0.412c1.664-0.39-2.452,1.222-0.64,0.369l-2.203,6.359c2.94-1.576,1.721,0,0,0
	C87.901,51.721,87.074,51.721,84.653,51.721z M83.461,25.513c-1.793,0-3.198,0.57-4.215,1.711c-1.017,1.141-1.599,2.759-1.747,4.855
	h11.867c-0.037-2.096-0.582-3.714-1.636-4.855S85.254,25.513,83.461,25.513z"/>
<path fill="#27AAE1" d="M126.372,51.721h-8.432V33.667c0-2.23-0.373-3.903-1.12-5.018s-1.921-1.673-3.525-1.673
	c-2.156,0-3.723,0.793-4.7,2.378c-0.977,1.585-1.465,4.193-1.465,7.824v14.542h-8.432V20.812h6.442l1.134,3.954h0.47
	c0.829-1.419,2.027-2.53,3.594-3.331s3.364-1.203,5.391-1.203c4.626,0,7.76,1.511,9.4,4.534h0.746
	c0.829-1.438,2.05-2.553,3.663-3.345c1.613-0.793,3.433-1.189,5.46-1.189c3.502,0,6.151,0.899,7.948,2.696
	c1.797,1.797,2.696,4.677,2.696,8.64v20.155h-8.46V33.667c0-2.23-0.373-3.903-1.12-5.018c-0.746-1.115-1.921-1.673-3.525-1.673
	c-2.064,0-3.608,0.737-4.631,2.212c-1.023,1.475-1.534,3.815-1.534,7.022V51.721z"/>
<path fill="#27AAE1" d="M168.819,51.721l-1.134-3.954h-0.442c-0.903,1.438-2.184,2.548-3.843,3.331s-3.548,1.175-5.668,1.175
	c-3.631,0-6.368-0.972-8.211-2.917s-2.765-4.741-2.765-8.391V20.812h8.432v18.053c0,2.23,0.396,3.903,1.189,5.018
	c0.793,1.115,2.055,1.673,3.788,1.673c2.359,0,4.064-0.788,5.115-2.364s1.576-4.189,1.576-7.838V20.812h8.432v30.909H168.819z"/>
<path fill="#27AAE1" d="M204.548,20.812v4.285l-4.838,1.244c0.885,1.382,1.327,2.931,1.327,4.645c0,3.318-1.157,5.903-3.47,7.755
	s-5.525,2.779-9.635,2.779l-1.521-0.083l-1.244-0.138c-0.866,0.664-1.299,1.401-1.299,2.212c0,1.216,1.548,1.825,4.645,1.825h5.253
	c3.391,0,5.976,0.728,7.755,2.184c1.779,1.456,2.668,3.594,2.668,6.414c0,3.613-1.507,6.414-4.52,8.405
	c-3.014,1.991-7.34,2.986-12.98,2.986c-4.313,0-7.608-0.751-9.884-2.253s-3.414-3.608-3.414-6.317c0-1.862,0.581-3.419,1.742-4.672
	c1.161-1.253,2.866-2.147,5.115-2.682c-0.866-0.369-1.622-0.972-2.267-1.811s-0.968-1.728-0.968-2.668
	c0-1.18,0.341-2.161,1.023-2.944s1.668-1.553,2.958-2.309c-1.622-0.7-2.908-1.825-3.857-3.373c-0.949-1.548-1.424-3.373-1.424-5.474
	c0-3.373,1.097-5.981,3.29-7.824c2.193-1.843,5.327-2.765,9.4-2.765c0.866,0,1.894,0.078,3.083,0.235
	c1.189,0.157,1.949,0.272,2.281,0.346H204.548z M180.689,56.089c0,1.161,0.558,2.074,1.673,2.737
	c1.115,0.664,2.677,0.995,4.686,0.995c3.023,0,5.391-0.415,7.105-1.244s2.571-1.963,2.571-3.401c0-1.161-0.507-1.963-1.521-2.405
	c-1.014-0.442-2.58-0.664-4.7-0.664h-4.368c-1.548,0-2.843,0.364-3.884,1.092S180.689,54.891,180.689,56.089z M183.758,30.93
	c0,1.677,0.382,3.004,1.147,3.981c0.765,0.977,1.931,1.465,3.497,1.465c1.585,0,2.746-0.488,3.484-1.465
	c0.737-0.977,1.106-2.304,1.106-3.981c0-3.723-1.53-5.585-4.589-5.585C185.306,25.346,183.758,27.207,183.758,30.93z"/>
<path fill="#8DC63F" d="M29.033,41.083l15.203-19.359L29.281,0.541h1.414l21.269,21.183L30.53,41.083H29.033z"/>
<g>
	<path fill="#8DC63F" d="M27.27,39.406l-0.549-2.828l13.183-17.526l1.714,1.889L27.27,39.406z"/>
</g>
<path fill="#8DC63F" d="M21.392,40.462L0,21.141L21.227,0l1.411,0L7.712,21.141l15.173,19.321H21.392z"/>
<path fill="#8DC63F" d="M228.488,44.729c0,2.723-1.035,4.815-3.105,6.279c-2.07,1.464-5.006,2.195-8.81,2.195
	c-4.064,0-7.289-0.624-9.676-1.874v-2.993c3.058,1.529,6.283,2.293,9.676,2.293c3.002,0,5.281-0.499,6.838-1.496
	c1.556-0.997,2.335-2.326,2.335-3.986c0-1.528-0.62-2.815-1.86-3.859c-1.24-1.044-3.276-2.07-6.11-3.076
	c-3.04-1.1-5.174-2.046-6.405-2.838c-1.23-0.792-2.158-1.687-2.782-2.685c-0.625-0.997-0.938-2.214-0.938-3.65
	c0-2.274,0.956-4.073,2.868-5.397c1.91-1.324,4.581-1.985,8.012-1.985c3.281,0,6.394,0.615,9.34,1.845l-1.035,2.517
	c-2.983-1.23-5.752-1.845-8.305-1.845c-2.48,0-4.447,0.41-5.902,1.23c-1.454,0.821-2.181,1.957-2.181,3.412
	c0,1.585,0.564,2.853,1.692,3.804c1.129,0.951,3.333,2.014,6.615,3.188c2.741,0.989,4.736,1.879,5.984,2.671
	c1.249,0.793,2.185,1.692,2.81,2.699C228.175,42.184,228.488,43.368,228.488,44.729z"/>
<path fill="#8DC63F" d="M244.878,53.203c-4.679,0-8.091-1.752-10.235-5.257h-0.196l0.084,2.349c0.075,1.38,0.112,2.89,0.112,4.531
	v11.578h-2.77V22.244h2.35l0.531,4.334h0.168c2.088-3.281,5.426-4.922,10.012-4.922c4.102,0,7.23,1.347,9.383,4.041
	c2.153,2.695,3.23,6.614,3.23,11.76c0,4.997-1.133,8.87-3.399,11.62C251.884,51.828,248.794,53.203,244.878,53.203z M244.823,50.742
	c3.113,0,5.523-1.156,7.229-3.468c1.706-2.312,2.559-5.547,2.559-9.704c0-8.931-3.226-13.396-9.676-13.396
	c-3.542,0-6.143,0.974-7.803,2.922c-1.66,1.948-2.488,5.122-2.488,9.523v0.895c0,4.754,0.797,8.148,2.39,10.18
	C238.628,49.726,241.223,50.742,244.823,50.742z"/>
</svg>
