<?xml version="1.0" encoding="utf-8"?>
<!-- Generator: Adobe Illustrator 17.0.2, SVG Export Plug-In . SVG Version: 6.00 Build 0)  -->
<!DOCTYPE svg PUBLIC "-//W3C//DTD SVG 1.1//EN" "http://www.w3.org/Graphics/SVG/1.1/DTD/svg11.dtd">
<svg version="1.1" id="Layer_1" xmlns="http://www.w3.org/2000/svg" xmlns:xlink="http://www.w3.org/1999/xlink" x="0px" y="0px"
	 width="264.466px" height="80.621px" viewBox="0 0 264.466 80.621" enable-background="new 0 0 264.466 80.621"
	 xml:space="preserve">
<path fill="#27AAE1" d="M49.745,26.075H39.592v34.189h-11.73V26.075h-6.461l1.212-2.008l5.249-6.799v-3.154
	c0-4.897,1.205-8.474,3.615-10.73S37.746,0,43.054,0c4.051,0,7.653,0.603,10.807,1.808l-3,8.615
	c-2.359-0.744-4.538-1.115-6.538-1.115c-1.667,0-2.872,0.494-3.615,1.481s-1.115,2.25-1.115,3.788v2.692h23.613L49.745,26.075z"/>
<path fill="#27AAE1" d="M68.398,61.7c-6.943,0-12.368-1.922-16.277-5.767s-5.863-9.288-5.863-16.332
	c0-7.25,1.806-12.855,5.419-16.816c3.613-3.96,8.608-5.941,14.985-5.941c6.094,0,10.838,1.742,14.232,5.225
	c3.394,3.483,5.091,8.295,5.091,14.436v5.728H58.177c0.129,3.354,1.119,5.973,2.97,7.856s4.448,2.825,7.791,2.825
	c2.597,0,20.637-0.031,22.951-0.573c2.314-0.542-3.411,1.7-0.891,0.513L87.934,61.7c4.089-2.192,2.393,0,0,0
	C72.916,61.7,71.766,61.7,68.398,61.7z M66.739,25.243c-2.494,0-4.448,0.793-5.863,2.38c-1.414,1.587-2.224,3.838-2.43,6.753h16.508
	c-0.051-2.916-0.81-5.167-2.276-6.753C71.213,26.036,69.233,25.243,66.739,25.243z"/>
<path fill="#27AAE1" d="M126.431,61.7h-11.73V36.587c0-3.102-0.519-5.429-1.558-6.98c-1.038-1.551-2.673-2.327-4.903-2.327
	c-3,0-5.179,1.102-6.538,3.307s-2.038,5.833-2.038,10.884V61.7h-11.73V18.704h8.961l1.577,5.5h0.654c1.154-1.974,2.82-3.519,5-4.634
	c2.179-1.115,4.679-1.673,7.499-1.673c6.435,0,10.794,2.102,13.076,6.307h1.038c1.154-2,2.852-3.551,5.096-4.653
	c2.243-1.102,4.775-1.654,7.596-1.654c4.871,0,8.557,1.25,11.057,3.75s3.75,6.506,3.75,12.018V61.7h-11.768V36.587
	c0-3.102-0.519-5.429-1.558-6.98c-1.038-1.551-2.673-2.327-4.903-2.327c-2.872,0-5.019,1.026-6.442,3.077
	c-1.423,2.051-2.134,5.307-2.134,9.768V61.7z"/>
<path fill="#27AAE1" d="M185.477,61.7l-1.577-5.5h-0.615c-1.256,2-3.038,3.545-5.346,4.634s-4.935,1.634-7.884,1.634
	c-5.051,0-8.858-1.352-11.422-4.057c-2.564-2.705-3.846-6.596-3.846-11.672V18.704h11.73v25.113c0,3.102,0.551,5.429,1.654,6.98
	c1.102,1.551,2.859,2.327,5.269,2.327c3.282,0,5.653-1.096,7.115-3.288c1.461-2.192,2.192-5.826,2.192-10.903V18.704h11.73V61.7
	H185.477z"/>
<path fill="#27AAE1" d="M235.178,18.704v5.961l-6.73,1.731c1.231,1.923,1.846,4.077,1.846,6.461c0,4.615-1.609,8.211-4.827,10.788
	c-3.218,2.577-7.685,3.865-13.403,3.865l-2.115-0.115l-1.731-0.192c-1.205,0.923-1.808,1.949-1.808,3.077
	c0,1.692,2.154,2.538,6.461,2.538h7.307c4.718,0,8.313,1.013,10.788,3.038c2.474,2.025,3.711,5,3.711,8.922
	c0,5.025-2.096,8.922-6.288,11.691c-4.192,2.769-10.211,4.153-18.056,4.153c-5.999,0-10.582-1.045-13.749-3.134
	c-3.166-2.09-4.75-5.019-4.75-8.788c0-2.59,0.808-4.756,2.423-6.499c1.615-1.743,3.987-2.987,7.115-3.73
	c-1.205-0.513-2.256-1.352-3.154-2.519c-0.897-1.167-1.346-2.404-1.346-3.711c0-1.641,0.474-3.006,1.423-4.096
	c0.949-1.09,2.32-2.16,4.115-3.211c-2.256-0.974-4.045-2.538-5.365-4.692c-1.32-2.154-1.981-4.692-1.981-7.615
	c0-4.692,1.526-8.32,4.577-10.884s7.41-3.846,13.076-3.846c1.205,0,2.634,0.109,4.288,0.327c1.654,0.218,2.711,0.378,3.173,0.481
	H235.178z M201.989,67.776c0,1.615,0.776,2.884,2.327,3.807c1.551,0.923,3.724,1.384,6.519,1.384c4.205,0,7.499-0.577,9.884-1.731
	c2.384-1.154,3.577-2.731,3.577-4.73c0-1.615-0.705-2.731-2.115-3.346c-1.41-0.615-3.589-0.923-6.538-0.923h-6.076
	c-2.154,0-3.955,0.506-5.403,1.519C202.713,64.77,201.989,66.11,201.989,67.776z M206.258,32.779c0,2.333,0.532,4.179,1.596,5.538
	c1.064,1.359,2.686,2.038,4.865,2.038c2.205,0,3.82-0.679,4.846-2.038c1.026-1.359,1.538-3.205,1.538-5.538
	c0-5.179-2.128-7.769-6.384-7.769C208.411,25.011,206.258,27.6,206.258,32.779z"/>
<path fill="#8DC63F" d="M239.82,61.775l16.341-20.808l-16.075-22.768h1.52l22.86,22.768l-23.038,20.808H239.82z"/>
<g>
	<path fill="#8DC63F" d="M237.925,59.973l-0.59-3.04l14.17-18.838l1.843,2.03L237.925,59.973z"/>
</g>
<path fill="#8DC63F" d="M22.071,60.497L0,40.563L21.901,18.75h1.456l-15.4,21.813l15.655,19.935H22.071z"/>
</svg>
