<?xml version="1.0" encoding="utf-8"?>
<!-- Generator: Adobe Illustrator 15.0.0, SVG Export Plug-In . SVG Version: 6.00 Build 0)  -->
<!DOCTYPE svg PUBLIC "-//W3C//DTD SVG 1.1//EN" "http://www.w3.org/Graphics/SVG/1.1/DTD/svg11.dtd">
<svg version="1.1" id="Layer_1" xmlns="http://www.w3.org/2000/svg" xmlns:xlink="http://www.w3.org/1999/xlink" x="0px" y="0px"
	 width="600px" height="300px" viewBox="0 0 600 300" enable-background="new 0 0 600 300" xml:space="preserve">
<g>
	<path fill="#DBDBDB" d="M53.5,51.813c-0.189,0-0.378,0.094-0.565,0.283c-0.19,0.19-0.285,0.377-0.283,0.565l1.98,20.93l0.99,11.738
		c0.188,1.885-0.377,3.49-1.697,4.809l-13.859,13.859c-0.566,0.566-1.085,0.802-1.556,0.708c-0.473-0.093-0.755-0.566-0.849-1.415
		L31.862,36.68c-0.098-0.283-0.073-0.542,0.071-0.778c0.139-0.236,0.305-0.447,0.495-0.637l3.677-3.677
		c0.471-0.471,0.941-0.658,1.414-0.566l66.609,5.798c0.847,0.096,1.319,0.378,1.415,0.849c0.093,0.473-0.142,0.99-0.708,1.556
		L90.977,53.085c-1.322,1.322-2.924,1.885-4.809,1.697L74.43,53.792L53.5,51.813z"/>
	<path fill="#DBDBDB" d="M545.186,207.799c-0.191-1.887,0.375-3.486,1.696-4.809l13.859-13.859c0.565-0.565,1.083-0.799,1.556-0.707
		c0.471,0.096,0.752,0.566,0.849,1.415l5.798,66.608c0.094,0.473-0.095,0.944-0.565,1.415l-3.678,3.676
		c-0.188,0.191-0.401,0.354-0.636,0.495c-0.238,0.143-0.497,0.167-0.777,0.071l-66.609-5.798c-0.852-0.096-1.322-0.375-1.414-0.85
		c-0.096-0.47,0.141-0.989,0.707-1.555l13.857-13.859c1.32-1.319,2.923-1.887,4.81-1.697l32.668,2.97
		c0.187,0.001,0.376-0.093,0.565-0.282c0.188-0.188,0.281-0.378,0.283-0.566L545.186,207.799z"/>
	<path fill="#DBDBDB" d="M52.649,240.467c0,0.19,0.095,0.379,0.283,0.566c0.19,0.189,0.378,0.285,0.566,0.283l20.93-1.98
		l11.738-0.99c1.885-0.188,3.489,0.379,4.808,1.697l13.859,13.859c0.566,0.566,0.802,1.085,0.707,1.556
		c-0.093,0.474-0.565,0.755-1.414,0.849l-66.609,5.798c-0.283,0.098-0.542,0.073-0.778-0.07c-0.237-0.14-0.447-0.305-0.637-0.495
		l-3.677-3.677c-0.471-0.471-0.659-0.942-0.565-1.415l5.798-66.609c0.095-0.846,0.378-1.318,0.849-1.414
		c0.473-0.092,0.99,0.142,1.556,0.707l13.859,13.859c1.321,1.322,1.885,2.924,1.697,4.809l-0.99,11.738L52.649,240.467z"/>
	<path fill="#DBDBDB" d="M514.637,54.782c-1.887,0.19-3.488-0.375-4.809-1.696l-13.859-13.859c-0.566-0.566-0.8-1.083-0.707-1.556
		c0.095-0.471,0.564-0.751,1.414-0.849l66.609-5.798c0.473-0.093,0.943,0.095,1.414,0.566l3.677,3.677
		c0.19,0.19,0.354,0.401,0.495,0.636c0.143,0.239,0.166,0.497,0.07,0.778l-5.797,66.609c-0.096,0.852-0.377,1.323-0.85,1.415
		c-0.47,0.095-0.99-0.141-1.556-0.707l-13.858-13.859c-1.32-1.319-1.887-2.922-1.697-4.81l2.97-32.667
		c-0.001-0.186-0.093-0.376-0.282-0.566c-0.188-0.188-0.379-0.28-0.566-0.283L514.637,54.782z"/>
</g>
<g>
	<path fill="#393D40" d="M126.852,78.682v17.8c0,1.869-0.935,2.8-2.8,2.8h-22.8v28.8h19.8c1.865,0,2.8,0.934,2.8,2.8v17.8
		c0,1.869-0.935,2.801-2.8,2.801h-19.8v61.6c0,1.869-0.934,2.8-2.8,2.8h-17.8c-1.869,0-2.8-0.931-2.8-2.8v-134.4
		c0-1.865,0.931-2.8,2.8-2.8h43.4C125.917,75.882,126.852,76.816,126.852,78.682z"/>
	<path fill="#393D40" d="M180.85,195.281v17.801c0,1.869-0.935,2.8-2.8,2.8h-43.4c-1.869,0-2.8-0.931-2.8-2.8v-114.4
		c0-1.865,0.931-2.8,2.8-2.8h43.4c1.865,0,2.8,0.935,2.8,2.8v17.8c0,1.869-0.935,2.8-2.8,2.8h-22.8v22.8h19.8
		c1.865,0,2.8,0.934,2.8,2.8v17.8c0,1.869-0.935,2.801-2.8,2.801h-19.8v27h22.8C179.916,192.482,180.85,193.416,180.85,195.281z"/>
	<path fill="#393D40" d="M265.847,98.682v114.4c0,1.869-0.935,2.8-2.8,2.8h-19.2c-1.869,0-2.8-0.931-2.8-2.8v-53.2l-13.2,47.601
		c-0.269,0.668-0.6,1-1,1s-0.734-0.332-1-1l-13.2-47.601v53.2c0,1.869-0.934,2.8-2.8,2.8h-19.2c-1.869,0-2.8-0.931-2.8-2.8v-114.4
		c0-1.865,0.931-2.8,2.8-2.8h17c0.8,0,1.5,0.3,2.1,0.9s1.031,1.234,1.3,1.9l15.8,61.6l15.8-61.6c0.266-0.666,0.7-1.3,1.3-1.9
		s1.3-0.9,2.1-0.9h17C264.913,95.882,265.847,96.816,265.847,98.682z"/>
	<path fill="#393D40" d="M329.846,98.682v93.4c0,3.469-0.668,6.734-2,9.8c-1.334,3.069-3.134,5.734-5.399,8
		c-2.269,2.269-4.935,4.069-8,5.399c-3.069,1.332-6.335,2-9.8,2h-7.6c-3.469,0-6.734-0.668-9.8-2c-3.069-1.33-5.734-3.131-8-5.399
		c-2.269-2.266-4.069-4.931-5.4-8c-1.334-3.065-2-6.331-2-9.8v-93.4c0-1.865,0.931-2.8,2.8-2.8h17.8c1.866,0,2.8,0.935,2.8,2.8v92.4
		c0,1.334,0.466,2.469,1.4,3.4c0.932,0.934,2.066,1.399,3.4,1.399h1.6c1.331,0,2.465-0.466,3.4-1.399
		c0.931-0.932,1.399-2.066,1.399-3.4v-92.4c0-1.865,0.931-2.8,2.8-2.8h17.801C328.912,95.882,329.846,96.816,329.846,98.682z"/>
	<path fill="#393D40" d="M376.443,96.482c3.065,1.334,5.73,3.134,8,5.4c2.266,2.269,4.065,4.935,5.4,8c1.33,3.069,2,6.334,2,9.8v4.4
		c0,1.869-0.869,3.068-2.601,3.6l-18.2,6.6c-1.734,0.535-2.6-0.131-2.6-2v-11.6c0-1.331-0.469-2.465-1.4-3.4
		c-0.934-0.931-2.068-1.4-3.4-1.4h-1.6c-1.334,0-2.469,0.469-3.4,1.4c-0.934,0.935-1.399,2.069-1.399,3.4v70.4
		c0,1.334,0.466,2.469,1.399,3.4c0.932,0.934,2.066,1.399,3.4,1.399h1.6c1.332,0,2.467-0.466,3.4-1.399
		c0.932-0.932,1.4-2.066,1.4-3.4v-21.6h-5.6v-22.801h26.199c1.865,0,2.801,0.935,2.801,2.8v42.6c0,3.469-0.67,6.734-2,9.8
		c-1.335,3.069-3.135,5.734-5.4,8c-2.27,2.269-4.935,4.069-8,5.399c-3.068,1.332-6.334,2-9.801,2h-7.6c-3.469,0-6.734-0.668-9.8-2
		c-3.069-1.33-5.734-3.131-8-5.399c-2.269-2.266-4.069-4.931-5.399-8c-1.335-3.065-2-6.331-2-9.8v-72.4c0-3.465,0.665-6.731,2-9.8
		c1.33-3.065,3.131-5.731,5.399-8c2.266-2.266,4.931-4.065,8-5.4c3.065-1.332,6.331-2,9.8-2h7.6
		C370.109,94.482,373.375,95.15,376.443,96.482z"/>
	<path fill="#2B8852" d="M450.24,146.082c1.865,1.869,3.266,4.068,4.2,6.6c0.931,2.535,1.399,5.334,1.399,8.4v29.6
		c0,3.469-0.668,6.734-2,9.801c-1.334,3.068-3.134,5.734-5.399,8c-2.269,2.268-4.935,4.068-8,5.399c-3.069,1.335-6.335,2-9.8,2h-30
		c-1.869,0-2.801-0.931-2.801-2.8v-134.4c0-1.865,0.932-2.8,2.801-2.8h30c3.465,0,6.73,0.669,9.8,2c3.065,1.334,5.731,3.134,8,5.4
		c2.266,2.269,4.065,4.935,5.399,8c1.332,3.069,2,6.334,2,9.8v20c0,6.134-1.868,11.269-5.6,15.4c-2,2.134-4.4,3.869-7.199,5.2
		C445.972,142.75,448.371,144.216,450.24,146.082z M432.44,102.082c0-1.332-0.469-2.466-1.399-3.4c-0.936-0.931-2.069-1.4-3.4-1.4
		h-6.4v34h6.4c1.331,0,2.465-0.465,3.4-1.4c0.931-0.931,1.399-2.065,1.399-3.4V102.082z M432.44,157.882
		c0-1.331-0.469-2.466-1.399-3.399c-0.936-0.932-2.069-1.4-3.4-1.4h-6.4v41.4h6.4c1.331,0,2.465-0.467,3.4-1.4
		c0.931-0.932,1.399-2.066,1.399-3.4V157.882z"/>
	<path fill="#2B8852" d="M522.838,213.082c0.4,1.869-0.268,2.8-2,2.8h-18.199c-0.801,0-1.568-0.266-2.301-0.8
		c-0.734-0.531-1.234-1.2-1.5-2l-14.6-49v51.8l-0.199-2c-0.27,1.335-1.135,2-2.601,2h-17.8c-1.869,0-2.801-0.931-2.801-2.8v-134.4
		c0-1.865,0.932-2.8,2.801-2.8h30c3.465,0,6.73,0.669,9.8,2c3.065,1.334,5.731,3.134,8,5.4c2.266,2.269,4.065,4.935,5.399,8
		c1.332,3.069,2,6.334,2,9.8v32.6c0,4.935-1.268,9.369-3.799,13.3c-2.535,3.934-5.869,6.969-10,9.1L522.838,213.082z
		 M484.238,137.482h6.4c1.331,0,2.465-0.466,3.4-1.4c0.931-0.932,1.399-2.066,1.399-3.4v-30.6c0-1.332-0.469-2.466-1.399-3.4
		c-0.936-0.931-2.069-1.4-3.4-1.4h-6.4V137.482z"/>
</g>
<g>
	<path fill="#DBDBDB" d="M251.401,70.234c-6.399,1.731-12.101,3.865-17.101,6.4c-5,2.531-9.631,5.465-13.899,8.8
		c-1.2,1.066-2.399,1-3.601-0.2l-5-5c-1.199-1.2-1.199-2.4,0-3.6c4.936-5.469,10.4-10.3,16.4-14.5c6-4.2,12.731-7.7,20.2-10.5
		c14.399-5.734,31.731-8.6,52-8.6c20,0,37.331,2.866,52,8.6c7.331,2.8,14.031,6.3,20.101,10.5c6.064,4.2,11.564,9.031,16.5,14.5
		c1.199,1.2,1.199,2.4,0,3.6l-5,5c-1.201,1.2-2.4,1.266-3.601,0.2c-4.269-3.334-8.899-6.269-13.899-8.8
		c-5-2.535-10.701-4.669-17.101-6.4c-6.399-1.869-13.601-3.3-21.601-4.3s-17.134-1.5-27.399-1.5c-10.269,0-19.399,0.5-27.399,1.5
		S257.801,68.365,251.401,70.234z"/>
	<path fill="#DBDBDB" d="M273.002,246.031c8,1.064,17.131,1.6,27.399,1.6c10.266,0,19.399-0.535,27.399-1.6
		c8-1.069,15.201-2.469,21.601-4.201c6.399-1.868,12.101-4.033,17.101-6.5c5-2.469,9.631-5.368,13.899-8.699
		c1.2-1.068,2.399-1,3.601,0.199l5,5c1.199,1.201,1.199,2.4,0,3.601c-9.869,10.931-22.069,19.266-36.601,25
		c-7.469,2.8-15.469,4.931-24,6.399c-8.534,1.467-17.868,2.201-28,2.201c-10.134,0-19.5-0.734-28.101-2.201
		c-8.6-1.469-16.568-3.6-23.899-6.399c-7.469-2.935-14.2-6.469-20.2-10.601c-6-4.134-11.465-8.934-16.4-14.399
		c-1.199-1.2-1.199-2.399,0-3.601l5-5c1.201-1.199,2.4-1.268,3.601-0.199c4.269,3.331,8.899,6.23,13.899,8.699
		c5,2.467,10.701,4.632,17.101,6.5C257.801,243.563,265.002,244.962,273.002,246.031z"/>
</g>
</svg>
