<?xml version="1.0" encoding="utf-8"?>
<!-- Generator: Adobe Illustrator 19.1.0, SVG Export Plug-In . SVG Version: 6.00 Build 0)  -->
<svg version="1.1" id="Camada_1" xmlns="http://www.w3.org/2000/svg" xmlns:xlink="http://www.w3.org/1999/xlink" x="0px" y="0px"
	 viewBox="0 0 1081 560" style="enable-background:new 0 0 1081 560;" xml:space="preserve">
<style type="text/css">
	.st0{clip-path:url(#SVGID_2_);fill:#1F742F;}
	.st1{clip-path:url(#SVGID_2_);fill:#9C332A;}
	.st2{clip-path:url(#SVGID_2_);fill:#1D406B;}
	.st3{clip-path:url(#SVGID_2_);fill:#2DBEA0;}
	.st4{clip-path:url(#SVGID_2_);fill:#F79A4B;}
	.st5{clip-path:url(#SVGID_2_);fill:#9F57B1;}
	.st6{clip-path:url(#SVGID_2_);fill:#1A2719;}
	.st7{clip-path:url(#SVGID_2_);fill:#7E8C8D;}
	.st8{clip-path:url(#SVGID_2_);}
	.st9{fill:#FFFFFF;}
</style>
<g>
	<defs>
		<rect id="SVGID_1_" width="1081" height="560"/>
	</defs>
	<clipPath id="SVGID_2_">
		<use xlink:href="#SVGID_1_"  style="overflow:visible;"/>
	</clipPath>
	<path class="st0" d="M712.9,361c0,0,5,43,33.8,58.6c36.6,19.9,79.1,16,79.1,16L712.9,361z"/>
	<path class="st1" d="M751.7,176.7c0,0,58.4-46.2,124.6-43.5c26.1,1,73.7,28.3,94.8,43.5c55.5,40.1,56,59.4,56.4,84
		c0.9,59.2-30.9,106.5-30.9,106.5L751.7,176.7z"/>
	<path class="st0" d="M945.6,417.6l51.1-63c0,0-5.7,38.3-14,47.6C975.9,409.7,945.6,417.6,945.6,417.6"/>
	<path class="st2" d="M825.8,435.5c0,0,31.4,21.6,72.5,14.5c30.6-5.3,53-34.3,53-34.3L825.8,435.5z"/>
	<path class="st2" d="M746.9,167.2c0,0-27.1,19.3-33.8,28c-32.3,42-39.5,115.7-39.5,115.7l10.7,30.1l28.5,20l41.8-185.5l-1.5-6.3
		L746.9,167.2z"/>
	<path class="st3" d="M907.7,446.7c-21,7.1-50.6,1.7-81.9-11.2c-23.1-0.9-60.3-5.2-81.4-17.3c-22.4-12.8-31-53.8-31.5-57.3
		c-17.3-16.7-31.2-34-39.2-50.1c-6.2,43.8-2.6,86.6,16.8,104.8c51.6,48.6,238.9,55,283.6,0c3.1-3.8,5.9-8.4,8.5-13.5
		c-9.4,5-20,9.5-31.3,13.5C936.6,430.8,921.5,442.1,907.7,446.7"/>
	<path class="st4" d="M983.4,148.5c-20.7-17.9-62.9-21.3-107.1-15.4c66.1,22.9,144.6,79,150.3,124.9c3.1,24.8-9.9,61.8-30,96.6
		c-3,18.2-7.7,34.8-14,47.6c18-9.6,32-21,39.3-34C1049.1,319.5,1025.6,185,983.4,148.5"/>
	<path class="st5" d="M721.7,192.7c7.9-6.9,19.2-12.9,32.5-17.8c29.2-19.9,76.8-35.7,122.1-41.8c-24.1-8.4-46.6-12.3-63.3-9.7
		c-55.6,8.6-159.4,117.5-145.3,172c1.3,5,3.3,10.1,5.9,15.4C680.5,262.2,699.3,212.2,721.7,192.7"/>
	<path class="st6" d="M974.2,192.7c-33.3-40.7-153.3-42.3-220-17.8c-8,5.5-14.7,11.2-19.5,17.2c-24.5,30.2-33.9,111.4-21.8,168.9
		c31.1,30,73.4,58.3,112.9,74.5c41,0.5,87.5-6.6,125.5-19.8c16.4-16.9,32.4-38.5,45.3-61C1006,297.2,998.6,222.6,974.2,192.7"/>
	<path class="st7" d="M119.4,236.2H67.3c-4.5,0-8.1,1.4-11,4.3c-2.9,2.9-4.3,6.5-4.3,11v39h59.7v3.9H52.1v66h-4.6V251
		c0-5.5,1.8-10,5.4-13.6c3.6-3.6,8.1-5.4,13.6-5.4c23.7,0,41.5,0.3,53.4,0.7L119.4,236.2z"/>
	<path class="st7" d="M218.7,356.3l0.4,3.3c-12.1,0.5-30.4,0.7-54.7,0.7c-5.5,0-10-1.8-13.6-5.4c-3.6-3.6-5.4-8.1-5.4-13.6V251
		c0-5.5,1.8-10,5.4-13.6c3.6-3.6,8.1-5.4,13.6-5.4c24.3,0,42.5,0.3,54.7,0.7l-0.4,3.3h-53.4c-4.5,0-8.1,1.4-11,4.3
		c-2.9,2.9-4.3,6.5-4.3,11v38.3h61v3.9h-61V341c0,4.5,1.4,8.1,4.3,11c2.8,2.9,6.5,4.3,11,4.3H218.7z"/>
	<path class="st7" d="M356.1,232.1h7.8c1.9,0,2.8,0.9,2.8,2.8l5.6,125.5h-4.6L362,236.2h-4.5l-42,111.4c-0.4,1.1-1.2,1.7-2.4,1.7
		h-7.8c-1.2,0-2-0.6-2.4-1.7l-42-111.4h-4.5l-5.6,124.2h-4.6l5.6-125.5c0-1.9,0.9-2.8,2.8-2.8h7.8c1.2,0,2,0.6,2.4,1.7l35.5,93.9
		c0.7,2,1.8,4.9,3.3,8.7c1.4,3.8,2.5,6.8,3.3,8.7h4.8l6.7-17.8l35.3-93.5C354,232.6,354.8,232.1,356.1,232.1"/>
	<path class="st7" d="M494.4,232.1v80.9c0,18-3.3,30.7-9.9,38.3c-6.6,7.6-17.9,11.3-33.7,11.3c-16,0-27.3-3.8-33.9-11.3
		c-6.6-7.6-9.9-20.3-9.9-38.3v-80.9h4.6v80.9c0,16.6,2.9,28.3,8.8,35.1c5.9,6.8,16,10.2,30.4,10.2c14.3,0,24.3-3.4,30.2-10.2
		c5.9-6.8,8.8-18.5,8.8-35.1v-80.9H494.4z"/>
	<path class="st7" d="M613.2,286v74.4H610l-1.1-16.5c-11.6,12.5-24.9,18.8-39.8,18.8c-15.1,0-26-5.2-32.5-15.6
		c-6.6-10.4-9.9-27.3-9.9-50.8c0-24.5,3.6-41.7,10.7-51.6c7.1-9.9,19.5-14.8,37.3-14.8c13.9,0,26,1.1,36.4,3.2l-1.1,3.3
		c-10.4-1.5-22.2-2.2-35.3-2.2c-16.1,0-27.3,4.6-33.6,13.8c-6.3,9.2-9.5,25.3-9.5,48.3c0,21.9,2.9,37.8,8.7,47.5
		c5.8,9.7,15.6,14.6,29.2,14.6c4.3,0,8.4-0.5,12.1-1.5c3.7-1,7.3-2.6,10.9-4.8c3.5-2.2,6.2-4.1,8.1-5.6c1.9-1.5,4.5-3.8,8-6.9V286
		H613.2z"/>
	<g class="st8">
		<path class="st9" d="M782.6,331.7l1,6.2c-6.6,1.8-14.9,2.7-25.1,2.7c-12.3,0-21-3.4-25.9-10.1c-5-6.7-7.5-18.4-7.5-35.1
			c0-16.6,2.5-28.3,7.5-35.1c5-6.7,13.6-10.1,25.9-10.1c9.2,0,17,0.8,23.3,2.4l-1,6.2c-6.4-0.8-13.8-1.1-22.3-1.1
			c-9.3,0-15.7,2.7-19.4,8.2c-3.6,5.5-5.4,15.3-5.4,29.5s1.8,24,5.4,29.5c3.6,5.5,10.1,8.2,19.4,8.2
			C768.2,333.1,776.2,332.6,782.6,331.7z"/>
		<path class="st9" d="M903.6,251.7l-19.7,84.8c-0.4,1.7-1.6,2.5-3.4,2.5h-10c-1.9,0-3.1-0.9-3.5-2.7l-15.3-68.5l-2.2-9.7h-2.8
			c-1,4.4-1.8,7.6-2.3,9.7L829,336.4c-0.4,1.8-1.6,2.7-3.4,2.7h-10.1c-1.9,0-3-0.8-3.4-2.5l-19.6-84.8h8.7l15.9,70.7
			c0.7,2.8,1.3,6.2,2,10.1h3.2c0.7-3.6,1.3-7,2-10l15.4-67.9c0.4-1.9,1.6-2.9,3.4-2.9h9.5c1.9,0,3,1,3.4,2.9l15.4,67.9
			c0.4,1.8,1.1,5.1,2,10h3.3c0.2-0.8,0.4-1.8,0.6-3.2c0.2-1.3,0.4-2.6,0.6-3.7c0.2-1.1,0.4-2.1,0.7-3l16.1-71H903.6z"/>
		<path class="st9" d="M960.1,293.5v0.5c6.3,0.6,10.8,2.8,13.5,6.6c2.7,3.8,4,9.4,4,16.6c0,8.8-2,14.8-6.1,18
			c-4.1,3.2-11.2,4.8-21.4,4.8c-13.2,0-23.5-0.3-30.7-1v-87.3c6.3-0.7,15.3-1,27-1c10.8,0,18.3,1.6,22.5,4.7c4.2,3.2,6.3,9.2,6.3,18
			c0,6.3-1.2,11.1-3.5,14.4C969,291.1,965.3,293,960.1,293.5z M927.3,290.6H948c7.2-0.1,12.1-1.2,14.8-3.4c2.7-2.2,4-6.5,4-12.8
			c0-6.6-1.5-11-4.5-13.2c-3-2.2-8.5-3.4-16.4-3.4c-9.3,0-15.5,0-18.6,0.1V290.6z M927.3,297v35.7c7.1,0.2,14.3,0.3,21.6,0.3
			c7.7,0,12.9-1.1,15.8-3.4c2.9-2.3,4.3-6.7,4.3-13.4c0-7.3-1.5-12.3-4.6-14.9c-3-2.6-8.6-4-16.6-4.2H927.3z"/>
	</g>
</g>
</svg>
