<svg xmlns="http://www.w3.org/2000/svg" xmlns:xlink="http://www.w3.org/1999/xlink" version="1.1" id="Camada_1" x="0px" y="0px" width="1081px" height="560px" viewBox="0 0 1081 560" enable-background="new 0 0 1081 560" xml:space="preserve"><g><defs><rect id="SVGID_1_" width="1081" height="560"/></defs><clipPath id="SVGID_2_"><use xlink:href="#SVGID_1_" overflow="visible"/></clipPath><path clip-path="url(#SVGID_2_)" fill="#1F742F" d="M712.916 360.965c0 0 5 43 33.8 58.6 c36.604 19.9 79.1 16 79.1 15.963L712.916 360.965z"/><path clip-path="url(#SVGID_2_)" fill="#9C332A" d="M751.679 176.702c0 0 58.366-46.197 124.622-43.527 c26.063 1.1 73.7 28.3 94.8 43.527c55.506 40.1 56 59.4 56.4 84.024c0.886 59.152-30.863 106.491-30.863 106.5 L751.679 176.702z"/><path clip-path="url(#SVGID_2_)" fill="#1F742F" d="M945.597 417.611l51.063-62.959c0 0-5.738 38.344-14.022 47.6 C975.937 409.7 945.6 417.6 945.6 417.6"/><path clip-path="url(#SVGID_2_)" fill="#1D406B" d="M825.818 435.514c0 0 31.4 21.6 72.5 14.5 c30.617-5.261 53.017-34.326 53.017-34.326L825.818 435.514z"/><path clip-path="url(#SVGID_2_)" fill="#1D406B" d="M746.918 167.23c0 0-27.067 19.308-33.75 28 c-32.291 42.003-39.465 115.654-39.465 115.654l10.715 30.097l28.498 19.984l41.752-185.485l-1.5-6.25L746.918 167.23z"/><path clip-path="url(#SVGID_2_)" fill="#2DBEA0" d="M907.734 446.724c-21.008 7.108-50.607 1.692-81.916-11.21 c-23.148-0.922-60.271-5.24-81.395-17.295c-22.448-12.812-30.971-53.811-31.508-57.254c-17.333-16.725-31.196-34-39.213-50.081 c-6.152 43.831-2.605 86.6 16.8 104.833c51.639 48.6 238.9 55 283.6 0c3.098-3.812 5.916-8.363 8.471-13.498 c-9.439 5.009-19.996 9.508-31.312 13.46C936.607 430.8 921.5 442.1 907.7 446.7"/><path clip-path="url(#SVGID_2_)" fill="#F79A4B" d="M983.418 148.543c-20.748-17.896-62.854-21.277-107.117-15.369 c66.112 22.9 144.6 79 150.3 124.89c3.076 24.834-9.932 61.785-29.974 96.587c-2.979 18.248-7.655 34.761-14.023 47.6 c18.042-9.573 32.001-20.999 39.263-34.021C1049.055 319.5 1025.6 185 983.4 148.5"/><path clip-path="url(#SVGID_2_)" fill="#9F57B1" d="M721.689 192.717c7.947-6.914 19.172-12.874 32.525-17.79 c29.238-19.928 76.785-35.706 122.086-41.752c-24.122-8.359-46.594-12.305-63.269-9.723 c-55.627 8.615-159.377 117.545-145.266 172.041c1.284 5 3.3 10.1 5.9 15.4 C680.538 262.2 699.3 212.2 721.7 192.7"/><path clip-path="url(#SVGID_2_)" fill="#1A2719" d="M974.168 192.717c-33.297-40.703-153.291-42.333-219.953-17.79 c-8.007 5.456-14.65 11.221-19.486 17.185c-24.507 30.219-33.885 111.387-21.812 168.9 c31.113 30 73.4 58.3 112.9 74.549c41.002 0.5 87.497-6.557 125.509-19.835c16.43-16.859 32.356-38.489 45.335-61.026 C1006.041 297.2 998.6 222.6 974.2 192.7"/><path clip-path="url(#SVGID_2_)" fill="#7E8C8D" d="M119.398 236.171H67.345c-4.461 0-8.119 1.426-10.968 4.3 c-2.854 2.853-4.276 6.506-4.276 10.968v39.04h59.675v3.904H52.103v65.994h-4.647V251.043c0-5.453 1.795-9.975 5.39-13.571 c3.594-3.593 8.116-5.391 13.572-5.391c23.67 0 41.5 0.2 53.4 0.744L119.398 236.171z"/><path clip-path="url(#SVGID_2_)" fill="#7E8C8D" d="M218.671 356.264l0.372 3.347c-12.147 0.497-30.366 0.743-54.655 0.7 c-5.456 0-9.98-1.795-13.571-5.391c-3.596-3.594-5.391-8.116-5.391-13.571v-90.349c0-5.453 1.795-9.975 5.391-13.571 c3.596-3.593 8.116-5.391 13.571-5.391c24.289 0 42.5 0.2 54.7 0.744l-0.372 3.346h-53.354c-4.461 0-8.12 1.426-10.968 4.3 c-2.852 2.853-4.277 6.506-4.277 10.968v38.296h60.98v3.904h-60.98v47.404c0 4.5 1.4 8.1 4.3 11 c2.849 2.9 6.5 4.3 11 4.275H218.671z"/><path clip-path="url(#SVGID_2_)" fill="#7E8C8D" d="M356.053 232.081h7.808c1.859 0 2.8 0.9 2.8 2.789l5.577 125.483h-4.646 l-5.577-124.183h-4.462l-42.017 111.355c-0.371 1.116-1.179 1.676-2.416 1.676H305.3c-1.24 0-2.044-0.56-2.417-1.676 l-42.014-111.354h-4.464l-5.575 124.183h-4.648l5.578-125.483c0-1.859 0.93-2.789 2.788-2.789h7.808 c1.238 0 2 0.6 2.4 1.673l35.507 93.881c0.744 2 1.8 4.9 3.3 8.738c1.427 3.8 2.5 6.8 3.3 8.733h4.833 l6.691-17.847l35.321-93.509C354.008 232.6 354.8 232.1 356.1 232.1"/><path clip-path="url(#SVGID_2_)" fill="#7E8C8D" d="M494.36 232.081v80.868c0 17.972-3.315 30.736-9.945 38.3 c-6.631 7.562-17.879 11.34-33.738 11.34c-15.989 0-27.3-3.778-33.93-11.34c-6.631-7.56-9.943-20.324-9.943-38.296v-80.868h4.646 v80.868c0 16.6 2.9 28.3 8.8 35.136c5.885 6.8 16 10.2 30.4 10.226c14.25 0 24.318-3.407 30.209-10.226 c5.885-6.814 8.829-18.526 8.829-35.136v-80.868H494.36z"/><path clip-path="url(#SVGID_2_)" fill="#7E8C8D" d="M613.151 285.992v74.36h-3.159l-1.116-16.545 c-11.647 12.521-24.907 18.775-39.78 18.775c-15.121 0-25.967-5.205-32.533-15.615c-6.569-10.41-9.854-27.328-9.854-50.752 c0-24.539 3.562-41.734 10.688-51.587c7.125-9.853 19.549-14.78 37.271-14.78c13.882 0 26 1.1 36.4 3.162l-1.115 3.3 c-10.411-1.488-22.187-2.23-35.322-2.23c-16.109 0-27.324 4.587-33.646 13.757c-6.32 9.172-9.481 25.281-9.481 48.3 c0 21.9 2.9 37.8 8.7 47.498c5.823 9.7 15.6 14.6 29.2 14.595c4.339 0 8.365-0.494 12.084-1.488 c3.72-0.987 7.345-2.603 10.875-4.833c3.531-2.229 6.229-4.09 8.089-5.575c1.856-1.486 4.521-3.778 7.991-6.878v-53.543H613.151z"/><g clip-path="url(#SVGID_2_)"><text transform="matrix(1 0 0 1 747.9727 358.5)" fill="#FFFFFF" font-family="'Exo2-Light'" font-size="183">AL</text></g></g></svg>