<?xml version="1.0" encoding="utf-8"?>
<!-- Generator: Adobe Illustrator 15.0.0, SVG Export Plug-In . SVG Version: 6.00 Build 0)  -->
<!DOCTYPE svg PUBLIC "-//W3C//DTD SVG 1.1//EN" "http://www.w3.org/Graphics/SVG/1.1/DTD/svg11.dtd">
<svg version="1.1" id="Camada_1" xmlns="http://www.w3.org/2000/svg" xmlns:xlink="http://www.w3.org/1999/xlink" x="0px" y="0px"
	 width="1081px" height="560px" viewBox="0 0 1081 560" enable-background="new 0 0 1081 560" xml:space="preserve">
<g>
	<defs>
		<rect id="SVGID_1_" width="1081" height="560"/>
	</defs>
	<clipPath id="SVGID_2_">
		<use xlink:href="#SVGID_1_"  overflow="visible"/>
	</clipPath>
	<path clip-path="url(#SVGID_2_)" fill="#1F742F" d="M712.916,360.965c0,0,5,42.953,33.795,58.586
		c36.604,19.872,79.106,15.963,79.106,15.963L712.916,360.965z"/>
	<path clip-path="url(#SVGID_2_)" fill="#9C332A" d="M751.679,176.702c0,0,58.366-46.197,124.622-43.527
		c26.063,1.05,73.679,28.258,94.828,43.527c55.506,40.074,56.026,59.404,56.396,84.024c0.886,59.152-30.863,106.491-30.863,106.491
		L751.679,176.702z"/>
	<path clip-path="url(#SVGID_2_)" fill="#1F742F" d="M945.597,417.611l51.063-62.959c0,0-5.738,38.344-14.022,47.566
		C975.937,409.68,945.597,417.611,945.597,417.611"/>
	<path clip-path="url(#SVGID_2_)" fill="#1D406B" d="M825.818,435.514c0,0,31.387,21.554,72.492,14.491
		c30.617-5.261,53.017-34.326,53.017-34.326L825.818,435.514z"/>
	<path clip-path="url(#SVGID_2_)" fill="#1D406B" d="M746.918,167.23c0,0-27.067,19.308-33.75,28
		c-32.291,42.003-39.465,115.654-39.465,115.654l10.715,30.097l28.498,19.984l41.752-185.485l-1.5-6.25L746.918,167.23z"/>
	<path clip-path="url(#SVGID_2_)" fill="#2DBEA0" d="M907.734,446.724c-21.008,7.108-50.607,1.692-81.916-11.21
		c-23.148-0.922-60.271-5.24-81.395-17.295c-22.448-12.812-30.971-53.811-31.508-57.254c-17.333-16.725-31.196-34-39.213-50.081
		c-6.152,43.831-2.605,86.555,16.815,104.833c51.639,48.6,238.94,55.043,283.647,0c3.098-3.813,5.916-8.363,8.471-13.498
		c-9.439,5.009-19.996,9.508-31.312,13.46C936.607,430.785,921.488,442.069,907.734,446.724"/>
	<path clip-path="url(#SVGID_2_)" fill="#F79A4B" d="M983.418,148.543c-20.748-17.896-62.854-21.277-107.117-15.369
		c66.112,22.909,144.645,78.995,150.334,124.89c3.076,24.834-9.932,61.785-29.974,96.587c-2.979,18.248-7.655,34.761-14.023,47.566
		c18.042-9.573,32.001-20.999,39.263-34.021C1049.055,319.508,1025.635,184.957,983.418,148.543"/>
	<path clip-path="url(#SVGID_2_)" fill="#9F57B1" d="M721.689,192.717c7.947-6.914,19.172-12.874,32.525-17.79
		c29.238-19.928,76.785-35.706,122.086-41.752c-24.122-8.359-46.594-12.305-63.269-9.723
		c-55.627,8.615-159.377,117.545-145.266,172.041c1.284,4.959,3.305,10.113,5.937,15.393
		C680.538,262.203,699.342,212.159,721.689,192.717"/>
	<path clip-path="url(#SVGID_2_)" fill="#1A2719" d="M974.168,192.717c-33.297-40.703-153.291-42.333-219.953-17.79
		c-8.007,5.456-14.65,11.221-19.486,17.185c-24.507,30.219-33.885,111.387-21.813,168.854
		c31.113,30.022,73.362,58.256,112.901,74.549c41.002,0.544,87.497-6.557,125.509-19.835c16.43-16.859,32.356-38.489,45.335-61.026
		C1006.041,297.189,998.598,222.582,974.168,192.717"/>
	<path clip-path="url(#SVGID_2_)" fill="#7E8C8D" d="M119.398,236.171H67.345c-4.461,0-8.119,1.426-10.968,4.276
		c-2.854,2.853-4.276,6.506-4.276,10.968v39.04h59.675v3.904H52.103v65.994h-4.647V251.043c0-5.453,1.795-9.975,5.39-13.571
		c3.594-3.593,8.116-5.391,13.572-5.391c23.67,0,41.457,0.25,53.353,0.744L119.398,236.171z"/>
	<path clip-path="url(#SVGID_2_)" fill="#7E8C8D" d="M218.671,356.264l0.372,3.347c-12.147,0.497-30.366,0.743-54.655,0.743
		c-5.456,0-9.98-1.795-13.571-5.391c-3.596-3.594-5.391-8.116-5.391-13.571v-90.349c0-5.453,1.795-9.975,5.391-13.571
		c3.596-3.593,8.116-5.391,13.571-5.391c24.289,0,42.508,0.25,54.655,0.744l-0.372,3.346h-53.354c-4.461,0-8.12,1.426-10.968,4.276
		c-2.852,2.853-4.277,6.506-4.277,10.968v38.296h60.98v3.904h-60.98v47.404c0,4.462,1.427,8.119,4.277,10.969
		c2.849,2.854,6.507,4.275,10.968,4.275H218.671z"/>
	<path clip-path="url(#SVGID_2_)" fill="#7E8C8D" d="M356.053,232.081h7.808c1.859,0,2.789,0.93,2.789,2.789l5.577,125.483h-4.646
		l-5.577-124.183h-4.462l-42.017,111.355c-0.371,1.116-1.179,1.676-2.416,1.676H305.3c-1.24,0-2.044-0.56-2.417-1.676
		l-42.014-111.354h-4.464l-5.575,124.183h-4.648l5.578-125.483c0-1.859,0.93-2.789,2.788-2.789h7.808
		c1.238,0,2.045,0.558,2.417,1.673l35.507,93.881c0.744,1.984,1.827,4.896,3.252,8.738c1.427,3.842,2.513,6.756,3.257,8.733h4.833
		l6.691-17.847l35.321-93.509C354.008,232.639,354.813,232.081,356.053,232.081"/>
	<path clip-path="url(#SVGID_2_)" fill="#7E8C8D" d="M494.36,232.081v80.868c0,17.972-3.315,30.736-9.945,38.296
		c-6.631,7.562-17.879,11.34-33.738,11.34c-15.989,0-27.3-3.778-33.93-11.34c-6.631-7.56-9.943-20.324-9.943-38.296v-80.868h4.646
		v80.868c0,16.606,2.942,28.319,8.831,35.136c5.885,6.814,16.018,10.226,30.396,10.226c14.25,0,24.318-3.407,30.209-10.226
		c5.885-6.814,8.829-18.526,8.829-35.136v-80.868H494.36z"/>
	<path clip-path="url(#SVGID_2_)" fill="#7E8C8D" d="M613.151,285.992v74.36h-3.159l-1.116-16.545
		c-11.647,12.521-24.907,18.775-39.78,18.775c-15.121,0-25.967-5.205-32.533-15.615c-6.569-10.41-9.854-27.328-9.854-50.752
		c0-24.539,3.562-41.734,10.688-51.587c7.125-9.853,19.549-14.78,37.271-14.78c13.882,0,26.027,1.056,36.438,3.162l-1.115,3.346
		c-10.411-1.488-22.187-2.23-35.322-2.23c-16.109,0-27.324,4.587-33.646,13.757c-6.32,9.172-9.481,25.281-9.481,48.333
		c0,21.938,2.911,37.771,8.738,47.498c5.823,9.729,15.552,14.595,29.188,14.595c4.339,0,8.365-0.494,12.084-1.488
		c3.72-0.987,7.345-2.603,10.875-4.833c3.531-2.229,6.229-4.09,8.089-5.575c1.856-1.486,4.521-3.778,7.991-6.878v-53.543H613.151z"
		/>
	<g clip-path="url(#SVGID_2_)">
		<path fill="#FFFFFF" d="M782.743,302.868l-26.901-5.673c-8.907-1.83-15.252-5.459-19.032-10.889
			c-3.782-5.428-5.673-13.205-5.673-23.333c0-7.32,0.732-13.205,2.196-17.66c1.464-4.452,4.025-7.777,7.686-9.974
			c3.66-2.196,7.687-3.628,12.078-4.3c4.393-0.669,10.368-0.944,17.935-0.824c13.542,0,25.68,0.978,36.417,2.928l-0.915,8.784
			c-14.397-0.732-26.049-1.098-34.953-1.098c-5.979,0-10.371,0.154-13.176,0.458c-2.809,0.306-5.582,1.189-8.327,2.653
			s-4.575,3.723-5.49,6.771c-0.915,3.051-1.372,7.26-1.372,12.627c0,7.566,1.31,13.024,3.935,16.378
			c2.622,3.357,7.105,5.645,13.45,6.863l26.353,5.489c9.393,1.83,16.012,5.462,19.855,10.889c3.843,5.431,5.765,13.331,5.765,23.699
			c0,7.32-0.795,13.238-2.38,17.751c-1.587,4.515-4.209,7.932-7.868,10.248c-3.66,2.318-7.81,3.871-12.444,4.666
			c-4.638,0.792-10.737,1.189-18.3,1.189c-13.908,0-26.718-0.915-38.431-2.745l0.732-8.967c15.126,0.732,27.816,1.098,38.064,1.098
			c11.1-0.119,18.603-1.646,22.509-4.574c3.902-2.928,5.855-9.211,5.855-18.85c0-7.929-1.313-13.541-3.935-16.836
			C793.751,306.346,789.208,304.089,782.743,302.868z"/>
		<path fill="#FFFFFF" d="M942.316,232.23h14.274c3.537,0,5.307,1.77,5.307,5.307l5.308,120.963H955.31l-4.94-116.205h-4.026
			l-32.757,99.003c-0.855,2.685-2.686,4.026-5.49,4.026h-12.078c-2.808,0-4.638-1.342-5.49-4.026l-32.939-99.003h-3.843
			L848.986,358.5h-11.895l5.124-120.963c0-3.537,1.767-5.307,5.307-5.307h14.457c2.563,0,4.329,1.404,5.308,4.209l27.633,82.35
			c1.95,6.102,3.66,11.835,5.124,17.202h4.025c0.732-2.683,2.5-8.478,5.308-17.386l27.633-82.167
			C937.742,233.634,939.509,232.23,942.316,232.23z"/>
	</g>
</g>
</svg>
