<?xml version="1.0" encoding="UTF-8" standalone="no"?>
<svg
   xmlns:dc="http://purl.org/dc/elements/1.1/"
   xmlns:cc="http://creativecommons.org/ns#"
   xmlns:rdf="http://www.w3.org/1999/02/22-rdf-syntax-ns#"
   xmlns:svg="http://www.w3.org/2000/svg"
   xmlns="http://www.w3.org/2000/svg"
   xmlns:sodipodi="http://sodipodi.sourceforge.net/DTD/sodipodi-0.dtd"
   xmlns:inkscape="http://www.inkscape.org/namespaces/inkscape"
   width="1081"
   height="560"
   viewBox="0 0 1081 560"
   id="svg2"
   version="1.1"
   inkscape:version="0.48.4 r9939"
   sodipodi:docname="FEMUG-SM.svg"
   inkscape:export-filename="/home/thiago/Documentos/femugsm/logo.png"
   inkscape:export-xdpi="90"
   inkscape:export-ydpi="90">
  <metadata
     id="metadata28">
    <rdf:RDF>
      <cc:Work
         rdf:about="">
        <dc:format>image/svg+xml</dc:format>
        <dc:type
           rdf:resource="http://purl.org/dc/dcmitype/StillImage" />
        <dc:title />
      </cc:Work>
    </rdf:RDF>
  </metadata>
  <defs
     id="defs26" />
  <sodipodi:namedview
     pagecolor="#ffffff"
     bordercolor="#666666"
     borderopacity="1"
     objecttolerance="10"
     gridtolerance="10"
     guidetolerance="10"
     inkscape:pageopacity="0"
     inkscape:pageshadow="2"
     inkscape:window-width="1366"
     inkscape:window-height="744"
     id="namedview24"
     showgrid="false"
     inkscape:zoom="0.26641998"
     inkscape:cx="540.5"
     inkscape:cy="280"
     inkscape:window-x="0"
     inkscape:window-y="24"
     inkscape:window-maximized="1"
     inkscape:current-layer="svg2" />
  <path
     fill="#1F742F"
     d="M711.872 346.248s5 42.953 33.795 58.586c36.604 19.872 79.106 15.963 79.106 15.963l-112.901-74.549z"
     id="path4" />
  <path
     fill="#9C332A"
     d="M750.634 161.985s58.366-46.197 124.622-43.527c26.064 1.05 73.68 28.258 94.828 43.527 55.506 40.074 56.027 59.404 56.396 84.024.887 59.152-30.863 106.491-30.863 106.491l-244.983-190.515z"
     id="path6" />
  <path
     fill="#1F742F"
     d="M944.552 402.895l51.065-62.959s-5.74 38.345-14.024 47.566c-6.7 7.461-37.041 15.393-37.041 15.393z"
     id="path8" />
  <path
     fill="#1D406B"
     d="M824.773 420.797s31.388 21.554 72.492 14.491c30.616-5.261 53.018-34.326 53.018-34.326l-125.51 19.835zm-78.899-268.284s-27.067 19.308-33.75 28c-32.291 42.003-39.465 115.654-39.465 115.654l10.715 30.096 28.498 19.985 41.752-185.485-1.5-6.25-6.25-2z"
     id="path10" />
  <path
     fill="#2DBEA0"
     d="M906.689 432.007c-21.008 7.108-50.607 1.692-81.916-11.21-23.147-.922-60.271-5.24-81.396-17.295-22.448-12.812-30.97-53.811-31.507-57.254-17.333-16.725-31.197-34-39.213-50.081-6.153 43.831-2.606 86.555 16.813 104.833 51.641 48.6 238.941 55.043 283.648 0 3.097-3.812 5.916-8.363 8.47-13.498-9.439 5.009-19.996 9.508-31.311 13.46-14.715 15.107-29.834 26.391-43.588 31.045z"
     id="path12" />
  <path
     fill="#F79A4B"
     d="M982.373 133.826c-20.747-17.896-62.854-21.277-107.117-15.369 66.113 22.909 144.645 78.995 150.334 124.89 3.076 24.834-9.931 61.785-29.973 96.586-2.979 18.248-7.656 34.762-14.024 47.566 18.042-9.573 32.001-20.999 39.263-34.021 27.154-48.687 3.734-183.238-38.483-219.652z"
     id="path14" />
  <path
     fill="#9F57B1"
     d="M720.645 178c7.947-6.914 19.172-12.874 32.525-17.79 29.239-19.928 76.786-35.706 122.086-41.752-24.122-8.359-46.593-12.305-63.268-9.723-55.627 8.615-159.377 117.545-145.266 172.041 1.282 4.959 3.305 10.113 5.937 15.394 6.835-48.683 25.638-98.728 47.986-118.17z"
     id="path16" />
  <path
     fill="#1A2719"
     d="M973.123 178c-33.296-40.703-153.29-42.333-219.953-17.79-8.006 5.456-14.65 11.221-19.486 17.185-24.507 30.219-33.885 111.387-21.812 168.854 31.112 30.022 73.362 58.256 112.901 74.549 41.002.544 87.496-6.557 125.509-19.835 16.429-16.859 32.354-38.489 45.335-61.024 9.38-57.466 1.936-132.074-22.494-161.939z"
     id="path18" />
  <path
     fill="#7E8C8D"
     d="M118.354 221.454h-52.053c-4.461 0-8.119 1.426-10.968 4.276-2.854 2.853-4.276 6.506-4.276 10.968v39.04h59.675v3.904h-59.674v65.995h-4.648v-109.311c0-5.453 1.795-9.975 5.391-13.571 3.594-3.593 8.116-5.391 13.571-5.391 23.671 0 41.457.25 53.354.744l-.372 3.346zm99.272 120.093l.372 3.347c-12.147.497-30.366.743-54.655.743-5.456 0-9.979-1.795-13.571-5.391-3.596-3.594-5.391-8.116-5.391-13.571v-90.349c0-5.453 1.795-9.975 5.391-13.571 3.596-3.593 8.116-5.391 13.571-5.391 24.289 0 42.508.25 54.655.744l-.372 3.346h-53.354c-4.461 0-8.119 1.426-10.968 4.276-2.852 2.853-4.274 6.506-4.274 10.968v38.296h60.979v3.904h-60.979v47.405c0 4.462 1.426 8.119 4.274 10.969 2.852 2.854 6.507 4.275 10.968 4.275h53.354zm137.382-124.183h7.808c1.859 0 2.789.93 2.789 2.789l5.577 125.484h-4.646l-5.577-124.183h-4.462l-42.017 111.356c-.371 1.115-1.179 1.677-2.416 1.677h-7.809c-1.24 0-2.044-.562-2.417-1.677l-42.014-111.354h-4.464l-5.575 124.183h-4.648l5.578-125.484c0-1.859.93-2.789 2.788-2.789h7.808c1.238 0 2.045.558 2.417 1.673l35.507 93.881c.744 1.984 1.827 4.896 3.253 8.738 1.426 3.842 2.512 6.756 3.256 8.732h4.833l6.691-17.847 35.321-93.509c.374-1.112 1.179-1.67 2.419-1.67zm138.308 0v80.868c0 17.972-3.315 30.734-9.945 38.296-6.631 7.562-17.879 11.34-33.738 11.34-15.988 0-27.3-3.778-33.93-11.34-6.631-7.562-9.943-20.324-9.943-38.296v-80.868h4.646v80.868c0 16.605 2.94 28.317 8.831 35.136 5.885 6.813 16.018 10.226 30.396 10.226 14.25 0 24.318-3.407 30.209-10.226 5.885-6.814 8.829-18.526 8.829-35.136v-80.868h4.645zm118.791 53.911v74.361h-3.159l-1.116-16.545c-11.648 12.521-24.908 18.775-39.781 18.775-15.121 0-25.966-5.205-32.533-15.615s-9.854-27.328-9.854-50.752c0-24.539 3.562-41.735 10.688-51.588 7.127-9.853 19.549-14.779 37.271-14.779 13.881 0 26.027 1.055 36.438 3.161l-1.115 3.346c-10.409-1.487-22.187-2.23-35.32-2.23-16.11 0-27.325 4.587-33.646 13.757-6.319 9.173-9.48 25.282-9.48 48.334 0 21.938 2.911 37.771 8.736 47.498 5.823 9.729 15.554 14.595 29.188 14.595 4.338 0 8.365-.494 12.084-1.488 3.719-.986 7.344-2.603 10.875-4.833 3.531-2.229 6.229-4.09 8.088-5.574 1.857-1.486 4.521-3.778 7.992-6.878v-53.542l4.644-.003z"
     id="path20" />
  <g
     style="font-size:185px;fill:#ffffff;font-family:Exo 2;-inkscape-font-specification:Exo 2"
     id="text22">
    <path
       d="m 782.923,290.674 -26.455,-6.66 c -9.00336,-2.21994 -15.47836,-6.1666 -19.425,-11.84 -3.82335,-5.79659 -5.73501,-13.68991 -5.735,-23.68 -10e-6,-7.3999 0.73998,-13.31989 2.22,-17.76 1.60331,-4.56321 4.25498,-7.95488 7.955,-10.175 3.8233,-2.34321 8.01663,-3.88487 12.58,-4.625 4.68662,-0.73987 10.91495,-1.10987 18.685,-1.11 15.0466,0.2468 27.68825,1.48013 37.925,3.7 l -1.11,11.84 c -11.96341,-0.61655 -23.9884,-0.92488 -36.075,-0.925 -5.42672,1.2e-4 -9.43505,0.12345 -12.025,0.37 -2.59004,0.24678 -5.11837,0.98678 -7.585,2.22 -2.4667,1.23345 -4.1317,3.20678 -4.995,5.92 -0.74003,2.5901 -1.11003,6.22843 -1.11,10.915 -3e-5,6.78342 1.17163,11.59342 3.515,14.43 2.46663,2.83675 6.65996,4.99508 12.58,6.475 l 25.9,6.475 c 9.49658,2.3434 16.15658,6.35173 19.98,12.025 3.82324,5.67338 5.7349,13.62838 5.735,23.865 -10e-5,14.06002 -3.20676,23.37168 -9.62,27.935 -6.29008,4.56333 -17.32841,6.845 -33.115,6.845 -13.44338,0 -26.64003,-1.17167 -39.59,-3.515 l 1.11,-12.025 c 20.71996,0.74001 33.73162,1.04835 39.035,0.925 10.11327,1e-5 16.89659,-1.29499 20.35,-3.885 3.57659,-2.58998 5.36492,-8.13998 5.365,-16.65 -8e-5,-7.02996 -1.23341,-11.90162 -3.7,-14.615 -2.34341,-2.83662 -6.47507,-4.99495 -12.395,-6.475"
       style="font-style:normal;font-variant:normal;font-weight:normal;font-stretch:normal;font-family:Exo 2;-inkscape-font-specification:Exo 2"
       id="path2993" />
    <path
       d="m 943.23417,217.044 18.315,0 c 4.43986,1.3e-4 6.65985,2.28179 6.66,6.845 l 5.365,120.805 -16.28,0 -4.625,-114.145 -3.885,0 -28.49,94.165 c -0.98676,3.70002 -3.33009,5.55001 -7.03,5.55 l -14.615,0 c -3.82341,10e-6 -6.29007,-1.84998 -7.4,-5.55 l -28.49,-94.165 -3.7,0 -4.44,114.145 -16.28,0 4.995,-120.805 c 0.24665,-4.56321 2.52831,-6.84487 6.845,-6.845 l 18.5,0 c 3.45328,1.3e-4 5.73495,1.85013 6.845,5.55 l 23.865,77.885 c 0.73992,2.22004 1.66492,5.55004 2.775,9.99 1.23325,4.3167 1.91158,6.72169 2.035,7.215 l 3.33,0 c 0.36991,-1.35664 1.04825,-4.0083 2.035,-7.955 1.10991,-4.06996 2.03491,-7.27662 2.775,-9.62 l 23.865,-77.515 c 0.98655,-3.69987 3.32988,-5.54987 7.03,-5.55"
       style="font-style:normal;font-variant:normal;font-weight:normal;font-stretch:normal;font-family:Exo 2;-inkscape-font-specification:Exo 2"
       id="path2995" />
  </g>
</svg>
