<svg xmlns="http://www.w3.org/2000/svg" width="1081" height="560" viewBox="0 0 1081 560"><path fill="#1F742F" d="M711.872 346.248s5 42.953 33.795 58.586c36.604 19.872 79.106 15.963 79.106 15.963l-112.9-74.55z"/><path fill="#9C332A" d="M750.634 161.985S809 115.788 875.256 118.458c26.064 1.05 73.68 28.258 94.828 43.527 55.506 40.074 56.027 59.404 56.396 84.024.887 59.15-30.863 106.49-30.863 106.49L750.634 161.984z"/><path fill="#1F742F" d="M944.552 402.895l51.065-62.96s-5.74 38.347-14.024 47.567c-6.7 7.46-37.04 15.393-37.04 15.393z"/><path fill="#1D406B" d="M824.773 420.797s31.388 21.554 72.49 14.49c30.617-5.26 53.02-34.325 53.02-34.325l-125.51 19.835zm-78.9-268.284s-27.066 19.308-33.75 28c-32.29 42.003-39.464 115.654-39.464 115.654l10.713 30.096 28.498 19.985 41.753-185.485-1.5-6.25-6.25-2z"/><path fill="#2DBEA0" d="M906.69 432.007c-21.01 7.108-50.608 1.692-81.917-11.21-23.147-.922-60.27-5.24-81.396-17.295-22.448-12.812-30.97-53.81-31.507-57.254-17.333-16.725-31.197-34-39.213-50.08-6.153 43.83-2.606 86.554 16.812 104.832 51.64 48.6 238.94 55.043 283.647 0 3.097-3.812 5.916-8.363 8.47-13.498-9.44 5.01-19.996 9.508-31.31 13.46-14.717 15.107-29.835 26.39-43.59 31.045h.003z"/><path fill="#F79A4B" d="M982.373 133.826c-20.747-17.896-62.854-21.277-107.117-15.37 66.113 22.91 144.646 78.996 150.334 124.89 3.076 24.835-9.93 61.786-29.973 96.586-2.98 18.248-7.656 34.763-14.024 47.566 18.042-9.574 32-21 39.263-34.022 27.154-48.686 3.734-183.237-38.483-219.65z"/><path fill="#9F57B1" d="M720.645 178c7.947-6.914 19.173-12.874 32.525-17.79 29.24-19.928 76.786-35.706 122.086-41.752-24.122-8.36-46.593-12.305-63.268-9.723C756.36 117.35 652.61 226.28 666.72 280.775c1.283 4.96 3.307 10.114 5.94 15.396 6.833-48.683 25.636-98.728 47.985-118.17z"/><path fill="#1A2719" d="M973.123 178c-33.296-40.703-153.29-42.333-219.953-17.79-8.006 5.456-14.65 11.22-19.486 17.185-24.507 30.22-33.885 111.387-21.812 168.854 31.112 30.02 73.362 58.254 112.9 74.547 41.003.544 87.496-6.557 125.51-19.835 16.43-16.86 32.354-38.49 45.335-61.023 9.38-57.47 1.936-132.077-22.494-161.94z"/><path fill="#7E8C8D" d="M118.354 221.454H66.3c-4.46 0-8.118 1.426-10.967 4.276-2.854 2.853-4.276 6.506-4.276 10.968v39.04h59.675v3.904H51.058v65.995H46.41v-109.31c0-5.454 1.795-9.976 5.39-13.572 3.595-3.593 8.117-5.39 13.572-5.39 23.67 0 41.457.25 53.354.743l-.372 3.346zm99.272 120.093l.372 3.347c-12.147.497-30.366.743-54.655.743-5.456 0-9.98-1.795-13.57-5.39-3.597-3.595-5.392-8.117-5.392-13.572v-90.35c0-5.452 1.797-9.974 5.393-13.57 3.596-3.593 8.116-5.39 13.57-5.39 24.29 0 42.51.25 54.656.743l-.373 3.346h-53.354c-4.46 0-8.12 1.426-10.968 4.276-2.852 2.853-4.274 6.506-4.274 10.968v38.296h60.98v3.904h-60.98v47.405c0 4.462 1.427 8.12 4.275 10.97 2.852 2.854 6.507 4.274 10.968 4.274h53.353zm137.382-124.183h7.808c1.86 0 2.79.93 2.79 2.79l5.576 125.483h-4.646l-5.577-124.183h-4.464L314.48 332.81c-.37 1.115-1.18 1.678-2.416 1.678h-7.81c-1.24 0-2.043-.562-2.416-1.678l-42.014-111.354h-4.464l-5.575 124.183h-4.648l5.578-125.486c0-1.86.93-2.79 2.788-2.79h7.808c1.24 0 2.047.56 2.42 1.674l35.506 93.88c.744 1.984 1.827 4.896 3.253 8.738 1.425 3.842 2.51 6.756 3.255 8.73h4.833l6.69-17.846 35.322-93.51c.373-1.11 1.178-1.67 2.418-1.67v.004zm138.308 0v80.87c0 17.97-3.315 30.732-9.945 38.295-6.63 7.56-17.877 11.34-33.736 11.34-15.988 0-27.3-3.78-33.93-11.34-6.63-7.563-9.943-20.325-9.943-38.297v-80.87h4.647v80.87c0 16.604 2.94 28.316 8.83 35.136 5.886 6.81 16.02 10.225 30.397 10.225 14.25 0 24.318-3.407 30.21-10.226 5.884-6.815 8.828-18.527 8.828-35.137v-80.87h4.646-.002zm118.79 53.91v74.362h-3.158l-1.116-16.545c-11.648 12.523-24.908 18.777-39.78 18.777-15.122 0-25.967-5.205-32.534-15.615-6.566-10.41-9.854-27.327-9.854-50.75 0-24.54 3.562-41.736 10.688-51.59 7.127-9.852 19.55-14.778 37.27-14.778 13.883 0 26.03 1.055 36.44 3.16l-1.115 3.347c-10.41-1.487-22.188-2.23-35.32-2.23-16.11 0-27.325 4.587-33.646 13.757-6.318 9.173-9.478 25.282-9.478 48.334 0 21.94 2.91 37.77 8.736 47.5 5.822 9.728 15.554 14.594 29.188 14.594 4.338 0 8.365-.494 12.084-1.488 3.72-.985 7.344-2.603 10.875-4.832 3.53-2.23 6.23-4.09 8.088-5.574 1.858-1.486 4.522-3.778 7.993-6.878V271.28l4.644-.003-.005-.003z"/><g enable-background="new" fill="#fff"><path d="M796.525 217.044v103.97c0 9.005 4.44 13.506 13.32 13.506h47.545l.37 9.25c-13.074.74-29.724 1.11-49.95 1.11-7.77 0-13.63-2.035-17.574-6.105-3.95-4.07-5.92-9.436-5.92-16.095V217.044h12.21zM891.428 344.694h-12.024v-127.65h12.024v127.65z"/></g></svg>