<?xml version="1.0" encoding="utf-8"?>
<!-- Generator: Adobe Illustrator 17.0.0, SVG Export Plug-In . SVG Version: 6.00 Build 0)  -->
<!DOCTYPE svg PUBLIC "-//W3C//DTD SVG 1.0//EN" "http://www.w3.org/TR/2001/REC-SVG-20010904/DTD/svg10.dtd">
<svg version="1.0" id="Camada_1" xmlns="http://www.w3.org/2000/svg" xmlns:xlink="http://www.w3.org/1999/xlink" x="0px" y="0px"
	 width="1081px" height="560px" viewBox="0 0 1081 560" enable-background="new 0 0 1081 560" xml:space="preserve">
<g>
	<g>
		<defs>
			<rect id="SVGID_1_" width="1081" height="560"/>
		</defs>
		<clipPath id="SVGID_2_">
			<use xlink:href="#SVGID_1_"  overflow="visible"/>
		</clipPath>
		<g clip-path="url(#SVGID_2_)">
			<path fill="#1F742F" d="M712.916,360.965c0,0,5,42.953,33.795,58.586c36.604,19.872,79.107,15.963,79.107,15.963L712.916,360.965
				z"/>
		</g>
	</g>
	<g>
		<defs>
			<rect id="SVGID_3_" width="1081" height="560"/>
		</defs>
		<clipPath id="SVGID_4_">
			<use xlink:href="#SVGID_3_"  overflow="visible"/>
		</clipPath>
		<g clip-path="url(#SVGID_4_)">
			<path fill="#9C332A" d="M751.679,176.702c0,0,58.366-46.197,124.622-43.527c26.063,1.05,73.679,28.258,94.828,43.527
				c55.506,40.074,56.026,59.404,56.396,84.024c0.886,59.152-30.863,106.491-30.863,106.491L751.679,176.702z"/>
		</g>
	</g>
	<g>
		<defs>
			<rect id="SVGID_5_" width="1081" height="560"/>
		</defs>
		<clipPath id="SVGID_6_">
			<use xlink:href="#SVGID_5_"  overflow="visible"/>
		</clipPath>
		<g clip-path="url(#SVGID_6_)">
			<path fill="#1F742F" d="M945.597,417.611l51.063-62.959c0,0-5.738,38.344-14.022,47.566
				C975.936,409.68,945.597,417.611,945.597,417.611"/>
		</g>
	</g>
	<g>
		<defs>
			<rect id="SVGID_7_" width="1081" height="560"/>
		</defs>
		<clipPath id="SVGID_8_">
			<use xlink:href="#SVGID_7_"  overflow="visible"/>
		</clipPath>
		<g clip-path="url(#SVGID_8_)">
			<path fill="#1D406B" d="M825.818,435.514c0,0,31.387,21.554,72.492,14.491c30.617-5.261,53.017-34.326,53.017-34.326
				L825.818,435.514z"/>
		</g>
	</g>
	<g>
		<defs>
			<rect id="SVGID_9_" width="1081" height="560"/>
		</defs>
		<clipPath id="SVGID_10_">
			<use xlink:href="#SVGID_9_"  overflow="visible"/>
		</clipPath>
		<g clip-path="url(#SVGID_10_)">
			<path fill="#1D406B" d="M746.918,167.23c0,0-27.067,19.308-33.75,28c-32.291,42.003-39.465,115.654-39.465,115.654l10.715,30.097
				l28.498,19.984l41.752-185.485l-1.5-6.25L746.918,167.23z"/>
		</g>
	</g>
	<g>
		<defs>
			<rect id="SVGID_11_" width="1081" height="560"/>
		</defs>
		<clipPath id="SVGID_12_">
			<use xlink:href="#SVGID_11_"  overflow="visible"/>
		</clipPath>
		<g clip-path="url(#SVGID_12_)">
			<path fill="#2DBEA0" d="M907.734,446.724c-21.008,7.108-50.607,1.692-81.916-11.21c-23.148-0.922-60.271-5.24-81.395-17.295
				c-22.448-12.811-30.971-53.81-31.508-57.254c-17.333-16.725-31.196-34-39.213-50.081c-6.152,43.831-2.605,86.555,16.815,104.833
				c51.639,48.6,238.94,55.043,283.647,0c3.098-3.813,5.916-8.363,8.471-13.498c-9.439,5.009-19.996,9.508-31.311,13.46
				C936.607,430.785,921.488,442.069,907.734,446.724"/>
		</g>
	</g>
	<g>
		<defs>
			<rect id="SVGID_13_" width="1081" height="560"/>
		</defs>
		<clipPath id="SVGID_14_">
			<use xlink:href="#SVGID_13_"  overflow="visible"/>
		</clipPath>
		<g clip-path="url(#SVGID_14_)">
			<path fill="#F79A4B" d="M983.418,148.543c-20.748-17.896-62.854-21.277-107.117-15.369
				c66.112,22.909,144.645,78.995,150.334,124.89c3.076,24.834-9.932,61.785-29.974,96.587
				c-2.979,18.248-7.655,34.761-14.023,47.566c18.042-9.573,32.001-20.999,39.263-34.021
				C1049.055,319.508,1025.635,184.957,983.418,148.543"/>
		</g>
	</g>
	<g>
		<defs>
			<rect id="SVGID_15_" width="1081" height="560"/>
		</defs>
		<clipPath id="SVGID_16_">
			<use xlink:href="#SVGID_15_"  overflow="visible"/>
		</clipPath>
		<g clip-path="url(#SVGID_16_)">
			<path fill="#9F57B1" d="M721.689,192.717c7.947-6.914,19.172-12.874,32.525-17.79c29.238-19.928,76.785-35.706,122.086-41.752
				c-24.122-8.359-46.594-12.305-63.269-9.723c-55.627,8.615-159.377,117.545-145.266,172.04c1.284,4.959,3.305,10.113,5.936,15.393
				C680.538,262.203,699.342,212.159,721.689,192.717"/>
		</g>
	</g>
	<g>
		<defs>
			<rect id="SVGID_17_" width="1081" height="560"/>
		</defs>
		<clipPath id="SVGID_18_">
			<use xlink:href="#SVGID_17_"  overflow="visible"/>
		</clipPath>
		<g clip-path="url(#SVGID_18_)">
			<path fill="#1A2719" d="M974.168,192.717c-33.297-40.703-153.291-42.333-219.953-17.79c-8.007,5.456-14.65,11.221-19.486,17.185
				c-24.507,30.219-33.885,111.387-21.812,168.854c31.113,30.023,73.362,58.256,112.901,74.549
				c41.002,0.544,87.497-6.557,125.509-19.835c16.43-16.859,32.356-38.489,45.335-61.026
				C1006.041,297.19,998.598,222.582,974.168,192.717"/>
		</g>
	</g>
	<g>
		<defs>
			<rect id="SVGID_19_" width="1081" height="560"/>
		</defs>
		<clipPath id="SVGID_20_">
			<use xlink:href="#SVGID_19_"  overflow="visible"/>
		</clipPath>
		<g clip-path="url(#SVGID_20_)">
			<path fill="#7E8C8D" d="M119.398,236.171H67.345c-4.461,0-8.119,1.426-10.968,4.276c-2.854,2.853-4.276,6.506-4.276,10.968v39.04
				h59.675v3.904H52.103v65.994h-4.647v-109.31c0-5.453,1.795-9.975,5.39-13.571c3.594-3.593,8.116-5.391,13.572-5.391
				c23.67,0,41.457,0.25,53.353,0.744L119.398,236.171z"/>
		</g>
	</g>
	<g>
		<defs>
			<rect id="SVGID_21_" width="1081" height="560"/>
		</defs>
		<clipPath id="SVGID_22_">
			<use xlink:href="#SVGID_21_"  overflow="visible"/>
		</clipPath>
		<g clip-path="url(#SVGID_22_)">
			<path fill="#7E8C8D" d="M218.671,356.264l0.372,3.347c-12.147,0.497-30.366,0.743-54.655,0.743c-5.456,0-9.98-1.795-13.571-5.391
				c-3.596-3.594-5.391-8.116-5.391-13.571v-90.349c0-5.453,1.795-9.975,5.391-13.571c3.596-3.593,8.116-5.391,13.571-5.391
				c24.289,0,42.508,0.25,54.655,0.744l-0.372,3.346h-53.354c-4.461,0-8.12,1.426-10.968,4.276
				c-2.852,2.853-4.277,6.506-4.277,10.968v38.296h60.98v3.904h-60.98v47.404c0,4.462,1.427,8.119,4.277,10.969
				c2.849,2.854,6.507,4.275,10.968,4.275h53.354V356.264z"/>
		</g>
	</g>
	<g>
		<defs>
			<rect id="SVGID_23_" width="1081" height="560"/>
		</defs>
		<clipPath id="SVGID_24_">
			<use xlink:href="#SVGID_23_"  overflow="visible"/>
		</clipPath>
		<g clip-path="url(#SVGID_24_)">
			<path fill="#7E8C8D" d="M356.053,232.081h7.808c1.859,0,2.789,0.93,2.789,2.789l5.577,125.483h-4.646l-5.577-124.183h-4.462
				l-42.017,111.355c-0.371,1.116-1.179,1.676-2.416,1.676H305.3c-1.24,0-2.044-0.56-2.417-1.676l-42.014-111.353h-4.464
				l-5.575,124.183h-4.648l5.578-125.483c0-1.859,0.93-2.789,2.788-2.789h7.808c1.238,0,2.045,0.558,2.417,1.673l35.507,93.881
				c0.744,1.984,1.827,4.896,3.252,8.738c1.427,3.842,2.513,6.756,3.257,8.733h4.833l6.691-17.847l35.321-93.509
				C354.008,232.639,354.813,232.081,356.053,232.081"/>
		</g>
	</g>
	<g>
		<defs>
			<rect id="SVGID_25_" width="1081" height="560"/>
		</defs>
		<clipPath id="SVGID_26_">
			<use xlink:href="#SVGID_25_"  overflow="visible"/>
		</clipPath>
		<g clip-path="url(#SVGID_26_)">
			<path fill="#7E8C8D" d="M494.36,232.081v80.868c0,17.972-3.315,30.736-9.945,38.296c-6.631,7.561-17.879,11.34-33.738,11.34
				c-15.989,0-27.3-3.778-33.93-11.34c-6.631-7.56-9.943-20.324-9.943-38.296v-80.868h4.646v80.868
				c0,16.606,2.942,28.319,8.831,35.136c5.885,6.814,16.018,10.226,30.396,10.226c14.25,0,24.318-3.407,30.209-10.226
				c5.885-6.814,8.829-18.526,8.829-35.136v-80.868L494.36,232.081L494.36,232.081z"/>
		</g>
	</g>
	<g>
		<defs>
			<rect id="SVGID_27_" width="1081" height="560"/>
		</defs>
		<clipPath id="SVGID_28_">
			<use xlink:href="#SVGID_27_"  overflow="visible"/>
		</clipPath>
		<g clip-path="url(#SVGID_28_)">
			<path fill="#7E8C8D" d="M613.151,285.992v74.36h-3.159l-1.116-16.545c-11.648,12.521-24.907,18.775-39.78,18.775
				c-15.121,0-25.967-5.205-32.533-15.615c-6.569-10.41-9.854-27.328-9.854-50.752c0-24.539,3.562-41.734,10.688-51.587
				c7.125-9.853,19.549-14.78,37.271-14.78c13.882,0,26.027,1.056,36.438,3.162l-1.115,3.346c-10.411-1.488-22.186-2.23-35.322-2.23
				c-16.109,0-27.324,4.587-33.646,13.757c-6.32,9.172-9.481,25.281-9.481,48.333c0,21.938,2.911,37.771,8.738,47.498
				c5.823,9.729,15.552,14.595,29.188,14.595c4.339,0,8.365-0.494,12.084-1.488c3.72-0.987,7.345-2.603,10.875-4.833
				c3.531-2.229,6.229-4.09,8.089-5.575c1.857-1.486,4.521-3.778,7.991-6.878v-53.543L613.151,285.992L613.151,285.992z"/>
		</g>
	</g>
	<g>
		<defs>
			<rect id="SVGID_29_" width="1081" height="560"/>
		</defs>
		<clipPath id="SVGID_30_">
			<use xlink:href="#SVGID_29_"  overflow="visible"/>
		</clipPath>
		<g clip-path="url(#SVGID_30_)">
			<g enable-background="new    ">
				<path fill="#FFFFFF" d="M806.49,259.91h8.658c2.146,0,3.219,1.073,3.219,3.219l3.219,73.371h-7.215l-2.996-70.485h-2.442
					l-19.869,60.052c-0.519,1.628-1.628,2.441-3.33,2.441h-7.325c-1.704,0-2.814-0.813-3.33-2.441l-19.98-60.052h-2.331
					l-2.886,70.485h-7.215l3.107-73.371c0-2.146,1.072-3.219,3.219-3.219h8.77c1.554,0,2.625,0.852,3.219,2.553l16.762,49.95
					c1.182,3.701,2.219,7.179,3.107,10.434h2.441c0.444-1.627,1.516-5.143,3.219-10.545l16.762-49.839
					C803.715,260.762,804.787,259.91,806.49,259.91z"/>
				<path fill="#FFFFFF" d="M891.736,292.211V336.5h-5.217l-0.998-8.658c-6.514,6.66-14.246,9.99-23.199,9.99
					c-8.732,0-15.004-3.145-18.814-9.435c-3.813-6.289-5.717-16.391-5.717-30.304c0-14.874,2.256-25.178,6.771-30.913
					c4.512-5.734,12.504-8.603,23.976-8.603c8.437,0,15.612,0.704,21.534,2.108l-0.889,5.439c-6.66-0.739-13.395-1.11-20.201-1.11
					c-6.068,0-10.73,0.927-13.986,2.775c-3.258,1.851-5.661,5.161-7.215,9.935c-1.555,4.772-2.331,11.674-2.331,20.701
					c0,11.988,1.405,20.499,4.218,25.53c2.812,5.033,7.659,7.548,14.541,7.548c2.736,0,5.439-0.48,8.104-1.443
					c2.664-0.96,4.79-1.959,6.382-2.996c1.591-1.036,3.569-2.479,5.938-4.329v-30.525H891.736z"/>
				<path fill="#FFFFFF" d="M950.678,311.192h-33.412L908.83,336.5h-7.548l25.642-74.481c0.443-1.404,1.404-2.108,2.886-2.108h8.325
					c1.479,0,2.441,0.704,2.886,2.108l25.641,74.481h-7.548L950.678,311.192z M948.568,304.865l-10.988-32.967
					c-0.075-0.37-0.372-1.313-0.889-2.831c-0.519-1.516-0.889-2.645-1.109-3.386h-3.109l-2.108,6.217l-10.989,32.967H948.568z"/>
			</g>
		</g>
	</g>
</g>
</svg>
