<svg xmlns="http://www.w3.org/2000/svg" xmlns:xlink="http://www.w3.org/1999/xlink" width="1183.333" height="638.889" viewBox="0 0 1183.333 638.889"><defs><path id="a" d="M53.556 37.11h1081v560h-1081z"/></defs><clipPath id="b"><use xlink:href="#a" overflow="visible"/></clipPath><path clip-path="url(#b)" fill="#24753A" d="M766.472 398.076s5 42.953 33.795 58.586c36.604 19.872 79.106 15.963 79.106 15.963l-112.9-74.55z"/><path clip-path="url(#b)" fill="#9D352A" d="M805.234 213.813s58.366-46.197 124.622-43.527c26.063 1.05 73.68 28.258 94.828 43.527 55.506 40.074 56.026 59.404 56.396 84.024.886 59.152-30.863 106.49-30.863 106.49L805.234 213.814z"/><path clip-path="url(#b)" fill="#24753A" d="M999.152 454.723l51.063-62.96s-5.738 38.345-14.022 47.567c-6.7 7.46-37.04 15.393-37.04 15.393"/><path clip-path="url(#b)" fill="#1E416C" d="M879.374 472.625s31.387 21.554 72.492 14.49c30.617-5.26 53.017-34.325 53.017-34.325l-125.51 19.835zM800.474 204.34s-27.067 19.31-33.75 28c-32.29 42.004-39.465 115.655-39.465 115.655l10.714 30.097 28.498 19.984 41.752-185.485-1.5-6.25-6.25-2z"/><path clip-path="url(#b)" fill="#39BB9F" d="M961.29 483.835c-21.008 7.108-50.607 1.692-81.916-11.21-23.148-.922-60.27-5.24-81.395-17.295-22.45-12.812-30.972-53.81-31.51-57.254-17.332-16.725-31.195-34-39.212-50.08-6.152 43.83-2.605 86.554 16.815 104.832 51.64 48.6 238.94 55.043 283.647 0 3.098-3.812 5.916-8.363 8.47-13.498-9.438 5.01-19.995 9.508-31.31 13.46-14.717 15.106-29.836 26.39-43.59 31.045"/><path clip-path="url(#b)" fill="#F89A4D" d="M1036.974 185.654c-20.748-17.896-62.854-21.277-107.117-15.37 66.112 22.91 144.645 78.996 150.334 124.89 3.077 24.835-9.93 61.786-29.973 96.588-2.98 18.248-7.655 34.76-14.023 47.566 18.042-9.573 32-21 39.263-34.02 27.153-48.69 3.733-183.24-38.483-219.654"/><path clip-path="url(#b)" fill="#9C59A4" d="M775.245 229.828c7.947-6.914 19.172-12.874 32.525-17.79 29.238-19.928 76.785-35.706 122.086-41.752-24.122-8.36-46.594-12.305-63.27-9.723-55.626 8.615-159.376 117.545-145.265 172.04 1.285 4.96 3.306 10.114 5.938 15.394 6.836-48.683 25.64-98.727 47.987-118.17"/><path clip-path="url(#b)" fill="#1B271A" d="M1027.724 229.828c-33.297-40.703-153.29-42.333-219.953-17.79-8.006 5.456-14.65 11.22-19.485 17.185-24.507 30.22-33.885 111.387-21.812 168.854 31.113 30.022 73.362 58.256 112.9 74.55 41.003.543 87.498-6.558 125.51-19.836 16.43-16.858 32.356-38.488 45.335-61.025 9.38-57.464 1.935-132.072-22.494-161.937"/><path clip-path="url(#b)" fill="#7E8C8D" d="M172.954 273.282H120.9c-4.46 0-8.118 1.426-10.967 4.276-2.854 2.853-4.276 6.506-4.276 10.968v39.04h59.675v3.904h-59.674v65.994h-4.647v-109.31c0-5.453 1.796-9.975 5.39-13.57 3.595-3.594 8.117-5.392 13.573-5.392 23.67 0 41.457.25 53.353.744l-.372 3.346zM272.227 393.375l.372 3.347c-12.148.497-30.367.743-54.656.743-5.456 0-9.98-1.795-13.57-5.39-3.597-3.595-5.392-8.117-5.392-13.572v-90.35c0-5.452 1.795-9.974 5.39-13.57 3.597-3.593 8.117-5.39 13.572-5.39 24.29 0 42.508.25 54.655.743l-.373 3.346h-53.354c-4.46 0-8.12 1.426-10.968 4.276-2.852 2.853-4.277 6.506-4.277 10.968v38.296h60.98v3.904h-60.98v47.404c0 4.462 1.427 8.12 4.277 10.97 2.85 2.853 6.507 4.274 10.968 4.274h53.354zM409.608 269.192h7.808c1.86 0 2.79.93 2.79 2.79l5.576 125.482h-4.646L415.56 273.28h-4.463L369.08 384.637c-.37 1.116-1.18 1.676-2.416 1.676h-7.81c-1.24 0-2.043-.56-2.416-1.676l-42.014-111.354h-4.464l-5.575 124.183h-4.648l5.578-125.483c0-1.86.93-2.79 2.788-2.79h7.808c1.24 0 2.046.56 2.418 1.674l35.507 93.88c.744 1.985 1.827 4.897 3.252 8.74 1.427 3.84 2.513 6.755 3.257 8.732h4.833l6.69-17.847 35.322-93.508c.373-1.112 1.178-1.67 2.418-1.67"/><path clip-path="url(#b)" fill="#7E8C8D" d="M547.916 269.192v80.868c0 17.972-3.315 30.736-9.945 38.296-6.63 7.562-17.878 11.34-33.737 11.34-15.99 0-27.3-3.778-33.93-11.34-6.63-7.56-9.943-20.324-9.943-38.296v-80.868h4.646v80.868c0 16.606 2.942 28.32 8.83 35.136 5.886 6.814 16.02 10.226 30.397 10.226 14.25 0 24.318-3.407 30.21-10.226 5.884-6.814 8.828-18.526 8.828-35.136v-80.868h4.646zM666.707 323.104v74.36h-3.16l-1.115-16.545c-11.647 12.52-24.907 18.774-39.78 18.774-15.12 0-25.967-5.205-32.533-15.615-6.57-10.41-9.855-27.33-9.855-50.753 0-24.54 3.562-41.734 10.688-51.587 7.125-9.853 19.55-14.78 37.27-14.78 13.883 0 26.028 1.056 36.44 3.162l-1.116 3.346c-10.41-1.488-22.187-2.23-35.322-2.23-16.11 0-27.324 4.587-33.646 13.757-6.32 9.172-9.482 25.28-9.482 48.333 0 21.938 2.91 37.77 8.738 47.498 5.823 9.73 15.552 14.595 29.188 14.595 4.34 0 8.365-.493 12.084-1.487 3.72-.987 7.345-2.603 10.875-4.833 3.53-2.23 6.23-4.09 8.09-5.575 1.855-1.486 4.52-3.778 7.99-6.878v-53.543h4.644z"/><g clip-path="url(#b)" fill="#fff"><path d="M856.825 345.616H823.02l-8.534 25.604h-7.637l25.94-75.355c.45-1.42 1.422-2.134 2.92-2.134h8.423c1.498 0 2.47.714 2.92 2.135l25.943 75.355h-7.638l-8.533-25.604zm-2.135-6.4l-11.118-33.355c-.075-.373-.375-1.327-.898-2.863-.524-1.533-.897-2.676-1.123-3.425h-3.143l-2.134 6.29-11.118 33.353h29.535zM921.173 330.792v.45c5.616.523 9.603 2.49 11.96 5.895 2.36 3.407 3.538 8.33 3.538 14.768 0 7.788-1.814 13.104-5.444 15.947-3.633 2.847-9.98 4.268-19.036 4.268-11.755 0-20.853-.3-27.29-.898v-77.49c5.615-.597 13.588-.897 23.92-.897 9.583 0 16.228 1.404 19.935 4.21 3.706 2.81 5.56 8.143 5.56 16.004 0 5.614-1.05 9.864-3.145 12.746-2.1 2.882-5.43 4.547-9.997 4.996zm-29.086-2.583h18.306c6.362-.075 10.742-1.086 13.14-3.033 2.395-1.946 3.594-5.728 3.594-11.343 0-5.84-1.33-9.75-3.987-11.736-2.658-1.983-7.507-2.976-14.544-2.976-8.236 0-13.74.04-16.508.112v28.975zm0 5.727v31.67c6.288.15 12.69.225 19.204.225 6.812 0 11.492-1.012 14.038-3.032 2.545-2.02 3.818-5.99 3.818-11.904 0-6.514-1.348-10.93-4.043-13.252-2.695-2.32-7.6-3.555-14.71-3.706h-18.306zM1002.255 364.708l.898 5.503c-5.84 1.572-13.252 2.36-22.235 2.36-10.933 0-18.605-2.994-23.022-8.985-4.418-5.99-6.626-16.358-6.626-31.108 0-14.748 2.208-25.118 6.626-31.108 4.417-5.99 12.09-8.985 23.022-8.985 8.16 0 15.048.712 20.664 2.134l-.898 5.502c-5.69-.674-12.28-1.01-19.766-1.01-8.237 0-13.964 2.433-17.183 7.3-3.22 4.867-4.83 13.588-4.83 26.166s1.61 21.3 4.83 26.167c3.22 4.867 8.945 7.3 17.183 7.3 8.535-.003 15.646-.413 21.337-1.237z"/></g></svg>