<?xml version="1.0" encoding="UTF-8" standalone="no"?>
<svg
   xmlns:dc="http://purl.org/dc/elements/1.1/"
   xmlns:cc="http://creativecommons.org/ns#"
   xmlns:rdf="http://www.w3.org/1999/02/22-rdf-syntax-ns#"
   xmlns:svg="http://www.w3.org/2000/svg"
   xmlns="http://www.w3.org/2000/svg"
   xmlns:sodipodi="http://sodipodi.sourceforge.net/DTD/sodipodi-0.dtd"
   xmlns:inkscape="http://www.inkscape.org/namespaces/inkscape"
   width="1081"
   height="560"
   viewBox="0 0 1081 560"
   id="svg4506"
   version="1.1"
   inkscape:version="0.91 r13725"
   sodipodi:docname="FEMUG-GRU.svg">
  <metadata
     id="metadata4534">
    <rdf:RDF>
      <cc:Work
         rdf:about="">
        <dc:format>image/svg+xml</dc:format>
        <dc:type
           rdf:resource="http://purl.org/dc/dcmitype/StillImage" />
        <dc:title></dc:title>
      </cc:Work>
    </rdf:RDF>
  </metadata>
  <defs
     id="defs4532" />
  <sodipodi:namedview
     pagecolor="#ffffff"
     bordercolor="#666666"
     borderopacity="1"
     objecttolerance="10"
     gridtolerance="10"
     guidetolerance="10"
     inkscape:pageopacity="0"
     inkscape:pageshadow="2"
     inkscape:window-width="1024"
     inkscape:window-height="695"
     id="namedview4530"
     showgrid="false"
     inkscape:zoom="0.79370953"
     inkscape:cx="540.5"
     inkscape:cy="280"
     inkscape:window-x="0"
     inkscape:window-y="24"
     inkscape:window-maximized="1"
     inkscape:current-layer="svg4506" />
  <path
     fill="#1F742F"
     d="M711.872 346.248s5 42.953 33.795 58.586c36.604 19.872 79.106 15.963 79.106 15.963l-112.901-74.549z"
     id="path4508" />
  <path
     fill="#9C332A"
     d="M750.634 161.985s58.366-46.197 124.622-43.527c26.064 1.05 73.68 28.258 94.828 43.527 55.506 40.074 56.027 59.404 56.396 84.024.887 59.152-30.863 106.491-30.863 106.491l-244.983-190.515z"
     id="path4510" />
  <path
     fill="#1F742F"
     d="M944.552 402.895l51.065-62.959s-5.74 38.344-14.024 47.566c-6.7 7.461-37.041 15.393-37.041 15.393z"
     id="path4512" />
  <path
     fill="#1D406B"
     d="M824.773 420.797s31.388 21.554 72.492 14.491c30.617-5.261 53.018-34.326 53.018-34.326l-125.51 19.835zM745.874 152.513s-27.067 19.308-33.75 28c-32.291 42.003-39.465 115.654-39.465 115.654l10.715 30.096 28.498 19.985 41.752-185.485-1.5-6.25-6.25-2z"
     id="path4514" />
  <path
     fill="#2DBEA0"
     d="M906.689 432.007c-21.008 7.108-50.607 1.692-81.916-11.21-23.147-.922-60.271-5.24-81.395-17.295-22.448-12.812-30.97-53.811-31.507-57.254-17.333-16.725-31.197-34-39.213-50.081-6.153 43.831-2.606 86.555 16.814 104.833 51.64 48.6 238.941 55.043 283.648 0 3.097-3.812 5.916-8.363 8.47-13.498-9.439 5.009-19.996 9.508-31.311 13.46-14.717 15.107-29.836 26.391-43.59 31.045z"
     id="path4516" />
  <path
     fill="#F79A4B"
     d="M982.373 133.826c-20.747-17.896-62.854-21.277-107.117-15.369 66.113 22.909 144.645 78.995 150.334 124.89 3.076 24.834-9.931 61.785-29.973 96.587-2.979 18.248-7.656 34.761-14.024 47.566 18.042-9.573 32.001-20.999 39.263-34.021 27.154-48.688 3.734-183.239-38.483-219.653z"
     id="path4518" />
  <path
     fill="#9F57B1"
     d="M720.645 178c7.947-6.914 19.172-12.874 32.525-17.79 29.239-19.928 76.786-35.706 122.086-41.752-24.122-8.359-46.593-12.305-63.268-9.723-55.627 8.615-159.377 117.545-145.266 172.041 1.283 4.959 3.305 10.113 5.937 15.393 6.835-48.682 25.638-98.727 47.986-118.169z"
     id="path4520" />
  <path
     fill="#1A2719"
     d="M973.123 178c-33.296-40.703-153.29-42.333-219.953-17.79-8.006 5.456-14.65 11.221-19.486 17.185-24.507 30.219-33.885 111.387-21.812 168.854 31.112 30.022 73.362 58.256 112.901 74.549 41.002.544 87.496-6.557 125.509-19.835 16.429-16.859 32.355-38.489 45.335-61.025 9.38-57.465 1.936-132.073-22.494-161.938z"
     id="path4522" />
  <g
     fill="#7E8C8D"
     id="g4524">
    <path
       d="M118.354 221.454h-52.053c-4.461 0-8.119 1.426-10.968 4.276-2.854 2.853-4.276 6.506-4.276 10.968v39.04h59.675v3.904h-59.674v65.995h-4.648v-109.311c0-5.453 1.795-9.975 5.391-13.571 3.594-3.593 8.116-5.391 13.571-5.391 23.671 0 41.457.25 53.354.744l-.372 3.346zM217.626 341.547l.372 3.347c-12.147.497-30.366.743-54.655.743-5.456 0-9.979-1.795-13.571-5.391-3.596-3.594-5.391-8.116-5.391-13.571v-90.349c0-5.453 1.795-9.975 5.391-13.571 3.596-3.593 8.116-5.391 13.571-5.391 24.289 0 42.508.25 54.655.744l-.372 3.346h-53.354c-4.461 0-8.119 1.426-10.968 4.276-2.852 2.853-4.275 6.506-4.275 10.968v38.296h60.979v3.904h-60.979v47.405c0 4.462 1.426 8.119 4.275 10.969 2.851 2.854 6.507 4.275 10.968 4.275h53.354zM355.008 217.364h7.808c1.859 0 2.789.93 2.789 2.789l5.577 125.484h-4.646l-5.577-124.183h-4.462l-42.017 111.356c-.371 1.115-1.179 1.676-2.416 1.676h-7.809c-1.24 0-2.044-.561-2.417-1.676l-42.014-111.354h-4.464l-5.575 124.183h-4.648l5.578-125.484c0-1.859.93-2.789 2.788-2.789h7.808c1.238 0 2.045.558 2.417 1.673l35.507 93.881c.744 1.984 1.827 4.896 3.253 8.738 1.426 3.842 2.512 6.756 3.256 8.733h4.833l6.691-17.847 35.321-93.509c.374-1.113 1.179-1.671 2.419-1.671zM493.316 217.364v80.868c0 17.972-3.315 30.735-9.945 38.296-6.631 7.562-17.879 11.34-33.738 11.34-15.988 0-27.3-3.778-33.93-11.34-6.631-7.561-9.943-20.324-9.943-38.296v-80.868h4.646v80.868c0 16.606 2.941 28.318 8.831 35.136 5.885 6.814 16.018 10.226 30.396 10.226 14.25 0 24.318-3.407 30.209-10.226 5.885-6.814 8.829-18.526 8.829-35.136v-80.868h4.645zM612.107 271.275v74.361h-3.159l-1.116-16.545c-11.648 12.521-24.908 18.775-39.781 18.775-15.121 0-25.966-5.205-32.533-15.615-6.568-10.41-9.854-27.328-9.854-50.752 0-24.539 3.562-41.735 10.688-51.588s19.549-14.779 37.271-14.779c13.881 0 26.027 1.055 36.438 3.161l-1.115 3.346c-10.41-1.487-22.187-2.23-35.321-2.23-16.11 0-27.325 4.587-33.646 13.757-6.32 9.173-9.481 25.282-9.481 48.334 0 21.938 2.911 37.771 8.737 47.498 5.823 9.729 15.553 14.595 29.188 14.595 4.338 0 8.365-.494 12.084-1.488 3.719-.987 7.344-2.603 10.875-4.833 3.531-2.229 6.229-4.09 8.088-5.575 1.857-1.486 4.521-3.778 7.992-6.878v-53.542l4.645-.002z"
       id="path4526" />
  </g>
  <text
     transform="scale(1.0082175,0.9918495)"
     font-size="185"
     id="text4528"
     style="font-size:136.84526062px;font-family:Exo2-Light;fill:#ffffff"
     x="716.02722"
     y="329.11841">
    <tspan
       style="font-style:normal;font-variant:normal;font-weight:normal;font-stretch:normal;font-family:Exo2;-inkscape-font-specification:Exo2"
       id="tspan4536">GRU</tspan>
  </text>
</svg>
