<svg xmlns="http://www.w3.org/2000/svg" width="1081" height="560" viewBox="0 0 1081 560"><path fill="#1F742F" d="M711.872 346.248s5 42.953 33.795 58.586c36.604 19.872 79.106 15.963 79.106 15.963l-112.9-74.55z"/><path fill="#9C332A" d="M750.634 161.985S809 115.788 875.256 118.458c26.064 1.05 73.68 28.258 94.828 43.527 55.506 40.074 56.027 59.404 56.396 84.024.887 59.15-30.863 106.49-30.863 106.49L750.634 161.985z"/><path fill="#1F742F" d="M944.552 402.895l51.065-62.96s-5.74 38.346-14.024 47.567c-6.7 7.46-37.04 15.393-37.04 15.393z"/><path fill="#1D406B" d="M824.773 420.797s31.388 21.554 72.492 14.49c30.616-5.26 53.018-34.325 53.018-34.325l-125.51 19.835zm-78.9-268.284s-27.066 19.308-33.75 28c-32.29 42.003-39.464 115.654-39.464 115.654l10.714 30.096 28.498 19.985 41.752-185.485-1.5-6.25-6.25-2z"/><path fill="#2DBEA0" d="M906.69 432.007c-21.01 7.108-50.608 1.692-81.917-11.21-23.147-.922-60.27-5.24-81.396-17.295-22.448-12.812-30.97-53.81-31.507-57.254-17.333-16.725-31.197-34-39.213-50.08-6.153 43.83-2.606 86.554 16.813 104.832 51.64 48.6 238.94 55.043 283.648 0 3.097-3.812 5.916-8.363 8.47-13.498-9.44 5.01-19.996 9.508-31.31 13.46-14.716 15.107-29.835 26.39-43.59 31.045z"/><path fill="#F79A4B" d="M982.373 133.826c-20.747-17.896-62.854-21.277-107.117-15.37 66.113 22.91 144.645 78.996 150.334 124.89 3.076 24.835-9.93 61.786-29.973 96.587-2.98 18.248-7.656 34.762-14.024 47.566 18.042-9.574 32-21 39.263-34.022 27.154-48.687 3.734-183.238-38.483-219.652z"/><path fill="#9F57B1" d="M720.645 178c7.947-6.914 19.172-12.874 32.525-17.79 29.24-19.928 76.786-35.706 122.086-41.752-24.122-8.36-46.593-12.305-63.268-9.723-55.627 8.615-159.377 117.545-145.266 172.04 1.282 4.96 3.305 10.114 5.937 15.395 6.834-48.683 25.637-98.728 47.985-118.17z"/><path fill="#1A2719" d="M973.123 178c-33.296-40.703-153.29-42.333-219.953-17.79-8.006 5.456-14.65 11.22-19.486 17.185-24.507 30.22-33.885 111.387-21.812 168.854 31.112 30.02 73.362 58.255 112.9 74.548 41.003.544 87.497-6.557 125.51-19.835 16.43-16.86 32.354-38.49 45.335-61.024 9.38-57.467 1.936-132.075-22.494-161.94z"/><path fill="#7E8C8D" d="M118.354 221.454H66.3c-4.46 0-8.118 1.426-10.967 4.276-2.854 2.853-4.276 6.506-4.276 10.968v39.04h59.675v3.904H51.058v65.995H46.41v-109.31c0-5.454 1.795-9.976 5.39-13.572 3.595-3.593 8.117-5.39 13.572-5.39 23.67 0 41.457.25 53.354.743l-.372 3.346zm99.272 120.093l.372 3.347c-12.147.497-30.366.743-54.655.743-5.456 0-9.98-1.795-13.57-5.39-3.597-3.595-5.392-8.117-5.392-13.572v-90.35c0-5.452 1.796-9.974 5.392-13.57 3.596-3.593 8.116-5.39 13.57-5.39 24.29 0 42.51.25 54.656.743l-.372 3.346h-53.354c-4.46 0-8.12 1.426-10.968 4.276-2.852 2.853-4.274 6.506-4.274 10.968v38.296h60.98v3.904h-60.98v47.405c0 4.462 1.426 8.12 4.274 10.97 2.852 2.853 6.507 4.274 10.968 4.274h53.354zm137.382-124.183h7.808c1.86 0 2.79.93 2.79 2.79l5.576 125.483h-4.646l-5.577-124.183h-4.463L314.48 332.81c-.37 1.115-1.18 1.677-2.416 1.677h-7.81c-1.24 0-2.043-.562-2.416-1.677l-42.014-111.354h-4.464l-5.575 124.183h-4.648l5.578-125.485c0-1.86.93-2.79 2.788-2.79h7.808c1.24 0 2.046.56 2.418 1.674l35.507 93.88c.744 1.984 1.827 4.896 3.253 8.738 1.426 3.842 2.512 6.756 3.256 8.732h4.833l6.69-17.847 35.322-93.51c.373-1.11 1.178-1.67 2.418-1.67zm138.308 0v80.868c0 17.972-3.315 30.734-9.945 38.296-6.63 7.562-17.878 11.34-33.737 11.34-15.988 0-27.3-3.778-33.93-11.34-6.63-7.562-9.943-20.324-9.943-38.296v-80.868h4.646v80.868c0 16.605 2.94 28.317 8.83 35.136 5.886 6.813 16.02 10.226 30.397 10.226 14.25 0 24.318-3.407 30.21-10.226 5.884-6.814 8.828-18.526 8.828-35.136v-80.868h4.646zm118.79 53.91v74.362h-3.158l-1.116-16.545c-11.648 12.522-24.908 18.776-39.78 18.776-15.122 0-25.967-5.205-32.534-15.615s-9.854-27.327-9.854-50.75c0-24.54 3.562-41.736 10.688-51.59 7.127-9.852 19.55-14.778 37.27-14.778 13.882 0 26.028 1.055 36.44 3.16l-1.116 3.347c-10.41-1.488-22.187-2.23-35.32-2.23-16.11 0-27.325 4.586-33.646 13.756-6.32 9.173-9.48 25.282-9.48 48.334 0 21.938 2.91 37.77 8.736 47.498 5.823 9.73 15.554 14.595 29.188 14.595 4.338 0 8.365-.494 12.084-1.488 3.72-.986 7.344-2.603 10.875-4.833 3.53-2.23 6.23-4.09 8.088-5.574 1.858-1.486 4.522-3.778 7.993-6.878v-53.542l4.644-.003z"/><text transform="translate(732.126 344.694)" fill="#fff" font-family="'Exo2-Light'" font-size="185">DF</text></svg>