<?xml version="1.0" encoding="utf-8"?>
<!-- Generator: Adobe Illustrator 16.0.0, SVG Export Plug-In . SVG Version: 6.00 Build 0)  -->
<!DOCTYPE svg PUBLIC "-//W3C//DTD SVG 1.1//EN" "http://www.w3.org/Graphics/SVG/1.1/DTD/svg11.dtd">
<svg version="1.1"
	 id="svg4506" xmlns:dc="http://purl.org/dc/elements/1.1/" xmlns:cc="http://creativecommons.org/ns#" xmlns:rdf="http://www.w3.org/1999/02/22-rdf-syntax-ns#" xmlns:svg="http://www.w3.org/2000/svg" xmlns:sodipodi="http://sodipodi.sourceforge.net/DTD/sodipodi-0.dtd" xmlns:inkscape="http://www.inkscape.org/namespaces/inkscape" sodipodi:docname="FEMUG-GRU.svg" inkscape:version="0.91 r13725"
	 xmlns="http://www.w3.org/2000/svg" xmlns:xlink="http://www.w3.org/1999/xlink" x="0px" y="0px" width="1081px" height="560px"
	 viewBox="0 0 1081 560" enable-background="new 0 0 1081 560" xml:space="preserve">
<sodipodi:namedview  inkscape:cy="280" inkscape:cx="540.5" inkscape:zoom="0.79370953" showgrid="false" guidetolerance="10" gridtolerance="10" objecttolerance="10" borderopacity="1" pagecolor="#ffffff" bordercolor="#666666" id="namedview4530" inkscape:current-layer="svg4506" inkscape:window-maximized="1" inkscape:window-y="24" inkscape:window-x="0" inkscape:window-height="695" inkscape:window-width="1024" inkscape:pageshadow="2" inkscape:pageopacity="0">
	</sodipodi:namedview>
<path id="path4508" fill="#1F742F" d="M711.871,346.248c0,0,5,42.953,33.795,58.586c36.604,19.872,79.106,15.963,79.106,15.963
	L711.871,346.248z"/>
<path id="path4510" fill="#9C332A" d="M750.634,161.985c0,0,58.366-46.197,124.622-43.527c26.063,1.05,73.68,28.258,94.828,43.527
	c55.506,40.074,56.026,59.404,56.396,84.024c0.887,59.152-30.863,106.491-30.863,106.491L750.634,161.985L750.634,161.985z"/>
<path id="path4512" fill="#1F742F" d="M944.552,402.895l51.064-62.959c0,0-5.739,38.344-14.023,47.566
	C974.893,394.963,944.552,402.895,944.552,402.895z"/>
<path id="path4514" fill="#1D406B" d="M824.773,420.797c0,0,31.388,21.554,72.492,14.491c30.617-5.261,53.018-34.326,53.018-34.326
	L824.773,420.797z M745.873,152.513c0,0-27.066,19.308-33.75,28c-32.291,42.003-39.465,115.654-39.465,115.654l10.715,30.097
	l28.498,19.984l41.752-185.485l-1.5-6.25L745.873,152.513z"/>
<path id="path4516" fill="#2DBEA0" d="M906.689,432.007c-21.008,7.108-50.606,1.692-81.916-11.21
	c-23.146-0.922-60.271-5.24-81.395-17.295c-22.448-12.813-30.971-53.811-31.508-57.254c-17.333-16.725-31.196-34-39.213-50.081
	c-6.152,43.831-2.605,86.556,16.814,104.833c51.64,48.6,238.94,55.043,283.647,0c3.098-3.813,5.916-8.363,8.471-13.498
	c-9.439,5.01-19.996,9.508-31.312,13.46C935.562,416.068,920.443,427.353,906.689,432.007L906.689,432.007z"/>
<path id="path4518" fill="#F79A4B" d="M982.372,133.826c-20.747-17.896-62.854-21.277-107.116-15.369
	c66.112,22.909,144.645,78.995,150.334,124.89c3.076,24.834-9.932,61.785-29.974,96.586c-2.979,18.248-7.655,34.762-14.023,47.566
	c18.042-9.573,32.001-20.999,39.263-34.021C1048.01,304.791,1024.59,170.24,982.372,133.826L982.372,133.826z"/>
<path id="path4520" fill="#9F57B1" d="M720.645,178c7.947-6.914,19.172-12.874,32.525-17.79
	c29.238-19.928,76.785-35.706,122.086-41.752c-24.122-8.359-46.594-12.305-63.269-9.723
	c-55.627,8.615-159.377,117.545-145.266,172.041c1.283,4.959,3.305,10.113,5.937,15.394
	C679.493,247.487,698.297,197.442,720.645,178L720.645,178z"/>
<path id="path4522" fill="#1A2719" d="M973.122,178c-33.296-40.703-153.29-42.333-219.952-17.79
	c-8.007,5.456-14.65,11.221-19.486,17.185c-24.507,30.219-33.885,111.387-21.813,168.854
	c31.112,30.022,73.362,58.256,112.901,74.549c41.002,0.544,87.496-6.557,125.509-19.835c16.43-16.859,32.355-38.488,45.335-61.025
	C1004.996,282.473,997.553,207.865,973.122,178z"/>
<g id="g4524">
	<path id="path4526" fill="#7E8C8D" d="M118.354,221.454H66.301c-4.461,0-8.119,1.426-10.968,4.276
		c-2.854,2.853-4.276,6.506-4.276,10.968v39.04h59.675v3.904H51.058v65.995H46.41V236.326c0-5.453,1.795-9.975,5.391-13.571
		c3.594-3.593,8.116-5.391,13.571-5.391c23.671,0,41.457,0.25,53.354,0.744L118.354,221.454z M217.626,341.547l0.372,3.348
		c-12.147,0.496-30.366,0.742-54.655,0.742c-5.456,0-9.979-1.795-13.571-5.391c-3.596-3.594-5.391-8.116-5.391-13.571v-90.349
		c0-5.453,1.795-9.975,5.391-13.571c3.597-3.593,8.116-5.391,13.571-5.391c24.289,0,42.508,0.25,54.655,0.744l-0.372,3.346h-53.354
		c-4.461,0-8.119,1.426-10.968,4.276c-2.852,2.853-4.275,6.506-4.275,10.968v38.296h60.979v3.904h-60.979v47.405
		c0,4.463,1.427,8.119,4.275,10.969c2.851,2.854,6.507,4.275,10.968,4.275H217.626L217.626,341.547z M355.008,217.364h7.808
		c1.859,0,2.789,0.93,2.789,2.789l5.577,125.484h-4.646l-5.576-124.183h-4.463L314.48,332.811c-0.371,1.114-1.179,1.676-2.416,1.676
		h-7.809c-1.24,0-2.044-0.562-2.417-1.676l-42.014-111.354h-4.465l-5.574,124.183h-4.648l5.578-125.484
		c0-1.859,0.93-2.789,2.788-2.789h7.808c1.238,0,2.045,0.558,2.417,1.673l35.507,93.881c0.744,1.984,1.827,4.896,3.253,8.738
		s2.513,6.756,3.256,8.732h4.833l6.691-17.847l35.321-93.509C352.963,217.922,353.768,217.364,355.008,217.364L355.008,217.364z
		 M493.316,217.364v80.868c0,17.972-3.314,30.734-9.945,38.295c-6.631,7.563-17.879,11.341-33.737,11.341
		c-15.988,0-27.301-3.778-33.931-11.341c-6.631-7.561-9.942-20.323-9.942-38.295v-80.868h4.646v80.868
		c0,16.605,2.941,28.317,8.831,35.136c5.885,6.813,16.019,10.226,30.396,10.226c14.25,0,24.317-3.406,30.209-10.226
		c5.885-6.814,8.829-18.526,8.829-35.136v-80.868H493.316L493.316,217.364z M612.107,271.275v74.361h-3.159l-1.116-16.545
		c-11.647,12.521-24.907,18.775-39.78,18.775c-15.121,0-25.967-5.205-32.533-15.615c-6.568-10.41-9.854-27.328-9.854-50.752
		c0-24.539,3.563-41.735,10.688-51.588s19.549-14.779,37.271-14.779c13.882,0,26.027,1.055,36.438,3.161l-1.115,3.346
		c-10.41-1.487-22.187-2.229-35.321-2.229c-16.109,0-27.324,4.587-33.646,13.757c-6.32,9.173-9.481,25.282-9.481,48.334
		c0,21.938,2.911,37.771,8.737,47.498c5.823,9.729,15.553,14.595,29.188,14.595c4.338,0,8.364-0.493,12.084-1.487
		c3.719-0.987,7.344-2.604,10.875-4.834c3.53-2.229,6.229-4.09,8.088-5.574c1.856-1.486,4.521-3.778,7.991-6.879v-53.542
		L612.107,271.275L612.107,271.275z"/>
</g>
<g enable-background="new    ">
	<path fill="#FFFFFF" d="M798.207,272.28v54.156h-6.484l-1.241-10.587c-8.096,8.144-17.708,12.216-28.836,12.216
		c-10.854,0-18.649-3.845-23.386-11.537c-4.738-7.689-7.105-20.041-7.105-37.054c0-18.188,2.805-30.788,8.416-37.801
		c5.609-7.011,15.543-10.519,29.802-10.519c10.485,0,19.406,0.861,26.766,2.579l-1.104,6.651c-8.278-0.903-16.649-1.357-25.11-1.357
		c-7.543,0-13.338,1.133-17.385,3.394c-4.048,2.263-7.036,6.311-8.968,12.147s-2.897,14.275-2.897,25.314
		c0,14.659,1.746,25.066,5.243,31.218c3.494,6.154,9.52,9.229,18.074,9.229c3.401,0,6.76-0.588,10.071-1.765
		c3.312-1.175,5.954-2.396,7.934-3.665c1.977-1.266,4.437-3.03,7.381-5.293V272.28H798.207z"/>
	<path fill="#FFFFFF" d="M886.094,326.437h-9.658l-9.106-29.453c-2.576-7.147-7.129-10.723-13.659-10.723
		c-8.37,0-16.234-0.089-23.593-0.271v40.447h-8.968v-93.654c7.634-0.723,18.258-1.085,31.871-1.085
		c10.945,0,18.626,1.879,23.041,5.633c4.415,3.756,6.622,10.791,6.622,21.106c0,7.872-1.357,13.688-4.069,17.441
		c-2.715,3.756-7.198,6.087-13.452,6.99v0.543c5.426,1.54,9.196,5.973,11.313,13.302L886.094,326.437z M830.077,278.524h22.903
		c7.727-0.089,13.083-1.514,16.073-4.275c2.988-2.759,4.484-7.894,4.484-15.405c0-7.601-1.496-12.759-4.484-15.474
		c-2.99-2.714-8.347-4.072-16.073-4.072c-7.912,0-15.545,0.091-22.903,0.271V278.524z"/>
	<path fill="#FFFFFF" d="M972.876,232.783v58.229c0,13.483-2.531,23.029-7.589,28.639c-5.06,5.611-13.706,8.415-25.938,8.415
		c-12.51,0-21.34-2.804-26.49-8.415c-5.151-5.609-7.726-15.155-7.726-28.639v-58.229h8.968v58.229
		c0,10.769,1.862,18.323,5.588,22.666c3.725,4.344,10.186,6.516,19.385,6.516c9.105,0,15.498-2.172,19.178-6.516
		c3.678-4.343,5.519-11.897,5.519-22.666v-58.229H972.876z"/>
</g>
</svg>
