<?xml version="1.0" encoding="utf-8"?>
<!-- Generator: Adobe Illustrator 19.0.0, SVG Export Plug-In . SVG Version: 6.00 Build 0)  -->
<svg version="1.1" id="Camada_1" xmlns="http://www.w3.org/2000/svg" xmlns:xlink="http://www.w3.org/1999/xlink" x="0px" y="0px"
	 viewBox="235 117 1081 560" style="enable-background:new 235 117 1081 560;" xml:space="preserve">
<style type="text/css">
	.st0{fill:#1F742F;}
	.st1{fill:#9C332A;}
	.st2{fill:#1D406B;}
	.st3{fill:#2DBEA0;}
	.st4{fill:#F79A4B;}
	.st5{fill:#9F57B1;}
	.st6{fill:#1A2719;}
	.st7{fill:#7E8C8D;}
	.st8{fill:#FFFFFF;}
	.st9{font-family:'Asenine';}
	.st10{font-size:214px;}
</style>
<path class="st0" d="M946.9,463.2c0,0,5,43,33.8,58.6c36.6,19.9,79.1,16,79.1,16L946.9,463.2L946.9,463.2z"/>
<path class="st1" d="M985.6,279c0,0,58.4-46.2,124.6-43.5c26.1,1,73.7,28.3,94.8,43.5c55.5,40.1,56,59.4,56.4,84
	c0.9,59.1-30.9,106.5-30.9,106.5L985.6,279z"/>
<path class="st0" d="M1179.6,519.9l51.1-63c0,0-5.7,38.3-14,47.6C1209.9,512,1179.6,519.9,1179.6,519.9L1179.6,519.9z"/>
<path class="st2" d="M1059.8,537.8c0,0,31.4,21.6,72.5,14.5c30.6-5.3,53-34.3,53-34.3L1059.8,537.8L1059.8,537.8z M980.9,269.5
	c0,0-27.1,19.3-33.8,28c-32.3,42-39.5,115.7-39.5,115.7l10.7,30.1l28.5,20l41.8-185.5l-1.5-6.3L980.9,269.5L980.9,269.5z"/>
<path class="st3" d="M1141.7,549c-21,7.1-50.6,1.7-81.9-11.2c-23.1-0.9-60.3-5.2-81.4-17.3c-22.4-12.8-31-53.8-31.5-57.3
	c-17.3-16.7-31.2-34-39.2-50.1c-6.2,43.8-2.6,86.6,16.8,104.8c51.6,48.6,238.9,55,283.6,0c3.1-3.8,5.9-8.4,8.5-13.5
	c-9.4,5-20,9.5-31.3,13.5C1170.6,533.1,1155.4,544.4,1141.7,549L1141.7,549z"/>
<path class="st4" d="M1217.4,250.8c-20.7-17.9-62.9-21.3-107.1-15.4c66.1,22.9,144.6,79,150.3,124.9c3.1,24.8-9.9,61.8-30,96.6
	c-3,18.2-7.7,34.8-14,47.6c18-9.6,32-21,39.3-34C1283,421.8,1259.6,287.2,1217.4,250.8L1217.4,250.8z"/>
<path class="st5" d="M955.6,295c7.9-6.9,19.2-12.9,32.5-17.8c29.2-19.9,76.8-35.7,122.1-41.8c-24.1-8.4-46.6-12.3-63.3-9.7
	c-55.6,8.6-159.4,117.5-145.3,172c1.3,5,3.3,10.1,5.9,15.4C914.5,364.5,933.3,314.4,955.6,295L955.6,295z"/>
<path class="st6" d="M1208.1,295c-33.3-40.7-153.3-42.3-220-17.8c-8,5.5-14.7,11.2-19.5,17.2c-24.5,30.2-33.9,111.4-21.8,168.9
	c31.1,30,73.4,58.3,112.9,74.5c41,0.5,87.5-6.6,125.5-19.8c16.4-16.9,32.4-38.5,45.3-61C1240,399.5,1232.6,324.9,1208.1,295
	L1208.1,295z"/>
<path class="st7" d="M353.4,338.5h-52.1c-4.5,0-8.1,1.4-11,4.3c-2.9,2.9-4.3,6.5-4.3,11v39h59.7v3.9h-59.7v66h-4.6V353.3
	c0-5.5,1.8-10,5.4-13.6c3.6-3.6,8.1-5.4,13.6-5.4c23.7,0,41.5,0.3,53.4,0.7L353.4,338.5L353.4,338.5z M452.6,458.5l0.4,3.3
	c-12.1,0.5-30.4,0.7-54.7,0.7c-5.5,0-10-1.8-13.6-5.4c-3.6-3.6-5.4-8.1-5.4-13.6v-90.4c0-5.5,1.8-10,5.4-13.6
	c3.6-3.6,8.1-5.4,13.6-5.4c24.3,0,42.5,0.3,54.7,0.7l-0.4,3.3h-53.4c-4.5,0-8.1,1.4-11,4.3c-2.9,2.9-4.3,6.5-4.3,11V392h61v3.9h-61
	v47.4c0,4.5,1.4,8.1,4.3,11c2.9,2.9,6.5,4.3,11,4.3L452.6,458.5L452.6,458.5z M590,334.4h7.8c1.9,0,2.8,0.9,2.8,2.8l5.6,125.5h-4.6
	L596,338.5h-4.5l-42,111.4c-0.4,1.1-1.2,1.7-2.4,1.7h-7.8c-1.2,0-2-0.6-2.4-1.7l-42-111.4h-4.5l-5.6,124.2h-4.6l5.6-125.5
	c0-1.9,0.9-2.8,2.8-2.8h7.8c1.2,0,2,0.6,2.4,1.7l35.5,93.9c0.7,2,1.8,4.9,3.3,8.7s2.5,6.8,3.3,8.7h4.8l6.7-17.8l35.3-93.5
	C588,334.9,588.8,334.4,590,334.4L590,334.4z M728.3,334.4v80.9c0,18-3.3,30.7-9.9,38.3c-6.6,7.6-17.9,11.3-33.7,11.3
	c-16,0-27.3-3.8-33.9-11.3c-6.6-7.6-9.9-20.3-9.9-38.3v-80.9h4.6v80.9c0,16.6,2.9,28.3,8.8,35.1c5.9,6.8,16,10.2,30.4,10.2
	c14.3,0,24.3-3.4,30.2-10.2c5.9-6.8,8.8-18.5,8.8-35.1v-80.9H728.3L728.3,334.4z M847.1,388.3v74.4h-3.2l-1.1-16.5
	c-11.6,12.5-24.9,18.8-39.8,18.8c-15.1,0-26-5.2-32.5-15.6s-9.9-27.3-9.9-50.8c0-24.5,3.6-41.7,10.7-51.6
	c7.1-9.9,19.5-14.8,37.3-14.8c13.9,0,26,1.1,36.4,3.2l-1.1,3.3c-10.4-1.5-22.2-2.2-35.3-2.2c-16.1,0-27.3,4.6-33.6,13.8
	c-6.3,9.2-9.5,25.3-9.5,48.3c0,21.9,2.9,37.8,8.7,47.5c5.8,9.7,15.6,14.6,29.2,14.6c4.3,0,8.4-0.5,12.1-1.5c3.7-1,7.3-2.6,10.9-4.8
	c3.5-2.2,6.2-4.1,8.1-5.6c1.9-1.5,4.5-3.8,8-6.9v-53.5L847.1,388.3L847.1,388.3z"/>
<text transform="matrix(1 0 0 1 995.6313 456.9346)" class="st8 st9 st10">RN</text>
</svg>
