<?xml version="1.0" encoding="UTF-8" standalone="no"?>
<svg
   xmlns:dc="http://purl.org/dc/elements/1.1/"
   xmlns:cc="http://creativecommons.org/ns#"
   xmlns:rdf="http://www.w3.org/1999/02/22-rdf-syntax-ns#"
   xmlns:svg="http://www.w3.org/2000/svg"
   xmlns="http://www.w3.org/2000/svg"
   xmlns:sodipodi="http://sodipodi.sourceforge.net/DTD/sodipodi-0.dtd"
   xmlns:inkscape="http://www.inkscape.org/namespaces/inkscape"
   width="1081"
   height="560"
   viewBox="0 0 1081 560"
   id="svg2"
   version="1.1"
   inkscape:version="0.48.4 r9939"
   sodipodi:docname="FEMUG-CPS.svg">
  <metadata
     id="metadata28">
    <rdf:RDF>
      <cc:Work
         rdf:about="">
        <dc:format>image/svg+xml</dc:format>
        <dc:type
           rdf:resource="http://purl.org/dc/dcmitype/StillImage" />
        <dc:title />
      </cc:Work>
    </rdf:RDF>
  </metadata>
  <defs
     id="defs26" />
  <sodipodi:namedview
     pagecolor="#ffffff"
     bordercolor="#666666"
     borderopacity="1"
     objecttolerance="10"
     gridtolerance="10"
     guidetolerance="10"
     inkscape:pageopacity="0"
     inkscape:pageshadow="2"
     inkscape:window-width="1445"
     inkscape:window-height="829"
     id="namedview24"
     showgrid="false"
     inkscape:zoom="0.68136738"
     inkscape:cx="525.26046"
     inkscape:cy="193.55743"
     inkscape:window-x="287"
     inkscape:window-y="86"
     inkscape:window-maximized="0"
     inkscape:current-layer="text22" />
  <path
     fill="#1F742F"
     d="M711.872 346.248s5 42.953 33.795 58.586c36.604 19.872 79.106 15.963 79.106 15.963l-112.901-74.549z"
     id="path4" />
  <path
     fill="#9C332A"
     d="M750.634 161.985s58.366-46.197 124.622-43.527c26.064 1.05 73.68 28.258 94.828 43.527 55.506 40.074 56.027 59.404 56.396 84.024.887 59.152-30.863 106.491-30.863 106.491l-244.983-190.515z"
     id="path6" />
  <path
     fill="#1F742F"
     d="M944.552 402.895l51.065-62.959s-5.74 38.345-14.024 47.566c-6.7 7.461-37.041 15.393-37.041 15.393z"
     id="path8" />
  <path
     fill="#1D406B"
     d="M824.773 420.797s31.388 21.554 72.492 14.491c30.616-5.261 53.018-34.326 53.018-34.326l-125.51 19.835zm-78.899-268.284s-27.067 19.308-33.75 28c-32.291 42.003-39.465 115.654-39.465 115.654l10.715 30.096 28.498 19.985 41.752-185.485-1.5-6.25-6.25-2z"
     id="path10" />
  <path
     fill="#2DBEA0"
     d="M906.689 432.007c-21.008 7.108-50.607 1.692-81.916-11.21-23.147-.922-60.271-5.24-81.396-17.295-22.448-12.812-30.97-53.811-31.507-57.254-17.333-16.725-31.197-34-39.213-50.081-6.153 43.831-2.606 86.555 16.813 104.833 51.641 48.6 238.941 55.043 283.648 0 3.097-3.812 5.916-8.363 8.47-13.498-9.439 5.009-19.996 9.508-31.311 13.46-14.715 15.107-29.834 26.391-43.588 31.045z"
     id="path12" />
  <path
     fill="#F79A4B"
     d="M982.373 133.826c-20.747-17.896-62.854-21.277-107.117-15.369 66.113 22.909 144.645 78.995 150.334 124.89 3.076 24.834-9.931 61.785-29.973 96.586-2.979 18.248-7.656 34.762-14.024 47.566 18.042-9.573 32.001-20.999 39.263-34.021 27.154-48.687 3.734-183.238-38.483-219.652z"
     id="path14" />
  <path
     fill="#9F57B1"
     d="M720.645 178c7.947-6.914 19.172-12.874 32.525-17.79 29.239-19.928 76.786-35.706 122.086-41.752-24.122-8.359-46.593-12.305-63.268-9.723-55.627 8.615-159.377 117.545-145.266 172.041 1.282 4.959 3.305 10.113 5.937 15.394 6.835-48.683 25.638-98.728 47.986-118.17z"
     id="path16" />
  <path
     fill="#1A2719"
     d="M973.123 178c-33.296-40.703-153.29-42.333-219.953-17.79-8.006 5.456-14.65 11.221-19.486 17.185-24.507 30.219-33.885 111.387-21.812 168.854 31.112 30.022 73.362 58.256 112.901 74.549 41.002.544 87.496-6.557 125.509-19.835 16.429-16.859 32.354-38.489 45.335-61.024 9.38-57.466 1.936-132.074-22.494-161.939z"
     id="path18" />
  <path
     fill="#7E8C8D"
     d="M118.354 221.454h-52.053c-4.461 0-8.119 1.426-10.968 4.276-2.854 2.853-4.276 6.506-4.276 10.968v39.04h59.675v3.904h-59.674v65.995h-4.648v-109.311c0-5.453 1.795-9.975 5.391-13.571 3.594-3.593 8.116-5.391 13.571-5.391 23.671 0 41.457.25 53.354.744l-.372 3.346zm99.272 120.093l.372 3.347c-12.147.497-30.366.743-54.655.743-5.456 0-9.979-1.795-13.571-5.391-3.596-3.594-5.391-8.116-5.391-13.571v-90.349c0-5.453 1.795-9.975 5.391-13.571 3.596-3.593 8.116-5.391 13.571-5.391 24.289 0 42.508.25 54.655.744l-.372 3.346h-53.354c-4.461 0-8.119 1.426-10.968 4.276-2.852 2.853-4.274 6.506-4.274 10.968v38.296h60.979v3.904h-60.979v47.405c0 4.462 1.426 8.119 4.274 10.969 2.852 2.854 6.507 4.275 10.968 4.275h53.354zm137.382-124.183h7.808c1.859 0 2.789.93 2.789 2.789l5.577 125.484h-4.646l-5.577-124.183h-4.462l-42.017 111.356c-.371 1.115-1.179 1.677-2.416 1.677h-7.809c-1.24 0-2.044-.562-2.417-1.677l-42.014-111.354h-4.464l-5.575 124.183h-4.648l5.578-125.484c0-1.859.93-2.789 2.788-2.789h7.808c1.238 0 2.045.558 2.417 1.673l35.507 93.881c.744 1.984 1.827 4.896 3.253 8.738 1.426 3.842 2.512 6.756 3.256 8.732h4.833l6.691-17.847 35.321-93.509c.374-1.112 1.179-1.67 2.419-1.67zm138.308 0v80.868c0 17.972-3.315 30.734-9.945 38.296-6.631 7.562-17.879 11.34-33.738 11.34-15.988 0-27.3-3.778-33.93-11.34-6.631-7.562-9.943-20.324-9.943-38.296v-80.868h4.646v80.868c0 16.605 2.94 28.317 8.831 35.136 5.885 6.813 16.018 10.226 30.396 10.226 14.25 0 24.318-3.407 30.209-10.226 5.885-6.814 8.829-18.526 8.829-35.136v-80.868h4.645zm118.791 53.911v74.361h-3.159l-1.116-16.545c-11.648 12.521-24.908 18.775-39.781 18.775-15.121 0-25.966-5.205-32.533-15.615s-9.854-27.328-9.854-50.752c0-24.539 3.562-41.735 10.688-51.588 7.127-9.853 19.549-14.779 37.271-14.779 13.881 0 26.027 1.055 36.438 3.161l-1.115 3.346c-10.409-1.487-22.187-2.23-35.32-2.23-16.11 0-27.325 4.587-33.646 13.757-6.319 9.173-9.48 25.282-9.48 48.334 0 21.938 2.911 37.771 8.736 47.498 5.823 9.729 15.554 14.595 29.188 14.595 4.338 0 8.365-.494 12.084-1.488 3.719-.986 7.344-2.603 10.875-4.833 3.531-2.229 6.229-4.09 8.088-5.574 1.857-1.486 4.521-3.778 7.992-6.878v-53.542l4.644-.003z"
     id="path20" />
  <g
     style="font-size:103.00388336px;fill:#ffffff;font-family:Exo2-Light"
     id="text22">
    <path
       d="m 819.60931,250.64726 0,10.71281 c -3.42011,-3.18528 -7.07487,-5.56591 -10.96428,-7.14188 -3.85599,-1.57583 -7.9634,-2.36379 -12.32224,-2.36385 -8.58369,6e-5 -15.15555,2.63216 -19.71559,7.89629 -4.56008,5.23072 -6.84012,12.80847 -6.8401,22.73328 -2e-5,9.89135 2.28002,17.4691 6.8401,22.73328 4.56004,5.23067 11.1319,7.846 19.71559,7.846 4.35884,0 8.46625,-0.78795 12.32224,-2.36386 3.88941,-1.5759 7.54417,-3.95652 10.96428,-7.14187 l 0,10.61221 c -3.55423,2.41416 -7.32634,4.22477 -11.31634,5.43185 -3.95658,1.20707 -8.14782,1.81061 -12.57372,1.81061 -11.36667,0 -20.31915,-3.47034 -26.85746,-10.41103 -6.53834,-6.97421 -9.8075,-16.47993 -9.80749,-28.51719 -10e-6,-12.07072 3.26915,-21.57644 9.80749,-28.51719 6.53831,-6.97415 15.49079,-10.46126 26.85746,-10.46133 4.49296,7e-5 8.71773,0.60361 12.67431,1.81061 3.99,1.17362 7.72858,2.95071 11.21575,5.33126"
       style="font-size:103.00388336px;fill:#ffffff;font-family:Exo2-Light"
       id="path2992" />
    <path
       d="m 845.56146,253.2123 0,28.21542 12.7749,0 c 4.72768,3e-5 8.38244,-1.22381 10.96428,-3.67153 2.58176,-2.44764 3.87266,-5.93474 3.8727,-10.46133 -4e-5,-4.49295 -1.29094,-7.96329 -3.8727,-10.41104 -2.58184,-2.44762 -6.2366,-3.67146 -10.96428,-3.67152 l -12.7749,0 m -10.15956,-8.34895 22.93446,0 c 8.41597,7e-5 14.76988,1.91128 19.06175,5.73361 4.32531,3.78895 6.48798,9.35491 6.48804,16.6979 -6e-5,7.41015 -2.16273,13.00964 -6.48804,16.79848 -4.29187,3.78892 -10.64578,5.68335 -19.06175,5.68332 l -12.7749,0 0,30.17692 -10.15956,0 0,-75.09023"
       style="font-size:103.00388336px;fill:#ffffff;font-family:Exo2-Light"
       id="path2994" />
    <path
       d="m 942.58026,247.3278 0,9.90809 c -3.85599,-1.84408 -7.49398,-3.21881 -10.91398,-4.12418 -3.42009,-0.90524 -6.72279,-1.3579 -9.90809,-1.35796 -5.53246,6e-5 -9.80752,1.07302 -12.82519,3.21887 -2.98418,2.14597 -4.47626,5.19719 -4.47624,9.15366 -2e-5,3.31952 0.98911,5.83426 2.96739,7.54423 2.01178,1.67654 5.80065,3.0345 11.36664,4.07389 l 6.13598,1.25737 c 7.57771,1.44183 13.16044,3.9901 16.74819,7.64482 3.62117,3.62126 5.43178,8.48309 5.43184,14.58551 -6e-5,7.276 -2.44774,12.79167 -7.34305,16.54701 -4.86188,3.75535 -12.00375,5.63302 -21.42561,5.63302 -3.5542,0 -7.34307,-0.40236 -11.36664,-1.20707 -3.99007,-0.80472 -8.13101,-1.99503 -12.42283,-3.57094 l 0,-10.46133 c 4.12417,2.31358 8.16452,4.05713 12.12106,5.23067 3.95651,1.17355 7.84597,1.76032 11.66841,1.76032 5.80064,0 10.27688,-1.14001 13.42873,-3.42005 3.15176,-2.28003 4.72767,-5.53242 4.72772,-9.75721 -5e-5,-3.68827 -1.14007,-6.57183 -3.42006,-8.65072 -2.24654,-2.07882 -5.95159,-3.63796 -11.11516,-4.67742 l -6.18627,-1.20707 c -7.57778,-1.50881 -13.05991,-3.87267 -16.44642,-7.09158 -3.38653,-3.21883 -5.07979,-7.69507 -5.07978,-13.42873 -10e-6,-6.63886 2.33032,-11.86952 6.99099,-15.692 4.69416,-3.82233 11.14867,-5.73354 19.36352,-5.73361 3.5206,7e-5 7.1083,0.31861 10.7631,0.9556 3.65471,0.63714 7.39329,1.59275 11.21575,2.86681"
       style="font-size:103.00388336px;fill:#ffffff;font-family:Exo2-Light"
       id="path2996" />
  </g>
</svg>
