<svg xmlns="http://www.w3.org/2000/svg" xmlns:xlink="http://www.w3.org/1999/xlink" width="1081" height="560" viewBox="0 0 1081 560"><defs><path id="a" d="M0 0h1081v560H0z"/></defs><clipPath id="b"><use xlink:href="#a" overflow="visible"/></clipPath><path clip-path="url(#b)" fill="#1F742F" d="M712.916 360.965s5 42.953 33.795 58.586c36.606 19.874 79.108 15.965 79.108 15.965l-112.9-74.55z"/><path clip-path="url(#b)" fill="#9C332A" d="M751.68 176.702s58.365-46.197 124.62-43.527c26.064 1.05 73.68 28.258 94.83 43.527 55.505 40.074 56.025 59.404 56.395 84.024.886 59.152-30.863 106.49-30.863 106.49L751.68 176.703z"/><path clip-path="url(#b)" fill="#1F742F" d="M945.597 417.61l51.063-62.958s-5.738 38.344-14.022 47.566c-6.7 7.462-37.04 15.393-37.04 15.393"/><path clip-path="url(#b)" fill="#1D406B" d="M825.818 435.514s31.387 21.554 72.492 14.49c30.617-5.26 53.017-34.325 53.017-34.325l-125.51 19.833zm-78.9-268.284s-27.067 19.308-33.75 28c-32.29 42.003-39.465 115.654-39.465 115.654l10.715 30.097 28.498 19.986 41.752-185.485-1.5-6.25-6.25-2z"/><path clip-path="url(#b)" fill="#2DBEA0" d="M907.734 446.724c-21.008 7.108-50.607 1.692-81.916-11.21-23.148-.922-60.27-5.24-81.395-17.295-22.448-12.814-30.97-53.813-31.508-57.256-17.333-16.725-31.196-34-39.213-50.08-6.152 43.83-2.605 86.554 16.815 104.832 51.64 48.6 238.94 55.043 283.647 0 3.098-3.813 5.916-8.363 8.47-13.498-9.438 5.008-19.995 9.507-31.31 13.46-14.717 15.105-29.836 26.39-43.59 31.044"/><path clip-path="url(#b)" fill="#F79A4B" d="M983.418 148.543c-20.748-17.896-62.854-21.277-107.117-15.37 66.114 22.91 144.647 78.996 150.336 124.89 3.076 24.835-9.932 61.786-29.974 96.588-2.978 18.25-7.654 34.763-14.022 47.568 18.042-9.573 32-21 39.263-34.02 27.155-48.69 3.735-183.24-38.482-219.654"/><path clip-path="url(#b)" fill="#9F57B1" d="M721.69 192.717c7.946-6.914 19.17-12.874 32.524-17.79C783.452 155 831 139.22 876.3 133.175c-24.122-8.36-46.594-12.305-63.27-9.723-55.626 8.615-159.376 117.545-145.265 172.04 1.284 4.96 3.305 10.114 5.937 15.394 6.836-48.683 25.64-98.727 47.987-118.17"/><path clip-path="url(#b)" fill="#1A2719" d="M974.168 192.717c-33.297-40.703-153.29-42.333-219.953-17.79-8.007 5.456-14.65 11.22-19.486 17.185-24.51 30.22-33.887 111.387-21.815 168.854 31.113 30.022 73.362 58.256 112.9 74.55 41.003.543 87.498-6.558 125.51-19.836 16.43-16.86 32.356-38.49 45.335-61.026 9.38-57.465 1.938-132.072-22.492-161.937"/><path clip-path="url(#b)" fill="#7E8C8D" d="M119.398 236.17H67.345c-4.46 0-8.12 1.427-10.968 4.277-2.854 2.853-4.276 6.506-4.276 10.968v39.04h59.677v3.904H52.103v65.992h-4.647v-109.31c0-5.453 1.795-9.975 5.39-13.57 3.594-3.594 8.116-5.392 13.572-5.392 23.67 0 41.457.25 53.353.745l-.37 3.346zm99.272 120.094l.373 3.347c-12.147.5-30.366.745-54.655.745-5.456 0-9.98-1.795-13.57-5.39-3.597-3.595-5.392-8.117-5.392-13.572v-90.35c0-5.452 1.795-9.974 5.39-13.57 3.597-3.593 8.117-5.39 13.572-5.39 24.29 0 42.508.25 54.655.743l-.372 3.346H165.32c-4.46 0-8.12 1.427-10.968 4.277-2.853 2.852-4.278 6.505-4.278 10.967v38.296h60.98v3.905h-60.98v47.404c0 4.46 1.427 8.118 4.277 10.968 2.847 2.854 6.505 4.275 10.966 4.275h53.354zM356.053 232.08h7.808c1.86 0 2.79.93 2.79 2.79l5.578 125.483h-4.646l-5.576-124.183h-4.462l-42.017 111.355c-.37 1.116-1.18 1.676-2.416 1.676h-7.81c-1.24 0-2.043-.56-2.416-1.674L260.87 236.17h-4.465l-5.575 124.184h-4.648l5.578-125.483c0-1.857.93-2.787 2.788-2.787h7.808c1.238 0 2.045.558 2.417 1.673l35.507 93.88c.744 1.985 1.827 4.897 3.252 8.74 1.427 3.84 2.513 6.755 3.257 8.732h4.83l6.69-17.847 35.323-93.51c.374-1.11 1.18-1.67 2.42-1.67"/><path clip-path="url(#b)" fill="#7E8C8D" d="M494.36 232.08v80.87c0 17.97-3.315 30.735-9.945 38.295-6.63 7.562-17.88 11.34-33.738 11.34-15.99 0-27.3-3.778-33.93-11.34-6.63-7.56-9.943-20.324-9.943-38.296v-80.87h4.646v80.87c0 16.604 2.942 28.317 8.83 35.134 5.886 6.814 16.02 10.226 30.397 10.226 14.25 0 24.318-3.406 30.21-10.225 5.884-6.814 8.828-18.526 8.828-35.136v-80.87h4.645zm118.79 53.912v74.36h-3.158l-1.116-16.545c-11.647 12.52-24.907 18.775-39.78 18.775-15.12 0-25.967-5.205-32.533-15.615-6.57-10.41-9.854-27.328-9.854-50.752 0-24.54 3.56-41.734 10.686-51.587 7.125-9.853 19.55-14.78 37.27-14.78 13.883 0 26.028 1.056 36.44 3.162l-1.116 3.346c-10.41-1.488-22.186-2.23-35.32-2.23-16.11 0-27.325 4.587-33.647 13.757-6.32 9.172-9.48 25.28-9.48 48.333 0 21.938 2.91 37.77 8.737 47.498 5.823 9.73 15.552 14.595 29.188 14.595 4.34 0 8.365-.496 12.084-1.49 3.72-.987 7.345-2.603 10.875-4.833 3.53-2.23 6.23-4.09 8.09-5.575 1.855-1.486 4.52-3.778 7.99-6.878V285.99h4.644z"/><path d="M782.743 302.868l-26.9-5.673c-8.908-1.83-15.253-5.46-19.033-10.89-3.782-5.427-5.673-13.204-5.673-23.332 0-7.32.732-13.205 2.196-17.66 1.464-4.452 4.025-7.777 7.686-9.974 3.66-2.198 7.685-3.63 12.076-4.3 4.393-.67 10.368-.946 17.935-.826 13.543 0 25.68.978 36.418 2.928l-.916 8.784c-14.397-.732-26.05-1.098-34.953-1.098-5.98 0-10.37.153-13.176.457-2.81.306-5.582 1.19-8.327 2.653s-4.575 3.723-5.49 6.77c-.915 3.052-1.372 7.26-1.372 12.628 0 7.566 1.31 13.024 3.935 16.378 2.623 3.357 7.106 5.645 13.45 6.863l26.354 5.488c9.393 1.83 16.012 5.462 19.855 10.89 3.84 5.43 5.763 13.33 5.763 23.698 0 7.32-.795 13.238-2.38 17.75-1.587 4.516-4.21 7.933-7.868 10.25-3.66 2.317-7.81 3.87-12.444 4.665-4.637.793-10.736 1.19-18.3 1.19-13.907 0-26.717-.915-38.43-2.745l.73-8.967c15.128.732 27.818 1.098 38.066 1.098 11.1-.12 18.603-1.646 22.51-4.574 3.9-2.928 5.854-9.21 5.854-18.85 0-7.93-1.312-13.54-3.934-16.836-2.625-3.29-7.168-5.547-13.633-6.768zm159.573-70.638h14.274c3.537 0 5.307 1.77 5.307 5.307l5.308 120.963H955.31l-4.94-116.205h-4.026l-32.757 99.003c-.855 2.685-2.686 4.026-5.49 4.026H896.02c-2.81 0-4.64-1.342-5.49-4.026l-32.94-99.003h-3.843l-4.76 116.205H837.09l5.125-120.963c0-3.537 1.767-5.307 5.307-5.307h14.457c2.56 0 4.327 1.404 5.306 4.21l27.633 82.35c1.95 6.1 3.66 11.834 5.123 17.2h4.025c.73-2.682 2.5-8.477 5.307-17.385l27.633-82.167c.732-2.804 2.5-4.208 5.306-4.208z" clip-path="url(#b)" fill="#fff"/></svg>