<?xml version="1.0" encoding="utf-8"?>
<!-- Generator: Adobe Illustrator 18.1.1, SVG Export Plug-In . SVG Version: 6.00 Build 0)  -->
<svg version="1.1"
	 id="svg2" inkscape:version="0.91 r13725" sodipodi:docname="FEMUG-REC.svg" xmlns:svg="http://www.w3.org/2000/svg" xmlns:sodipodi="http://sodipodi.sourceforge.net/DTD/sodipodi-0.dtd" xmlns:dc="http://purl.org/dc/elements/1.1/" xmlns:inkscape="http://www.inkscape.org/namespaces/inkscape" xmlns:rdf="http://www.w3.org/1999/02/22-rdf-syntax-ns#" xmlns:cc="http://creativecommons.org/ns#"
	 xmlns="http://www.w3.org/2000/svg" xmlns:xlink="http://www.w3.org/1999/xlink" x="0px" y="0px" viewBox="235 117 1081 560"
	 enable-background="new 235 117 1081 560" xml:space="preserve">
<sodipodi:namedview  inkscape:current-layer="svg2" inkscape:window-maximized="0" inkscape:window-y="381" inkscape:window-x="1918" inkscape:guide-bbox="true" inkscape:window-height="923" inkscape:window-width="1443" inkscape:pageshadow="2" inkscape:pageopacity="0" inkscape:cy="444.38332" inkscape:cx="299.5757" inkscape:zoom="0.97333477" id="namedview26" pagecolor="#ffffff" bordercolor="#666666" guidetolerance="10" showguides="false" showgrid="false" objecttolerance="10" gridtolerance="10" borderopacity="1">
	<sodipodi:guide  orientation="0,1" position="588.69776,350.34195" id="guide3358"></sodipodi:guide>
	<sodipodi:guide  orientation="0,1" position="734.58795,215.75311" id="guide3360"></sodipodi:guide>
	<sodipodi:guide  orientation="1,0" position="755.13587,229.10925" id="guide3362"></sodipodi:guide>
	<sodipodi:guide  orientation="1,0" position="986.29991,297.94476" id="guide3364"></sodipodi:guide>
</sodipodi:namedview>
<path id="path4" fill="#1F742F" d="M946.9,463.2c0,0,5,43,33.8,58.6c36.6,19.9,79.1,16,79.1,16L946.9,463.2z"/>
<path id="path6" fill="#9C332A" d="M985.6,279c0,0,58.4-46.2,124.6-43.5c26.1,1,73.7,28.3,94.8,43.5c55.5,40.1,56,59.4,56.4,84
	c0.9,59.2-30.9,106.5-30.9,106.5L985.6,279L985.6,279z"/>
<path id="path8" fill="#1F742F" d="M1179.6,519.9l51.1-63c0,0-5.7,38.3-14,47.6C1209.9,512,1179.6,519.9,1179.6,519.9z"/>
<path id="path10" fill="#1D406B" d="M1059.8,537.8c0,0,31.4,21.6,72.5,14.5c30.6-5.3,53-34.3,53-34.3L1059.8,537.8z M980.9,269.5
	c0,0-27.1,19.3-33.8,28c-32.3,42-39.5,115.7-39.5,115.7l10.7,30.1l28.5,20l41.8-185.5l-1.5-6.2L980.9,269.5L980.9,269.5z"/>
<path id="path12" fill="#2DBEA0" d="M1141.7,549c-21,7.1-50.6,1.7-81.9-11.2c-23.1-0.9-60.3-5.2-81.4-17.3
	c-22.4-12.8-31-53.8-31.5-57.3c-17.3-16.7-31.2-34-39.2-50.1c-6.2,43.8-2.6,86.6,16.8,104.8c51.6,48.6,238.9,55,283.6,0
	c3.1-3.8,5.9-8.4,8.5-13.5c-9.4,5-20,9.5-31.3,13.5C1170.6,533.1,1155.4,544.4,1141.7,549L1141.7,549z"/>
<path id="path14" fill="#F79A4B" d="M1217.4,250.8c-20.7-17.9-62.9-21.3-107.1-15.4c66.1,22.9,144.6,79,150.3,124.9
	c3.1,24.8-9.9,61.8-30,96.6c-3,18.2-7.7,34.8-14,47.6c18-9.6,32-21,39.3-34C1283,421.8,1259.6,287.2,1217.4,250.8L1217.4,250.8z"/>
<path id="path16" fill="#9F57B1" d="M955.6,295c7.9-6.9,19.2-12.9,32.5-17.8c29.2-19.9,76.8-35.7,122.1-41.8
	c-24.1-8.4-46.6-12.3-63.3-9.7c-55.6,8.6-159.4,117.5-145.3,172c1.3,5,3.3,10.1,5.9,15.4C914.5,364.5,933.3,314.4,955.6,295
	L955.6,295z"/>
<path id="path18" fill="#1A2719" d="M1208.1,295c-33.3-40.7-153.3-42.3-220-17.8c-8,5.5-14.7,11.2-19.5,17.2
	c-24.5,30.2-33.9,111.4-21.8,168.9c31.1,30,73.4,58.3,112.9,74.5c41,0.5,87.5-6.6,125.5-19.8c16.4-16.9,32.4-38.5,45.3-61
	C1240,399.5,1232.6,324.9,1208.1,295L1208.1,295z"/>
<g id="g20">
	<path id="path22" fill="#7E8C8D" d="M353.4,338.5h-52.1c-4.5,0-8.1,1.4-11,4.3c-2.9,2.9-4.3,6.5-4.3,11v39h59.7v3.9h-59.7v66h-4.6
		V353.3c0-5.5,1.8-10,5.4-13.6c3.6-3.6,8.1-5.4,13.6-5.4c23.7,0,41.5,0.2,53.4,0.7L353.4,338.5L353.4,338.5z M452.6,458.5l0.4,3.3
		c-12.1,0.5-30.4,0.7-54.7,0.7c-5.5,0-10-1.8-13.6-5.4c-3.6-3.6-5.4-8.1-5.4-13.6v-90.3c0-5.5,1.8-10,5.4-13.6
		c3.6-3.6,8.1-5.4,13.6-5.4c24.3,0,42.5,0.2,54.7,0.7l-0.4,3.3h-53.4c-4.5,0-8.1,1.4-11,4.3c-2.9,2.9-4.3,6.5-4.3,11V392h61v3.9h-61
		v47.4c0,4.5,1.4,8.1,4.3,11c2.9,2.9,6.5,4.3,11,4.3L452.6,458.5L452.6,458.5z M590,334.4h7.8c1.9,0,2.8,0.9,2.8,2.8l5.6,125.5h-4.6
		L596,338.5h-4.5l-42,111.4c-0.4,1.1-1.2,1.7-2.4,1.7h-7.8c-1.2,0-2-0.6-2.4-1.7l-42-111.4h-4.5l-5.6,124.2h-4.6l5.6-125.5
		c0-1.9,0.9-2.8,2.8-2.8h7.8c1.2,0,2,0.6,2.4,1.7l35.5,93.9c0.7,2,1.8,4.9,3.3,8.7c1.4,3.8,2.5,6.8,3.3,8.7h4.8l6.7-17.8l35.3-93.5
		C588,334.9,588.8,334.4,590,334.4L590,334.4z M728.3,334.4v80.9c0,18-3.3,30.7-9.9,38.3c-6.6,7.6-17.9,11.3-33.7,11.3
		c-16,0-27.3-3.8-33.9-11.3c-6.6-7.6-9.9-20.3-9.9-38.3v-80.9h4.6v80.9c0,16.6,2.9,28.3,8.8,35.1c5.9,6.8,16,10.2,30.4,10.2
		c14.2,0,24.3-3.4,30.2-10.2c5.9-6.8,8.8-18.5,8.8-35.1v-80.9H728.3L728.3,334.4z M847.1,388.3v74.4h-3.2l-1.1-16.5
		c-11.6,12.5-24.9,18.8-39.8,18.8c-15.1,0-26-5.2-32.5-15.6c-6.6-10.4-9.9-27.3-9.9-50.8c0-24.5,3.6-41.7,10.7-51.6
		c7.1-9.9,19.5-14.8,37.3-14.8c13.9,0,26,1.1,36.4,3.2l-1.1,3.3c-10.4-1.5-22.2-2.2-35.3-2.2c-16.1,0-27.3,4.6-33.6,13.8
		c-6.3,9.2-9.5,25.3-9.5,48.3c0,21.9,2.9,37.8,8.7,47.5c5.8,9.7,15.6,14.6,29.2,14.6c4.3,0,8.4-0.5,12.1-1.5c3.7-1,7.3-2.6,10.9-4.8
		c3.5-2.2,6.2-4.1,8.1-5.6c1.9-1.5,4.5-3.8,8-6.9v-53.5L847.1,388.3L847.1,388.3z"/>
</g>
<g enable-background="new    ">
	<path fill="#FFFFFF" d="M1047.4,438.9h-8.6l-8.1-26.6c-2.3-6.4-6.3-9.7-12.1-9.7c-7.4,0-14.4-0.1-20.9-0.2v36.5h-8v-84.5
		c6.8-0.7,16.2-1,28.3-1c9.7,0,16.5,1.7,20.5,5.1c3.9,3.4,5.9,9.7,5.9,19c0,7.1-1.2,12.4-3.6,15.7c-2.4,3.4-6.4,5.5-11.9,6.3v0.5
		c4.8,1.4,8.2,5.4,10,12L1047.4,438.9z M997.6,395.7h20.3c6.9-0.1,11.6-1.4,14.3-3.9c2.7-2.5,4-7.1,4-13.9c0-6.9-1.3-11.5-4-14
		c-2.7-2.4-7.4-3.7-14.3-3.7c-7,0-13.8,0.1-20.3,0.2V395.7z"/>
	<path fill="#FFFFFF" d="M1114.7,432.2l0.5,6.1c-7.7,0.5-19.7,0.7-36.1,0.7c-4.5,0-8.1-1.3-10.8-3.8c-2.7-2.5-4.1-5.9-4.1-10.2
		v-56.8c0-4.2,1.4-7.6,4.1-10.2c2.7-2.5,6.3-3.8,10.8-3.8c16.4,0,28.5,0.2,36.1,0.7l-0.5,6.1h-34.3c-5.5,0-8.2,3-8.2,8.9v20.7h37.7
		v6.5h-37.7v26.1c0,5.9,2.7,8.8,8.2,8.8H1114.7z"/>
	<path fill="#FFFFFF" d="M1184.7,431.8l1,6c-6.4,1.7-14.5,2.6-24.3,2.6c-11.9,0-20.3-3.3-25.1-9.8c-4.8-6.5-7.2-17.8-7.2-33.9
		c0-16.1,2.4-27.4,7.2-33.9c4.8-6.5,13.2-9.8,25.1-9.8c8.9,0,16.4,0.8,22.5,2.3l-1,6c-6.2-0.7-13.4-1.1-21.6-1.1
		c-9,0-15.2,2.7-18.7,8c-3.5,5.3-5.3,14.8-5.3,28.5c0,13.7,1.8,23.2,5.3,28.5c3.5,5.3,9.8,8,18.7,8
		C1170.7,433.2,1178.5,432.7,1184.7,431.8z"/>
</g>
</svg>
