<?xml version="1.0" encoding="UTF-8" standalone="no"?>
<!-- Generator: Adobe Illustrator 16.0.0, SVG Export Plug-In . SVG Version: 6.00 Build 0)  -->
<!DOCTYPE svg  PUBLIC '-//W3C//DTD SVG 1.1//EN'  'http://www.w3.org/Graphics/SVG/1.1/DTD/svg11.dtd'>
<svg id="Camada_1" style="enable-background:new 0 0 1081 560" xmlns="http://www.w3.org/2000/svg" xml:space="preserve" height="560px" viewBox="0 0 1081 560" width="1081px" version="1.1" y="0px" x="0px" xmlns:xlink="http://www.w3.org/1999/xlink">
<path d="m712.92 360.96s5 42.953 33.795 58.586c36.604 19.872 79.106 15.963 79.106 15.963l-112.91-74.55z" fill="#1F742F"/>
<path d="m751.68 176.7s58.366-46.197 124.62-43.527c26.063 1.05 73.679 28.258 94.828 43.527 55.506 40.074 56.026 59.404 56.396 84.024 0.886 59.152-30.863 106.49-30.863 106.49l-244.96-190.51z" fill="#9C332A"/>
<path d="m945.6 417.61l51.063-62.959s-5.738 38.344-14.022 47.566c-6.7 7.46-37.04 15.39-37.04 15.39" fill="#1F742F"/>
<path d="m825.82 435.51s31.387 21.554 72.492 14.491c30.617-5.261 53.017-34.326 53.017-34.326l-125.51 19.84z" fill="#1D406B"/>
<path d="m746.92 167.23s-27.067 19.308-33.75 28c-32.291 42.003-39.465 115.65-39.465 115.65l10.715 30.097 28.498 19.984 41.752-185.48-1.5-6.25-6.25-2z" fill="#1D406B"/>
<path d="m907.73 446.72c-21.008 7.108-50.607 1.692-81.916-11.21-23.148-0.922-60.271-5.24-81.395-17.295-22.448-12.812-30.971-53.811-31.508-57.254-17.333-16.725-31.196-34-39.213-50.081-6.152 43.831-2.605 86.555 16.815 104.83 51.639 48.6 238.94 55.043 283.65 0 3.098-3.812 5.916-8.363 8.471-13.498-9.439 5.009-19.996 9.508-31.312 13.46-14.72 15.1-29.84 26.39-43.6 31.04" fill="#2DBEA0"/>
<path d="m983.42 148.54c-20.748-17.896-62.854-21.277-107.12-15.369 66.112 22.909 144.64 78.995 150.33 124.89 3.076 24.834-9.932 61.785-29.974 96.587-2.979 18.248-7.655 34.761-14.023 47.566 18.042-9.573 32.001-20.999 39.263-34.021 27.2-48.69 3.7-183.24-38.48-219.66" fill="#F79A4B"/>
<path d="m721.69 192.72c7.947-6.914 19.172-12.874 32.525-17.79 29.238-19.928 76.785-35.706 122.09-41.752-24.122-8.359-46.594-12.305-63.269-9.723-55.627 8.615-159.38 117.54-145.27 172.04 1.284 4.959 3.305 10.113 5.937 15.393 6.83-48.69 25.63-98.73 47.98-118.17" fill="#9F57B1"/>
<path d="m974.17 192.72c-33.297-40.703-153.29-42.333-219.95-17.79-8.007 5.456-14.65 11.221-19.486 17.185-24.507 30.219-33.885 111.39-21.812 168.85 31.113 30.022 73.362 58.256 112.9 74.549 41.002 0.544 87.497-6.557 125.51-19.835 16.43-16.859 32.356-38.489 45.335-61.026 9.34-57.46 1.94-132.07-22.49-161.93" fill="#1A2719"/>
<path d="m119.4 236.17h-52.055c-4.461 0-8.119 1.426-10.968 4.276-2.854 2.853-4.276 6.506-4.276 10.968v39.04h59.675v3.904h-59.677v65.994h-4.647v-109.31c0-5.453 1.795-9.975 5.39-13.571 3.594-3.593 8.116-5.391 13.572-5.391 23.67 0 41.457 0.25 53.353 0.744l-0.37 3.35z" fill="#7E8C8D"/>
<path d="m218.67 356.26l0.372 3.347c-12.147 0.497-30.366 0.743-54.655 0.743-5.456 0-9.98-1.795-13.571-5.391-3.596-3.594-5.391-8.116-5.391-13.571v-90.349c0-5.453 1.795-9.975 5.391-13.571 3.596-3.593 8.116-5.391 13.571-5.391 24.289 0 42.508 0.25 54.655 0.744l-0.372 3.346h-53.354c-4.461 0-8.12 1.426-10.968 4.276-2.852 2.853-4.277 6.506-4.277 10.968v38.296h60.98v3.904h-60.98v47.404c0 4.462 1.427 8.119 4.277 10.969 2.849 2.854 6.507 4.275 10.968 4.275h53.35z" fill="#7E8C8D"/>
<path d="m356.05 232.08h7.808c1.859 0 2.789 0.93 2.789 2.789l5.577 125.48h-4.646l-5.577-124.18h-4.462l-42.017 111.36c-0.371 1.116-1.179 1.676-2.416 1.676h-7.8c-1.24 0-2.044-0.56-2.417-1.676l-42.014-111.35h-4.464l-5.575 124.18h-4.648l5.578-125.48c0-1.859 0.93-2.789 2.788-2.789h7.808c1.238 0 2.045 0.558 2.417 1.673l35.507 93.881c0.744 1.984 1.827 4.896 3.252 8.738 1.427 3.842 2.513 6.756 3.257 8.733h4.833l6.691-17.847 35.321-93.509c0.36-1.11 1.16-1.67 2.4-1.67" fill="#7E8C8D"/>
<path d="m494.36 232.08v80.868c0 17.972-3.315 30.736-9.945 38.296-6.631 7.562-17.879 11.34-33.738 11.34-15.989 0-27.3-3.778-33.93-11.34-6.631-7.56-9.943-20.324-9.943-38.296v-80.868h4.646v80.868c0 16.606 2.942 28.319 8.831 35.136 5.885 6.814 16.018 10.226 30.396 10.226 14.25 0 24.318-3.407 30.209-10.226 5.885-6.814 8.829-18.526 8.829-35.136v-80.868h4.63z" fill="#7E8C8D"/>
<path d="m613.15 285.99v74.36h-3.159l-1.116-16.545c-11.647 12.521-24.907 18.775-39.78 18.775-15.121 0-25.967-5.205-32.533-15.615-6.569-10.41-9.854-27.328-9.854-50.752 0-24.539 3.562-41.734 10.688-51.587 7.125-9.853 19.549-14.78 37.271-14.78 13.882 0 26.027 1.056 36.438 3.162l-1.115 3.346c-10.411-1.488-22.187-2.23-35.322-2.23-16.109 0-27.324 4.587-33.646 13.757-6.32 9.172-9.481 25.281-9.481 48.333 0 21.938 2.911 37.771 8.738 47.498 5.823 9.729 15.552 14.595 29.188 14.595 4.339 0 8.365-0.494 12.084-1.488 3.72-0.987 7.345-2.603 10.875-4.833 3.531-2.229 6.229-4.09 8.089-5.575 1.856-1.486 4.521-3.778 7.991-6.878v-53.543h4.63z" fill="#7E8C8D"/>
<path d="m850.45 232.23l-40.077 122.79c-0.855 2.318-2.442 3.477-4.759 3.477h-13.358c-2.562 0-4.149-1.158-4.758-3.477l-40.07-122.79h12.443l32.574 103.03c0.976 3.052 2.316 7.626 4.026 13.726h4.94c1.707-6.1 3.049-10.674 4.026-13.726l32.574-103.03h12.45z" fill="#fff"/>
<path d="m871.13 358.5v-126.27c10.126-0.975 24.217-1.464 42.273-1.464 14.76 0 24.979 2.716 30.652 8.144 5.673 5.43 8.51 15.586 8.51 30.469 0 14.887-2.776 25.043-8.326 30.47-5.554 5.43-15.404 8.144-29.555 8.144-10.614 0-21.168-0.486-31.659-1.465v51.98h-11.89zm11.89-60.94h30.195c10.248-0.119 17.321-2.104 21.228-5.947 3.903-3.843 5.856-11.254 5.856-22.234 0-11.1-1.953-18.603-5.856-22.509-3.906-3.903-10.979-5.856-21.228-5.856-10.371 0-20.437 0.123-30.195 0.366v56.18z" fill="#fff"/>
<rect width="1081" fill="none" height="560"/>
</svg>
