<?xml version="1.0" encoding="utf-8"?>
<!-- Generator: Adobe Illustrator 16.0.0, SVG Export Plug-In . SVG Version: 6.00 Build 0)  -->
<!DOCTYPE svg PUBLIC "-//W3C//DTD SVG 1.1//EN" "http://www.w3.org/Graphics/SVG/1.1/DTD/svg11.dtd">
<svg version="1.1" id="Layer_1" xmlns="http://www.w3.org/2000/svg" xmlns:xlink="http://www.w3.org/1999/xlink" x="0px" y="0px"
	 width="1081px" height="560px" viewBox="0 0 1081 560" enable-background="new 0 0 1081 560" xml:space="preserve">
<path fill="#1F742F" d="M711.872,346.248c0,0,5,42.953,33.795,58.586c36.604,19.872,79.106,15.963,79.106,15.963L711.872,346.248z"
	/>
<path fill="#9C332A" d="M750.634,161.985c0,0,58.366-46.197,124.622-43.527c26.064,1.05,73.68,28.258,94.828,43.527
	c55.506,40.074,56.027,59.404,56.396,84.024c0.887,59.152-30.863,106.491-30.863,106.491L750.634,161.985z"/>
<path fill="#1F742F" d="M944.552,402.895l51.065-62.959c0,0-5.74,38.346-14.024,47.566
	C974.893,394.963,944.552,402.895,944.552,402.895z"/>
<path fill="#1D406B" d="M824.773,420.797c0,0,31.388,21.554,72.491,14.491c30.616-5.261,53.019-34.326,53.019-34.326
	L824.773,420.797z M745.874,152.513c0,0-27.067,19.308-33.75,28c-32.291,42.003-39.465,115.654-39.465,115.654l10.715,30.096
	l28.498,19.985l41.752-185.485l-1.5-6.25L745.874,152.513z"/>
<path fill="#2DBEA0" d="M906.689,432.007c-21.009,7.108-50.607,1.692-81.916-11.21c-23.147-0.922-60.271-5.24-81.396-17.295
	c-22.448-12.812-30.97-53.811-31.507-57.254c-17.333-16.725-31.197-34-39.213-50.081c-6.153,43.831-2.606,86.555,16.812,104.833
	c51.642,48.6,238.941,55.043,283.648,0c3.097-3.812,5.916-8.363,8.47-13.498c-9.439,5.009-19.996,9.508-31.311,13.46
	C935.562,416.069,920.443,427.353,906.689,432.007L906.689,432.007z"/>
<path fill="#F79A4B" d="M982.373,133.826c-20.747-17.896-62.854-21.277-107.117-15.369c66.113,22.909,144.646,78.995,150.334,124.89
	c3.076,24.834-9.931,61.785-29.973,96.585c-2.979,18.248-7.656,34.763-14.024,47.566c18.042-9.573,32.001-20.999,39.263-34.021
	C1048.01,304.791,1024.59,170.24,982.373,133.826L982.373,133.826z"/>
<path fill="#9F57B1" d="M720.645,178c7.947-6.914,19.173-12.874,32.525-17.79c29.239-19.928,76.786-35.706,122.086-41.752
	c-24.122-8.359-46.593-12.305-63.268-9.723c-55.627,8.615-159.377,117.545-145.267,172.041c1.282,4.959,3.306,10.113,5.938,15.395
	C679.494,247.487,698.297,197.442,720.645,178z"/>
<path fill="#1A2719" d="M973.123,178c-33.296-40.703-153.29-42.333-219.953-17.79c-8.006,5.456-14.65,11.221-19.486,17.185
	c-24.507,30.219-33.885,111.387-21.812,168.854c31.112,30.022,73.362,58.256,112.901,74.549
	c41.002,0.544,87.495-6.557,125.509-19.835c16.429-16.859,32.354-38.489,45.335-61.023
	C1004.997,282.473,997.553,207.865,973.123,178z"/>
<path fill="#7E8C8D" d="M118.354,221.454H66.301c-4.461,0-8.119,1.426-10.968,4.276c-2.854,2.853-4.276,6.506-4.276,10.968v39.04
	h59.675v3.904H51.058v65.995H46.41V236.326c0-5.453,1.795-9.975,5.391-13.571c3.594-3.593,8.116-5.391,13.571-5.391
	c23.671,0,41.457,0.25,53.354,0.744L118.354,221.454z M217.626,341.547l0.372,3.347c-12.147,0.497-30.366,0.743-54.655,0.743
	c-5.456,0-9.979-1.795-13.571-5.391c-3.596-3.594-5.391-8.116-5.391-13.571v-90.349c0-5.453,1.795-9.975,5.391-13.571
	c3.596-3.593,8.116-5.391,13.571-5.391c24.289,0,42.508,0.25,54.655,0.744l-0.372,3.346h-53.354c-4.461,0-8.119,1.426-10.968,4.276
	c-2.852,2.853-4.274,6.506-4.274,10.968v38.296h60.979v3.904H149.03v47.405c0,4.462,1.426,8.119,4.274,10.969
	c2.852,2.854,6.507,4.275,10.968,4.275H217.626L217.626,341.547z M355.008,217.364h7.808c1.859,0,2.789,0.93,2.789,2.789
	l5.577,125.484h-4.646l-5.577-124.183h-4.462L314.48,332.81c-0.371,1.115-1.179,1.678-2.416,1.678h-7.809
	c-1.24,0-2.044-0.562-2.417-1.678l-42.014-111.354h-4.464l-5.575,124.183h-4.648l5.578-125.484c0-1.859,0.93-2.789,2.788-2.789
	h7.808c1.238,0,2.045,0.558,2.417,1.673l35.507,93.881c0.744,1.984,1.827,4.896,3.253,8.738c1.426,3.842,2.512,6.756,3.256,8.731
	h4.833l6.691-17.847l35.321-93.509C352.963,217.922,353.768,217.364,355.008,217.364L355.008,217.364z M493.316,217.364v80.868
	c0,17.972-3.315,30.733-9.945,38.296c-6.631,7.562-17.879,11.34-33.738,11.34c-15.988,0-27.3-3.778-33.93-11.34
	c-6.631-7.562-9.943-20.324-9.943-38.296v-80.868h4.646v80.868c0,16.604,2.939,28.316,8.831,35.136
	c5.885,6.812,16.018,10.226,30.396,10.226c14.25,0,24.318-3.407,30.209-10.226c5.885-6.814,8.829-18.526,8.829-35.136v-80.868
	H493.316z M612.107,271.275v74.361h-3.159l-1.116-16.545c-11.648,12.521-24.908,18.775-39.781,18.775
	c-15.121,0-25.966-5.205-32.533-15.615c-6.566-10.41-9.854-27.328-9.854-50.752c0-24.539,3.562-41.735,10.688-51.588
	c7.127-9.853,19.549-14.779,37.271-14.779c13.881,0,26.027,1.055,36.438,3.161l-1.114,3.346c-10.409-1.487-22.188-2.229-35.32-2.229
	c-16.11,0-27.325,4.587-33.646,13.757c-6.319,9.173-9.48,25.282-9.48,48.334c0,21.938,2.911,37.771,8.736,47.498
	c5.822,9.729,15.554,14.595,29.188,14.595c4.338,0,8.365-0.494,12.084-1.488c3.719-0.985,7.344-2.603,10.875-4.833
	c3.531-2.229,6.229-4.09,8.088-5.573c1.857-1.486,4.521-3.778,7.992-6.878v-53.542L612.107,271.275L612.107,271.275z"/>
<g enable-background="new    ">
	<path fill="#FFFFFF" d="M834.34,217.044h14.43c3.575,0,5.365,1.79,5.365,5.365l5.364,122.285h-12.024l-4.996-117.475h-4.069
		l-33.115,100.085c-0.864,2.714-2.714,4.069-5.55,4.069h-12.21c-2.839,0-4.688-1.355-5.55-4.069L748.684,227.22h-3.885
		l-4.81,117.475h-12.024l5.18-122.285c0-3.575,1.786-5.365,5.365-5.365h14.614c2.591,0,4.376,1.42,5.365,4.256l27.935,83.25
		c1.972,6.168,3.7,11.964,5.18,17.39h4.07c0.74-2.712,2.527-8.571,5.365-17.575l27.936-83.064
		C829.715,218.464,831.5,217.044,834.34,217.044z"/>
	<path fill="#FFFFFF" d="M976.417,270.879v73.815h-8.695l-1.665-14.43c-10.854,11.1-23.744,16.649-38.665,16.649
		c-14.554,0-25.007-5.24-31.357-15.725c-6.354-10.481-9.527-27.316-9.527-50.505c0-24.79,3.761-41.964,11.285-51.522
		c7.521-9.557,20.841-14.338,39.96-14.338c14.061,0,26.021,1.174,35.89,3.515l-1.479,9.065c-11.1-1.231-22.324-1.85-33.67-1.85
		c-10.115,0-17.885,1.543-23.311,4.625c-5.428,3.084-9.436,8.603-12.025,16.558c-2.59,7.954-3.885,19.456-3.885,34.502
		c0,19.98,2.342,34.164,7.03,42.55c4.686,8.389,12.765,12.58,24.235,12.58c4.561,0,9.064-0.801,13.505-2.405
		c4.44-1.601,7.983-3.266,10.638-4.994c2.65-1.727,5.949-4.131,9.896-7.216v-50.875H976.417z"/>
</g>
</svg>
