<?xml version="1.0" encoding="UTF-8" standalone="no"?>
<svg width="987px" height="333px" viewBox="0 0 987 333" version="1.1" xmlns="http://www.w3.org/2000/svg" xmlns:xlink="http://www.w3.org/1999/xlink" xmlns:sketch="http://www.bohemiancoding.com/sketch/ns">
    <!-- Generator: Sketch 3.5 (25232) - http://www.bohemiancoding.com/sketch -->
    <title>Logo</title>
    <desc>Created with Sketch.</desc>
    <defs></defs>
    <g id="Page-1" stroke="none" stroke-width="1" fill="none" fill-rule="evenodd" sketch:type="MSPage">
        <g id="Logo" sketch:type="MSLayerGroup">
            <path d="M665.916,238.9648 C665.916,238.9648 670.916,281.9178 699.711,297.5508 C736.315,317.4228 778.817,313.5138 778.817,313.5138 L665.916,238.9648 Z" id="Fill-1" fill="#1F742F" sketch:type="MSShapeGroup"></path>
            <path d="M704.6787,54.7017 C704.6787,54.7017 763.0447,8.5047 829.3007,11.1747 C855.3647,12.2247 902.9797,39.4327 924.1287,54.7017 C979.6347,94.7757 980.1557,114.1057 980.5247,138.7257 C981.4097,197.8777 949.6607,245.2167 949.6607,245.2167 L704.6787,54.7017 Z" id="Fill-3" fill="#9C332A" sketch:type="MSShapeGroup"></path>
            <path d="M898.5967,295.6113 L949.6597,232.6523 C949.6597,232.6523 943.9217,270.9963 935.6377,280.2183 C928.9367,287.6793 898.5967,295.6113 898.5967,295.6113" id="Fill-5" fill="#1F742F" sketch:type="MSShapeGroup"></path>
            <path d="M778.8184,313.5137 C778.8184,313.5137 810.2054,335.0677 851.3104,328.0047 C881.9274,322.7437 904.3274,293.6787 904.3274,293.6787 L778.8184,313.5137 Z" id="Fill-7" fill="#1D406B" sketch:type="MSShapeGroup"></path>
            <path d="M699.918,45.23 C699.918,45.23 672.851,64.538 666.168,73.23 C633.877,115.233 626.703,188.884 626.703,188.884 L637.418,218.98 L665.916,238.965 L707.668,53.48 L706.168,47.23 L699.918,45.23 Z" id="Fill-9" fill="#1D406B" sketch:type="MSShapeGroup"></path>
            <path d="M860.7344,324.7236 C839.7264,331.8316 810.1274,326.4156 778.8184,313.5136 C755.6704,312.5916 718.5464,308.2736 697.4234,296.2186 C674.9754,283.4076 666.4534,242.4086 665.9164,238.9646 C648.5834,222.2406 634.7194,204.9646 626.7034,188.8836 C620.5504,232.7146 624.0974,275.4386 643.5184,293.7166 C695.1574,342.3166 882.4594,348.7596 927.1664,293.7166 C930.2634,289.9046 933.0824,285.3536 935.6364,280.2186 C926.1974,285.2276 915.6404,289.7266 904.3254,293.6786 C889.6074,308.7856 874.4884,320.0696 860.7344,324.7236" id="Fill-11" fill="#2DBEA0" sketch:type="MSShapeGroup"></path>
            <path d="M936.418,26.543 C915.67,8.647 873.564,5.266 829.301,11.174 C895.413,34.083 973.945,90.169 979.635,136.064 C982.711,160.898 969.703,197.849 949.661,232.651 C946.683,250.899 942.006,267.412 935.638,280.218 C953.68,270.645 967.639,259.219 974.9,246.197 C1002.055,197.508 978.635,62.957 936.418,26.543" id="Fill-13" fill="#F89A4B" sketch:type="MSShapeGroup"></path>
            <path d="M674.6895,70.7168 C682.6365,63.8028 693.8615,57.8428 707.2145,52.9268 C736.4535,32.9988 784.0005,17.2208 829.3005,11.1748 C805.1785,2.8158 782.7075,-1.1302 766.0325,1.4518 C710.4055,10.0668 606.6555,118.9968 620.7665,173.4918 C622.0505,178.4508 624.0715,183.6058 626.7035,188.8848 C633.5385,140.2028 652.3415,90.1588 674.6895,70.7168" id="Fill-15" fill="#9F57B1" sketch:type="MSShapeGroup"></path>
            <path d="M927.168,70.7168 C893.871,30.0138 773.877,28.3838 707.215,52.9268 C699.208,58.3828 692.564,64.1478 687.729,70.1118 C663.222,100.3308 653.844,181.4988 665.916,238.9658 C697.029,268.9878 739.278,297.2218 778.817,313.5148 C819.819,314.0588 866.314,306.9578 904.326,293.6798 C920.756,276.8208 936.683,255.1908 949.661,232.6538 C959.041,175.1898 951.598,100.5818 927.168,70.7168" id="Fill-17" fill="#1A2719" sketch:type="MSShapeGroup"></path>
            <path d="M72.3984,114.1709 L20.3454,114.1709 C15.8844,114.1709 12.2264,115.5969 9.3774,118.4469 C6.5234,121.2999 5.1014,124.9529 5.1014,129.4149 L5.1014,168.4549 L64.7764,168.4549 L64.7764,172.3589 L5.1024,172.3589 L5.1024,238.3539 L0.4554,238.3539 L0.4554,129.0429 C0.4554,123.5899 2.2504,119.0679 5.8454,115.4719 C9.4394,111.8789 13.9614,110.0809 19.4174,110.0809 C43.0874,110.0809 60.8744,110.3309 72.7704,110.8249 L72.3984,114.1709 Z" id="Fill-19" fill="#7E8C8D" sketch:type="MSShapeGroup"></path>
            <path d="M171.6709,234.2637 L172.0429,237.6107 C159.8959,238.1077 141.6769,238.3537 117.3879,238.3537 C111.9319,238.3537 107.4079,236.5587 103.8169,232.9627 C100.2209,229.3687 98.4259,224.8467 98.4259,219.3917 L98.4259,129.0427 C98.4259,123.5897 100.2209,119.0677 103.8169,115.4717 C107.4129,111.8787 111.9329,110.0807 117.3879,110.0807 C141.6769,110.0807 159.8959,110.3307 172.0429,110.8247 L171.6709,114.1707 L118.3169,114.1707 C113.8559,114.1707 110.1969,115.5967 107.3489,118.4467 C104.4969,121.2997 103.0719,124.9527 103.0719,129.4147 L103.0719,167.7107 L164.0519,167.7107 L164.0519,171.6157 L103.0719,171.6157 L103.0719,219.0197 C103.0719,223.4817 104.4989,227.1387 107.3489,229.9887 C110.1979,232.8427 113.8559,234.2637 118.3169,234.2637 L171.6709,234.2637 Z" id="Fill-21" fill="#7E8C8D" sketch:type="MSShapeGroup"></path>
            <path d="M309.0527,110.0811 L316.8607,110.0811 C318.7197,110.0811 319.6497,111.0111 319.6497,112.8701 L325.2267,238.3531 L320.5807,238.3531 L315.0037,114.1711 L310.5417,114.1711 L268.5247,225.5261 C268.1537,226.6431 267.3457,227.2021 266.1087,227.2021 L258.2997,227.2021 C257.0597,227.2021 256.2557,226.6431 255.8827,225.5261 L213.8687,114.1731 L209.4047,114.1731 L203.8297,238.3551 L199.1817,238.3551 L204.7597,112.8721 C204.7597,111.0131 205.6897,110.0831 207.5477,110.0831 L215.3557,110.0831 C216.5937,110.0831 217.4007,110.6411 217.7727,111.7561 L253.2797,205.6371 C254.0237,207.6211 255.1067,210.5331 256.5317,214.3751 C257.9587,218.2171 259.0447,221.1311 259.7887,223.1081 L264.6217,223.1081 L271.3127,205.2621 L306.6337,111.7531 C307.0077,110.6391 307.8127,110.0811 309.0527,110.0811" id="Fill-23" fill="#7E8C8D" sketch:type="MSShapeGroup"></path>
            <path d="M447.3604,110.0811 L447.3604,190.9491 C447.3604,208.9211 444.0454,221.6851 437.4154,229.2451 C430.7844,236.8071 419.5364,240.5851 403.6774,240.5851 C387.6884,240.5851 376.3774,236.8071 369.7474,229.2451 C363.1164,221.6851 359.8044,208.9211 359.8044,190.9491 L359.8044,110.0811 L364.4504,110.0811 L364.4504,190.9491 C364.4504,207.5561 367.3924,219.2691 373.2814,226.0851 C379.1664,232.8991 389.2994,236.3101 403.6774,236.3101 C417.9274,236.3101 427.9954,232.9031 433.8864,226.0851 C439.7714,219.2701 442.7154,207.5591 442.7154,190.9491 L442.7154,110.0811 L447.3604,110.0811 Z" id="Fill-25" fill="#7E8C8D" sketch:type="MSShapeGroup"></path>
            <path d="M566.1514,163.9922 L566.1514,238.3522 L562.9924,238.3522 L561.8764,221.8072 C550.2284,234.3292 536.9684,240.5832 522.0954,240.5832 C506.9744,240.5832 496.1294,235.3782 489.5624,224.9682 C482.9934,214.5572 479.7084,197.6392 479.7084,174.2162 C479.7084,149.6772 483.2704,132.4812 490.3964,122.6282 C497.5214,112.7752 509.9454,107.8482 527.6674,107.8482 C541.5484,107.8482 553.6944,108.9042 564.1054,111.0102 L562.9904,114.3562 C552.5794,112.8682 540.8034,112.1262 527.6684,112.1262 C511.5584,112.1262 500.3434,116.7132 494.0224,125.8832 C487.7024,135.0552 484.5414,151.1642 484.5414,174.2172 C484.5414,196.1542 487.4524,211.9872 493.2794,221.7152 C499.1024,231.4432 508.8314,236.3092 522.4664,236.3092 C526.8054,236.3092 530.8324,235.8152 534.5504,234.8212 C538.2704,233.8342 541.8954,232.2192 545.4254,229.9882 C548.9574,227.7602 551.6554,225.8982 553.5144,224.4132 C555.3714,222.9272 558.0354,220.6352 561.5054,217.5352 L561.5054,163.9922 L566.1514,163.9922 Z" id="Fill-27" fill="#7E8C8D" sketch:type="MSShapeGroup"></path>
            <path d="M719.12,130.2 L719.12,196.92 C719.12,208.280057 713.920052,213.96 703.52,213.96 C700.319984,213.96 697.040017,213.560004 693.68,212.76 L694.52,207.24 L700.88,207.24 C707.760034,207.24 711.2,203.880034 711.2,197.16 L711.2,130.2 L719.12,130.2 Z M748.52,130.2 L748.52,197.64 C748.52,203.480029 751.399971,206.4 757.16,206.4 L788,206.4 L788.24,212.4 C779.759958,212.880002 768.960066,213.12 755.84,213.12 C750.799975,213.12 747.000013,211.800013 744.44,209.16 C741.879987,206.519987 740.6,203.040022 740.6,198.72 L740.6,130.2 L748.52,130.2 Z M809.84,130.2 L809.84,197.64 C809.84,203.480029 812.719971,206.4 818.48,206.4 L849.32,206.4 L849.56,212.4 C841.079958,212.880002 830.280066,213.12 817.16,213.12 C812.119975,213.12 808.320013,211.800013 805.76,209.16 C803.199987,206.519987 801.92,203.040022 801.92,198.72 L801.92,130.2 L809.84,130.2 Z M912.44,206.4 L912.92,212.4 C905.399962,212.880002 893.60008,213.12 877.52,213.12 C873.119978,213.12 869.580013,211.880012 866.9,209.4 C864.219987,206.919988 862.88,203.600021 862.88,199.44 L862.88,143.76 C862.88,139.599979 864.219987,136.280012 866.9,133.8 C869.580013,131.319988 873.119978,130.08 877.52,130.08 C893.60008,130.08 905.399962,130.319998 912.92,130.8 L912.44,136.8 L878.84,136.8 C873.479973,136.8 870.8,139.719971 870.8,145.56 L870.8,165.84 L907.76,165.84 L907.76,172.2 L870.8,172.2 L870.8,197.76 C870.8,203.520029 873.479973,206.4 878.84,206.4 L912.44,206.4 Z" id="JLLE" fill="#FFFFFF" sketch:type="MSShapeGroup"></path>
        </g>
    </g>
</svg>