<?xml version="1.0" encoding="UTF-8"?>
<!DOCTYPE svg PUBLIC "-//W3C//DTD SVG 1.1//EN" "http://www.w3.org/Graphics/SVG/1.1/DTD/svg11.dtd">
<!-- Creator: CorelDRAW -->
<svg xmlns="http://www.w3.org/2000/svg" xml:space="preserve" width="105.957mm" height="18.9997mm" style="shape-rendering:geometricPrecision; text-rendering:geometricPrecision; image-rendering:optimizeQuality; fill-rule:evenodd; clip-rule:evenodd"
viewBox="0 0 60.102 10.7772"
 xmlns:xlink="http://www.w3.org/1999/xlink">
 <defs>
  <style type="text/css">
   <![CDATA[
    .fil2 {fill:#606062;fill-rule:nonzero}
    .fil0 {fill:#19B698;fill-rule:nonzero}
    .fil1 {fill:#34495E;fill-rule:nonzero}
   ]]>
  </style>
 </defs>
 <g id="Camada_x0020_1">
  <metadata id="CorelCorpID_0Corel-Layer"/>
  <g id="_205843976">
   <polygon id="_40129576" class="fil0" points="12.832,1.03826 12.832,0.154571 8.77338,0.154571 8.77338,7.4426 9.82078,7.4426 9.82078,4.12588 12.6356,4.12588 12.6356,3.25308 9.82078,3.25308 9.82078,1.03826 "/>
   <polygon id="_401295761" class="fil0" points="15.1777,6.55885 15.1777,4.10404 18.0034,4.10404 18.0034,3.24213 15.1777,3.24213 15.1777,1.03826 18.178,1.03826 18.178,0.154571 14.1303,0.154571 14.1303,7.4426 18.2762,7.4426 18.2762,6.55885 "/>
   <path id="_4012957612" class="fil0" d="M21.102 0.154571l-1.21104 0 -0.338241 7.28803 0.960097 0 0.174594 -5.17146c0.00544543,-0.156386 0.00726057,-0.309142 0.00726057,-0.45821 0,-0.149125 -0.00181514,-0.301881 -0.00726057,-0.458267l1.98565 5.29148 0.82918 0 1.98565 -5.29148c-0.00544543,0.156386 -0.00726057,0.309142 -0.00726057,0.458267 0,0.149069 0.00181514,0.301824 0.00726057,0.45821l0.174594 5.17146 0.960097 0 -0.338241 -7.28803 -1.21104 0 -1.98565 5.40056 -1.98565 -5.40056z"/>
   <path id="_40129576123" class="fil0" d="M30.6485 7.58441c0.278227,-0.00363029 0.543692,-0.0345444 0.798266,-0.0945576 0.252759,-0.0599565 0.483679,-0.150884 0.692818,-0.272725 0.207267,-0.123657 0.383676,-0.280043 0.527299,-0.472788 0.169149,-0.236366 0.292749,-0.516408 0.372785,-0.836441 0.0799798,-0.320032 0.118211,-0.700078 0.118211,-1.13832l0 -4.615 -1.04739 0 0 4.46225c0.00363029,0.349131 -0.016393,0.647382 -0.0563829,0.898326 -0.041805,0.249072 -0.120026,0.456395 -0.238181,0.618226 -0.109135,0.174537 -0.260076,0.303639 -0.451006,0.387306 -0.192746,0.0836668 -0.427296,0.125472 -0.705524,0.125472 -0.289118,0 -0.530929,-0.041805 -0.727305,-0.125472 -0.196433,-0.0836668 -0.347316,-0.212769 -0.451006,-0.387306 -0.0799798,-0.109079 -0.139993,-0.236366 -0.179983,-0.381861 -0.0418617,-0.14368 -0.0690889,-0.310957 -0.0836668,-0.498257 -0.0145211,-0.189115 -0.0218384,-0.400012 -0.0200233,-0.636435l0 -4.46225 -1.04734 0 0 4.615c0,0.438244 0.0381747,0.818289 0.118154,1.13832 0.0800365,0.320032 0.203693,0.600075 0.372785,0.836441 0.14731,0.192746 0.323663,0.350947 0.530986,0.474603 0.205452,0.123657 0.434557,0.216399 0.683685,0.276412 0.250944,0.0600132 0.514593,0.0890555 0.792821,0.0890555z"/>
   <path id="_401295761234" class="fil0" d="M35.6126 3.73313c0.00181514,-0.540062 0.0545677,-0.992827 0.158201,-1.35835 0.105505,-0.363653 0.252759,-0.652771 0.443689,-0.86917 0.189115,-0.214584 0.41459,-0.369155 0.672794,-0.461897 0.258204,-0.0926858 0.543692,-0.138178 0.852834,-0.136363 0.129102,0 0.269095,0.00726057 0.420036,0.0200233 0.152756,0.0145211 0.307326,0.0327293 0.465528,0.058198 0.158201,0.0235969 0.309085,0.0526959 0.456395,0.0854252l0.218214 -0.818233c-0.296379,-0.0818516 -0.592814,-0.14368 -0.885563,-0.1873 -0.294564,-0.0418617 -0.574606,-0.0636435 -0.838256,-0.0636435 -0.443689,-0.00181514 -0.851019,0.0654586 -1.22193,0.203636 -0.369155,0.136363 -0.691002,0.354577 -0.961969,0.652828 -0.272725,0.298194 -0.483679,0.687315 -0.632748,1.16918 -0.149125,0.480049 -0.225532,1.06379 -0.227347,1.74929 0.00181514,0.554583 0.0563829,1.04376 0.161888,1.4638 0.107264,0.421851 0.254517,0.780058 0.443632,1.07831 0.189115,0.298194 0.409145,0.540062 0.660088,0.727362 0.250944,0.185428 0.521854,0.321848 0.812844,0.409088 0.290933,0.0872971 0.590943,0.129102 0.900084,0.129102 0.234551,0 0.470973,-0.0290423 0.712784,-0.08361 0.241868,-0.0545677 0.478234,-0.130917 0.712784,-0.229105 0.234607,-0.100003 0.456452,-0.218214 0.669164,-0.352762l0 -3.13129 -2.20387 0 0 0.872857 1.22199 0 0 1.75655c-0.163647,0.0763495 -0.33461,0.136363 -0.510963,0.178168 -0.176409,0.0400466 -0.356392,0.0618283 -0.536432,0.0618283 -0.252759,0.00181514 -0.496442,-0.0490656 -0.730992,-0.154514 -0.232735,-0.105505 -0.441874,-0.270967 -0.627359,-0.501887 -0.185485,-0.229105 -0.330923,-0.530986 -0.440059,-0.903771 -0.107264,-0.372728 -0.163647,-0.827308 -0.165462,-1.36374z"/>
   <path id="_4012957612345" class="fil1" d="M45.3446 5.40238c-0.00181514,-0.252759 -0.041805,-0.480049 -0.121785,-0.683685 -0.0782213,-0.203693 -0.185485,-0.387363 -0.321848,-0.551009 -0.134604,-0.163647 -0.289175,-0.3109 -0.458267,-0.441874 -0.170907,-0.132732 -0.347316,-0.252702 -0.532801,-0.361837 -0.183613,-0.109079 -0.363653,-0.212769 -0.540005,-0.30727 -0.220029,-0.116396 -0.421907,-0.22366 -0.60189,-0.320089 -0.18004,-0.0963728 -0.325535,-0.200006 -0.432798,-0.309085 -0.107264,-0.110951 -0.163647,-0.247313 -0.165462,-0.40733 0.00544543,-0.178224 0.0472505,-0.318217 0.125472,-0.423666 0.0799798,-0.10732 0.1873,-0.181855 0.323663,-0.229105 0.134548,-0.045492 0.290933,-0.0691456 0.467343,-0.0673305 0.158201,0 0.321848,0.0145779 0.496385,0.0436769 0.172779,0.0272839 0.345501,0.0654586 0.52191,0.112709 0.174537,0.0473072 0.343629,0.100003 0.509148,0.160016l0.436372 -1.1892c-0.370913,-0.136363 -0.727362,-0.239996 -1.06918,-0.309142 -0.341871,-0.070904 -0.665534,-0.105448 -0.971045,-0.105448 -0.339999,0 -0.652771,0.045492 -0.938259,0.136363 -0.287303,0.0909273 -0.536432,0.220029 -0.747385,0.390993 -0.210897,0.170907 -0.376359,0.376359 -0.492755,0.618226 -0.116396,0.241868 -0.176409,0.514593 -0.178224,0.818289 0.00181514,0.338184 0.0509375,0.625487 0.145495,0.860094 0.0945576,0.234551 0.225475,0.434557 0.392752,0.598203 0.165462,0.161831 0.358207,0.305511 0.576421,0.427353 0.216399,0.121842 0.449135,0.238181 0.696448,0.350947 0.26365,0.118154 0.498257,0.238181 0.703708,0.358207 0.203693,0.121842 0.363709,0.252759 0.481864,0.396382 0.116396,0.141865 0.176409,0.305511 0.178224,0.489181 -0.00181514,0.194561 -0.0473072,0.350947 -0.136363,0.465471 -0.0891122,0.114581 -0.210954,0.198248 -0.363709,0.247313 -0.150941,0.0491223 -0.323663,0.0745343 -0.514593,0.0727192 -0.214584,-0.00181514 -0.436429,-0.025412 -0.667349,-0.070904 -0.23092,-0.0454353 -0.452765,-0.101818 -0.665534,-0.170907 -0.214527,-0.070904 -0.401827,-0.141865 -0.565474,-0.216399l-0.403699 1.29834c0.152756,0.070904 0.325478,0.136363 0.518223,0.198191 0.194561,0.0600132 0.398254,0.112709 0.610966,0.158201 0.212769,0.0454353 0.425538,0.0817949 0.63462,0.107264 0.210954,0.0254687 0.40733,0.0381747 0.592814,0.0381747 0.385491,-0.00181514 0.730992,-0.054511 1.03645,-0.161831 0.305511,-0.105448 0.563715,-0.256389 0.778299,-0.45095 0.214527,-0.194561 0.378231,-0.423666 0.49094,-0.689131 0.112766,-0.267337 0.170907,-0.560085 0.170907,-0.880118z"/>
   <path id="_40129576123456" class="fil1" d="M50.647 0.776428c-0.167277,-0.156386 -0.352762,-0.280043 -0.554583,-0.372785 -0.201878,-0.0927425 -0.434613,-0.160016 -0.701893,-0.200006 -0.267337,-0.041805 -0.581924,-0.0618283 -0.947391,-0.0600132l-2.10568 0 0 7.29898 1.57106 0 0 -2.66208 0.272782 0c0.405458,0 0.754589,-0.0182082 1.04921,-0.0545677 0.294564,-0.0381747 0.549138,-0.0981879 0.763722,-0.181855 0.216342,-0.08361 0.409088,-0.192746 0.576421,-0.330923 0.260019,-0.214584 0.449135,-0.478234 0.567289,-0.78919 0.118211,-0.309142 0.176409,-0.652771 0.174594,-1.02737 0.00363029,-0.323663 -0.0473072,-0.620098 -0.149125,-0.889193 -0.101818,-0.269095 -0.27454,-0.512778 -0.516408,-0.730992zm-1.23288 2.61664c-0.0745343,0.058198 -0.169092,0.105448 -0.283673,0.138178 -0.114524,0.0345444 -0.261834,0.058198 -0.440002,0.0727759 -0.178224,0.012706 -0.398254,0.0199666 -0.661903,0.0199666l-0.120026 0 0 -2.32389 0.283673 0c0.254574,-0.00181514 0.480049,0.0109476 0.676425,0.0418617 0.198191,0.029099 0.365525,0.0854252 0.500072,0.169092 0.136363,0.0836668 0.239996,0.203636 0.310957,0.361837 0.0690889,0.158201 0.105448,0.365525 0.105448,0.621914 0.00181514,0.207267 -0.0254687,0.387306 -0.0836668,0.536432 -0.0563262,0.149069 -0.152699,0.269095 -0.287303,0.361837z"/>
   <polygon id="_40129432" class="fil0" points="6.50145,0.564113 1.01864,3.24559 1.01864,4.41403 6.50145,7.11048 7.13062,5.76229 3.01104,3.78486 7.10067,1.89734 "/>
   <polygon id="_40129288" class="fil0" points="53.6005,0.564113 59.0833,3.24559 59.0833,4.41403 53.6005,7.11048 52.9713,5.76229 57.0909,3.78486 53.0013,1.89734 "/>
   <polygon id="_40128520" class="fil2" points="15.123,8.35516 15.123,8.47167 14.1018,8.47167 14.1018,9.28724 14.9859,9.28724 14.9859,9.40375 14.1018,9.40375 14.1018,10.2948 13.9606,10.2948 13.9606,8.35516 "/>
   <path id="_401285201" class="fil2" d="M15.4139 10.2948l0 -1.36391 0.0685217 0c0.0155422,0 0.0269435,0.00323322 0.033807,0.00958623 0.00686351,0.00640973 0.0104938,0.017414 0.0114581,0.0328995l0.0109476 0.28787c0.0438471,-0.110554 0.102329,-0.197397 0.175445,-0.259963 0.0731162,-0.0626224 0.163136,-0.0936501 0.270059,-0.0936501 0.0411243,0 0.0790155,0.00408407 0.11373,0.0127627 0.0347713,0.00867865 0.0676708,0.0214981 0.0986984,0.0379478l-0.0178111 0.0904736c-0.00272272,0.0145779 -0.0118552,0.0218952 -0.0273973,0.0218952 -0.00550215,0 -0.0132732,-0.00181514 -0.0233132,-0.00544543 -0.01004,-0.00368701 -0.0224057,-0.00777108 -0.0374373,-0.0123657 -0.0150884,-0.00453786 -0.0338638,-0.00867865 -0.0557589,-0.0123089 -0.0219519,-0.00368701 -0.0470803,-0.00550215 -0.0753852,-0.00550215 -0.103293,0 -0.187811,0.0319919 -0.254063,0.095919 -0.0662527,0.0639838 -0.120197,0.156273 -0.161264,0.276923l0 0.886868 -0.130237 0z"/>
   <path id="_4012852012" class="fil2" d="M17.055 8.90895c0.0977341,0 0.185485,0.0164497 0.262685,0.049803 0.077257,0.0333533 0.142092,0.0808306 0.195128,0.142092 0.0529795,0.0612044 0.0936501,0.134774 0.121501,0.221164 0.0279078,0.0863328 0.0416349,0.183216 0.0416349,0.290139 0,0.106867 -0.013727,0.203296 -0.0416349,0.289232 -0.0278511,0.085879 -0.0685217,0.159449 -0.121501,0.220653 -0.0530362,0.0612611 -0.117871,0.108285 -0.195128,0.141184 -0.0772003,0.0328995 -0.164951,0.0493492 -0.262685,0.0493492 -0.0977909,0 -0.185088,-0.0164497 -0.262288,-0.0493492 -0.0772003,-0.0328995 -0.142545,-0.079923 -0.196035,-0.141184 -0.0534333,-0.0612044 -0.0941038,-0.134774 -0.122012,-0.220653 -0.0278511,-0.0859357 -0.0420319,-0.182365 -0.0420319,-0.289232 0,-0.106923 0.0141808,-0.203807 0.0420319,-0.290139 0.0279078,-0.0863895 0.0685784,-0.15996 0.122012,-0.221164 0.05349,-0.0612611 0.118835,-0.108738 0.196035,-0.142092 0.0772003,-0.0333533 0.164497,-0.049803 0.262288,-0.049803zm0 1.30083c0.0812844,0 0.152585,-0.0141808 0.213336,-0.0420319 0.0608073,-0.0279078 0.111518,-0.0676708 0.152188,-0.119743 0.0406706,-0.0520719 0.0707906,-0.115148 0.0909273,-0.188718 0.02008,-0.0735133 0.03012,-0.155762 0.03012,-0.247143 0,-0.0904736 -0.01004,-0.172722 -0.03012,-0.246746 -0.0201367,-0.0740238 -0.0502568,-0.137554 -0.0909273,-0.19008 -0.0406706,-0.0525824 -0.0913811,-0.0927425 -0.152188,-0.121104 -0.0607506,-0.0283049 -0.132052,-0.0424857 -0.213336,-0.0424857 -0.0813411,0 -0.152188,0.0141808 -0.212939,0.0424857 -0.0608073,0.0283616 -0.111518,0.0685217 -0.152188,0.121104 -0.0406138,0.0525257 -0.0712444,0.116056 -0.0918349,0.19008 -0.0205338,0.0740238 -0.0310276,0.156273 -0.0310276,0.246746 0,0.0913811 0.0104938,0.17363 0.0310276,0.247143 0.0205905,0.07357 0.0512211,0.136646 0.0918349,0.188718 0.0406706,0.0520719 0.0913811,0.0918349 0.152188,0.119743 0.0607506,0.0278511 0.131598,0.0420319 0.212939,0.0420319z"/>
   <path id="_40128520123" class="fil2" d="M18.0519 10.2948l0 -1.36391 0.0712444 0c0.023767,0 0.0374941,0.0114581 0.0411243,0.0342608l0.0123657 0.205622c0.0621119,-0.0785617 0.134774,-0.142092 0.217477,-0.19008 0.0827025,-0.0479311 0.174537,-0.0716982 0.275959,-0.0716982 0.0749314,0 0.141184,0.0118552 0.198304,0.0356222 0.0571203,0.023767 0.104201,0.0580279 0.141638,0.102782 0.0374941,0.0448114 0.0657989,0.0986984 0.0850281,0.161775 0.0191725,0.0630762 0.0287587,0.134321 0.0287587,0.213847l0 0.871779 -0.13018 0 0 -0.871779c0,-0.127968 -0.0292692,-0.228481 -0.0877508,-0.301144 -0.0584817,-0.0726057 -0.148048,-0.108738 -0.268698,-0.108738 -0.0895093,0 -0.172666,0.0228595 -0.249469,0.0690322 -0.0767465,0.046116 -0.145268,0.109646 -0.205565,0.19008l0 1.02255 -0.130237 0z"/>
   <path id="_401285201234" class="fil2" d="M19.9411 10.3167c-0.0922887,0 -0.164044,-0.0255822 -0.215662,-0.0768033 -0.0516181,-0.0511644 -0.0777108,-0.13018 -0.0777108,-0.237103l0 -0.932133 -0.195979 0c-0.01004,0 -0.0182649,-0.00272272 -0.0246746,-0.00822487 -0.00640973,-0.00544543 -0.00958623,-0.0132165 -0.00958623,-0.0233132l0 -0.0507106 0.233019 -0.0164497 0.0328995 -0.48799c0.000907572,-0.00822487 0.00453786,-0.0155422 0.0104938,-0.0218952 0.00595594,-0.00640973 0.013727,-0.00958623 0.023767,-0.00958623l0.0616582 0 0 0.520833 0.429055 0 0 0.0973371 -0.429055 0 0 0.925269c0,0.0374373 0.00504837,0.0694292 0.0146346,0.0964295 0.00958623,0.0269435 0.0228595,0.0493492 0.039763,0.0667065 0.0169035,0.0173573 0.0365298,0.03012 0.0593892,0.0383449 0.0228595,0.00822487 0.0475341,0.0123657 0.0740238,0.0123657 0.0328995,0 0.0612044,-0.00504837 0.0849714,-0.0146346 0.023767,-0.00958623 0.0443576,-0.02008 0.0617149,-0.0315381 0.0173573,-0.0114014 0.0314814,-0.0218952 0.0424857,-0.0315381 0.0109476,-0.00958623 0.0196262,-0.0141241 0.026036,-0.0141241 0.0073173,0 0.0146346,0.00453786 0.0219519,0.0136703l0.0356222 0.0575741c-0.0347146,0.0384016 -0.0786184,0.0690322 -0.132052,0.0922887 -0.0534333,0.0233132 -0.109192,0.0352251 -0.166766,0.0352251z"/>
   <polygon id="_4012852012345" class="fil2" points="20.4939,9.4257 21.1313,9.4257 21.1313,9.53671 20.4939,9.53671 "/>
   <polygon id="_40128520123456" class="fil2" points="22.7518,8.35516 22.7518,8.47167 21.7306,8.47167 21.7306,9.25576 22.5804,9.25576 22.5804,9.36949 21.7306,9.36949 21.7306,10.1782 22.7518,10.1782 22.7518,10.2948 21.5894,10.2948 21.5894,8.35516 "/>
   <path id="_401285201234567" class="fil2" d="M23.1771 10.2948l0 -1.36391 0.0712444 0c0.023767,0 0.0374941,0.0114581 0.0411243,0.0342608l0.0123657 0.205622c0.0621119,-0.0785617 0.134774,-0.142092 0.217477,-0.19008 0.0827025,-0.0479311 0.174537,-0.0716982 0.275959,-0.0716982 0.0749314,0 0.141184,0.0118552 0.198304,0.0356222 0.0571203,0.023767 0.104201,0.0580279 0.141638,0.102782 0.0374941,0.0448114 0.0657989,0.0986984 0.0850281,0.161775 0.0191725,0.0630762 0.0287587,0.134321 0.0287587,0.213847l0 0.871779 -0.13018 0 0 -0.871779c0,-0.127968 -0.0292692,-0.228481 -0.0877508,-0.301144 -0.0584817,-0.0726057 -0.148048,-0.108738 -0.268698,-0.108738 -0.0895093,0 -0.172666,0.0228595 -0.249469,0.0690322 -0.0767465,0.046116 -0.145268,0.109646 -0.205565,0.19008l0 1.02255 -0.130237 0z"/>
   <path id="_4012852012345678" class="fil2" d="M25.6598 10.2948c-0.0228027,0 -0.036076,-0.0118552 -0.0397063,-0.0356222l-0.013727 -0.215208c-0.0602968,0.0822487 -0.13069,0.147594 -0.211578,0.195979 -0.0808306,0.0484416 -0.171758,0.0726625 -0.272272,0.0726625 -0.167277,0 -0.297457,-0.0580279 -0.391163,-0.174084 -0.0936501,-0.116056 -0.14073,-0.290139 -0.14073,-0.522251 0,-0.099606 0.0132732,-0.192802 0.0393092,-0.279192 0.026036,-0.0863328 0.0644376,-0.161264 0.115148,-0.224794 0.0507106,-0.0634733 0.112879,-0.113276 0.186449,-0.149863 0.0735133,-0.0365298 0.158088,-0.0547946 0.254007,-0.0547946 0.0922887,0 0.172268,0.0169035 0.239883,0.0511644 0.0676141,0.0342608 0.126096,0.0845176 0.175445,0.150317l0 -0.80876 0.131598 0 0 1.99445 -0.0726625 0zm-0.500299 -0.0877508c0.0904736,0 0.172268,-0.0232565 0.245385,-0.069883 0.0731162,-0.0466265 0.138405,-0.111461 0.195979,-0.194674l0 -0.719591c-0.0529795,-0.0777108 -0.111007,-0.132505 -0.174537,-0.164497 -0.0634733,-0.0319919 -0.135682,-0.0479879 -0.216116,-0.0479879 -0.0804335,0 -0.15077,0.0146346 -0.211067,0.0438471 -0.0603535,0.0292692 -0.11061,0.0703935 -0.151281,0.123827 -0.0406138,0.05349 -0.0712444,0.117417 -0.0918349,0.191895 -0.0205338,0.0744776 -0.0310276,0.156726 -0.0310276,0.246292 0,0.202899 0.0374373,0.351854 0.112369,0.447319 0.0749314,0.0955219 0.182308,0.143453 0.322131,0.143453z"/>
   <path id="_40128520123456789" class="fil2" d="M27.7506 9.73002c0.013727,0.0255822 0.0255822,0.0529795 0.0356789,0.0822487 0.00544543,-0.0146346 0.0114014,-0.0292692 0.0173573,-0.0433933 0.00589922,-0.0141808 0.0123089,-0.027454 0.0196262,-0.0402168l0.762133 -1.34746c0.0073173,-0.0118552 0.0146346,-0.0191725 0.0219519,-0.0219519 0.0073173,-0.00272272 0.0173573,-0.00408407 0.03012,-0.00408407l0.0973371 0 0 1.93959 -0.123373 0 0 -1.65314c0,-0.0237103 0.00136136,-0.0488387 0.0041408,-0.0753852l-0.763495 1.35569c-0.0128195,0.023767 -0.0310843,0.0356222 -0.0548514,0.0356222l-0.0219519 0c-0.0228027,0 -0.0411243,-0.0118552 -0.0547946,-0.0356222l-0.784085 -1.35705c0.00272272,0.0264897 0.00408407,0.0520719 0.00408407,0.0767465l0 1.65314 -0.121955 0 0 -1.93959 0.095919 0c0.0128195,0 0.0233132,0.00136136 0.0310843,0.00408407 0.00777108,0.00277944 0.0150884,0.0100967 0.0224057,0.0219519l0.782667 1.34882z"/>
   <path id="_4012852012345678910" class="fil2" d="M29.792 8.90895c0.0767465,0 0.148048,0.0132165 0.213393,0.0397063 0.0653452,0.0265465 0.121955,0.0648914 0.169943,0.115602 0.0479879,0.0507673 0.0854252,0.113333 0.112425,0.187357 0.0269435,0.0740238 0.0402168,0.158995 0.0402168,0.254971 0,0.02008 -0.00277944,0.033807 -0.00867865,0.0411243 -0.00595594,0.0073173 -0.0155422,0.0109476 -0.0283616,0.0109476l-0.985566 0 0 0.026036c0,0.102385 0.0119119,0.192348 0.0356222,0.270059 0.023767,0.0776541 0.0575741,0.142545 0.101478,0.195071 0.0438471,0.0525824 0.0968266,0.0923454 0.158995,0.118835 0.0621119,0.0264897 0.131598,0.039763 0.208344,0.039763 0.0685217,0 0.127911,-0.00777108 0.178224,-0.0228595 0.0502568,-0.0150884 0.0927425,-0.0319919 0.127003,-0.0507106 0.0342608,-0.0187754 0.0612044,-0.0356789 0.0813411,-0.0507106 0.02008,-0.0150884 0.0347146,-0.0224057 0.0438471,-0.0224057 0.0118552,0 0.0210443,0.00453786 0.0273973,0.013727l0.0356789 0.0438471c-0.0219519,0.0273973 -0.0507673,0.0529795 -0.0868433,0.0767465 -0.036076,0.023767 -0.0762927,0.0438471 -0.120594,0.0607506 -0.0443576,0.0169035 -0.0918916,0.0306305 -0.142602,0.0406706 -0.0507106,0.0100967 -0.101875,0.0150884 -0.153039,0.0150884 -0.0931963,0 -0.178224,-0.0164497 -0.254971,-0.0488954 -0.0767465,-0.0324457 -0.142545,-0.0794692 -0.197397,-0.141638 -0.0547946,-0.0621119 -0.0968266,-0.138461 -0.12655,-0.228424 -0.029723,-0.0900198 -0.0447546,-0.192859 -0.0447546,-0.308915 0,-0.0977909 0.0141241,-0.188208 0.0420319,-0.27091 0.0278511,-0.0827025 0.0680679,-0.154004 0.120594,-0.213847 0.0525824,-0.059843 0.116963,-0.10647 0.193313,-0.140277 0.0762927,-0.033807 0.162626,-0.0507106 0.259509,-0.0507106zm0.00136136 0.0972803c-0.0703368,0 -0.133413,0.0110043 -0.189172,0.0328995 -0.0557589,0.0219519 -0.10369,0.05349 -0.144361,0.0946143 -0.0406706,0.0411243 -0.07357,0.0904736 -0.0986984,0.148048 -0.0251284,0.0575741 -0.0420319,0.121955 -0.0502568,0.193256l0.899177 0c0,-0.0731162 -0.01004,-0.138915 -0.03012,-0.196943 -0.0201367,-0.0580279 -0.0484416,-0.106923 -0.0850281,-0.14714 -0.0365298,-0.04016 -0.0803768,-0.0712444 -0.131541,-0.0927425 -0.0512211,-0.0214414 -0.107831,-0.0319919 -0.17,-0.0319919z"/>
   <path id="_401285201234567891011" class="fil2" d="M31.2261 8.90895c0.0767465,0 0.148048,0.0132165 0.213393,0.0397063 0.0653452,0.0265465 0.121955,0.0648914 0.169943,0.115602 0.0479879,0.0507673 0.0854252,0.113333 0.112425,0.187357 0.0269435,0.0740238 0.0402168,0.158995 0.0402168,0.254971 0,0.02008 -0.00277944,0.033807 -0.00867865,0.0411243 -0.00595594,0.0073173 -0.0155422,0.0109476 -0.0283616,0.0109476l-0.985566 0 0 0.026036c0,0.102385 0.0119119,0.192348 0.0356222,0.270059 0.023767,0.0776541 0.0575741,0.142545 0.101478,0.195071 0.0438471,0.0525824 0.0968266,0.0923454 0.158995,0.118835 0.0621119,0.0264897 0.131598,0.039763 0.208344,0.039763 0.0685217,0 0.127911,-0.00777108 0.178224,-0.0228595 0.0502568,-0.0150884 0.0927425,-0.0319919 0.127003,-0.0507106 0.0342608,-0.0187754 0.0612044,-0.0356789 0.0813411,-0.0507106 0.02008,-0.0150884 0.0347146,-0.0224057 0.0438471,-0.0224057 0.0118552,0 0.0210443,0.00453786 0.0273973,0.013727l0.0356789 0.0438471c-0.0219519,0.0273973 -0.0507673,0.0529795 -0.0868433,0.0767465 -0.036076,0.023767 -0.0762927,0.0438471 -0.120594,0.0607506 -0.0443576,0.0169035 -0.0918916,0.0306305 -0.142602,0.0406706 -0.0507106,0.0100967 -0.101875,0.0150884 -0.153039,0.0150884 -0.0931963,0 -0.178224,-0.0164497 -0.254971,-0.0488954 -0.0767465,-0.0324457 -0.142545,-0.0794692 -0.197397,-0.141638 -0.0547946,-0.0621119 -0.0968266,-0.138461 -0.12655,-0.228424 -0.029723,-0.0900198 -0.0447546,-0.192859 -0.0447546,-0.308915 0,-0.0977909 0.0141241,-0.188208 0.0420319,-0.27091 0.0278511,-0.0827025 0.0680679,-0.154004 0.120594,-0.213847 0.0525824,-0.059843 0.116963,-0.10647 0.193313,-0.140277 0.0762927,-0.033807 0.162626,-0.0507106 0.259509,-0.0507106zm0.00136136 0.0972803c-0.0703368,0 -0.133413,0.0110043 -0.189172,0.0328995 -0.0557589,0.0219519 -0.10369,0.05349 -0.144361,0.0946143 -0.0406706,0.0411243 -0.07357,0.0904736 -0.0986984,0.148048 -0.0251284,0.0575741 -0.0420319,0.121955 -0.0502568,0.193256l0.899177 0c0,-0.0731162 -0.01004,-0.138915 -0.03012,-0.196943 -0.0201367,-0.0580279 -0.0484416,-0.106923 -0.0850281,-0.14714 -0.0365298,-0.04016 -0.0803768,-0.0712444 -0.131541,-0.0927425 -0.0512211,-0.0214414 -0.107831,-0.0319919 -0.17,-0.0319919z"/>
   <path id="_40128520123456789101112" class="fil2" d="M32.5191 10.3167c-0.0922887,0 -0.164044,-0.0255822 -0.215662,-0.0768033 -0.0516181,-0.0511644 -0.0777108,-0.13018 -0.0777108,-0.237103l0 -0.932133 -0.195979 0c-0.01004,0 -0.0182649,-0.00272272 -0.0246746,-0.00822487 -0.00640973,-0.00544543 -0.00958623,-0.0132165 -0.00958623,-0.0233132l0 -0.0507106 0.233019 -0.0164497 0.0328995 -0.48799c0.000907572,-0.00822487 0.00453786,-0.0155422 0.0104938,-0.0218952 0.00595594,-0.00640973 0.013727,-0.00958623 0.023767,-0.00958623l0.0616582 0 0 0.520833 0.429055 0 0 0.0973371 -0.429055 0 0 0.925269c0,0.0374373 0.00504837,0.0694292 0.0146346,0.0964295 0.00958623,0.0269435 0.0228595,0.0493492 0.039763,0.0667065 0.0169035,0.0173573 0.0365298,0.03012 0.0593892,0.0383449 0.0228595,0.00822487 0.0475341,0.0123657 0.0740238,0.0123657 0.0328995,0 0.0612044,-0.00504837 0.0849714,-0.0146346 0.023767,-0.00958623 0.0443576,-0.02008 0.0617149,-0.0315381 0.0173573,-0.0114014 0.0314814,-0.0218952 0.0424857,-0.0315381 0.0109476,-0.00958623 0.0196262,-0.0141241 0.026036,-0.0141241 0.0073173,0 0.0146346,0.00453786 0.0219519,0.0136703l0.0356222 0.0575741c-0.0347146,0.0384016 -0.0786184,0.0690322 -0.132052,0.0922887 -0.0534333,0.0233132 -0.109192,0.0352251 -0.166766,0.0352251z"/>
   <polygon id="_4012852012345678910111213" class="fil2" points="33.0719,9.4257 33.7093,9.4257 33.7093,9.53671 33.0719,9.53671 "/>
   <path id="_401285201234567891011121314" class="fil2" d="M34.8843 10.1947c0.093253,0 0.176863,-0.0164497 0.250433,-0.0488954 0.0735133,-0.0324457 0.135682,-0.0772003 0.186846,-0.134774 0.0511644,-0.0575741 0.0904736,-0.125642 0.117417,-0.203807 0.0270003,-0.0781079 0.0402168,-0.162172 0.0402168,-0.252645l0 -1.19941 0.139823 0 0 1.19941c0,0.106923 -0.0169035,0.206529 -0.0507106,0.299272 -0.033807,0.0927425 -0.0822487,0.17363 -0.145779,0.242605 -0.0634733,0.0689754 -0.14073,0.123373 -0.231658,0.162682 -0.0909273,0.0392525 -0.193256,0.0589354 -0.306589,0.0589354 -0.113276,0 -0.215208,-0.019683 -0.306135,-0.0589354 -0.0909273,-0.0393092 -0.168128,-0.0937068 -0.231658,-0.162682 -0.0634733,-0.0689754 -0.112369,-0.149863 -0.146176,-0.242605 -0.033807,-0.0927425 -0.0507106,-0.192348 -0.0507106,-0.299272l0 -1.19941 0.141184 0 0 1.19799c0,0.0904736 0.0136703,0.174594 0.0406706,0.252702 0.0269435,0.0781079 0.0657989,0.146232 0.11651,0.203807 0.0507106,0.0575741 0.112823,0.102782 0.186393,0.135682 0.07357,0.0328995 0.156726,0.0493492 0.249923,0.0493492z"/>
   <path id="_40128520123456789101112131415" class="fil2" d="M36.1457 10.7772l0 -1.8464 0.0712444 0c0.0119119,0 0.0214981,0.00232565 0.0288154,0.0073173 0.0073173,0.00504837 0.0114014,0.0141808 0.0123089,0.0269435l0.0123657 0.211124c0.0602968,-0.0822487 0.131144,-0.147594 0.211975,-0.196035 0.0808873,-0.0484416 0.171361,-0.0726057 0.271874,-0.0726057 0.168184,0 0.298818,0.0580279 0.392071,0.174084 0.0931963,0.116056 0.139823,0.290139 0.139823,0.522251 0,0.099606 -0.0128195,0.192348 -0.0388554,0.278681 -0.026036,0.0863895 -0.0644376,0.161321 -0.114694,0.224794 -0.0502568,0.06353 -0.111972,0.113787 -0.185485,0.150373 -0.07357,0.0365298 -0.158598,0.0547946 -0.254517,0.0547946 -0.0931963,0 -0.17363,-0.0169035 -0.241244,-0.0507106 -0.0676141,-0.033807 -0.126152,-0.0840638 -0.175445,-0.15077l0 0.666158 -0.130237 0zm0.5716 -1.76415c-0.0904736,0 -0.172268,0.0233132 -0.245838,0.0703935 -0.07357,0.0470236 -0.138915,0.112823 -0.195525,0.196943l0 0.715507c0.0520719,0.0785617 0.1101,0.133867 0.173573,0.165859 0.06353,0.0319919 0.135739,0.0479879 0.21708,0.0479879 0.0803768,0 0.15077,-0.0146346 0.211067,-0.0439038 0.0602968,-0.0292125 0.111064,-0.0707906 0.151735,-0.124281 0.0406138,-0.0534333 0.0712444,-0.117417 0.0918349,-0.191895 0.0205338,-0.0744776 0.0305738,-0.156273 0.0305738,-0.245782 0,-0.202899 -0.0369835,-0.352308 -0.111461,-0.447773 -0.0744776,-0.0955219 -0.182308,-0.143056 -0.323039,-0.143056z"/>
   <path id="_4012852012345678910111213141516" class="fil2" d="M39.074 10.2029c0.0667065,0 0.127514,-0.00368701 0.182308,-0.0104938 0.0548514,-0.00686351 0.106016,-0.0169035 0.153096,-0.0306305 0.0470803,-0.013727 0.0918349,-0.0306305 0.134321,-0.0502568 0.0424857,-0.0196262 0.0849714,-0.0415781 0.127968,-0.0662527l0 -0.522251 -0.372842 0c-0.0100967,0 -0.0183216,-0.00323322 -0.0251851,-0.00958623 -0.00680679,-0.00640973 -0.0104938,-0.013727 -0.0104938,-0.0219519l0 -0.0767465 0.535978 0 0 0.689471c-0.0484416,0.033807 -0.0986984,0.0639838 -0.15077,0.0904736 -0.0521286,0.0264897 -0.107831,0.0484416 -0.16722,0.0662527 -0.0594459,0.0178111 -0.123373,0.0315381 -0.191951,0.0411243 -0.0685217,0.00958623 -0.143453,0.0146346 -0.224794,0.0146346 -0.139823,0 -0.26728,-0.023767 -0.382882,-0.0708473 -0.115602,-0.0470803 -0.214754,-0.113787 -0.297457,-0.20012 -0.0827025,-0.0863328 -0.14714,-0.190533 -0.192802,-0.312999 -0.0457189,-0.122465 -0.0685217,-0.258601 -0.0685217,-0.408464 0,-0.149863 0.0228027,-0.286055 0.0685217,-0.40801 0.0456622,-0.122012 0.110554,-0.226212 0.194617,-0.312545 0.0840638,-0.0863895 0.186449,-0.153096 0.306589,-0.20012 0.120197,-0.0470803 0.254517,-0.0703935 0.403472,-0.0703935 0.0740238,0 0.142545,0.00504837 0.205168,0.0150884 0.0625657,0.01004 0.120594,0.0246746 0.174537,0.0443008 0.0538871,0.019683 0.104144,0.0439038 0.15077,0.0726625 0.0466265,0.0288154 0.0913811,0.0621687 0.134321,0.099606l-0.0369835 0.0602968c-0.00822487,0.013727 -0.019683,0.0205905 -0.0342608,0.0205905 -0.00822487,0 -0.015996,-0.00181514 -0.0233132,-0.00550215 -0.013727,-0.00544543 -0.0333533,-0.0182649 -0.0593892,-0.0383449 -0.026036,-0.0201367 -0.0612611,-0.0411243 -0.105562,-0.0630762 -0.0443008,-0.0219519 -0.10006,-0.0415781 -0.166766,-0.0589354 -0.0667065,-0.0173573 -0.147594,-0.026036 -0.242605,-0.026036 -0.126152,0 -0.239883,0.02008 -0.34136,0.0602968 -0.101421,0.0402168 -0.187754,0.0977909 -0.259509,0.172722 -0.0717549,0.0749314 -0.127003,0.166313 -0.165859,0.274143 -0.0388554,0.107831 -0.0584817,0.228935 -0.0584817,0.363256 0,0.137043 0.0196262,0.259963 0.0589354,0.368701 0.0393092,0.108738 0.0945576,0.20063 0.165405,0.276015 0.0708473,0.0753852 0.155819,0.133413 0.254971,0.17363 0.0991522,0.04016 0.208344,0.0602968 0.32803,0.0602968z"/>
   <path id="_401285201234567891011121314151617" class="fil2" d="M40.2601 10.2948l0 -1.36391 0.0685217 0c0.0155422,0 0.0269435,0.00323322 0.033807,0.00958623 0.00686351,0.00640973 0.0104938,0.017414 0.0114581,0.0328995l0.0109476 0.28787c0.0438471,-0.110554 0.102329,-0.197397 0.175445,-0.259963 0.0731162,-0.0626224 0.163136,-0.0936501 0.270059,-0.0936501 0.0411243,0 0.0790155,0.00408407 0.11373,0.0127627 0.0347713,0.00867865 0.0676708,0.0214981 0.0986984,0.0379478l-0.0178111 0.0904736c-0.00272272,0.0145779 -0.0118552,0.0218952 -0.0273973,0.0218952 -0.00550215,0 -0.0132732,-0.00181514 -0.0233132,-0.00544543 -0.01004,-0.00368701 -0.0224057,-0.00777108 -0.0374373,-0.0123657 -0.0150884,-0.00453786 -0.0338638,-0.00867865 -0.0557589,-0.0123089 -0.0219519,-0.00368701 -0.0470803,-0.00550215 -0.0753852,-0.00550215 -0.103293,0 -0.187811,0.0319919 -0.254063,0.095919 -0.0662527,0.0639838 -0.120197,0.156273 -0.161264,0.276923l0 0.886868 -0.130237 0z"/>
   <path id="_40128520123456789101112131415161718" class="fil2" d="M41.9012 8.90895c0.0977341,0 0.185485,0.0164497 0.262685,0.049803 0.077257,0.0333533 0.142092,0.0808306 0.195128,0.142092 0.0529795,0.0612044 0.0936501,0.134774 0.121501,0.221164 0.0279078,0.0863328 0.0416349,0.183216 0.0416349,0.290139 0,0.106867 -0.013727,0.203296 -0.0416349,0.289232 -0.0278511,0.085879 -0.0685217,0.159449 -0.121501,0.220653 -0.0530362,0.0612611 -0.117871,0.108285 -0.195128,0.141184 -0.0772003,0.0328995 -0.164951,0.0493492 -0.262685,0.0493492 -0.0977909,0 -0.185088,-0.0164497 -0.262288,-0.0493492 -0.0772003,-0.0328995 -0.142545,-0.079923 -0.196035,-0.141184 -0.0534333,-0.0612044 -0.0941038,-0.134774 -0.122012,-0.220653 -0.0278511,-0.0859357 -0.0420319,-0.182365 -0.0420319,-0.289232 0,-0.106923 0.0141808,-0.203807 0.0420319,-0.290139 0.0279078,-0.0863895 0.0685784,-0.15996 0.122012,-0.221164 0.05349,-0.0612611 0.118835,-0.108738 0.196035,-0.142092 0.0772003,-0.0333533 0.164497,-0.049803 0.262288,-0.049803zm0 1.30083c0.0812844,0 0.152585,-0.0141808 0.213336,-0.0420319 0.0608073,-0.0279078 0.111518,-0.0676708 0.152188,-0.119743 0.0406706,-0.0520719 0.0707906,-0.115148 0.0909273,-0.188718 0.02008,-0.0735133 0.03012,-0.155762 0.03012,-0.247143 0,-0.0904736 -0.01004,-0.172722 -0.03012,-0.246746 -0.0201367,-0.0740238 -0.0502568,-0.137554 -0.0909273,-0.19008 -0.0406706,-0.0525824 -0.0913811,-0.0927425 -0.152188,-0.121104 -0.0607506,-0.0283049 -0.132052,-0.0424857 -0.213336,-0.0424857 -0.0813411,0 -0.152188,0.0141808 -0.212939,0.0424857 -0.0608073,0.0283616 -0.111518,0.0685217 -0.152188,0.121104 -0.0406138,0.0525257 -0.0712444,0.116056 -0.0918349,0.19008 -0.0205338,0.0740238 -0.0310276,0.156273 -0.0310276,0.246746 0,0.0913811 0.0104938,0.17363 0.0310276,0.247143 0.0205905,0.07357 0.0512211,0.136646 0.0918349,0.188718 0.0406706,0.0520719 0.0913811,0.0918349 0.152188,0.119743 0.0607506,0.0278511 0.131598,0.0420319 0.212939,0.0420319z"/>
   <path id="_4012852012345678910111213141516171819" class="fil2" d="M42.9954 8.93085l0 0.871836c0,0.127911 0.0292125,0.227971 0.0876941,0.300633 0.0584817,0.0726625 0.147594,0.109192 0.26728,0.109192 0.0886584,0 0.171361,-0.0228595 0.248107,-0.0680679 0.0768033,-0.0452651 0.145779,-0.107831 0.206983,-0.188264l0 -1.02533 0.131598 0 0 1.36391 -0.0726625 0c-0.0255822,0 -0.0387987,-0.0118552 -0.0397063,-0.0356222l-0.0123657 -0.202899c-0.0630195,0.0786184 -0.135682,0.141638 -0.218384,0.189172 -0.0827025,0.0475341 -0.174991,0.0713011 -0.276469,0.0713011 -0.075839,0 -0.142092,-0.0119119 -0.198758,-0.0356789 -0.0566098,-0.023767 -0.10369,-0.0580279 -0.141184,-0.102782 -0.0374373,-0.0447546 -0.0657989,-0.0986984 -0.0849714,-0.161775 -0.0191725,-0.0630195 -0.0287587,-0.134321 -0.0287587,-0.21379l0 -0.871836 0.131598 0z"/>
   <path id="_401285201234567891011121314151617181920" class="fil2" d="M44.4144 10.7772l0 -1.8464 0.0712444 0c0.0119119,0 0.0214981,0.00232565 0.0288154,0.0073173 0.0073173,0.00504837 0.0114014,0.0141808 0.0123089,0.0269435l0.0123657 0.211124c0.0602968,-0.0822487 0.131144,-0.147594 0.211975,-0.196035 0.0808873,-0.0484416 0.171361,-0.0726057 0.271874,-0.0726057 0.168184,0 0.298818,0.0580279 0.392071,0.174084 0.0931963,0.116056 0.139823,0.290139 0.139823,0.522251 0,0.099606 -0.0128195,0.192348 -0.0388554,0.278681 -0.026036,0.0863895 -0.0644376,0.161321 -0.114694,0.224794 -0.0502568,0.06353 -0.111972,0.113787 -0.185485,0.150373 -0.07357,0.0365298 -0.158598,0.0547946 -0.254517,0.0547946 -0.0931963,0 -0.17363,-0.0169035 -0.241244,-0.0507106 -0.0676141,-0.033807 -0.126152,-0.0840638 -0.175445,-0.15077l0 0.666158 -0.130237 0zm0.5716 -1.76415c-0.0904736,0 -0.172268,0.0233132 -0.245838,0.0703935 -0.07357,0.0470236 -0.138915,0.112823 -0.195525,0.196943l0 0.715507c0.0520719,0.0785617 0.1101,0.133867 0.173573,0.165859 0.06353,0.0319919 0.135739,0.0479879 0.21708,0.0479879 0.0803768,0 0.15077,-0.0146346 0.211067,-0.0439038 0.0602968,-0.0292125 0.111064,-0.0707906 0.151735,-0.124281 0.0406138,-0.0534333 0.0712444,-0.117417 0.0918349,-0.191895 0.0205338,-0.0744776 0.0305738,-0.156273 0.0305738,-0.245782 0,-0.202899 -0.0369835,-0.352308 -0.111461,-0.447773 -0.0744776,-0.0955219 -0.182308,-0.143056 -0.323039,-0.143056z"/>
  </g>
 </g>
</svg>
