<?xml version="1.0" encoding="UTF-8"?>
<!DOCTYPE svg PUBLIC "-//W3C//DTD SVG 1.1//EN" "http://www.w3.org/Graphics/SVG/1.1/DTD/svg11.dtd">
<!-- Creator: CorelDRAW -->
<svg xmlns="http://www.w3.org/2000/svg" xml:space="preserve" width="91.7994mm" height="35.922mm" style="shape-rendering:geometricPrecision; text-rendering:geometricPrecision; image-rendering:optimizeQuality; fill-rule:evenodd; clip-rule:evenodd"
viewBox="0 0 44.0113 17.222"
 xmlns:xlink="http://www.w3.org/1999/xlink">
 <defs>
  <style type="text/css">
   <![CDATA[
    .str0 {stroke:#19B698;stroke-width:1.19857}
    .fil1 {fill:#34495E}
    .fil3 {fill:#606062;fill-rule:nonzero}
    .fil2 {fill:#19B698;fill-rule:nonzero}
    .fil0 {fill:#34495E;fill-rule:nonzero}
   ]]>
  </style>
 </defs>
 <g id="Camada_x0020_1">
  <metadata id="CorelCorpID_0Corel-Layer"/>
  <g id="_84607312">
   <polygon id="_201948048" class="fil0" points="4.4724,5.38787 4.4724,4.32737 0.590177,4.32737 0.590177,10.4965 1.92726,10.4965 1.92726,7.82231 4.2511,7.82231 4.2511,6.78953 1.92726,6.78953 1.92726,5.38787 "/>
   <polygon id="_2019480481" class="fil0" points="6.63942,9.42682 6.63942,7.82231 9.0462,7.82231 9.0462,6.78953 6.63942,6.78953 6.63942,5.39707 9.19377,5.39707 9.19377,4.32737 5.31154,4.32737 5.31154,10.4965 9.27676,10.4965 9.27676,9.42682 "/>
   <polygon id="_20194804812" class="fil0" points="13.703,9.71117 14.9664,6.08251 15.1139,10.4965 16.3496,10.4965 15.99,4.32737 14.5514,4.32737 13.2143,8.29872 11.8864,4.32737 10.4479,4.32737 10.0882,10.4965 11.3147,10.4965 11.4622,6.07331 12.7348,9.71117 "/>
   <path id="_201948048123" class="fil0" d="M19.5679 10.6072c0.256638,-0.00306834 0.499469,-0.0307314 0.726958,-0.081455 0.228975,-0.0507236 0.434938,-0.127576 0.620908,-0.230509 0.18597,-0.102981 0.341162,-0.232091 0.468738,-0.388865 0.101447,-0.139849 0.184436,-0.293554 0.247433,-0.457998 0.0645791,-0.164444 0.110652,-0.347346 0.141384,-0.547124 0.0307793,-0.20136 0.0445869,-0.425733 0.0445869,-0.673166l0 -3.88222 -1.33713 0 0 3.8361c0.00311629,0.244365 -0.00920503,0.451862 -0.0337997,0.623977 -0.0230605,0.170629 -0.0737841,0.30741 -0.150589,0.408809 -0.0615107,0.0968446 -0.155239,0.169095 -0.279747,0.215168 -0.125994,0.0476552 -0.272028,0.0707158 -0.43954,0.0707158 -0.19671,0 -0.353483,-0.0230605 -0.471854,-0.0691816 -0.118323,-0.0460731 -0.207449,-0.115255 -0.265843,-0.207449 -0.0768524,-0.104515 -0.126042,-0.242831 -0.150637,-0.413459 -0.0245947,-0.170581 -0.0353339,-0.381146 -0.0337997,-0.628579l0 -3.8361 -1.33713 0 0 3.88222c0,0.248967 0.0153897,0.47334 0.0461211,0.6747 0.0307314,0.201312 0.0783866,0.385748 0.141384,0.550193 0.0629969,0.164444 0.141384,0.316615 0.236694,0.453396 0.124508,0.153705 0.279699,0.282815 0.465669,0.387283 0.18597,0.102981 0.393467,0.181368 0.623977,0.233626 0.232091,0.0537919 0.476456,0.0799208 0.736211,0.0799208z"/>
   <path id="_2019480481234" class="fil0" d="M22.7124 7.39811c0.0107392,0.476456 0.0629969,0.89447 0.158307,1.2526 0.0937283,0.356551 0.222839,0.660845 0.385748,0.911346 0.16291,0.25055 0.351949,0.453396 0.567116,0.608635 0.215168,0.155239 0.447259,0.26896 0.697761,0.339675 0.250502,0.072202 0.51179,0.107584 0.782284,0.106002 0.328888,-0.00153417 0.663961,-0.0368681 1.00359,-0.106002 0.339675,-0.0707158 0.673166,-0.170629 0.997452,-0.299739l0 -2.85864 -2.07482 0 0 0.968254 0.866855 0 0 1.14349c-0.10605,0.0184101 -0.209031,0.0322656 -0.310478,0.0414706 -0.099913,0.00925298 -0.19671,0.0138555 -0.288952,0.0138555 -0.201312,0.00153417 -0.388817,-0.0338477 -0.56098,-0.10605 -0.173649,-0.0722499 -0.324286,-0.190573 -0.454882,-0.356551 -0.12911,-0.164492 -0.230557,-0.385796 -0.302807,-0.662427 -0.072202,-0.275096 -0.109118,-0.61784 -0.110652,-1.02358 0.00153417,-0.410343 0.0430527,-0.751553 0.126042,-1.02205 0.0829891,-0.270494 0.198244,-0.484127 0.345812,-0.639366 0.14752,-0.155191 0.318149,-0.264309 0.51179,-0.328888 0.195175,-0.0645311 0.405741,-0.0952625 0.630113,-0.0937283 0.124508,0 0.255152,0.00613669 0.393467,0.0168759 0.138315,0.0123213 0.278165,0.0291972 0.418014,0.0507236 0.139849,0.0230605 0.275096,0.0491894 0.405741,0.0799208l0.193641 -0.959001c-0.189039,-0.0522577 -0.368825,-0.0968446 -0.540987,-0.132179 -0.172115,-0.0353818 -0.34423,-0.0615107 -0.519461,-0.0799208 -0.173649,-0.018458 -0.358085,-0.027663 -0.553261,-0.027663 -0.26896,-0.00153417 -0.536385,0.0307314 -0.800742,0.0952625 -0.264357,0.0645791 -0.514859,0.170629 -0.750018,0.316615 -0.236694,0.145986 -0.444143,0.342744 -0.627045,0.585574 -0.181368,0.244365 -0.324286,0.544056 -0.428801,0.902141 -0.104515,0.356551 -0.158307,0.777681 -0.159842,1.26334z"/>
   <polygon id="_88853008" class="fil1 str0" points="36.5539,0.692008 39.9829,2.67167 43.412,4.65137 43.412,8.61102 43.412,12.5707 39.9829,14.5504 36.5539,16.53 33.1247,14.5504 29.6957,12.5707 29.6957,8.61102 29.6957,4.65137 33.1247,2.67167 "/>
   <path id="_88789888" class="fil2" d="M36.2065 9.96661c-0.00153417,-0.213633 -0.0353339,-0.405741 -0.102933,-0.577856 -0.0661132,-0.172163 -0.156773,-0.327402 -0.272028,-0.465717 -0.113768,-0.138315 -0.244413,-0.262775 -0.387331,-0.373475 -0.144452,-0.112186 -0.293554,-0.213586 -0.450327,-0.305828 -0.155191,-0.0921942 -0.307362,-0.179834 -0.456416,-0.259707 -0.18597,-0.0983788 -0.356599,-0.189039 -0.508722,-0.270542 -0.152171,-0.081455 -0.275144,-0.169047 -0.365804,-0.261241 -0.09066,-0.0937763 -0.138315,-0.209031 -0.139849,-0.344278 0.00460252,-0.150637 0.0399364,-0.26896 0.10605,-0.358085 0.0675995,-0.0907079 0.158307,-0.153705 0.273562,-0.193641 0.113721,-0.0384502 0.245899,-0.0584424 0.395001,-0.0569082 0.133713,0 0.272028,0.0123213 0.419548,0.036916 0.146034,0.0230605 0.29202,0.0553261 0.441122,0.0952625 0.14752,0.0399844 0.290438,0.0845233 0.430335,0.135247l0.368825 -1.00512c-0.313499,-0.115255 -0.614772,-0.202846 -0.903675,-0.261289 -0.288952,-0.0599286 -0.562514,-0.0891258 -0.820734,-0.0891258 -0.28737,0 -0.551727,0.0384502 -0.793023,0.115255 -0.242831,0.0768524 -0.453396,0.18597 -0.631695,0.33047 -0.178252,0.144452 -0.318101,0.318101 -0.41648,0.522529 -0.0983788,0.204428 -0.149102,0.434938 -0.150637,0.691624 0.00153417,0.285835 0.0430527,0.528666 0.122973,0.726958 0.0799208,0.198244 0.190573,0.36729 0.331957,0.505606 0.139849,0.136781 0.302759,0.25822 0.487196,0.361202 0.182902,0.102981 0.379612,0.201312 0.588643,0.296623 0.222839,0.099865 0.42113,0.201312 0.594779,0.302759 0.172163,0.102981 0.30741,0.213633 0.407275,0.335025 0.0983788,0.119905 0.149102,0.25822 0.150637,0.413459 -0.00153417,0.164444 -0.0399844,0.296623 -0.115255,0.393419 -0.0753183,0.0968446 -0.1783,0.16756 -0.30741,0.209031 -0.127576,0.0415185 -0.273562,0.0629969 -0.434938,0.0614628 -0.181368,-0.00153417 -0.368873,-0.0214784 -0.564048,-0.0599286 -0.195175,-0.0384022 -0.38268,-0.0860575 -0.562514,-0.144452 -0.18132,-0.0599286 -0.339627,-0.119905 -0.477943,-0.182902l-0.341209 1.09736c0.12911,0.0599286 0.275096,0.115255 0.438006,0.167512 0.164444,0.0507236 0.336607,0.0952625 0.516393,0.133713 0.179834,0.0384022 0.359667,0.0691336 0.536385,0.09066 0.1783,0.0215264 0.344278,0.0322656 0.501051,0.0322656 0.32582,-0.00153417 0.61784,-0.0460731 0.876012,-0.136781 0.25822,-0.0891258 0.476456,-0.216702 0.657824,-0.381146 0.18132,-0.164444 0.319683,-0.358085 0.414946,-0.582458 0.0953104,-0.225955 0.144452,-0.473388 0.144452,-0.743882z"/>
   <path id="_887898881" class="fil2" d="M40.6881 6.05672c-0.141384,-0.132179 -0.298157,-0.236694 -0.468738,-0.315081 -0.170629,-0.0783866 -0.367338,-0.135247 -0.593245,-0.169047 -0.225955,-0.0353339 -0.491846,-0.0522577 -0.800742,-0.0507236l-1.77974 0 0 6.16915 1.32787 0 0 -2.25001 0.230557 0c0.342696,0 0.637784,-0.0153897 0.886799,-0.0461211 0.248967,-0.0322656 0.464135,-0.0829891 0.645503,-0.153705 0.182854,-0.0706678 0.345764,-0.16291 0.487196,-0.279699 0.21977,-0.181368 0.379612,-0.404206 0.479477,-0.667029 0.099913,-0.261289 0.149102,-0.551727 0.147568,-0.868341 0.00306834,-0.273562 -0.0399844,-0.524112 -0.126042,-0.751553 -0.0860575,-0.227441 -0.232044,-0.433404 -0.436472,-0.61784zm-1.04204 2.21161c-0.0629969,0.0491894 -0.142918,0.0891258 -0.239762,0.116789 -0.0967967,0.0291972 -0.221304,0.0491894 -0.371893,0.0615107 -0.150637,0.0107392 -0.336607,0.0168759 -0.559445,0.0168759l-0.101447 0 0 -1.96417 0.239762 0c0.215168,-0.00153417 0.405741,0.00925298 0.571719,0.0353818 0.167512,0.0245947 0.308944,0.072202 0.422664,0.142918 0.115255,0.0707158 0.202846,0.172115 0.262823,0.305828 0.0583944,0.133713 0.0891258,0.308944 0.0891258,0.525646 0.00153417,0.175183 -0.0215264,0.327354 -0.0707158,0.453396 -0.0476073,0.125994 -0.129062,0.227441 -0.242831,0.305828z"/>
   <polygon id="_40131112" class="fil3" points="1.56318,11.2269 1.56318,11.3254 0.700062,11.3254 0.700062,12.0147 1.44735,12.0147 1.44735,12.1132 0.700062,12.1132 0.700062,12.8663 0.580732,12.8663 0.580732,11.2269 "/>
   <path id="_401311121" class="fil3" d="M1.80908 12.8663l0 -1.15279 0.057915 0c0.0131363,0 0.0227729,0.00273274 0.028574,0.00810235 0.00580109,0.00541755 0.00886943,0.0147185 0.00968446,0.0278069l0.00925298 0.24331c0.0370598,-0.0934407 0.086489,-0.166841 0.148287,-0.219722 0.0617984,-0.0529289 0.137884,-0.0791537 0.228256,-0.0791537 0.0347586,0 0.0667844,0.00345189 0.0961255,0.0107871 0.029389,0.00733526 0.0571959,0.0181704 0.0834206,0.0320738l-0.0150541 0.0764689c-0.00230126,0.0123213 -0.0100201,0.018506 -0.0231564,0.018506 -0.00465046,0 -0.0112186,-0.00153417 -0.0197045,-0.00460252 -0.00848589,-0.00311629 -0.0189374,-0.00656817 -0.0316423,-0.0104515 -0.0127528,-0.00383543 -0.0286219,-0.00733526 -0.0471279,-0.0104036 -0.0185539,-0.00311629 -0.0397926,-0.00465046 -0.0637161,-0.00465046 -0.087304,0 -0.158739,0.0270398 -0.214736,0.0810714 -0.0559973,0.0540796 -0.101591,0.132083 -0.136302,0.234057l0 0.749587 -0.110077 0z"/>
   <path id="_4013111212" class="fil3" d="M3.19616 11.695c0.0826056,0 0.156773,0.0139034 0.222023,0.0420939 0.0652982,0.0281904 0.120097,0.0683186 0.164924,0.120097 0.0447787,0.0517304 0.0791537,0.113912 0.102694,0.186929 0.0235879,0.0729691 0.0351901,0.154856 0.0351901,0.245228 0,0.0903244 -0.0116022,0.171827 -0.0351901,0.244461 -0.02354,0.0725855 -0.057915,0.134767 -0.102694,0.186498 -0.0448266,0.0517783 -0.0996253,0.091523 -0.164924,0.11933 -0.0652503,0.0278069 -0.139418,0.0417103 -0.222023,0.0417103 -0.0826535,0 -0.156438,-0.0139034 -0.221688,-0.0417103 -0.0652503,-0.0278069 -0.12048,-0.0675515 -0.165691,-0.11933 -0.0451622,-0.0517304 -0.0795372,-0.113912 -0.103125,-0.186498 -0.02354,-0.0726335 -0.0355257,-0.154136 -0.0355257,-0.244461 0,-0.0903723 0.0119857,-0.172259 0.0355257,-0.245228 0.0235879,-0.073017 0.0579629,-0.135199 0.103125,-0.186929 0.0452101,-0.0517783 0.10044,-0.0919065 0.165691,-0.120097 0.0652503,-0.0281904 0.139034,-0.0420939 0.221688,-0.0420939zm0 1.09947c0.0687021,0 0.128966,-0.0119857 0.180313,-0.0355257 0.0513948,-0.0235879 0.0942557,-0.0571959 0.128631,-0.101207 0.034375,-0.0440116 0.0598327,-0.0973241 0.0768524,-0.159506 0.0169718,-0.062134 0.0254577,-0.131651 0.0254577,-0.208887 0,-0.0764689 -0.00848589,-0.145986 -0.0254577,-0.208552 -0.0170197,-0.0625655 -0.0424774,-0.116261 -0.0768524,-0.160657 -0.034375,-0.0444431 -0.077236,-0.0783866 -0.128631,-0.102358 -0.0513468,-0.0239235 -0.111611,-0.0359092 -0.180313,-0.0359092 -0.0687501,0 -0.128631,0.0119857 -0.179978,0.0359092 -0.0513948,0.0239714 -0.0942557,0.057915 -0.128631,0.102358 -0.0343271,0.0443951 -0.0602163,0.0980911 -0.0776195,0.160657 -0.0173553,0.0625655 -0.0262248,0.132083 -0.0262248,0.208552 0,0.077236 0.00886943,0.146753 0.0262248,0.208887 0.0174033,0.0621819 0.0432924,0.115494 0.0776195,0.159506 0.034375,0.0440116 0.077236,0.0776195 0.128631,0.101207 0.0513468,0.02354 0.111227,0.0355257 0.179978,0.0355257z"/>
   <path id="_40131112123" class="fil3" d="M4.03871 12.8663l0 -1.15279 0.0602163 0c0.0200881,0 0.0316902,0.00968446 0.0347586,0.0289575l0.0104515 0.173793c0.0524975,-0.0664009 0.113912,-0.120097 0.183813,-0.160657 0.0699007,-0.0405117 0.14752,-0.0605998 0.233242,-0.0605998 0.0633325,0 0.11933,0.0100201 0.167608,0.0301081 0.0482785,0.0200881 0.0880711,0.0490456 0.119713,0.0868725 0.0316902,0.0378749 0.0556137,0.0834206 0.0718664,0.136733 0.0162047,0.0533125 0.024307,0.113529 0.024307,0.180745l0 0.736834 -0.110029 0 0 -0.736834c0,-0.108159 -0.0247385,-0.193114 -0.0741676,-0.254529 -0.0494291,-0.0613669 -0.125131,-0.0919065 -0.227105,-0.0919065 -0.0756539,0 -0.145938,0.019321 -0.210853,0.0583465 -0.0648667,0.0389776 -0.122782,0.0926736 -0.173745,0.160657l0 0.864266 -0.110077 0z"/>
   <path id="_401311121234" class="fil3" d="M5.63549 12.8848c-0.0780031,0 -0.138651,-0.0216222 -0.182279,-0.0649147 -0.043628,-0.0432445 -0.0656817,-0.110029 -0.0656817,-0.200401l0 -0.787845 -0.165643 0c-0.00848589,0 -0.0154376,-0.00230126 -0.0208552,-0.00695172 -0.00541755,-0.00460252 -0.00810235,-0.0111707 -0.00810235,-0.0197045l0 -0.0428609 0.196949 -0.0139034 0.0278069 -0.412453c0.000767086,-0.00695172 0.00383543,-0.0131363 0.00886943,-0.018506 0.005034,-0.00541755 0.0116022,-0.00810235 0.0200881,-0.00810235l0.0521139 0 0 0.440212 0.36264 0 0 0.08227 -0.36264 0 0 0.782044c0,0.0316423 0.00426692,0.0586821 0.0123693,0.0815029 0.00810235,0.0227729 0.019321,0.0417103 0.033608,0.0563808 0.014287,0.0146705 0.0308752,0.0254577 0.0501962,0.0324094 0.019321,0.00695172 0.0401761,0.0104515 0.0625655,0.0104515 0.0278069,0 0.0517304,-0.00426692 0.0718184,-0.0123693 0.0200881,-0.00810235 0.0374913,-0.0169718 0.0521619,-0.0266562 0.0146705,-0.00963652 0.0266083,-0.018506 0.0359092,-0.0266562 0.00925298,-0.00810235 0.0165882,-0.0119378 0.0220058,-0.0119378 0.00618463,0 0.0123693,0.00383543 0.0185539,0.0115542l0.0301081 0.048662c-0.029341,0.0324573 -0.0664488,0.0583465 -0.111611,0.0780031 -0.0451622,0.0197045 -0.09229,0.0297725 -0.140952,0.0297725z"/>
   <polygon id="_4013111212345" class="fil3" points="6.1027,12.1318 6.64143,12.1318 6.64143,12.2256 6.1027,12.2256 "/>
   <polygon id="_40131112123456" class="fil3" points="8.01111,11.2269 8.01111,11.3254 7.148,11.3254 7.148,11.9881 7.86628,11.9881 7.86628,12.0842 7.148,12.0842 7.148,12.7678 8.01111,12.7678 8.01111,12.8663 7.02867,12.8663 7.02867,11.2269 "/>
   <path id="_401311121234567" class="fil3" d="M8.37059 12.8663l0 -1.15279 0.0602163 0c0.0200881,0 0.0316902,0.00968446 0.0347586,0.0289575l0.0104515 0.173793c0.0524975,-0.0664009 0.113912,-0.120097 0.183813,-0.160657 0.0699007,-0.0405117 0.14752,-0.0605998 0.233242,-0.0605998 0.0633325,0 0.11933,0.0100201 0.167608,0.0301081 0.0482785,0.0200881 0.0880711,0.0490456 0.119713,0.0868725 0.0316902,0.0378749 0.0556137,0.0834206 0.0718664,0.136733 0.0162047,0.0533125 0.024307,0.113529 0.024307,0.180745l0 0.736834 -0.110029 0 0 -0.736834c0,-0.108159 -0.0247385,-0.193114 -0.0741676,-0.254529 -0.0494291,-0.0613669 -0.125131,-0.0919065 -0.227105,-0.0919065 -0.0756539,0 -0.145938,0.019321 -0.210853,0.0583465 -0.0648667,0.0389776 -0.122782,0.0926736 -0.173745,0.160657l0 0.864266 -0.110077 0z"/>
   <path id="_4013111212345678" class="fil3" d="M10.469 12.8663c-0.019273,0 -0.0304917,-0.0100201 -0.03356,-0.0301081l-0.0116022 -0.181895c-0.0509633,0.0695172 -0.11046,0.124747 -0.178827,0.165643 -0.0683186,0.0409432 -0.145171,0.0614148 -0.230126,0.0614148 -0.141384,0 -0.251412,-0.0490456 -0.330614,-0.147137 -0.0791537,-0.0980911 -0.118946,-0.245228 -0.118946,-0.44141 0,-0.0841877 0.0112186,-0.162958 0.0332244,-0.235975 0.0220058,-0.0729691 0.0544631,-0.136302 0.0973241,-0.189998 0.0428609,-0.0536481 0.0954063,-0.0957419 0.157588,-0.126665 0.062134,-0.0308752 0.133617,-0.0463128 0.214688,-0.0463128 0.0780031,0 0.145603,0.014287 0.20275,0.0432445 0.0571479,0.0289575 0.106577,0.0714349 0.148287,0.127049l0 -0.68357 0.111227 0 0 1.68572 -0.0614148 0zm-0.422856 -0.0741676c0.0764689,0 0.145603,-0.0196566 0.207401,-0.0590656 0.0617984,-0.039409 0.116981,-0.0942078 0.165643,-0.16454l0 -0.608203c-0.0447787,-0.0656817 -0.0938242,-0.111995 -0.14752,-0.139034 -0.0536481,-0.0270398 -0.114679,-0.0405597 -0.182662,-0.0405597 -0.067983,0 -0.127432,0.0123693 -0.178395,0.0370598 -0.0510112,0.0247385 -0.0934886,0.0594971 -0.127864,0.104659 -0.0343271,0.0452101 -0.0602163,0.0992418 -0.0776195,0.162191 -0.0173553,0.062949 -0.0262248,0.132466 -0.0262248,0.208168 0,0.171492 0.0316423,0.29739 0.0949748,0.378078 0.0633325,0.0807358 0.154088,0.121248 0.272268,0.121248z"/>
   <path id="_40131112123456789" class="fil3" d="M12.2361 12.389c0.0116022,0.0216222 0.0216222,0.0447787 0.0301561,0.0695172 0.00460252,-0.0123693 0.00963652,-0.0247385 0.0146705,-0.0366763 0.00498606,-0.0119857 0.0104036,-0.0232044 0.0165882,-0.0339915l0.644161 -1.13888c0.00618463,-0.0100201 0.0123693,-0.0162047 0.0185539,-0.0185539 0.00618463,-0.00230126 0.0146705,-0.00345189 0.0254577,-0.00345189l0.08227 0 0 1.63936 -0.104276 0 0 -1.39725c0,-0.0200401 0.00115063,-0.0412788 0.00349983,-0.0637161l-0.645311 1.14583c-0.0108351,0.0200881 -0.0262727,0.0301081 -0.0463608,0.0301081l-0.0185539 0c-0.019273,0 -0.0347586,-0.0100201 -0.0463128,-0.0301081l-0.662714 -1.14699c0.00230126,0.0223893 0.00345189,0.0440116 0.00345189,0.0648667l0 1.39725 -0.103077 0 0 -1.63936 0.0810714 0c0.0108351,0 0.0197045,0.00115063 0.0262727,0.00345189 0.00656817,0.0023492 0.0127528,0.00853383 0.0189374,0.0185539l0.661516 1.14003z"/>
   <path id="_4013111212345678910" class="fil3" d="M13.9615 11.695c0.0648667,0 0.125131,0.0111707 0.180361,0.03356 0.0552302,0.0224373 0.103077,0.0548467 0.143637,0.0977076 0.0405597,0.0429089 0.072202,0.0957899 0.0950228,0.158355 0.0227729,0.0625655 0.0339915,0.134384 0.0339915,0.215503 0,0.0169718 -0.0023492,0.028574 -0.00733526,0.0347586 -0.005034,0.00618463 -0.0131363,0.00925298 -0.0239714,0.00925298l-0.833008 0 0 0.0220058c0,0.0865369 0.010068,0.162574 0.0301081,0.228256 0.0200881,0.0656338 0.048662,0.12048 0.0857698,0.164876 0.0370598,0.0444431 0.0818385,0.078051 0.134384,0.10044 0.0524975,0.0223893 0.111227,0.033608 0.176094,0.033608 0.057915,0 0.108111,-0.00656817 0.150637,-0.019321 0.0424774,-0.0127528 0.0783866,-0.0270398 0.107344,-0.0428609 0.0289575,-0.0158691 0.0517304,-0.0301561 0.0687501,-0.0428609 0.0169718,-0.0127528 0.029341,-0.0189374 0.0370598,-0.0189374 0.0100201,0 0.0177868,0.00383543 0.0231564,0.0116022l0.0301561 0.0370598c-0.0185539,0.0231564 -0.0429089,0.0447787 -0.0734006,0.0648667 -0.0304917,0.0200881 -0.0644832,0.0370598 -0.101927,0.0513468 -0.0374913,0.014287 -0.0776675,0.0258892 -0.120528,0.034375 -0.0428609,0.00853383 -0.0861054,0.0127528 -0.12935,0.0127528 -0.0787702,0 -0.150637,-0.0139034 -0.215503,-0.0413268 -0.0648667,-0.0274233 -0.12048,-0.067168 -0.166841,-0.119713 -0.0463128,-0.0524975 -0.0818385,-0.117029 -0.106961,-0.193066 -0.0251221,-0.0760854 -0.0378269,-0.163006 -0.0378269,-0.261097 0,-0.0826535 0.0119378,-0.159074 0.0355257,-0.228975 0.02354,-0.0699007 0.0575315,-0.130165 0.101927,-0.180745 0.0444431,-0.0505797 0.0988582,-0.0899888 0.163389,-0.118563 0.0644832,-0.028574 0.137452,-0.0428609 0.219339,-0.0428609zm0.00115063 0.082222c-0.0594492,0 -0.112762,0.00930092 -0.15989,0.0278069 -0.0471279,0.0185539 -0.0876396,0.0452101 -0.122015,0.0799687 -0.034375,0.0347586 -0.0621819,0.0764689 -0.0834206,0.125131 -0.0212387,0.048662 -0.0355257,0.103077 -0.0424774,0.163341l0.759991 0c0,-0.0617984 -0.00848589,-0.117412 -0.0254577,-0.166458 -0.0170197,-0.0490456 -0.0409432,-0.0903723 -0.0718664,-0.124364 -0.0308752,-0.0339436 -0.0679351,-0.0602163 -0.11118,-0.0783866 -0.0432924,-0.0181224 -0.0911394,-0.0270398 -0.143685,-0.0270398z"/>
   <path id="_401311121234567891011" class="fil3" d="M15.1737 11.695c0.0648667,0 0.125131,0.0111707 0.180361,0.03356 0.0552302,0.0224373 0.103077,0.0548467 0.143637,0.0977076 0.0405597,0.0429089 0.072202,0.0957899 0.0950228,0.158355 0.0227729,0.0625655 0.0339915,0.134384 0.0339915,0.215503 0,0.0169718 -0.0023492,0.028574 -0.00733526,0.0347586 -0.005034,0.00618463 -0.0131363,0.00925298 -0.0239714,0.00925298l-0.833008 0 0 0.0220058c0,0.0865369 0.010068,0.162574 0.0301081,0.228256 0.0200881,0.0656338 0.048662,0.12048 0.0857698,0.164876 0.0370598,0.0444431 0.0818385,0.078051 0.134384,0.10044 0.0524975,0.0223893 0.111227,0.033608 0.176094,0.033608 0.057915,0 0.108111,-0.00656817 0.150637,-0.019321 0.0424774,-0.0127528 0.0783866,-0.0270398 0.107344,-0.0428609 0.0289575,-0.0158691 0.0517304,-0.0301561 0.0687501,-0.0428609 0.0169718,-0.0127528 0.029341,-0.0189374 0.0370598,-0.0189374 0.0100201,0 0.0177868,0.00383543 0.0231564,0.0116022l0.0301561 0.0370598c-0.0185539,0.0231564 -0.0429089,0.0447787 -0.0734006,0.0648667 -0.0304917,0.0200881 -0.0644832,0.0370598 -0.101927,0.0513468 -0.0374913,0.014287 -0.0776675,0.0258892 -0.120528,0.034375 -0.0428609,0.00853383 -0.0861054,0.0127528 -0.12935,0.0127528 -0.0787702,0 -0.150637,-0.0139034 -0.215503,-0.0413268 -0.0648667,-0.0274233 -0.12048,-0.067168 -0.166841,-0.119713 -0.0463128,-0.0524975 -0.0818385,-0.117029 -0.106961,-0.193066 -0.0251221,-0.0760854 -0.0378269,-0.163006 -0.0378269,-0.261097 0,-0.0826535 0.0119378,-0.159074 0.0355257,-0.228975 0.02354,-0.0699007 0.0575315,-0.130165 0.101927,-0.180745 0.0444431,-0.0505797 0.0988582,-0.0899888 0.163389,-0.118563 0.0644832,-0.028574 0.137452,-0.0428609 0.219339,-0.0428609zm0.00115063 0.082222c-0.0594492,0 -0.112762,0.00930092 -0.15989,0.0278069 -0.0471279,0.0185539 -0.0876396,0.0452101 -0.122015,0.0799687 -0.034375,0.0347586 -0.0621819,0.0764689 -0.0834206,0.125131 -0.0212387,0.048662 -0.0355257,0.103077 -0.0424774,0.163341l0.759991 0c0,-0.0617984 -0.00848589,-0.117412 -0.0254577,-0.166458 -0.0170197,-0.0490456 -0.0409432,-0.0903723 -0.0718664,-0.124364 -0.0308752,-0.0339436 -0.0679351,-0.0602163 -0.11118,-0.0783866 -0.0432924,-0.0181224 -0.0911394,-0.0270398 -0.143685,-0.0270398z"/>
   <path id="_40131112123456789101112" class="fil3" d="M16.2665 12.8848c-0.0780031,0 -0.138651,-0.0216222 -0.182279,-0.0649147 -0.043628,-0.0432445 -0.0656817,-0.110029 -0.0656817,-0.200401l0 -0.787845 -0.165643 0c-0.00848589,0 -0.0154376,-0.00230126 -0.0208552,-0.00695172 -0.00541755,-0.00460252 -0.00810235,-0.0111707 -0.00810235,-0.0197045l0 -0.0428609 0.196949 -0.0139034 0.0278069 -0.412453c0.000767086,-0.00695172 0.00383543,-0.0131363 0.00886943,-0.018506 0.005034,-0.00541755 0.0116022,-0.00810235 0.0200881,-0.00810235l0.0521139 0 0 0.440212 0.36264 0 0 0.08227 -0.36264 0 0 0.782044c0,0.0316423 0.00426692,0.0586821 0.0123693,0.0815029 0.00810235,0.0227729 0.019321,0.0417103 0.033608,0.0563808 0.014287,0.0146705 0.0308752,0.0254577 0.0501962,0.0324094 0.019321,0.00695172 0.0401761,0.0104515 0.0625655,0.0104515 0.0278069,0 0.0517304,-0.00426692 0.0718184,-0.0123693 0.0200881,-0.00810235 0.0374913,-0.0169718 0.0521619,-0.0266562 0.0146705,-0.00963652 0.0266083,-0.018506 0.0359092,-0.0266562 0.00925298,-0.00810235 0.0165882,-0.0119378 0.0220058,-0.0119378 0.00618463,0 0.0123693,0.00383543 0.0185539,0.0115542l0.0301081 0.048662c-0.029341,0.0324573 -0.0664488,0.0583465 -0.111611,0.0780031 -0.0451622,0.0197045 -0.09229,0.0297725 -0.140952,0.0297725z"/>
   <polygon id="_4013111212345678910111213" class="fil3" points="16.7337,12.1318 17.2724,12.1318 17.2724,12.2256 16.7337,12.2256 "/>
   <path id="_401311121234567891011121314" class="fil3" d="M18.2656 12.7817c0.0788181,0 0.149486,-0.0139034 0.211668,-0.0413268 0.062134,-0.0274233 0.114679,-0.0652503 0.157924,-0.113912 0.0432445,-0.048662 0.0764689,-0.106193 0.0992418,-0.172259 0.0228208,-0.0660173 0.0339915,-0.137069 0.0339915,-0.213538l0 -1.01375 0.118179 0 0 1.01375c0,0.0903723 -0.014287,0.17456 -0.0428609,0.252947 -0.028574,0.0783866 -0.0695172,0.146753 -0.123213,0.205052 -0.0536481,0.0582985 -0.118946,0.104276 -0.195799,0.1375 -0.0768524,0.0331765 -0.163341,0.0498127 -0.259131,0.0498127 -0.0957419,0 -0.181895,-0.0166362 -0.258748,-0.0498127 -0.0768524,-0.0332244 -0.142103,-0.0792016 -0.195799,-0.1375 -0.0536481,-0.0582985 -0.0949748,-0.126665 -0.123549,-0.205052 -0.028574,-0.0783866 -0.0428609,-0.162574 -0.0428609,-0.252947l0 -1.01375 0.11933 0 0 1.01255c0,0.0764689 0.0115542,0.147568 0.034375,0.213586 0.0227729,0.0660173 0.0556137,0.123597 0.0984747,0.172259 0.0428609,0.048662 0.0953584,0.0868725 0.15754,0.114679 0.0621819,0.0278069 0.132466,0.0417103 0.211236,0.0417103z"/>
   <path id="_40131112123456789101112131415" class="fil3" d="M19.3318 13.2741l0 -1.56059 0.0602163 0c0.010068,0 0.0181704,0.00196566 0.024355,0.00618463 0.00618463,0.00426692 0.00963652,0.0119857 0.0104036,0.0227729l0.0104515 0.178443c0.0509633,-0.0695172 0.110844,-0.124747 0.179163,-0.165691 0.0683665,-0.0409432 0.144835,-0.0613669 0.22979,-0.0613669 0.142151,0 0.252563,0.0490456 0.331381,0.147137 0.0787702,0.0980911 0.118179,0.245228 0.118179,0.44141 0,0.0841877 -0.0108351,0.162574 -0.0328409,0.235543 -0.0220058,0.073017 -0.0544631,0.13635 -0.0969405,0.189998 -0.0424774,0.053696 -0.0946392,0.0961734 -0.156773,0.127097 -0.0621819,0.0308752 -0.134048,0.0463128 -0.21512,0.0463128 -0.0787702,0 -0.146753,-0.014287 -0.203901,-0.0428609 -0.0571479,-0.028574 -0.106625,-0.0710514 -0.148287,-0.127432l0 0.563041 -0.110077 0zm0.48312 -1.49107c-0.0764689,0 -0.145603,0.0197045 -0.207784,0.0594971 -0.0621819,0.0397446 -0.117412,0.0953584 -0.165259,0.166458l0 0.604752c0.0440116,0.0664009 0.0930571,0.113145 0.146705,0.140185 0.053696,0.0270398 0.114727,0.0405597 0.183477,0.0405597 0.0679351,0 0.127432,-0.0123693 0.178395,-0.0371078 0.0509633,-0.0246906 0.0938722,-0.0598327 0.128247,-0.105043 0.0343271,-0.0451622 0.0602163,-0.0992418 0.0776195,-0.162191 0.0173553,-0.062949 0.0258412,-0.132083 0.0258412,-0.207737 0,-0.171492 -0.0312588,-0.297773 -0.0942078,-0.378461 -0.062949,-0.0807358 -0.154088,-0.120912 -0.273035,-0.120912z"/>
   <path id="_4013111212345678910111213141516" class="fil3" d="M21.8067 12.7887c0.0563808,0 0.107776,-0.00311629 0.154088,-0.00886943 0.0463608,-0.00580109 0.0896052,-0.014287 0.129398,-0.0258892 0.0397926,-0.0116022 0.0776195,-0.0258892 0.113529,-0.0424774 0.0359092,-0.0165882 0.0718184,-0.0351421 0.108159,-0.0559973l0 -0.44141 -0.315129 0c-0.00853383,0 -0.0154856,-0.00273274 -0.0212866,-0.00810235 -0.00575315,-0.00541755 -0.00886943,-0.0116022 -0.00886943,-0.0185539l0 -0.0648667 0.453012 0 0 0.582746c-0.0409432,0.028574 -0.0834206,0.0540796 -0.127432,0.0764689 -0.0440595,0.0223893 -0.0911394,0.0409432 -0.141336,0.0559973 -0.0502441,0.0150541 -0.104276,0.0266562 -0.162239,0.0347586 -0.057915,0.00810235 -0.121248,0.0123693 -0.189998,0.0123693 -0.118179,0 -0.225907,-0.0200881 -0.323614,-0.0598807 -0.0977076,-0.0397926 -0.181512,-0.0961734 -0.251412,-0.169142 -0.0699007,-0.0729691 -0.124364,-0.16104 -0.162958,-0.264549 -0.038642,-0.103509 -0.057915,-0.218572 -0.057915,-0.345237 0,-0.126665 0.019273,-0.241776 0.057915,-0.344853 0.038594,-0.103125 0.0934407,-0.191196 0.164492,-0.264165 0.0710514,-0.073017 0.157588,-0.129398 0.259131,-0.169142 0.101591,-0.0397926 0.21512,-0.0594971 0.341018,-0.0594971 0.0625655,0 0.12048,0.00426692 0.173409,0.0127528 0.052881,0.00848589 0.101927,0.0208552 0.14752,0.0374434 0.0455457,0.0166362 0.0880231,0.0371078 0.127432,0.0614148 0.039409,0.024355 0.077236,0.0525454 0.113529,0.0841877l-0.0312588 0.0509633c-0.00695172,0.0116022 -0.0166362,0.0174033 -0.0289575,0.0174033 -0.00695172,0 -0.0135199,-0.00153417 -0.0197045,-0.00465046 -0.0116022,-0.00460252 -0.0281904,-0.0154376 -0.0501962,-0.0324094 -0.0220058,-0.0170197 -0.0517783,-0.0347586 -0.0892217,-0.0533125 -0.0374434,-0.0185539 -0.0845712,-0.0351421 -0.140952,-0.0498127 -0.0563808,-0.0146705 -0.124747,-0.0220058 -0.205052,-0.0220058 -0.106625,0 -0.20275,0.0169718 -0.28852,0.0509633 -0.0857219,0.0339915 -0.158691,0.0826535 -0.219339,0.145986 -0.0606477,0.0633325 -0.107344,0.140569 -0.140185,0.231708 -0.0328409,0.0911394 -0.0494291,0.193497 -0.0494291,0.307026 0,0.11583 0.0165882,0.219722 0.0498127,0.311629 0.0332244,0.0919065 0.0799208,0.169574 0.139801,0.23329 0.0598807,0.0637161 0.131699,0.112762 0.215503,0.146753 0.0838042,0.0339436 0.176094,0.0509633 0.277254,0.0509633z"/>
   <path id="_401311121234567891011121314151617" class="fil3" d="M22.8092 12.8663l0 -1.15279 0.057915 0c0.0131363,0 0.0227729,0.00273274 0.028574,0.00810235 0.00580109,0.00541755 0.00886943,0.0147185 0.00968446,0.0278069l0.00925298 0.24331c0.0370598,-0.0934407 0.086489,-0.166841 0.148287,-0.219722 0.0617984,-0.0529289 0.137884,-0.0791537 0.228256,-0.0791537 0.0347586,0 0.0667844,0.00345189 0.0961255,0.0107871 0.029389,0.00733526 0.0571959,0.0181704 0.0834206,0.0320738l-0.0150541 0.0764689c-0.00230126,0.0123213 -0.0100201,0.018506 -0.0231564,0.018506 -0.00465046,0 -0.0112186,-0.00153417 -0.0197045,-0.00460252 -0.00848589,-0.00311629 -0.0189374,-0.00656817 -0.0316423,-0.0104515 -0.0127528,-0.00383543 -0.0286219,-0.00733526 -0.0471279,-0.0104036 -0.0185539,-0.00311629 -0.0397926,-0.00465046 -0.0637161,-0.00465046 -0.087304,0 -0.158739,0.0270398 -0.214736,0.0810714 -0.0559973,0.0540796 -0.101591,0.132083 -0.136302,0.234057l0 0.749587 -0.110077 0z"/>
   <path id="_40131112123456789101112131415161718" class="fil3" d="M24.1963 11.695c0.0826056,0 0.156773,0.0139034 0.222023,0.0420939 0.0652982,0.0281904 0.120097,0.0683186 0.164924,0.120097 0.0447787,0.0517304 0.0791537,0.113912 0.102694,0.186929 0.0235879,0.0729691 0.0351901,0.154856 0.0351901,0.245228 0,0.0903244 -0.0116022,0.171827 -0.0351901,0.244461 -0.02354,0.0725855 -0.057915,0.134767 -0.102694,0.186498 -0.0448266,0.0517783 -0.0996253,0.091523 -0.164924,0.11933 -0.0652503,0.0278069 -0.139418,0.0417103 -0.222023,0.0417103 -0.0826535,0 -0.156438,-0.0139034 -0.221688,-0.0417103 -0.0652503,-0.0278069 -0.12048,-0.0675515 -0.165691,-0.11933 -0.0451622,-0.0517304 -0.0795372,-0.113912 -0.103125,-0.186498 -0.02354,-0.0726335 -0.0355257,-0.154136 -0.0355257,-0.244461 0,-0.0903723 0.0119857,-0.172259 0.0355257,-0.245228 0.0235879,-0.073017 0.0579629,-0.135199 0.103125,-0.186929 0.0452101,-0.0517783 0.10044,-0.0919065 0.165691,-0.120097 0.0652503,-0.0281904 0.139034,-0.0420939 0.221688,-0.0420939zm0 1.09947c0.0687021,0 0.128966,-0.0119857 0.180313,-0.0355257 0.0513948,-0.0235879 0.0942557,-0.0571959 0.128631,-0.101207 0.034375,-0.0440116 0.0598327,-0.0973241 0.0768524,-0.159506 0.0169718,-0.062134 0.0254577,-0.131651 0.0254577,-0.208887 0,-0.0764689 -0.00848589,-0.145986 -0.0254577,-0.208552 -0.0170197,-0.0625655 -0.0424774,-0.116261 -0.0768524,-0.160657 -0.034375,-0.0444431 -0.077236,-0.0783866 -0.128631,-0.102358 -0.0513468,-0.0239235 -0.111611,-0.0359092 -0.180313,-0.0359092 -0.0687501,0 -0.128631,0.0119857 -0.179978,0.0359092 -0.0513948,0.0239714 -0.0942557,0.057915 -0.128631,0.102358 -0.0343271,0.0443951 -0.0602163,0.0980911 -0.0776195,0.160657 -0.0173553,0.0625655 -0.0262248,0.132083 -0.0262248,0.208552 0,0.077236 0.00886943,0.146753 0.0262248,0.208887 0.0174033,0.0621819 0.0432924,0.115494 0.0776195,0.159506 0.034375,0.0440116 0.077236,0.0776195 0.128631,0.101207 0.0513468,0.02354 0.111227,0.0355257 0.179978,0.0355257z"/>
   <path id="_4013111212345678910111213141516171819" class="fil3" d="M25.1211 11.7135l0 0.736882c0,0.108111 0.0246906,0.192682 0.0741197,0.254097 0.0494291,0.0614148 0.124747,0.09229 0.225907,0.09229 0.0749347,0 0.144835,-0.019321 0.209702,-0.0575315 0.0649147,-0.0382584 0.123213,-0.0911394 0.174944,-0.159122l0 -0.866616 0.111227 0 0 1.15279 -0.0614148 0c-0.0216222,0 -0.0327929,-0.0100201 -0.03356,-0.0301081l-0.0104515 -0.171492c-0.0532645,0.0664488 -0.114679,0.119713 -0.18458,0.15989 -0.0699007,0.0401761 -0.147904,0.0602642 -0.233674,0.0602642 -0.0640996,0 -0.120097,-0.010068 -0.167992,-0.0301561 -0.047847,-0.0200881 -0.0876396,-0.0490456 -0.11933,-0.0868725 -0.0316423,-0.0378269 -0.0556137,-0.0834206 -0.0718184,-0.136733 -0.0162047,-0.0532645 -0.024307,-0.113529 -0.024307,-0.180697l0 -0.736882 0.111227 0z"/>
   <path id="_401311121234567891011121314151617181920" class="fil3" d="M26.3205 13.2741l0 -1.56059 0.0602163 0c0.010068,0 0.0181704,0.00196566 0.024355,0.00618463 0.00618463,0.00426692 0.00963652,0.0119857 0.0104036,0.0227729l0.0104515 0.178443c0.0509633,-0.0695172 0.110844,-0.124747 0.179163,-0.165691 0.0683665,-0.0409432 0.144835,-0.0613669 0.22979,-0.0613669 0.142151,0 0.252563,0.0490456 0.331381,0.147137 0.0787702,0.0980911 0.118179,0.245228 0.118179,0.44141 0,0.0841877 -0.0108351,0.162574 -0.0328409,0.235543 -0.0220058,0.073017 -0.0544631,0.13635 -0.0969405,0.189998 -0.0424774,0.053696 -0.0946392,0.0961734 -0.156773,0.127097 -0.0621819,0.0308752 -0.134048,0.0463128 -0.21512,0.0463128 -0.0787702,0 -0.146753,-0.014287 -0.203901,-0.0428609 -0.0571479,-0.028574 -0.106625,-0.0710514 -0.148287,-0.127432l0 0.563041 -0.110077 0zm0.48312 -1.49107c-0.0764689,0 -0.145603,0.0197045 -0.207784,0.0594971 -0.0621819,0.0397446 -0.117412,0.0953584 -0.165259,0.166458l0 0.604752c0.0440116,0.0664009 0.0930571,0.113145 0.146705,0.140185 0.053696,0.0270398 0.114727,0.0405597 0.183477,0.0405597 0.0679351,0 0.127432,-0.0123693 0.178395,-0.0371078 0.0509633,-0.0246906 0.0938722,-0.0598327 0.128247,-0.105043 0.0343271,-0.0451622 0.0602163,-0.0992418 0.0776195,-0.162191 0.0173553,-0.062949 0.0258412,-0.132083 0.0258412,-0.207737 0,-0.171492 -0.0312588,-0.297773 -0.0942078,-0.378461 -0.062949,-0.0807358 -0.154088,-0.120912 -0.273035,-0.120912z"/>
  </g>
 </g>
</svg>
