<?xml version="1.0" encoding="UTF-8"?>
<!DOCTYPE svg PUBLIC "-//W3C//DTD SVG 1.1//EN" "http://www.w3.org/Graphics/SVG/1.1/DTD/svg11.dtd">
<!-- Creator: CorelDRAW -->
<svg xmlns="http://www.w3.org/2000/svg" xml:space="preserve" width="91.8994mm" height="35.922mm" style="shape-rendering:geometricPrecision; text-rendering:geometricPrecision; image-rendering:optimizeQuality; fill-rule:evenodd; clip-rule:evenodd"
viewBox="0 0 44.6724 17.4617"
 xmlns:xlink="http://www.w3.org/1999/xlink">
 <defs>
  <style type="text/css">
   <![CDATA[
    .str0 {stroke:#19B698;stroke-width:1.21525}
    .fil1 {fill:none}
    .fil2 {fill:#606062;fill-rule:nonzero}
    .fil0 {fill:#34495E;fill-rule:nonzero}
   ]]>
  </style>
 </defs>
 <g id="Camada_x0020_1">
  <metadata id="CorelCorpID_0Corel-Layer"/>
  <g id="_84606976">
   <polygon id="_201949464" class="fil0" points="4.53464,5.51146 4.53464,4.4362 0.59839,4.4362 0.59839,10.6912 1.95408,10.6912 1.95408,7.97978 4.31026,7.97978 4.31026,6.93262 1.95408,6.93262 1.95408,5.51146 "/>
   <polygon id="_2019494641" class="fil0" points="6.73182,9.60662 6.73182,7.97978 9.17209,7.97978 9.17209,6.93262 6.73182,6.93262 6.73182,5.52079 9.32171,5.52079 9.32171,4.4362 5.38546,4.4362 5.38546,10.6912 9.40586,10.6912 9.40586,9.60662 "/>
   <polygon id="_20194946412" class="fil0" points="13.8937,9.89492 15.1747,6.21577 15.3242,10.6912 16.5771,10.6912 16.2125,4.4362 14.7539,4.4362 13.3982,8.46282 12.0518,4.4362 10.5933,4.4362 10.2286,10.6912 11.4721,10.6912 11.6217,6.20644 12.912,9.89492 "/>
   <path id="_201949464123" class="fil0" d="M19.8402 10.8034c0.26021,-0.00311105 0.50642,-0.0311591 0.737075,-0.0825885 0.232162,-0.0514295 0.440991,-0.129351 0.629549,-0.233717 0.188559,-0.104414 0.345909,-0.235321 0.475261,-0.394276 0.102859,-0.141796 0.187003,-0.29764 0.250877,-0.464372 0.0654778,-0.166733 0.112192,-0.35218 0.143351,-0.554738 0.0312077,-0.204162 0.0452074,-0.431658 0.0452074,-0.682534l0 -3.93625 -1.35574 0 0 3.88949c0.00315966,0.247766 -0.00933314,0.45815 -0.0342701,0.63266 -0.0233814,0.173003 -0.0748109,0.311688 -0.152684,0.414498 -0.0623667,0.0981924 -0.157399,0.171448 -0.28364,0.218162 -0.127747,0.0483184 -0.275814,0.0716999 -0.445657,0.0716999 -0.199447,0 -0.358402,-0.0233814 -0.47842,-0.0701443 -0.11997,-0.0467143 -0.210336,-0.116859 -0.269543,-0.210336 -0.077922,-0.10597 -0.127796,-0.24621 -0.152733,-0.419213 -0.024937,-0.172955 -0.0358256,-0.38645 -0.0342701,-0.637327l0 -3.88949 -1.35574 0 0 3.93625c0,0.252432 0.0156038,0.479927 0.0467629,0.68409 0.0311591,0.204114 0.0794775,0.391117 0.143351,0.557849 0.0638736,0.166733 0.143351,0.321021 0.239988,0.459706 0.12624,0.155844 0.283591,0.286751 0.47215,0.392672 0.188559,0.104414 0.398943,0.183892 0.63266,0.236877 0.235321,0.0545405 0.483087,0.081033 0.746456,0.081033z"/>
   <path id="_2019494641234" class="fil0" d="M23.0284 7.54968c0.0108887,0.483087 0.0638736,0.906918 0.16051,1.27004 0.0950327,0.361513 0.22594,0.670041 0.391117,0.924029 0.165177,0.254036 0.356847,0.459706 0.575009,0.617105 0.218162,0.157399 0.453483,0.272703 0.707471,0.344402 0.253988,0.0732068 0.518913,0.109081 0.793171,0.107477 0.333465,-0.00155552 0.673201,-0.0373812 1.01755,-0.107477 0.344402,-0.0716999 0.682534,-0.173003 1.01133,-0.30391l0 -2.89842 -2.1037 0 0 0.981729 0.878919 0 0 1.1594c-0.107525,0.0186663 -0.21194,0.0327146 -0.314799,0.0420477 -0.101303,0.00938175 -0.199447,0.0140483 -0.292973,0.0140483 -0.204114,0.00155552 -0.394228,-0.0343187 -0.568787,-0.107525 -0.176066,-0.0732554 -0.328799,-0.193225 -0.461212,-0.361513 -0.130907,-0.166781 -0.233766,-0.391165 -0.307021,-0.671645 -0.0732068,-0.278925 -0.110637,-0.626438 -0.112192,-1.03783 0.00155552,-0.416054 0.0436519,-0.762012 0.127796,-1.03627 0.0841441,-0.274258 0.201003,-0.490865 0.350625,-0.648264 0.149573,-0.157351 0.322576,-0.267987 0.518913,-0.333465 0.197892,-0.0654292 0.411387,-0.0965882 0.638882,-0.0950327 0.12624,0 0.258703,0.00622209 0.398943,0.0171107 0.14024,0.0124928 0.282036,0.0296035 0.423831,0.0514295 0.141796,0.0233814 0.278925,0.0498739 0.411387,0.081033l0.196336 -0.972347c-0.19167,-0.052985 -0.373957,-0.0981924 -0.548516,-0.134018 -0.17451,-0.0358742 -0.34902,-0.0623667 -0.52669,-0.081033 -0.176066,-0.0187149 -0.363069,-0.028048 -0.56096,-0.028048 -0.272703,-0.00155552 -0.54385,0.0311591 -0.811886,0.0965882 -0.268036,0.0654778 -0.522024,0.173003 -0.760456,0.321021 -0.239988,0.148018 -0.450324,0.347513 -0.635771,0.593724 -0.183892,0.247766 -0.328799,0.551627 -0.434769,0.914696 -0.10597,0.361513 -0.16051,0.788504 -0.162066,1.28092z"/>
   <g>
    <polygon id="_201949296" class="fil1 str0" points="37.1112,0.701638 40.588,2.70885 44.0647,4.7161 44.0647,8.73086 44.0647,12.7456 40.588,14.7529 37.1112,16.7601 33.6343,14.7529 30.1575,12.7456 30.1575,8.73086 30.1575,4.7161 33.6343,2.70885 "/>
    <path id="_201949152" class="fil0" d="M36.7589 10.1053c-0.00155552,-0.216607 -0.0358256,-0.411387 -0.104366,-0.585897 -0.0670333,-0.174559 -0.158955,-0.331958 -0.275814,-0.472198 -0.115352,-0.14024 -0.247814,-0.266432 -0.392721,-0.378673 -0.146462,-0.113748 -0.29764,-0.216558 -0.456594,-0.310084 -0.157351,-0.0934772 -0.311639,-0.182336 -0.462768,-0.263321 -0.188559,-0.0997479 -0.361562,-0.19167 -0.515802,-0.274307 -0.154288,-0.0825885 -0.278973,-0.171399 -0.370895,-0.264876 -0.0919217,-0.0950813 -0.14024,-0.21194 -0.141796,-0.349069 0.00466657,-0.152733 0.0404922,-0.272703 0.107525,-0.363069 0.0685402,-0.0919703 0.16051,-0.155844 0.277369,-0.196336 0.115303,-0.0389853 0.249321,-0.0592557 0.400498,-0.0577002 0.135574,0 0.275814,0.0124928 0.425387,0.0374298 0.148066,0.0233814 0.296084,0.056096 0.447261,0.0965882 0.149573,0.0405408 0.29448,0.0856996 0.436324,0.137129l0.373957 -1.01911c-0.317861,-0.116859 -0.623327,-0.205669 -0.916251,-0.264925 -0.292973,-0.0607626 -0.570342,-0.0903661 -0.832156,-0.0903661 -0.291369,0 -0.559405,0.0389853 -0.804059,0.116859 -0.24621,0.077922 -0.459706,0.188559 -0.640486,0.335069 -0.180732,0.146462 -0.322528,0.322528 -0.422276,0.529801 -0.0997479,0.207273 -0.151177,0.440991 -0.152733,0.701249 0.00155552,0.289813 0.0436519,0.536023 0.124685,0.737075 0.081033,0.201003 0.193225,0.372402 0.336576,0.512642 0.141796,0.138685 0.306973,0.261814 0.493976,0.366228 0.185447,0.104414 0.384895,0.204114 0.596835,0.300751 0.22594,0.101255 0.426991,0.204114 0.603057,0.306973 0.174559,0.104414 0.311688,0.216607 0.412943,0.339687 0.0997479,0.121574 0.151177,0.261814 0.152733,0.419213 -0.00155552,0.166733 -0.0405408,0.300751 -0.116859,0.398894 -0.0763664,0.0981924 -0.180781,0.169892 -0.311688,0.21194 -0.129351,0.0420963 -0.277369,0.0638736 -0.440991,0.0623181 -0.183892,-0.00155552 -0.374006,-0.0217773 -0.571898,-0.0607626 -0.197892,-0.0389367 -0.388006,-0.0872551 -0.570342,-0.146462 -0.183843,-0.0607626 -0.344354,-0.121574 -0.484594,-0.185447l-0.345958 1.11264c0.130907,0.0607626 0.278925,0.116859 0.444102,0.169844 0.166733,0.0514295 0.341291,0.0965882 0.523579,0.135574 0.182336,0.0389367 0.364673,0.0700957 0.54385,0.0919217 0.180781,0.0218259 0.349069,0.0327146 0.508024,0.0327146 0.330354,-0.00155552 0.626438,-0.0467143 0.888203,-0.138685 0.261814,-0.0903661 0.483087,-0.219718 0.666979,-0.38645 0.183843,-0.166733 0.324132,-0.363069 0.42072,-0.590564 0.0966368,-0.229099 0.146462,-0.479976 0.146462,-0.754234z"/>
    <path id="_2019491521" class="fil0" d="M41.303 6.14096c-0.143351,-0.134018 -0.302306,-0.239988 -0.475261,-0.319465 -0.173003,-0.0794775 -0.37245,-0.137129 -0.601501,-0.171399 -0.229099,-0.0358256 -0.498691,-0.052985 -0.811886,-0.0514295l-1.8045 0 0 6.255 1.34635 0 0 -2.28132 0.233766 0c0.347465,0 0.64666,-0.0156038 0.899141,-0.0467629 0.252432,-0.0327146 0.470594,-0.0841441 0.654486,-0.155844 0.185399,-0.0716513 0.350576,-0.165177 0.493976,-0.283591 0.222829,-0.183892 0.384895,-0.409832 0.486149,-0.676312 0.101303,-0.264925 0.151177,-0.559405 0.149622,-0.880426 0.00311105,-0.277369 -0.0405408,-0.531405 -0.127796,-0.762012 -0.0872551,-0.230606 -0.235273,-0.439435 -0.442546,-0.626438zm-1.05654 2.24238c-0.0638736,0.0498739 -0.144907,0.0903661 -0.243099,0.118414 -0.0981438,0.0296035 -0.224384,0.0498739 -0.377068,0.0623667 -0.152733,0.0108887 -0.341291,0.0171107 -0.567231,0.0171107l-0.102859 0 0 -1.99151 0.243099 0c0.218162,-0.00155552 0.411387,0.00938175 0.579675,0.0358742 0.169844,0.024937 0.313243,0.0732068 0.428546,0.144907 0.116859,0.0716999 0.205669,0.17451 0.26648,0.310084 0.0592071,0.135574 0.0903661,0.313243 0.0903661,0.532961 0.00155552,0.177621 -0.0218259,0.33191 -0.0716999,0.459706 -0.0482698,0.127747 -0.130858,0.230606 -0.24621,0.310084z"/>
   </g>
   <polygon id="_201948960" class="fil2" points="1.58493,11.4318 1.58493,11.5316 0.709804,11.5316 0.709804,12.2305 1.46749,12.2305 1.46749,12.3304 0.709804,12.3304 0.709804,13.094 0.588814,13.094 0.588814,11.4318 "/>
   <path id="_2019489601" class="fil2" d="M1.83425 13.094l0 -1.16883 0.058721 0c0.0133192,0 0.0230898,0.00277077 0.0289716,0.0082151 0.00588182,0.00549294 0.00899287,0.0149233 0.00981924,0.0281938l0.00938175 0.246696c0.0375756,-0.094741 0.0876926,-0.169163 0.150351,-0.22278 0.0626584,-0.0536655 0.139803,-0.0802552 0.231433,-0.0802552 0.0352423,0 0.0677138,0.00349993 0.0974632,0.0109373 0.029798,0.00743734 0.0579918,0.0184232 0.0845815,0.0325201l-0.0152636 0.0775331c-0.00233328,0.0124928 -0.0101595,0.0187635 -0.0234787,0.0187635 -0.00471518,0 -0.0113748,-0.00155552 -0.0199787,-0.00466657 -0.00860398,-0.00315966 -0.019201,-0.00665958 -0.0320827,-0.010597 -0.0129303,-0.00388881 -0.0290202,-0.00743734 -0.0477837,-0.0105484 -0.0188121,-0.00315966 -0.0403464,-0.00471518 -0.0646028,-0.00471518 -0.088519,0 -0.160948,0.0274161 -0.217725,0.0821996 -0.0567766,0.0548322 -0.103005,0.133921 -0.138198,0.237314l0 0.760019 -0.111609 0z"/>
   <path id="_20194896012" class="fil2" d="M3.24064 11.9064c0.0837552,0 0.158955,0.0140969 0.225113,0.0426797 0.0662069,0.0285827 0.121768,0.0692694 0.167219,0.121768 0.0454018,0.0524503 0.0802552,0.115498 0.104123,0.189531 0.0239162,0.0739845 0.0356798,0.157011 0.0356798,0.248641 0,0.0915814 -0.0117636,0.174219 -0.0356798,0.247863 -0.0238675,0.0735957 -0.058721,0.136643 -0.104123,0.189093 -0.0454504,0.0524989 -0.101012,0.0927966 -0.167219,0.12099 -0.0661583,0.0281938 -0.141358,0.0422908 -0.225113,0.0422908 -0.0838038,0 -0.158615,-0.0140969 -0.224773,-0.0422908 -0.0661583,-0.0281938 -0.122157,-0.0684916 -0.167996,-0.12099 -0.0457907,-0.0524503 -0.0806441,-0.115498 -0.10456,-0.189093 -0.0238675,-0.0736443 -0.0360201,-0.156281 -0.0360201,-0.247863 0,-0.09163 0.0121525,-0.174656 0.0360201,-0.248641 0.0239162,-0.0740332 0.0587696,-0.13708 0.10456,-0.189531 0.0458393,-0.0524989 0.101838,-0.0931855 0.167996,-0.121768 0.0661583,-0.0285827 0.140969,-0.0426797 0.224773,-0.0426797zm0 1.11477c0.0696582,0 0.130761,-0.0121525 0.182823,-0.0360201 0.05211,-0.0239162 0.0955674,-0.0579918 0.130421,-0.102616 0.0348534,-0.0446241 0.0606654,-0.0986785 0.077922,-0.161726 0.017208,-0.0629987 0.025812,-0.133483 0.025812,-0.211794 0,-0.0775331 -0.00860398,-0.148018 -0.025812,-0.211454 -0.0172566,-0.0634362 -0.0430685,-0.117879 -0.077922,-0.162892 -0.0348534,-0.0450615 -0.0783108,-0.0794775 -0.130421,-0.103783 -0.0520614,-0.0242564 -0.113164,-0.036409 -0.182823,-0.036409 -0.0697069,0 -0.130421,0.0121525 -0.182482,0.036409 -0.05211,0.024305 -0.0955674,0.058721 -0.130421,0.103783 -0.0348048,0.0450129 -0.0610543,0.0994562 -0.0786997,0.162892 -0.0175968,0.0634362 -0.0265897,0.133921 -0.0265897,0.211454 0,0.0783108 0.00899287,0.148795 0.0265897,0.211794 0.0176455,0.0630473 0.0438949,0.117102 0.0786997,0.161726 0.0348534,0.0446241 0.0783108,0.0786997 0.130421,0.102616 0.0520614,0.0238675 0.112775,0.0360201 0.182482,0.0360201z"/>
   <path id="_201948960123" class="fil2" d="M4.09491 13.094l0 -1.16883 0.0610543 0c0.0203676,0 0.0321313,0.00981924 0.0352423,0.0293605l0.010597 0.176212c0.053228,-0.067325 0.115498,-0.121768 0.186371,-0.162892 0.0708735,-0.0410755 0.149573,-0.0614431 0.236488,-0.0614431 0.0642139,0 0.12099,0.0101595 0.169941,0.0305271 0.0489504,0.0203676 0.0892967,0.0497281 0.121379,0.0880815 0.0321313,0.038402 0.0563877,0.0845815 0.0728665,0.138636 0.0164302,0.0540544 0.0246453,0.115109 0.0246453,0.18326l0 0.747088 -0.11156 0 0 -0.747088c0,-0.109664 -0.0250828,-0.195801 -0.0751998,-0.258071 -0.050117,-0.0622209 -0.126872,-0.0931855 -0.230266,-0.0931855 -0.0767067,0 -0.147969,0.0195899 -0.213787,0.0591585 -0.0657694,0.03952 -0.12449,0.0939633 -0.176163,0.162892l0 0.876294 -0.111609 0z"/>
   <path id="_2019489601234" class="fil2" d="M5.71392 13.1128c-0.0790886,0 -0.14058,-0.0219231 -0.184816,-0.065818 -0.0442352,-0.0438463 -0.0665958,-0.11156 -0.0665958,-0.20319l0 -0.798809 -0.167948 0c-0.00860398,0 -0.0156524,-0.00233328 -0.0211454,-0.00704846 -0.00549294,-0.00466657 -0.0082151,-0.0113261 -0.0082151,-0.0199787l0 -0.0434574 0.19969 -0.0140969 0.0281938 -0.418193c0.000777761,-0.00704846 0.00388881,-0.0133192 0.00899287,-0.0187635 0.00510406,-0.00549294 0.0117636,-0.0082151 0.0203676,-0.0082151l0.0528392 0 0 0.446338 0.367687 0 0 0.0834149 -0.367687 0 0 0.792928c0,0.0320827 0.0043263,0.0594987 0.0125414,0.0826371 0.0082151,0.0230898 0.0195899,0.0422908 0.0340757,0.0571655 0.0144858,0.0148747 0.0313049,0.025812 0.0508948,0.0328604 0.0195899,0.00704846 0.0407352,0.010597 0.0634362,0.010597 0.0281938,0 0.0524503,-0.0043263 0.0728179,-0.0125414 0.0203676,-0.0082151 0.0380131,-0.017208 0.0528878,-0.0270272 0.0148747,-0.00977063 0.0269786,-0.0187635 0.036409,-0.0270272 0.00938175,-0.0082151 0.0168191,-0.0121039 0.022312,-0.0121039 0.0062707,0 0.0125414,0.00388881 0.0188121,0.011715l0.0305271 0.0493392c-0.0297494,0.032909 -0.0673736,0.0591585 -0.113164,0.0790886 -0.0457907,0.0199787 -0.0935744,0.0301869 -0.142914,0.0301869z"/>
   <polygon id="_20194896012345" class="fil2" points="6.18763,12.3492 6.73386,12.3492 6.73386,12.4443 6.18763,12.4443 "/>
   <polygon id="_201948960123456" class="fil2" points="8.1226,11.4318 8.1226,11.5316 7.24747,11.5316 7.24747,12.2036 7.97575,12.2036 7.97575,12.301 7.24747,12.301 7.24747,12.9941 8.1226,12.9941 8.1226,13.094 7.12648,13.094 7.12648,11.4318 "/>
   <path id="_2019489601234567" class="fil2" d="M8.48708 13.094l0 -1.16883 0.0610543 0c0.0203676,0 0.0321313,0.00981924 0.0352423,0.0293605l0.010597 0.176212c0.053228,-0.067325 0.115498,-0.121768 0.186371,-0.162892 0.0708735,-0.0410755 0.149573,-0.0614431 0.236488,-0.0614431 0.0642139,0 0.12099,0.0101595 0.169941,0.0305271 0.0489504,0.0203676 0.0892967,0.0497281 0.121379,0.0880815 0.0321313,0.038402 0.0563877,0.0845815 0.0728665,0.138636 0.0164302,0.0540544 0.0246453,0.115109 0.0246453,0.18326l0 0.747088 -0.11156 0 0 -0.747088c0,-0.109664 -0.0250828,-0.195801 -0.0751998,-0.258071 -0.050117,-0.0622209 -0.126872,-0.0931855 -0.230266,-0.0931855 -0.0767067,0 -0.147969,0.0195899 -0.213787,0.0591585 -0.0657694,0.03952 -0.12449,0.0939633 -0.176163,0.162892l0 0.876294 -0.111609 0z"/>
   <path id="_20194896012345678" class="fil2" d="M10.6147 13.094c-0.0195413,0 -0.030916,-0.0101595 -0.0340271,-0.0305271l-0.0117636 -0.184427c-0.0516725,0.0704846 -0.111998,0.126483 -0.181316,0.167948 -0.0692694,0.041513 -0.147191,0.0622695 -0.233328,0.0622695 -0.143351,0 -0.254911,-0.0497281 -0.335215,-0.149184 -0.0802552,-0.0994562 -0.120602,-0.248641 -0.120602,-0.447553 0,-0.0853593 0.0113748,-0.165226 0.0336868,-0.239259 0.022312,-0.0739845 0.0552211,-0.138198 0.0986785,-0.192642 0.0434574,-0.0543947 0.0967341,-0.0970743 0.159781,-0.128428 0.0629987,-0.0313049 0.135476,-0.0469573 0.217676,-0.0469573 0.0790886,0 0.147629,0.0144858 0.205572,0.0438463 0.0579432,0.0293605 0.10806,0.072429 0.150351,0.128817l0 -0.693083 0.112775 0 0 1.70918 -0.0622695 0zm-0.428741 -0.0751998c0.0775331,0 0.147629,-0.0199301 0.210287,-0.0598876 0.0626584,-0.0399575 0.118609,-0.0955188 0.167948,-0.16683l0 -0.616667c-0.0454018,-0.0665958 -0.0951299,-0.113553 -0.149573,-0.140969 -0.0543947,-0.0274161 -0.116275,-0.0411241 -0.185204,-0.0411241 -0.0689291,0 -0.129206,0.0125414 -0.180878,0.0375756 -0.0517211,0.0250828 -0.0947897,0.0603251 -0.129643,0.106116 -0.0348048,0.0458393 -0.0610543,0.100623 -0.0786997,0.164448 -0.0175968,0.063825 -0.0265897,0.13431 -0.0265897,0.211065 0,0.173878 0.0320827,0.301528 0.0962966,0.383339 0.0642139,0.0818594 0.156233,0.122935 0.276057,0.122935z"/>
   <path id="_201948960123456789" class="fil2" d="M12.4064 12.61c0.0117636,0.0219231 0.0219231,0.0454018 0.0305757,0.0704846 0.00466657,-0.0125414 0.00977063,-0.0250828 0.0148747,-0.0371867 0.00505545,-0.0121525 0.0105484,-0.0235273 0.0168191,-0.0344645l0.653125 -1.15473c0.0062707,-0.0101595 0.0125414,-0.0164302 0.0188121,-0.0188121 0.0062707,-0.00233328 0.0148747,-0.00349993 0.025812,-0.00349993l0.0834149 0 0 1.66217 -0.105727 0 0 -1.41669c0,-0.020319 0.00116664,-0.0418533 0.00354854,-0.0646028l-0.654292 1.16178c-0.0109859,0.0203676 -0.0266383,0.0305271 -0.0470059,0.0305271l-0.0188121 0c-0.0195413,0 -0.0352423,-0.0101595 -0.0469573,-0.0305271l-0.671937 -1.16295c0.00233328,0.0227009 0.00349993,0.0446241 0.00349993,0.0657694l0 1.41669 -0.104512 0 0 -1.66217 0.0821996 0c0.0109859,0 0.0199787,0.00116664 0.0266383,0.00349993 0.00665958,0.00238189 0.0129303,0.00865259 0.019201,0.0188121l0.670722 1.1559z"/>
   <path id="_20194896012345678910" class="fil2" d="M14.1558 11.9064c0.0657694,0 0.126872,0.0113261 0.182871,0.0340271 0.0559988,0.0227495 0.104512,0.0556099 0.145636,0.0990673 0.0411241,0.043506 0.0732068,0.0971229 0.0963452,0.160559 0.0230898,0.0634362 0.0344645,0.136254 0.0344645,0.218502 0,0.017208 -0.00238189,0.0289716 -0.00743734,0.0352423 -0.00510406,0.0062707 -0.0133192,0.00938175 -0.024305,0.00938175l-0.8446 0 0 0.022312c0,0.0877412 0.0102081,0.164837 0.0305271,0.231433 0.0203676,0.0665472 0.0493392,0.122157 0.0869634,0.16717 0.0375756,0.0450615 0.0829774,0.0791372 0.136254,0.101838 0.053228,0.0227009 0.112775,0.0340757 0.178545,0.0340757 0.058721,0 0.109616,-0.00665958 0.152733,-0.0195899 0.0430685,-0.0129303 0.0794775,-0.0274161 0.108838,-0.0434574 0.0293605,-0.0160899 0.0524503,-0.0305757 0.0697069,-0.0434574 0.017208,-0.0129303 0.0297494,-0.019201 0.0375756,-0.019201 0.0101595,0 0.0180343,0.00388881 0.0234787,0.0117636l0.0305757 0.0375756c-0.0188121,0.0234787 -0.043506,0.0454018 -0.074422,0.0657694 -0.030916,0.0203676 -0.0653806,0.0375756 -0.103345,0.0520614 -0.0380131,0.0144858 -0.0787483,0.0262494 -0.122206,0.0348534 -0.0434574,0.00865259 -0.0873037,0.0129303 -0.13115,0.0129303 -0.0798664,0 -0.152733,-0.0140969 -0.218502,-0.0419019 -0.0657694,-0.027805 -0.122157,-0.0681027 -0.169163,-0.121379 -0.0469573,-0.053228 -0.0829774,-0.118657 -0.108449,-0.195753 -0.0254717,-0.0771442 -0.0383534,-0.165274 -0.0383534,-0.264731 0,-0.0838038 0.0121039,-0.161288 0.0360201,-0.232162 0.0238675,-0.0708735 0.0583321,-0.131976 0.103345,-0.18326 0.0450615,-0.0512836 0.100234,-0.0912411 0.165663,-0.120213 0.0653806,-0.0289716 0.139365,-0.0434574 0.222391,-0.0434574zm0.00116664 0.0833663c-0.0602765,0 -0.114331,0.00943036 -0.162115,0.0281938 -0.0477837,0.0188121 -0.0888592,0.0458393 -0.123713,0.0810816 -0.0348534,0.0352423 -0.0630473,0.0775331 -0.0845815,0.126872 -0.0215343,0.0493392 -0.0360201,0.104512 -0.0430685,0.165615l0.770567 0c0,-0.0626584 -0.00860398,-0.119046 -0.025812,-0.168774 -0.0172566,-0.0497281 -0.041513,-0.09163 -0.0728665,-0.126095 -0.0313049,-0.0344159 -0.0688805,-0.0610543 -0.112727,-0.0794775 -0.0438949,-0.0183746 -0.0924078,-0.0274161 -0.145684,-0.0274161z"/>
   <path id="_2019489601234567891011" class="fil2" d="M15.3848 11.9064c0.0657694,0 0.126872,0.0113261 0.182871,0.0340271 0.0559988,0.0227495 0.104512,0.0556099 0.145636,0.0990673 0.0411241,0.043506 0.0732068,0.0971229 0.0963452,0.160559 0.0230898,0.0634362 0.0344645,0.136254 0.0344645,0.218502 0,0.017208 -0.00238189,0.0289716 -0.00743734,0.0352423 -0.00510406,0.0062707 -0.0133192,0.00938175 -0.024305,0.00938175l-0.8446 0 0 0.022312c0,0.0877412 0.0102081,0.164837 0.0305271,0.231433 0.0203676,0.0665472 0.0493392,0.122157 0.0869634,0.16717 0.0375756,0.0450615 0.0829774,0.0791372 0.136254,0.101838 0.053228,0.0227009 0.112775,0.0340757 0.178545,0.0340757 0.058721,0 0.109616,-0.00665958 0.152733,-0.0195899 0.0430685,-0.0129303 0.0794775,-0.0274161 0.108838,-0.0434574 0.0293605,-0.0160899 0.0524503,-0.0305757 0.0697069,-0.0434574 0.017208,-0.0129303 0.0297494,-0.019201 0.0375756,-0.019201 0.0101595,0 0.0180343,0.00388881 0.0234787,0.0117636l0.0305757 0.0375756c-0.0188121,0.0234787 -0.043506,0.0454018 -0.074422,0.0657694 -0.030916,0.0203676 -0.0653806,0.0375756 -0.103345,0.0520614 -0.0380131,0.0144858 -0.0787483,0.0262494 -0.122206,0.0348534 -0.0434574,0.00865259 -0.0873037,0.0129303 -0.13115,0.0129303 -0.0798664,0 -0.152733,-0.0140969 -0.218502,-0.0419019 -0.0657694,-0.027805 -0.122157,-0.0681027 -0.169163,-0.121379 -0.0469573,-0.053228 -0.0829774,-0.118657 -0.108449,-0.195753 -0.0254717,-0.0771442 -0.0383534,-0.165274 -0.0383534,-0.264731 0,-0.0838038 0.0121039,-0.161288 0.0360201,-0.232162 0.0238675,-0.0708735 0.0583321,-0.131976 0.103345,-0.18326 0.0450615,-0.0512836 0.100234,-0.0912411 0.165663,-0.120213 0.0653806,-0.0289716 0.139365,-0.0434574 0.222391,-0.0434574zm0.00116664 0.0833663c-0.0602765,0 -0.114331,0.00943036 -0.162115,0.0281938 -0.0477837,0.0188121 -0.0888592,0.0458393 -0.123713,0.0810816 -0.0348534,0.0352423 -0.0630473,0.0775331 -0.0845815,0.126872 -0.0215343,0.0493392 -0.0360201,0.104512 -0.0430685,0.165615l0.770567 0c0,-0.0626584 -0.00860398,-0.119046 -0.025812,-0.168774 -0.0172566,-0.0497281 -0.041513,-0.09163 -0.0728665,-0.126095 -0.0313049,-0.0344159 -0.0688805,-0.0610543 -0.112727,-0.0794775 -0.0438949,-0.0183746 -0.0924078,-0.0274161 -0.145684,-0.0274161z"/>
   <path id="_201948960123456789101112" class="fil2" d="M16.4929 13.1128c-0.0790886,0 -0.14058,-0.0219231 -0.184816,-0.065818 -0.0442352,-0.0438463 -0.0665958,-0.11156 -0.0665958,-0.20319l0 -0.798809 -0.167948 0c-0.00860398,0 -0.0156524,-0.00233328 -0.0211454,-0.00704846 -0.00549294,-0.00466657 -0.0082151,-0.0113261 -0.0082151,-0.0199787l0 -0.0434574 0.19969 -0.0140969 0.0281938 -0.418193c0.000777761,-0.00704846 0.00388881,-0.0133192 0.00899287,-0.0187635 0.00510406,-0.00549294 0.0117636,-0.0082151 0.0203676,-0.0082151l0.0528392 0 0 0.446338 0.367687 0 0 0.0834149 -0.367687 0 0 0.792928c0,0.0320827 0.0043263,0.0594987 0.0125414,0.0826371 0.0082151,0.0230898 0.0195899,0.0422908 0.0340757,0.0571655 0.0144858,0.0148747 0.0313049,0.025812 0.0508948,0.0328604 0.0195899,0.00704846 0.0407352,0.010597 0.0634362,0.010597 0.0281938,0 0.0524503,-0.0043263 0.0728179,-0.0125414 0.0203676,-0.0082151 0.0380131,-0.017208 0.0528878,-0.0270272 0.0148747,-0.00977063 0.0269786,-0.0187635 0.036409,-0.0270272 0.00938175,-0.0082151 0.0168191,-0.0121039 0.022312,-0.0121039 0.0062707,0 0.0125414,0.00388881 0.0188121,0.011715l0.0305271 0.0493392c-0.0297494,0.032909 -0.0673736,0.0591585 -0.113164,0.0790886 -0.0457907,0.0199787 -0.0935744,0.0301869 -0.142914,0.0301869z"/>
   <polygon id="_20194896012345678910111213" class="fil2" points="16.9666,12.3492 17.5128,12.3492 17.5128,12.4443 16.9666,12.4443 "/>
   <path id="_2019489601234567891011121314" class="fil2" d="M18.5198 13.0082c0.079915,0 0.151566,-0.0140969 0.214614,-0.0419019 0.0629987,-0.027805 0.116275,-0.0661583 0.160122,-0.115498 0.0438463,-0.0493392 0.0775331,-0.107671 0.100623,-0.174656 0.0231384,-0.0669361 0.0344645,-0.138976 0.0344645,-0.216509l0 -1.02786 0.119824 0 0 1.02786c0,0.09163 -0.0144858,0.176989 -0.0434574,0.256467 -0.0289716,0.0794775 -0.0704846,0.148795 -0.124928,0.207905 -0.0543947,0.0591099 -0.120602,0.105727 -0.198524,0.139414 -0.077922,0.0336382 -0.165615,0.0505059 -0.262737,0.0505059 -0.0970743,0 -0.184427,-0.0168677 -0.262349,-0.0505059 -0.077922,-0.0336868 -0.14408,-0.0803039 -0.198524,-0.139414 -0.0543947,-0.0591099 -0.0962966,-0.128428 -0.125268,-0.207905 -0.0289716,-0.0794775 -0.0434574,-0.164837 -0.0434574,-0.256467l0 -1.02786 0.12099 0 0 1.02664c0,0.0775331 0.011715,0.149622 0.0348534,0.216558 0.0230898,0.0669361 0.0563877,0.125317 0.0998451,0.174656 0.0434574,0.0493392 0.0966855,0.0880815 0.159733,0.116275 0.0630473,0.0281938 0.13431,0.0422908 0.214176,0.0422908z"/>
   <path id="_201948960123456789101112131415" class="fil2" d="M19.6008 13.5074l0 -1.58231 0.0610543 0c0.0102081,0 0.0184232,0.00199301 0.0246939,0.0062707 0.0062707,0.0043263 0.00977063,0.0121525 0.0105484,0.0230898l0.010597 0.180927c0.0516725,-0.0704846 0.112387,-0.126483 0.181656,-0.167996 0.069318,-0.041513 0.146851,-0.0622209 0.232988,-0.0622209 0.144129,0 0.256078,0.0497281 0.335993,0.149184 0.0798664,0.0994562 0.119824,0.248641 0.119824,0.447553 0,0.0853593 -0.0109859,0.164837 -0.0332979,0.238821 -0.022312,0.0740332 -0.0552211,0.138247 -0.0982896,0.192642 -0.0430685,0.0544433 -0.0959563,0.0975118 -0.158955,0.128865 -0.0630473,0.0313049 -0.135914,0.0469573 -0.218113,0.0469573 -0.0798664,0 -0.148795,-0.0144858 -0.206739,-0.0434574 -0.0579432,-0.0289716 -0.108109,-0.0720401 -0.150351,-0.129206l0 0.570877 -0.111609 0zm0.489844 -1.51182c-0.0775331,0 -0.147629,0.0199787 -0.210676,0.0603251 -0.0630473,0.0402978 -0.119046,0.0966855 -0.167559,0.168774l0 0.613168c0.0446241,0.067325 0.0943522,0.11472 0.148747,0.142136 0.0544433,0.0274161 0.116324,0.0411241 0.186031,0.0411241 0.0688805,0 0.129206,-0.0125414 0.180878,-0.0376242 0.0516725,-0.0250342 0.0951785,-0.0606654 0.130032,-0.106505 0.0348048,-0.0457907 0.0610543,-0.100623 0.0786997,-0.164448 0.0175968,-0.063825 0.0262008,-0.133921 0.0262008,-0.210627 0,-0.173878 -0.0316938,-0.301917 -0.0955188,-0.383728 -0.063825,-0.0818594 -0.156233,-0.122595 -0.276834,-0.122595z"/>
   <path id="_20194896012345678910111213141516" class="fil2" d="M22.1102 13.0153c0.0571655,0 0.109275,-0.00315966 0.156233,-0.00899287 0.0470059,-0.00588182 0.0908522,-0.0144858 0.131199,-0.0262494 0.0403464,-0.0117636 0.0786997,-0.0262494 0.115109,-0.0430685 0.036409,-0.0168191 0.0728179,-0.0356312 0.109664,-0.0567766l0 -0.447553 -0.319514 0c-0.00865259,0 -0.0157011,-0.00277077 -0.0215829,-0.0082151 -0.00583321,-0.00549294 -0.00899287,-0.0117636 -0.00899287,-0.0188121l0 -0.0657694 0.459317 0 0 0.590856c-0.041513,0.0289716 -0.0845815,0.0548322 -0.129206,0.0775331 -0.0446727,0.0227009 -0.0924078,0.041513 -0.143303,0.0567766 -0.0509434,0.0152636 -0.105727,0.0270272 -0.164497,0.0352423 -0.058721,0.0082151 -0.122935,0.0125414 -0.192642,0.0125414 -0.119824,0 -0.229051,-0.0203676 -0.328118,-0.060714 -0.0990673,-0.0403464 -0.184038,-0.0975118 -0.254911,-0.171496 -0.0708735,-0.0739845 -0.126095,-0.163281 -0.165226,-0.26823 -0.0391797,-0.104949 -0.058721,-0.221613 -0.058721,-0.350041 0,-0.128428 0.0195413,-0.245141 0.058721,-0.349652 0.0391311,-0.10456 0.094741,-0.193857 0.166781,-0.267842 0.0720401,-0.0740332 0.159781,-0.131199 0.262737,-0.171496 0.103005,-0.0403464 0.218113,-0.0603251 0.345764,-0.0603251 0.0634362,0 0.122157,0.0043263 0.175823,0.0129303 0.0536169,0.00860398 0.103345,0.0211454 0.149573,0.0379645 0.0461796,0.0168677 0.0892481,0.0376242 0.129206,0.0622695 0.0399575,0.0246939 0.0783108,0.0532766 0.115109,0.0853593l-0.0316938 0.0516725c-0.00704846,0.0117636 -0.0168677,0.0176455 -0.0293605,0.0176455 -0.00704846,0 -0.013708,-0.00155552 -0.0199787,-0.00471518 -0.0117636,-0.00466657 -0.0285827,-0.0156524 -0.0508948,-0.0328604 -0.022312,-0.0172566 -0.0524989,-0.0352423 -0.0904634,-0.0540544 -0.0379645,-0.0188121 -0.0857482,-0.0356312 -0.142914,-0.0505059 -0.0571655,-0.0148747 -0.126483,-0.022312 -0.207905,-0.022312 -0.108109,0 -0.205572,0.017208 -0.292535,0.0516725 -0.0869148,0.0344645 -0.160899,0.0838038 -0.222391,0.148018 -0.0614918,0.0642139 -0.108838,0.142525 -0.142136,0.234933 -0.0332979,0.0924078 -0.050117,0.19619 -0.050117,0.311299 0,0.117442 0.0168191,0.22278 0.0505059,0.315966 0.0336868,0.0931855 0.081033,0.171934 0.141747,0.236537 0.060714,0.0646028 0.133532,0.114331 0.218502,0.148795 0.0849704,0.0344159 0.178545,0.0516725 0.281112,0.0516725z"/>
   <path id="_2019489601234567891011121314151617" class="fil2" d="M23.1266 13.094l0 -1.16883 0.058721 0c0.0133192,0 0.0230898,0.00277077 0.0289716,0.0082151 0.00588182,0.00549294 0.00899287,0.0149233 0.00981924,0.0281938l0.00938175 0.246696c0.0375756,-0.094741 0.0876926,-0.169163 0.150351,-0.22278 0.0626584,-0.0536655 0.139803,-0.0802552 0.231433,-0.0802552 0.0352423,0 0.0677138,0.00349993 0.0974632,0.0109373 0.029798,0.00743734 0.0579918,0.0184232 0.0845815,0.0325201l-0.0152636 0.0775331c-0.00233328,0.0124928 -0.0101595,0.0187635 -0.0234787,0.0187635 -0.00471518,0 -0.0113748,-0.00155552 -0.0199787,-0.00466657 -0.00860398,-0.00315966 -0.019201,-0.00665958 -0.0320827,-0.010597 -0.0129303,-0.00388881 -0.0290202,-0.00743734 -0.0477837,-0.0105484 -0.0188121,-0.00315966 -0.0403464,-0.00471518 -0.0646028,-0.00471518 -0.088519,0 -0.160948,0.0274161 -0.217725,0.0821996 -0.0567766,0.0548322 -0.103005,0.133921 -0.138198,0.237314l0 0.760019 -0.111609 0z"/>
   <path id="_201948960123456789101112131415161718" class="fil2" d="M24.533 11.9064c0.0837552,0 0.158955,0.0140969 0.225113,0.0426797 0.0662069,0.0285827 0.121768,0.0692694 0.167219,0.121768 0.0454018,0.0524503 0.0802552,0.115498 0.104123,0.189531 0.0239162,0.0739845 0.0356798,0.157011 0.0356798,0.248641 0,0.0915814 -0.0117636,0.174219 -0.0356798,0.247863 -0.0238675,0.0735957 -0.058721,0.136643 -0.104123,0.189093 -0.0454504,0.0524989 -0.101012,0.0927966 -0.167219,0.12099 -0.0661583,0.0281938 -0.141358,0.0422908 -0.225113,0.0422908 -0.0838038,0 -0.158615,-0.0140969 -0.224773,-0.0422908 -0.0661583,-0.0281938 -0.122157,-0.0684916 -0.167996,-0.12099 -0.0457907,-0.0524503 -0.0806441,-0.115498 -0.10456,-0.189093 -0.0238675,-0.0736443 -0.0360201,-0.156281 -0.0360201,-0.247863 0,-0.09163 0.0121525,-0.174656 0.0360201,-0.248641 0.0239162,-0.0740332 0.0587696,-0.13708 0.10456,-0.189531 0.0458393,-0.0524989 0.101838,-0.0931855 0.167996,-0.121768 0.0661583,-0.0285827 0.140969,-0.0426797 0.224773,-0.0426797zm0 1.11477c0.0696582,0 0.130761,-0.0121525 0.182823,-0.0360201 0.05211,-0.0239162 0.0955674,-0.0579918 0.130421,-0.102616 0.0348534,-0.0446241 0.0606654,-0.0986785 0.077922,-0.161726 0.017208,-0.0629987 0.025812,-0.133483 0.025812,-0.211794 0,-0.0775331 -0.00860398,-0.148018 -0.025812,-0.211454 -0.0172566,-0.0634362 -0.0430685,-0.117879 -0.077922,-0.162892 -0.0348534,-0.0450615 -0.0783108,-0.0794775 -0.130421,-0.103783 -0.0520614,-0.0242564 -0.113164,-0.036409 -0.182823,-0.036409 -0.0697069,0 -0.130421,0.0121525 -0.182482,0.036409 -0.05211,0.024305 -0.0955674,0.058721 -0.130421,0.103783 -0.0348048,0.0450129 -0.0610543,0.0994562 -0.0786997,0.162892 -0.0175968,0.0634362 -0.0265897,0.133921 -0.0265897,0.211454 0,0.0783108 0.00899287,0.148795 0.0265897,0.211794 0.0176455,0.0630473 0.0438949,0.117102 0.0786997,0.161726 0.0348534,0.0446241 0.0783108,0.0786997 0.130421,0.102616 0.0520614,0.0238675 0.112775,0.0360201 0.182482,0.0360201z"/>
   <path id="_20194896012345678910111213141516171819" class="fil2" d="M25.4707 11.9251l0 0.747137c0,0.109616 0.0250342,0.195364 0.0751512,0.257633 0.050117,0.0622695 0.126483,0.0935744 0.229051,0.0935744 0.0759776,0 0.146851,-0.0195899 0.21262,-0.0583321 0.065818,-0.0387908 0.124928,-0.0924078 0.177378,-0.161337l0 -0.878676 0.112775 0 0 1.16883 -0.0622695 0c-0.0219231,0 -0.0332493,-0.0101595 -0.0340271,-0.0305271l-0.010597 -0.173878c-0.0540058,0.0673736 -0.116275,0.121379 -0.187149,0.162115 -0.0708735,0.0407352 -0.149962,0.0611029 -0.236926,0.0611029 -0.0649917,0 -0.121768,-0.0102081 -0.17033,-0.0305757 -0.0485129,-0.0203676 -0.0888592,-0.0497281 -0.12099,-0.0880815 -0.0320827,-0.0383534 -0.0563877,-0.0845815 -0.0728179,-0.138636 -0.0164302,-0.0540058 -0.0246453,-0.115109 -0.0246453,-0.183211l0 -0.747137 0.112775 0z"/>
   <path id="_2019489601234567891011121314151617181920" class="fil2" d="M26.6868 13.5074l0 -1.58231 0.0610543 0c0.0102081,0 0.0184232,0.00199301 0.0246939,0.0062707 0.0062707,0.0043263 0.00977063,0.0121525 0.0105484,0.0230898l0.010597 0.180927c0.0516725,-0.0704846 0.112387,-0.126483 0.181656,-0.167996 0.069318,-0.041513 0.146851,-0.0622209 0.232988,-0.0622209 0.144129,0 0.256078,0.0497281 0.335993,0.149184 0.0798664,0.0994562 0.119824,0.248641 0.119824,0.447553 0,0.0853593 -0.0109859,0.164837 -0.0332979,0.238821 -0.022312,0.0740332 -0.0552211,0.138247 -0.0982896,0.192642 -0.0430685,0.0544433 -0.0959563,0.0975118 -0.158955,0.128865 -0.0630473,0.0313049 -0.135914,0.0469573 -0.218113,0.0469573 -0.0798664,0 -0.148795,-0.0144858 -0.206739,-0.0434574 -0.0579432,-0.0289716 -0.108109,-0.0720401 -0.150351,-0.129206l0 0.570877 -0.111609 0zm0.489844 -1.51182c-0.0775331,0 -0.147629,0.0199787 -0.210676,0.0603251 -0.0630473,0.0402978 -0.119046,0.0966855 -0.167559,0.168774l0 0.613168c0.0446241,0.067325 0.0943522,0.11472 0.148747,0.142136 0.0544433,0.0274161 0.116324,0.0411241 0.186031,0.0411241 0.0688805,0 0.129206,-0.0125414 0.180878,-0.0376242 0.0516725,-0.0250342 0.0951785,-0.0606654 0.130032,-0.106505 0.0348048,-0.0457907 0.0610543,-0.100623 0.0786997,-0.164448 0.0175968,-0.063825 0.0262008,-0.133921 0.0262008,-0.210627 0,-0.173878 -0.0316938,-0.301917 -0.0955188,-0.383728 -0.063825,-0.0818594 -0.156233,-0.122595 -0.276834,-0.122595z"/>
  </g>
 </g>
</svg>
