<?xml version="1.0" encoding="utf-8"?>
<!-- Generator: Adobe Illustrator 15.0.0, SVG Export Plug-In . SVG Version: 6.00 Build 0)  -->
<!DOCTYPE svg PUBLIC "-//W3C//DTD SVG 1.1//EN" "http://www.w3.org/Graphics/SVG/1.1/DTD/svg11.dtd">
<svg version="1.1" id="Camada_1" xmlns="http://www.w3.org/2000/svg" xmlns:xlink="http://www.w3.org/1999/xlink" x="0px" y="0px"
	 width="1081px" height="560px" viewBox="0 0 1081 560" enable-background="new 0 0 1081 560" xml:space="preserve">
<g>
	<defs>
		<rect id="SVGID_1_" width="1081" height="560"/>
	</defs>
	<clipPath id="SVGID_2_">
		<use xlink:href="#SVGID_1_"  overflow="visible"/>
	</clipPath>
	<path clip-path="url(#SVGID_2_)" fill="#1F742F" d="M712.916,360.965c0,0,5,42.953,33.795,58.586
		c36.604,19.872,79.106,15.963,79.106,15.963L712.916,360.965z"/>
	<path clip-path="url(#SVGID_2_)" fill="#9C332A" d="M751.679,176.702c0,0,58.366-46.197,124.622-43.527
		c26.063,1.05,73.679,28.258,94.828,43.527c55.506,40.074,56.026,59.404,56.396,84.024c0.886,59.152-30.863,106.491-30.863,106.491
		L751.679,176.702z"/>
	<path clip-path="url(#SVGID_2_)" fill="#1F742F" d="M945.597,417.611l51.063-62.959c0,0-5.738,38.344-14.022,47.566
		C975.937,409.68,945.597,417.611,945.597,417.611"/>
	<path clip-path="url(#SVGID_2_)" fill="#1D406B" d="M825.818,435.514c0,0,31.387,21.554,72.492,14.491
		c30.617-5.261,53.017-34.326,53.017-34.326L825.818,435.514z"/>
	<path clip-path="url(#SVGID_2_)" fill="#1D406B" d="M746.918,167.23c0,0-27.067,19.308-33.75,28
		c-32.291,42.003-39.465,115.654-39.465,115.654l10.715,30.097l28.498,19.984l41.752-185.485l-1.5-6.25L746.918,167.23z"/>
	<path clip-path="url(#SVGID_2_)" fill="#2DBEA0" d="M907.734,446.724c-21.008,7.108-50.607,1.692-81.916-11.21
		c-23.148-0.922-60.271-5.24-81.395-17.295c-22.448-12.812-30.971-53.811-31.508-57.254c-17.333-16.725-31.196-34-39.213-50.081
		c-6.152,43.831-2.605,86.555,16.815,104.833c51.639,48.6,238.94,55.043,283.647,0c3.098-3.812,5.916-8.363,8.471-13.498
		c-9.439,5.009-19.996,9.508-31.312,13.46C936.607,430.785,921.488,442.069,907.734,446.724"/>
	<path clip-path="url(#SVGID_2_)" fill="#F79A4B" d="M983.418,148.543c-20.748-17.896-62.854-21.277-107.117-15.369
		c66.112,22.909,144.645,78.995,150.334,124.89c3.076,24.834-9.932,61.785-29.974,96.587c-2.979,18.248-7.655,34.761-14.023,47.566
		c18.042-9.573,32.001-20.999,39.263-34.021C1049.055,319.508,1025.635,184.957,983.418,148.543"/>
	<path clip-path="url(#SVGID_2_)" fill="#9F57B1" d="M721.689,192.717c7.947-6.914,19.172-12.874,32.525-17.79
		c29.238-19.928,76.785-35.706,122.086-41.752c-24.122-8.359-46.594-12.305-63.269-9.723
		c-55.627,8.615-159.377,117.545-145.266,172.041c1.284,4.959,3.305,10.113,5.937,15.393
		C680.538,262.203,699.342,212.159,721.689,192.717"/>
	<path clip-path="url(#SVGID_2_)" fill="#1A2719" d="M974.006,192.717c-33.297-40.703-153.291-42.333-219.953-17.79
		c-8.007,5.456-14.65,11.221-19.486,17.185c-24.507,30.219-33.885,111.387-21.812,168.854
		c31.113,30.022,73.362,58.256,112.901,74.549c41.002,0.544,87.497-6.557,125.509-19.835c16.43-16.859,32.356-38.489,45.335-61.026
		C1005.879,297.189,998.436,222.582,974.006,192.717"/>
	<path clip-path="url(#SVGID_2_)" fill="#7E8C8D" d="M119.398,236.171H67.345c-4.461,0-8.119,1.426-10.968,4.276
		c-2.854,2.853-4.276,6.506-4.276,10.968v39.04h59.675v3.904H52.103v65.994h-4.647V251.043c0-5.453,1.795-9.975,5.39-13.571
		c3.594-3.593,8.116-5.391,13.572-5.391c23.67,0,41.457,0.25,53.353,0.744L119.398,236.171z"/>
	<path clip-path="url(#SVGID_2_)" fill="#7E8C8D" d="M218.671,356.264l0.372,3.347c-12.147,0.497-30.366,0.743-54.655,0.743
		c-5.456,0-9.98-1.795-13.571-5.391c-3.596-3.594-5.391-8.116-5.391-13.571v-90.349c0-5.453,1.795-9.975,5.391-13.571
		c3.596-3.593,8.116-5.391,13.571-5.391c24.289,0,42.508,0.25,54.655,0.744l-0.372,3.346h-53.354c-4.461,0-8.12,1.426-10.968,4.276
		c-2.852,2.853-4.277,6.506-4.277,10.968v38.296h60.98v3.904h-60.98v47.404c0,4.462,1.427,8.119,4.277,10.969
		c2.849,2.854,6.507,4.275,10.968,4.275H218.671z"/>
	<path clip-path="url(#SVGID_2_)" fill="#7E8C8D" d="M356.053,232.081h7.808c1.859,0,2.789,0.93,2.789,2.789l5.577,125.483h-4.646
		l-5.577-124.183h-4.462l-42.017,111.355c-0.371,1.116-1.179,1.676-2.416,1.676H305.3c-1.24,0-2.044-0.56-2.417-1.676
		l-42.014-111.354h-4.464l-5.575,124.183h-4.648l5.578-125.483c0-1.859,0.93-2.789,2.788-2.789h7.808
		c1.238,0,2.045,0.558,2.417,1.673l35.507,93.881c0.744,1.984,1.827,4.896,3.252,8.738c1.427,3.842,2.513,6.756,3.257,8.733h4.833
		l6.691-17.847l35.321-93.509C354.008,232.639,354.812,232.081,356.053,232.081"/>
	<path clip-path="url(#SVGID_2_)" fill="#7E8C8D" d="M494.36,232.081v80.868c0,17.972-3.315,30.736-9.945,38.296
		c-6.631,7.562-17.879,11.34-33.738,11.34c-15.989,0-27.3-3.778-33.93-11.34c-6.631-7.56-9.943-20.324-9.943-38.296v-80.868h4.646
		v80.868c0,16.606,2.942,28.319,8.831,35.136c5.885,6.814,16.018,10.226,30.396,10.226c14.25,0,24.318-3.407,30.209-10.226
		c5.885-6.814,8.829-18.526,8.829-35.136v-80.868H494.36z"/>
	<path clip-path="url(#SVGID_2_)" fill="#7E8C8D" d="M613.151,285.992v74.36h-3.159l-1.116-16.545
		c-11.647,12.521-24.907,18.775-39.78,18.775c-15.121,0-25.967-5.205-32.533-15.615c-6.569-10.41-9.854-27.328-9.854-50.752
		c0-24.539,3.562-41.734,10.688-51.587c7.125-9.853,19.549-14.78,37.271-14.78c13.882,0,26.027,1.056,36.438,3.162l-1.115,3.346
		c-10.411-1.488-22.187-2.23-35.322-2.23c-16.109,0-27.324,4.587-33.646,13.757c-6.32,9.172-9.481,25.281-9.481,48.333
		c0,21.938,2.911,37.771,8.738,47.498c5.823,9.729,15.552,14.595,29.188,14.595c4.339,0,8.365-0.494,12.084-1.488
		c3.72-0.987,7.345-2.603,10.875-4.833c3.531-2.229,6.229-4.09,8.089-5.575c1.856-1.486,4.521-3.778,7.991-6.878v-53.543H613.151z"
		/>
	<path display="none" clip-path="url(#SVGID_2_)" fill="#FFFFFF" d="M809.235,303.854l-27.327-5.764
		c-9.049-1.859-15.493-5.545-19.335-11.061c-3.843-5.515-5.762-13.414-5.762-23.703c0-7.438,0.743-13.415,2.229-17.94
		c1.487-4.523,4.092-7.901,7.81-10.132c3.719-2.231,7.81-3.687,12.271-4.369c4.462-0.68,10.533-0.959,18.218-0.836
		c13.76,0,26.091,0.993,36.995,2.974l-0.929,8.923c-14.625-0.744-26.463-1.114-35.508-1.114c-6.074,0-10.535,0.156-13.386,0.463
		c-2.854,0.311-5.67,1.208-8.458,2.695c-2.788,1.488-4.646,3.782-5.576,6.879c-0.933,3.1-1.396,7.375-1.396,12.828
		c0,7.685,1.329,13.23,3.996,16.639c2.664,3.41,7.218,5.732,13.664,6.971l26.771,5.577c9.543,1.858,16.267,5.548,20.171,11.062
		c3.903,5.519,5.854,13.543,5.854,24.074c0,7.438-0.807,13.448-2.416,18.032c-1.612,4.587-4.273,8.058-7.995,10.41
		c-3.719,2.354-7.934,3.934-12.642,4.74c-4.712,0.805-10.907,1.209-18.59,1.209c-14.128,0-27.146-0.933-39.04-2.789l0.744-9.108
		c15.365,0.743,28.257,1.115,38.667,1.115c11.274-0.122,18.896-1.673,22.863-4.647c3.969-2.974,5.95-9.354,5.95-19.146
		c0-8.057-1.334-13.758-3.998-17.104C820.42,307.385,815.805,305.094,809.235,303.854"/>
	<path display="none" clip-path="url(#SVGID_2_)" fill="#FFFFFF" d="M867.051,360.367V232.094
		c10.285-0.99,24.601-1.487,42.941-1.487c14.993,0,25.374,2.76,31.141,8.272c5.763,5.517,8.645,15.834,8.645,30.953
		c0,15.123-2.82,25.439-8.457,30.953c-5.643,5.517-15.647,8.271-30.022,8.271c-10.782,0-21.507-0.491-32.16-1.485v52.797H867.051z
		 M879.135,298.461h30.674c10.41-0.121,17.598-2.137,21.564-6.041c3.965-3.904,5.945-11.434,5.945-22.587
		c0-11.276-1.98-18.898-5.945-22.866c-3.971-3.965-11.154-5.949-21.564-5.949c-10.536,0-20.76,0.125-30.674,0.372V298.461z"/>
</g>
<g>
	<path fill="#FFFFFF" d="M803.558,319.341h-48.279l-11.561,36.72h-15.47l37.74-113.22c0.68-2.72,2.55-4.08,5.609-4.08h15.641
		c3.06,0,4.93,1.36,5.609,4.08l37.74,113.22h-15.47L803.558,319.341z M799.478,306.421l-14.79-46.581
		c-1.02-2.946-1.983-6.12-2.89-9.52h-4.76l-2.891,9.52l-14.79,46.581H799.478z"/>
	<path fill="#FFFFFF" d="M941.087,238.761h16.83c4.08,0,6.12,2.098,6.12,6.29l4.93,111.01h-14.96l-4.25-104.89h-3.569l-26.181,86.53
		c-0.908,3.4-3.06,5.101-6.46,5.101h-13.43c-3.515,0-5.78-1.7-6.8-5.101l-26.181-86.53h-3.399l-4.08,104.89h-14.96l4.59-111.01
		c0.226-4.192,2.321-6.29,6.29-6.29h17c3.172,0,5.27,1.7,6.29,5.1l21.93,71.57c0.681,2.04,1.557,5.073,2.635,9.095
		c1.076,4.024,1.671,6.264,1.785,6.715h3.061c0.34-1.245,0.99-3.711,1.955-7.395c0.961-3.682,1.785-6.601,2.465-8.755l21.93-71.23
		C935.533,240.46,937.688,238.761,941.087,238.761z"/>
</g>
</svg>
